<svg width="57" height="34" viewBox="0 0 57 34" fill="none" xmlns="http://www.w3.org/2000/svg">
<g clip-path="url(#clip0_10547_35375)">
<path d="M15.996 12.1562C15.996 12.845 16.0691 13.4034 16.1972 13.813C16.3435 14.2225 16.5264 14.6693 16.7824 15.1533C16.8738 15.3023 16.9104 15.4512 16.9104 15.5815C16.9104 15.7677 16.8007 15.9538 16.5629 16.14L15.4108 16.9218C15.2462 17.0335 15.0816 17.0894 14.9353 17.0894C14.7524 17.0894 14.5695 16.9963 14.3866 16.8288C14.1306 16.5495 13.9111 16.2517 13.7282 15.9538C13.5453 15.6373 13.3625 15.2836 13.1613 14.8555C11.7348 16.5681 9.94251 17.4245 7.78447 17.4245C6.24824 17.4245 5.02292 16.9777 4.12678 16.0841C3.23065 15.1906 2.77344 13.9991 2.77344 12.5099C2.77344 10.9275 3.32209 9.64303 4.43769 8.675C5.55328 7.70697 7.03465 7.22296 8.91836 7.22296C9.54017 7.22296 10.1803 7.27881 10.8569 7.37189C11.5336 7.46497 12.2286 7.61389 12.9601 7.78144V6.42248C12.9601 5.00767 12.6675 4.02103 12.1006 3.44394C11.5153 2.86685 10.5277 2.58761 9.11953 2.58761C8.47944 2.58761 7.82105 2.66207 7.14438 2.82961C6.46771 2.99716 5.80932 3.20193 5.16923 3.46255C4.87661 3.59286 4.65715 3.66733 4.52913 3.70456C4.40111 3.74179 4.30967 3.76041 4.23651 3.76041C3.98048 3.76041 3.85246 3.57425 3.85246 3.18332V2.27114C3.85246 1.97328 3.88903 1.74989 3.98048 1.61958C4.07192 1.48927 4.23651 1.35896 4.49255 1.22865C5.13265 0.893562 5.90076 0.614324 6.7969 0.390933C7.69303 0.148927 8.64403 0.0372317 9.6499 0.0372317C11.8262 0.0372317 13.4173 0.53986 14.4415 1.54512C15.4473 2.55038 15.9594 4.07688 15.9594 6.12462V12.1562H15.996ZM8.57088 14.9858C9.1744 14.9858 9.79621 14.8741 10.4546 14.6507C11.113 14.4273 11.6982 14.0178 12.192 13.4593C12.4846 13.1056 12.7041 12.7146 12.8138 12.2679C12.9235 11.8211 12.9967 11.2812 12.9967 10.6483V9.86642C12.4663 9.7361 11.8994 9.62441 11.3141 9.54995C10.7289 9.47548 10.162 9.43825 9.59503 9.43825C8.36971 9.43825 7.47357 9.68026 6.87005 10.1829C6.26653 10.6855 5.97392 11.3929 5.97392 12.3237C5.97392 13.1987 6.19338 13.8502 6.65059 14.297C7.08951 14.7624 7.72961 14.9858 8.57088 14.9858ZM23.2565 16.9963C22.9273 16.9963 22.7079 16.9405 22.5616 16.8101C22.4152 16.6984 22.2872 16.4378 22.1775 16.0841L17.8797 1.69404C17.77 1.32173 17.7151 1.07972 17.7151 0.94941C17.7151 0.651556 17.8614 0.484013 18.154 0.484013H19.9463C20.2938 0.484013 20.5315 0.53986 20.6595 0.670172C20.8059 0.781867 20.9156 1.04249 21.0253 1.39619L24.0978 13.7199L26.9508 1.39619C27.0422 1.02387 27.1519 0.781867 27.2983 0.670172C27.4446 0.558476 27.7006 0.484013 28.0298 0.484013H29.4929C29.8404 0.484013 30.0781 0.53986 30.2244 0.670172C30.3707 0.781867 30.4987 1.04249 30.5719 1.39619L33.4615 13.8688L36.6254 1.39619C36.7351 1.02387 36.8631 0.781867 36.9911 0.670172C37.1374 0.558476 37.3752 0.484013 37.7044 0.484013H39.4052C39.6978 0.484013 39.8624 0.63294 39.8624 0.94941C39.8624 1.04249 39.8441 1.13557 39.8259 1.24726C39.8076 1.35896 39.771 1.50789 39.6978 1.71266L35.2903 16.1027C35.1806 16.4751 35.0526 16.7171 34.9063 16.8288C34.7599 16.9405 34.5222 17.0149 34.2113 17.0149H32.6385C32.291 17.0149 32.0533 16.9591 31.9069 16.8288C31.7606 16.6984 31.6326 16.4564 31.5595 16.0841L28.7248 4.07688L25.9083 16.0655C25.8169 16.4378 25.7072 16.6798 25.5609 16.8101C25.4145 16.9405 25.1585 16.9963 24.8293 16.9963H23.2565ZM46.7572 17.4989C45.8062 17.4989 44.8552 17.3872 43.9408 17.1638C43.0263 16.9405 42.3131 16.6984 41.8376 16.4192C41.545 16.2517 41.3438 16.0655 41.2706 15.898C41.1975 15.7304 41.1609 15.5443 41.1609 15.3767V14.4273C41.1609 14.0364 41.3072 13.8502 41.5815 13.8502C41.6913 13.8502 41.801 13.8688 41.9107 13.9061C42.0205 13.9433 42.1851 14.0178 42.3679 14.0922C42.9898 14.3715 43.6664 14.5949 44.3797 14.7438C45.1112 14.8927 45.8245 14.9672 46.556 14.9672C47.7082 14.9672 48.6043 14.7624 49.2261 14.3528C49.8479 13.9433 50.1771 13.3476 50.1771 12.5843C50.1771 12.0631 50.0125 11.6349 49.6833 11.2812C49.3541 10.9275 48.7323 10.6111 47.8362 10.3132L45.1844 9.47548C43.8493 9.04732 42.8617 8.41438 42.2582 7.57666C41.6547 6.75756 41.3438 5.84539 41.3438 4.87736C41.3438 4.09549 41.5084 3.40671 41.8376 2.811C42.1668 2.21529 42.6057 1.69405 43.1544 1.2845C43.703 0.85633 44.3248 0.53986 45.0564 0.31647C45.7879 0.0930794 46.556 0 47.3607 0C47.763 0 48.1837 0.0186159 48.586 0.0744635C49.0067 0.130311 49.3907 0.204775 49.7748 0.279238C50.1405 0.372318 50.488 0.465397 50.8172 0.577092C51.1464 0.688788 51.4024 0.800483 51.5853 0.912178C51.8414 1.06111 52.0243 1.21003 52.134 1.37758C52.2437 1.5265 52.2986 1.73128 52.2986 1.9919V2.86685C52.2986 3.25778 52.1523 3.46255 51.8779 3.46255C51.7316 3.46255 51.4939 3.38809 51.183 3.23916C50.1405 2.75515 48.9701 2.51314 47.6716 2.51314C46.6292 2.51314 45.8062 2.68069 45.2392 3.03439C44.6723 3.38809 44.3797 3.92795 44.3797 4.6912C44.3797 5.21245 44.5626 5.65923 44.9283 6.01293C45.2941 6.36663 45.9708 6.72033 46.9401 7.0368L49.537 7.87452C50.8538 8.30268 51.8048 8.89839 52.3717 9.66164C52.9387 10.4249 53.213 11.2998 53.213 12.2679C53.213 13.0683 53.0484 13.7944 52.7375 14.4273C52.4083 15.0602 51.9694 15.6187 51.4024 16.0655C50.8355 16.5309 50.1588 16.866 49.3724 17.108C48.5494 17.3686 47.6899 17.4989 46.7572 17.4989Z" fill="#3C4146"/>
<path fill-rule="evenodd" clip-rule="evenodd" d="M50.2129 26.5466C44.196 31.0703 35.4541 33.4717 27.9376 33.4717C17.4034 33.4717 7.91171 29.5065 0.742629 22.9165C0.175687 22.3953 0.687763 21.6879 1.36444 22.0974C9.11874 26.6769 18.6836 29.4507 28.5777 29.4507C35.253 29.4507 42.5866 28.0359 49.3351 25.1318C50.3409 24.6664 51.2005 25.802 50.2129 26.5466Z" fill="#FF9900"/>
<path fill-rule="evenodd" clip-rule="evenodd" d="M52.718 23.6424C51.9498 22.6371 47.6338 23.1584 45.6769 23.4004C45.0917 23.4749 45.0002 22.9536 45.5306 22.5627C48.9688 20.1054 54.62 20.8128 55.2783 21.6319C55.9367 22.4696 55.0955 28.2219 51.8767 30.9771C51.3829 31.4052 50.9074 31.1818 51.1269 30.6234C51.8584 28.7804 53.4861 24.629 52.718 23.6424Z" fill="#FF9900"/>
</g>
<defs>
<clipPath id="clip0_10547_35375">
<rect width="56.1137" height="33.4713" fill="white"/>
</clipPath>
</defs>
</svg>
