<svg width="40" height="24" viewBox="0 0 40 24" fill="none" xmlns="http://www.w3.org/2000/svg">
<g clip-path="url(#clip0_10783_10282)">
<path d="M11.3737 8.64372C11.3737 9.13348 11.4257 9.53059 11.5167 9.8218C11.6207 10.113 11.7508 10.4307 11.9328 10.7749C11.9979 10.8808 12.0239 10.9867 12.0239 11.0793C12.0239 11.2117 11.9458 11.3441 11.7768 11.4764L10.9575 12.0324C10.8405 12.1118 10.7234 12.1515 10.6194 12.1515C10.4894 12.1515 10.3593 12.0853 10.2293 11.9662C10.0472 11.7676 9.89119 11.5558 9.76115 11.3441C9.6311 11.119 9.50106 10.8675 9.35802 10.5631C8.3437 11.7809 7.06929 12.3898 5.53481 12.3898C4.44246 12.3898 3.57119 12.0721 2.93398 11.4367C2.29678 10.8013 1.97168 9.95417 1.97168 8.89522C1.97168 7.77008 2.3618 6.85673 3.15505 6.16841C3.94831 5.48009 5.00164 5.13593 6.34106 5.13593C6.7832 5.13593 7.23835 5.17564 7.7195 5.24183C8.20065 5.30801 8.69481 5.41391 9.21497 5.53304V4.56674C9.21497 3.56073 9.00691 2.85918 8.60378 2.44883C8.18765 2.03849 7.48542 1.83993 6.48411 1.83993C6.02896 1.83993 5.56082 1.89288 5.07966 2.01201C4.59851 2.13115 4.13036 2.27675 3.67522 2.46207C3.46715 2.55473 3.3111 2.60768 3.22007 2.63415C3.12905 2.66062 3.06403 2.67386 3.01201 2.67386C2.82995 2.67386 2.73892 2.54149 2.73892 2.26352V1.61491C2.73892 1.40311 2.76493 1.24427 2.82995 1.15161C2.89497 1.05895 3.01201 0.966296 3.19407 0.873637C3.64921 0.635373 4.19538 0.436819 4.83258 0.277976C5.46979 0.105895 6.146 0.0264739 6.86123 0.0264739C8.40872 0.0264739 9.54008 0.383871 10.2683 1.09867C10.9835 1.81346 11.3476 2.89889 11.3476 4.35495V8.64372H11.3737ZM6.09398 10.6557C6.52312 10.6557 6.96526 10.5763 7.43341 10.4175C7.90156 10.2586 8.31769 9.96741 8.6688 9.5703C8.87686 9.3188 9.03291 9.04082 9.11094 8.72314C9.18896 8.40545 9.24098 8.02158 9.24098 7.57152V7.01557C8.86386 6.92291 8.46073 6.84349 8.0446 6.79055C7.62847 6.7376 7.22534 6.71112 6.82222 6.71112C5.95094 6.71112 5.31374 6.8832 4.8846 7.2406C4.45547 7.598 4.2474 8.101 4.2474 8.76285C4.2474 9.38498 4.40345 9.84828 4.72855 10.166C5.04065 10.4969 5.49579 10.6557 6.09398 10.6557ZM16.5363 12.0853C16.3022 12.0853 16.1462 12.0456 16.0421 11.9529C15.9381 11.8735 15.8471 11.6882 15.769 11.4367L12.7131 1.20456C12.6351 0.939822 12.596 0.767742 12.596 0.675083C12.596 0.463293 12.7001 0.34416 12.9081 0.34416H14.1825C14.4296 0.34416 14.5987 0.383871 14.6897 0.47653C14.7937 0.555951 14.8718 0.741268 14.9498 0.99277L17.1345 9.75562L19.1631 0.99277C19.2281 0.728031 19.3062 0.555951 19.4102 0.47653C19.5142 0.397108 19.6963 0.34416 19.9304 0.34416H20.9707C21.2178 0.34416 21.3868 0.383871 21.4909 0.47653C21.5949 0.555951 21.6859 0.741268 21.7379 0.99277L23.7926 9.86151L26.0423 0.99277C26.1203 0.728031 26.2113 0.555951 26.3024 0.47653C26.4064 0.397108 26.5755 0.34416 26.8095 0.34416H28.0189C28.227 0.34416 28.344 0.450056 28.344 0.675083C28.344 0.741268 28.331 0.807453 28.318 0.886874C28.305 0.966296 28.279 1.07219 28.227 1.2178L25.093 11.4499C25.015 11.7147 24.9239 11.8868 24.8199 11.9662C24.7159 12.0456 24.5468 12.0986 24.3258 12.0986H23.2074C22.9603 12.0986 22.7913 12.0588 22.6872 11.9662C22.5832 11.8735 22.4922 11.7014 22.4402 11.4367L20.4245 2.89889L18.4219 11.4235C18.3569 11.6882 18.2788 11.8603 18.1748 11.9529C18.0708 12.0456 17.8887 12.0853 17.6546 12.0853H16.5363ZM33.2466 12.4427C32.5704 12.4427 31.8941 12.3633 31.2439 12.2045C30.5937 12.0456 30.0866 11.8735 29.7485 11.675C29.5404 11.5558 29.3974 11.4235 29.3453 11.3043C29.2933 11.1852 29.2673 11.0528 29.2673 10.9337V10.2586C29.2673 9.98065 29.3713 9.84828 29.5664 9.84828C29.6444 9.84828 29.7225 9.86151 29.8005 9.88799C29.8785 9.91446 29.9955 9.96741 30.1256 10.0204C30.5677 10.2189 31.0489 10.3778 31.556 10.4837C32.0762 10.5895 32.5834 10.6425 33.1035 10.6425C33.9228 10.6425 34.56 10.4969 35.0021 10.2057C35.4443 9.91446 35.6783 9.49088 35.6783 8.94816C35.6783 8.57753 35.5613 8.27308 35.3272 8.02158C35.0932 7.77008 34.651 7.54505 34.0138 7.33326L32.1282 6.7376C31.1789 6.43315 30.4767 5.98309 30.0476 5.38743C29.6184 4.80501 29.3974 4.1564 29.3974 3.46808C29.3974 2.91212 29.5144 2.42236 29.7485 1.99878C29.9825 1.57519 30.2946 1.20456 30.6848 0.913348C31.0749 0.608899 31.517 0.383871 32.0372 0.225028C32.5574 0.0661846 33.1035 0 33.6757 0C33.9618 0 34.2609 0.0132369 34.547 0.0529477C34.8461 0.0926585 35.1192 0.145606 35.3923 0.198554C35.6523 0.264739 35.8994 0.330923 36.1335 0.410345C36.3676 0.489766 36.5496 0.569188 36.6797 0.64861C36.8617 0.754505 36.9918 0.860401 37.0698 0.979533C37.1478 1.08543 37.1868 1.23103 37.1868 1.41635V2.03849C37.1868 2.31646 37.0828 2.46207 36.8877 2.46207C36.7837 2.46207 36.6146 2.40912 36.3936 2.30323C35.6523 1.95907 34.8201 1.78699 33.8968 1.78699C33.1555 1.78699 32.5704 1.90612 32.1672 2.15762C31.7641 2.40912 31.556 2.79299 31.556 3.33571C31.556 3.70634 31.6861 4.02403 31.9462 4.27553C32.2062 4.52703 32.6874 4.77853 33.3766 5.00356L35.2232 5.59922C36.1595 5.90367 36.8357 6.32725 37.2388 6.86997C37.642 7.41268 37.837 8.03482 37.837 8.72314C37.837 9.29233 37.72 9.80857 37.4989 10.2586C37.2648 10.7087 36.9527 11.1058 36.5496 11.4235C36.1465 11.7544 35.6653 11.9927 35.1062 12.1647C34.521 12.3501 33.9098 12.4427 33.2466 12.4427Z" fill="white"/>
<path fill-rule="evenodd" clip-rule="evenodd" d="M35.7048 18.8758C31.4265 22.0924 25.2105 23.8 19.8658 23.8C12.3754 23.8 5.6263 20.9805 0.528686 16.2946C0.125558 15.924 0.489673 15.421 0.970826 15.7122C6.48457 18.9685 13.2857 20.9408 20.321 20.9408C25.0675 20.9408 30.2821 19.9348 35.0806 17.8698C35.7959 17.5389 36.407 18.3464 35.7048 18.8758Z" fill="#FF9900"/>
<path fill-rule="evenodd" clip-rule="evenodd" d="M37.4864 16.811C36.9402 16.0962 33.8712 16.4668 32.4798 16.6389C32.0637 16.6918 31.9987 16.3212 32.3758 16.0432C34.8205 14.296 38.8388 14.799 39.307 15.3814C39.7751 15.977 39.1769 20.0673 36.8882 22.0263C36.5371 22.3308 36.199 22.1719 36.355 21.7748C36.8752 20.4644 38.0326 17.5125 37.4864 16.811Z" fill="#FF9900"/>
</g>
<defs>
<clipPath id="clip0_10783_10282">
<rect width="39.9" height="23.8" fill="white"/>
</clipPath>
</defs>
</svg>
