<svg width="16" height="16" viewBox="0 0 16 16" fill="none" xmlns="http://www.w3.org/2000/svg">
<path d="M15.2484 12.4831C15.2497 12.5884 15.1934 12.6857 15.1015 12.7371C13.8121 13.4581 12.3102 14.2512 10.947 14.9944C10.3322 15.3296 9.58791 15.3298 8.97809 14.9856C7.5107 14.1573 5.72805 13.1456 4.44341 12.4556C4.27633 12.3663 4.02302 12.3329 4.0284 12.0928C4.0284 11.8584 4.28711 11.8138 4.4488 11.7244C5.88786 10.9486 7.32153 10.1616 8.77137 9.4192C9.31034 9.14011 9.5421 8.78847 9.52593 8.13541C9.48281 6.3995 9.50976 4.65801 9.50976 2.87744C10.0757 2.9221 10.4637 3.27932 10.8949 3.51376C12.086 4.15565 13.261 4.82546 14.4521 5.47293C14.9911 5.76876 15.266 6.14832 15.2498 6.83487C15.2074 8.60498 15.2396 11.7233 15.2484 12.4831Z" fill="#59B557"/>
<path d="M8.91813 8.45468C8.91935 8.55999 8.86311 8.65728 8.77118 8.70869C7.4818 9.42966 5.97988 10.2227 4.61667 10.966C4.00185 11.3012 3.25249 11.3083 2.6581 10.9381C1.92571 10.4819 1.59215 10.2104 0.415094 9.5782C0.248012 9.4889 -0.00530512 9.45541 8.46084e-05 9.21539C8.46084e-05 8.98096 0.258792 8.93631 0.420484 8.847C1.85954 8.07114 3.29321 7.28412 4.74305 6.54176C5.28202 6.26267 5.51378 5.91103 5.49761 5.25797C5.45449 3.52206 5.48144 1.78056 5.48144 0C6.04736 0.0446536 6.43542 0.401883 6.8666 0.636314C8.05773 1.27821 6.9307 0.797023 8.12183 1.4445C8.66081 1.74033 8.93568 2.11989 8.91951 2.80644C8.87714 4.57655 8.90932 7.69483 8.91813 8.45468Z" fill="#8078B9"/>
</svg>
