<svg width="577" height="246" viewBox="0 0 577 246" fill="none" xmlns="http://www.w3.org/2000/svg">
<g opacity="0.02">
<path d="M659.218 -24.384L648.399 -27.6091L641.081 -21.8154L643.61 -10.5004L651.849 -8.18389L650.079 -16.1044L659.218 -24.384Z" fill="#ACD69F"/>
<path d="M653.271 -28.401L664.436 -24.9563L672.633 -32.1344L670.231 -42.8837L659.758 -45.8891L662.097 -35.4227L653.271 -28.401Z" fill="#ACD69F"/>
<path d="M677.122 -12.0501L672.633 -32.1344L654.01 -15.7948L658.435 4.00655L677.122 -12.0501Z" fill="#ECEFF3"/>
<path d="M641.081 -21.8154L636.782 -41.051L653.961 -55.8797L658.732 -35.8588L641.081 -21.8154Z" fill="#72B35F"/>
<path d="M504.046 10.2963L493.227 7.07121L485.909 12.8649L488.438 24.18L496.678 26.4965L494.908 18.5759L504.046 10.2963Z" fill="#ACD69F"/>
<path d="M498.099 6.27932L509.265 9.72408L517.461 2.54598L515.059 -8.20332L504.586 -11.2088L506.925 -0.74234L498.099 6.27932Z" fill="#ACD69F"/>
<path d="M521.95 22.6302L517.461 2.54598L498.838 18.8856L503.263 38.6869L521.95 22.6302Z" fill="#ECEFF3"/>
<path d="M485.909 12.8649L481.61 -6.37067L498.789 -21.1994L503.561 -1.17841L485.909 12.8649Z" fill="#72B35F"/>
<path d="M350.826 44.5404L340.007 41.3153L332.689 47.109L335.218 58.4241L343.458 60.7406L341.688 52.8201L350.826 44.5404Z" fill="#ACD69F"/>
<path d="M344.879 40.5235L356.045 43.9682L364.242 36.7901L361.839 26.0408L351.366 23.0354L353.705 33.5018L344.879 40.5235Z" fill="#ACD69F"/>
<path d="M368.73 56.8743L364.242 36.7901L345.618 53.1297L350.043 72.931L368.73 56.8743Z" fill="#ECEFF3"/>
<path d="M332.689 47.109L328.39 27.8735L345.569 13.0447L350.341 33.0657L332.689 47.109Z" fill="#72B35F"/>
<path d="M197.606 78.7846L186.787 75.5595L179.469 81.3532L181.998 92.6682L190.238 94.9847L188.468 87.0642L197.606 78.7846Z" fill="#ACD69F"/>
<path d="M191.66 74.7676L202.825 78.2124L211.022 71.0343L208.619 60.285L198.146 57.2795L200.485 67.7459L191.66 74.7676Z" fill="#ACD69F"/>
<path d="M215.51 91.1185L211.022 71.0343L192.398 87.3738L196.823 107.175L215.51 91.1185Z" fill="#ECEFF3"/>
<path d="M179.469 81.3532L175.17 62.1176L192.349 47.2889L197.121 67.3099L179.469 81.3532Z" fill="#72B35F"/>
<path d="M703.431 31.3135L692.612 28.0884L685.294 33.8821L687.823 45.1972L696.062 47.5137L694.292 39.5931L703.431 31.3135Z" fill="#ACD69F"/>
<path d="M697.484 27.2965L708.649 30.7413L716.846 23.5632L714.444 12.8139L703.971 9.80843L706.31 20.2749L697.484 27.2965Z" fill="#ACD69F"/>
<path d="M721.335 43.6474L716.846 23.5632L698.223 39.9028L702.648 59.7041L721.335 43.6474Z" fill="#ECEFF3"/>
<path d="M685.294 33.8821L680.995 14.6465L698.174 -0.182198L702.946 19.8388L685.294 33.8821Z" fill="#72B35F"/>
<path d="M548.259 65.9939L537.44 62.7688L530.122 68.5625L532.651 79.8775L540.891 82.194L539.121 74.2735L548.259 65.9939Z" fill="#ACD69F"/>
<path d="M542.312 61.9769L553.478 65.4216L561.674 58.2435L559.272 47.4942L548.799 44.4888L551.138 54.9552L542.312 61.9769Z" fill="#ACD69F"/>
<path d="M566.163 78.3278L561.674 58.2435L543.051 74.5831L547.476 94.3845L566.163 78.3278Z" fill="#ECEFF3"/>
<path d="M530.122 68.5625L525.823 49.3269L543.002 34.4982L547.774 54.5192L530.122 68.5625Z" fill="#72B35F"/>
<path d="M395.039 100.238L384.22 97.0129L376.902 102.807L379.431 114.122L387.671 116.438L385.901 108.518L395.039 100.238Z" fill="#ACD69F"/>
<path d="M389.093 96.221L400.258 99.6658L408.455 92.4877L406.052 81.7384L395.579 78.7329L397.918 89.1994L389.093 96.221Z" fill="#ACD69F"/>
<path d="M412.943 112.572L408.455 92.4877L389.831 108.827L394.256 128.629L412.943 112.572Z" fill="#ECEFF3"/>
<path d="M376.902 102.807L372.603 83.571L389.782 68.7423L394.554 88.7633L376.902 102.807Z" fill="#72B35F"/>
<path d="M241.82 134.482L231 131.257L223.682 137.051L226.211 148.366L234.451 150.682L232.681 142.762L241.82 134.482Z" fill="#ACD69F"/>
<path d="M235.873 130.465L247.038 133.91L255.235 126.732L252.832 115.983L242.359 112.977L244.699 123.443L235.873 130.465Z" fill="#ACD69F"/>
<path d="M259.723 146.816L255.235 126.732L236.611 143.071L241.037 162.873L259.723 146.816Z" fill="#ECEFF3"/>
<path d="M223.682 137.051L219.383 117.815L236.562 102.986L241.334 123.007L223.682 137.051Z" fill="#72B35F"/>
<path d="M191.819 148.482L181 145.257L173.682 151.051L176.211 162.366L184.451 164.682L182.681 156.762L191.819 148.482Z" fill="#ACD69F"/>
<path d="M185.873 144.465L197.038 147.91L205.235 140.732L202.832 129.982L192.359 126.977L194.698 137.443L185.873 144.465Z" fill="#ACD69F"/>
<path d="M209.723 160.816L205.235 140.732L186.611 157.071L191.036 176.873L209.723 160.816Z" fill="#ECEFF3"/>
<path d="M173.682 151.051L169.383 131.815L186.562 116.986L191.334 137.007L173.682 151.051Z" fill="#72B35F"/>
<path d="M141.82 92.482L131.001 89.2569L123.682 95.0506L126.211 106.366L134.451 108.682L132.681 100.762L141.82 92.482Z" fill="#ACD69F"/>
<path d="M135.873 88.465L147.038 91.9097L155.235 84.7316L152.832 73.9823L142.359 70.9769L144.699 81.4433L135.873 88.465Z" fill="#ACD69F"/>
<path d="M159.723 104.816L155.235 84.7316L136.611 101.071L141.037 120.873L159.723 104.816Z" fill="#ECEFF3"/>
<path d="M123.682 95.0506L119.383 75.815L136.562 60.9863L141.334 81.0072L123.682 95.0506Z" fill="#72B35F"/>
<path d="M91.8196 36.4819L81.0006 33.2568L73.6823 39.0505L76.2112 50.3655L84.4511 52.682L82.6809 44.7615L91.8196 36.4819Z" fill="#ACD69F"/>
<path d="M85.8727 32.4649L97.0379 35.9096L105.235 28.7316L102.832 17.9823L92.3594 14.9768L94.6986 25.4432L85.8727 32.4649Z" fill="#ACD69F"/>
<path d="M109.724 48.8158L105.235 28.7316L86.6112 45.0711L91.0367 64.8725L109.724 48.8158Z" fill="#ECEFF3"/>
<path d="M73.6823 39.0505L69.3832 19.8149L86.5625 4.98618L91.3341 25.0072L73.6823 39.0505Z" fill="#72B35F"/>
<path d="M-10.1807 139.481L-20.9997 136.256L-28.318 142.05L-25.7891 153.365L-17.5492 155.681L-19.3194 147.761L-10.1807 139.481Z" fill="#ACD69F"/>
<path d="M-16.1276 135.464L-4.96246 138.909L3.23447 131.731L0.832031 120.982L-9.64088 117.976L-7.30167 128.442L-16.1276 135.464Z" fill="#ACD69F"/>
<path d="M7.72324 151.815L3.23447 131.731L-15.3891 148.07L-10.9636 167.872L7.72324 151.815Z" fill="#ECEFF3"/>
<path d="M-28.318 142.05L-32.6171 122.814L-15.4378 107.985L-10.6662 128.006L-28.318 142.05Z" fill="#72B35F"/>
<path d="M141.819 162.482L131 159.257L123.682 165.051L126.211 176.366L134.451 178.682L132.681 170.762L141.819 162.482Z" fill="#ACD69F"/>
<path d="M135.873 158.465L147.038 161.91L155.235 154.732L152.832 143.982L142.359 140.977L144.698 151.443L135.873 158.465Z" fill="#ACD69F"/>
<path d="M159.723 174.816L155.235 154.732L136.611 171.071L141.037 190.873L159.723 174.816Z" fill="#ECEFF3"/>
<path d="M123.682 165.051L119.383 145.815L136.562 130.986L141.334 151.007L123.682 165.051Z" fill="#72B35F"/>
<path d="M91.8194 106.482L81.0004 103.257L73.6821 109.05L76.211 120.365L84.4509 122.682L82.6806 114.761L91.8194 106.482Z" fill="#ACD69F"/>
<path d="M85.8725 102.465L97.0376 105.91L105.235 98.7315L102.832 87.9822L92.3592 84.9768L94.6984 95.4432L85.8725 102.465Z" fill="#ACD69F"/>
<path d="M109.723 118.816L105.235 98.7315L86.6109 115.071L91.0365 134.872L109.723 118.816Z" fill="#ECEFF3"/>
<path d="M73.6821 109.05L69.383 89.8149L86.5623 74.9861L91.3339 95.0071L73.6821 109.05Z" fill="#72B35F"/>
<path d="M41.8195 50.4818L31.0005 47.2566L23.6822 53.0504L26.2111 64.3654L34.451 66.6819L32.6808 58.7614L41.8195 50.4818Z" fill="#ACD69F"/>
<path d="M35.8727 46.4648L47.0378 49.9095L55.2347 42.7314L52.8322 31.9821L42.3593 28.9767L44.6985 39.4431L35.8727 46.4648Z" fill="#ACD69F"/>
<path d="M59.7234 62.8156L55.2347 42.7314L36.6111 59.071L41.0366 78.8723L59.7234 62.8156Z" fill="#ECEFF3"/>
<path d="M23.6822 53.0504L19.3831 33.8148L36.5624 18.986L41.334 39.007L23.6822 53.0504Z" fill="#72B35F"/>
<path d="M-60.1808 153.481L-70.9998 150.256L-78.3181 156.05L-75.7892 167.365L-67.5493 169.681L-69.3195 161.761L-60.1808 153.481Z" fill="#ACD69F"/>
<path d="M-66.1277 149.464L-54.9626 152.909L-46.7656 145.731L-49.1681 134.981L-59.641 131.976L-57.3018 142.442L-66.1277 149.464Z" fill="#ACD69F"/>
<path d="M-42.2769 165.815L-46.7656 145.731L-65.3893 162.07L-60.9637 181.872L-42.2769 165.815Z" fill="#ECEFF3"/>
<path d="M-78.3181 156.05L-82.6172 136.814L-65.4379 121.985L-60.6663 142.006L-78.3181 156.05Z" fill="#72B35F"/>
<path d="M91.8195 176.482L81.0005 173.257L73.6822 179.05L76.2111 190.366L84.4509 192.682L82.6807 184.761L91.8195 176.482Z" fill="#ACD69F"/>
<path d="M85.8726 172.465L97.0377 175.91L105.235 168.732L102.832 157.982L92.3593 154.977L94.6985 165.443L85.8726 172.465Z" fill="#ACD69F"/>
<path d="M109.723 188.816L105.235 168.732L86.611 185.071L91.0365 204.872L109.723 188.816Z" fill="#ECEFF3"/>
<path d="M73.6822 179.05L69.3831 159.815L86.5623 144.986L91.334 165.007L73.6822 179.05Z" fill="#72B35F"/>
<path d="M41.8194 120.482L31.0004 117.257L23.6821 123.05L26.211 134.365L34.4509 136.682L32.6807 128.761L41.8194 120.482Z" fill="#ACD69F"/>
<path d="M35.8725 116.465L47.0376 119.909L55.2346 112.731L52.8321 101.982L42.3592 98.9766L44.6984 109.443L35.8725 116.465Z" fill="#ACD69F"/>
<path d="M59.7233 132.816L55.2346 112.731L36.6109 129.071L41.0365 148.872L59.7233 132.816Z" fill="#ECEFF3"/>
<path d="M23.6821 123.05L19.383 103.815L36.5623 88.986L41.3339 109.007L23.6821 123.05Z" fill="#72B35F"/>
<path d="M-8.18049 64.4816L-18.9995 61.2565L-26.3178 67.0502L-23.7889 78.3653L-15.549 80.6818L-17.3193 72.7612L-8.18049 64.4816Z" fill="#ACD69F"/>
<path d="M-14.1274 60.4646L-2.96228 63.9094L5.23465 56.7313L2.83221 45.982L-7.6407 42.9766L-5.30149 53.443L-14.1274 60.4646Z" fill="#ACD69F"/>
<path d="M9.7234 76.8155L5.23465 56.7313L-13.389 73.0709L-8.96343 92.8722L9.7234 76.8155Z" fill="#ECEFF3"/>
<path d="M-26.3178 67.0502L-30.6169 47.8147L-13.4376 32.9859L-8.66601 53.0069L-26.3178 67.0502Z" fill="#72B35F"/>
<path d="M-110.181 167.481L-121 164.256L-128.318 170.049L-125.789 181.365L-117.549 183.681L-119.32 175.761L-110.181 167.481Z" fill="#ACD69F"/>
<path d="M-116.128 163.464L-104.963 166.909L-96.7657 159.731L-99.1681 148.981L-109.641 145.976L-107.302 156.442L-116.128 163.464Z" fill="#ACD69F"/>
<path d="M-92.2769 179.815L-96.7657 159.731L-115.389 176.07L-110.964 195.871L-92.2769 179.815Z" fill="#ECEFF3"/>
<path d="M-128.318 170.049L-132.617 150.814L-115.438 135.985L-110.666 156.006L-128.318 170.049Z" fill="#72B35F"/>
<path d="M747.644 87.011L736.825 83.7859L729.507 89.5796L732.036 100.895L740.276 103.211L738.505 95.2906L747.644 87.011Z" fill="#ACD69F"/>
<path d="M741.697 82.994L752.862 86.4388L761.059 79.2607L758.657 68.5114L748.184 65.5059L750.523 75.9724L741.697 82.994Z" fill="#ACD69F"/>
<path d="M765.548 99.3449L761.059 79.2607L742.436 95.6002L746.861 115.402L765.548 99.3449Z" fill="#ECEFF3"/>
<path d="M729.507 89.5796L725.208 70.344L742.387 55.5153L747.159 75.5363L729.507 89.5796Z" fill="#72B35F"/>
<path d="M592.472 121.691L581.653 118.466L574.335 124.26L576.864 135.575L585.104 137.892L583.333 129.971L592.472 121.691Z" fill="#ACD69F"/>
<path d="M586.525 117.674L597.69 121.119L605.887 113.941L603.485 103.192L593.012 100.186L595.351 110.653L586.525 117.674Z" fill="#ACD69F"/>
<path d="M610.376 134.025L605.887 113.941L587.264 130.281L591.689 150.082L610.376 134.025Z" fill="#ECEFF3"/>
<path d="M574.335 124.26L570.036 105.024L587.215 90.1957L591.987 110.217L574.335 124.26Z" fill="#72B35F"/>
<path d="M439.252 155.936L428.433 152.71L421.115 158.504L423.644 169.819L431.884 172.136L430.114 164.215L439.252 155.936Z" fill="#ACD69F"/>
<path d="M433.306 151.919L444.471 155.363L452.668 148.185L450.265 137.436L439.792 134.43L442.131 144.897L433.306 151.919Z" fill="#ACD69F"/>
<path d="M457.156 168.269L452.668 148.185L434.044 164.525L438.469 184.326L457.156 168.269Z" fill="#ECEFF3"/>
<path d="M421.115 158.504L416.816 139.269L433.995 124.44L438.767 144.461L421.115 158.504Z" fill="#72B35F"/>
<path d="M286.033 190.18L275.214 186.955L267.895 192.748L270.424 204.063L278.664 206.38L276.894 198.459L286.033 190.18Z" fill="#ACD69F"/>
<path d="M280.086 186.163L291.251 189.607L299.448 182.429L297.045 171.68L286.572 168.675L288.911 179.141L280.086 186.163Z" fill="#ACD69F"/>
<path d="M303.936 202.514L299.448 182.429L280.824 198.769L285.25 218.57L303.936 202.514Z" fill="#ECEFF3"/>
<path d="M267.895 192.748L263.596 173.513L280.775 158.684L285.547 178.705L267.895 192.748Z" fill="#72B35F"/>
<path d="M791.857 142.708L781.038 139.483L773.72 145.277L776.249 156.592L784.489 158.909L782.718 150.988L791.857 142.708Z" fill="#ACD69F"/>
<path d="M785.91 138.691L797.075 142.136L805.272 134.958L802.87 124.209L792.397 121.203L794.736 131.67L785.91 138.691Z" fill="#ACD69F"/>
<path d="M809.761 155.042L805.272 134.958L786.649 151.298L791.074 171.099L809.761 155.042Z" fill="#ECEFF3"/>
<path d="M773.72 145.277L769.421 126.041L786.6 111.213L791.372 131.234L773.72 145.277Z" fill="#72B35F"/>
<path d="M636.685 177.389L625.866 174.164L618.548 179.957L621.077 191.272L629.317 193.589L627.546 185.668L636.685 177.389Z" fill="#ACD69F"/>
<path d="M630.738 173.372L641.903 176.817L650.1 169.638L647.698 158.889L637.225 155.884L639.564 166.35L630.738 173.372Z" fill="#ACD69F"/>
<path d="M654.589 189.723L650.1 169.638L631.477 185.978L635.902 205.779L654.589 189.723Z" fill="#ECEFF3"/>
<path d="M618.548 179.957L614.249 160.722L631.428 145.893L636.2 165.914L618.548 179.957Z" fill="#72B35F"/>
<path d="M483.465 211.633L472.646 208.408L465.328 214.202L467.857 225.517L476.097 227.833L474.327 219.913L483.465 211.633Z" fill="#ACD69F"/>
<path d="M477.518 207.616L488.684 211.061L496.881 203.883L494.478 193.133L484.005 190.128L486.344 200.594L477.518 207.616Z" fill="#ACD69F"/>
<path d="M501.369 223.967L496.881 203.883L478.257 220.222L482.682 240.023L501.369 223.967Z" fill="#ECEFF3"/>
<path d="M465.328 214.202L461.029 194.966L478.208 180.137L482.98 200.158L465.328 214.202Z" fill="#72B35F"/>
<path d="M330.245 245.877L319.426 242.652L312.108 248.446L314.637 259.761L322.877 262.077L321.107 254.157L330.245 245.877Z" fill="#ACD69F"/>
<path d="M324.299 241.86L335.464 245.305L343.661 238.127L341.258 227.377L330.785 224.372L333.124 234.838L324.299 241.86Z" fill="#ACD69F"/>
<path d="M348.149 258.211L343.661 238.127L325.037 254.466L329.463 274.268L348.149 258.211Z" fill="#ECEFF3"/>
<path d="M312.108 248.446L307.809 229.21L324.988 214.381L329.76 234.402L312.108 248.446Z" fill="#72B35F"/>
<path d="M762.666 -47.5043L751.847 -50.7294L744.529 -44.9357L747.057 -33.6206L755.297 -31.3041L753.527 -39.2247L762.666 -47.5043Z" fill="#ACD69F"/>
<path d="M756.719 -51.5213L767.884 -48.0765L776.081 -55.2546L773.679 -66.0039L763.206 -69.0094L765.545 -58.5429L756.719 -51.5213Z" fill="#ACD69F"/>
<path d="M780.57 -35.1704L776.081 -55.2546L757.457 -38.9151L761.883 -19.1137L780.57 -35.1704Z" fill="#ECEFF3"/>
<path d="M744.529 -44.9357L740.229 -64.1713L757.409 -79L762.18 -58.979L744.529 -44.9357Z" fill="#72B35F"/>
<path d="M607.494 -12.8239L596.675 -16.049L589.357 -10.2553L591.886 1.05973L600.125 3.37623L598.355 -4.5443L607.494 -12.8239Z" fill="#ACD69F"/>
<path d="M601.547 -16.8409L612.712 -13.3961L620.909 -20.5742L618.507 -31.3235L608.034 -34.329L610.373 -23.8626L601.547 -16.8409Z" fill="#ACD69F"/>
<path d="M625.398 -0.490028L620.909 -20.5742L602.286 -4.23467L606.711 15.5667L625.398 -0.490028Z" fill="#ECEFF3"/>
<path d="M589.357 -10.2553L585.058 -29.4909L602.237 -44.3196L607.009 -24.2986L589.357 -10.2553Z" fill="#72B35F"/>
<path d="M454.274 21.4202L443.455 18.1951L436.137 23.9888L438.666 35.3039L446.906 37.6204L445.135 29.6998L454.274 21.4202Z" fill="#ACD69F"/>
<path d="M448.327 17.4032L459.492 20.848L467.689 13.6699L465.287 2.92059L454.814 -0.0848618L457.153 10.3816L448.327 17.4032Z" fill="#ACD69F"/>
<path d="M472.178 33.7541L467.689 13.6699L449.066 30.0095L453.491 49.8108L472.178 33.7541Z" fill="#ECEFF3"/>
<path d="M436.137 23.9888L431.838 4.75324L449.017 -10.0755L453.789 9.9455L436.137 23.9888Z" fill="#72B35F"/>
<path d="M301.054 55.6643L290.235 52.4392L282.917 58.2329L285.446 69.548L293.686 71.8645L291.916 63.944L301.054 55.6643Z" fill="#ACD69F"/>
<path d="M295.107 51.6474L306.272 55.0921L314.469 47.914L312.067 37.1647L301.594 34.1593L303.933 44.6257L295.107 51.6474Z" fill="#ACD69F"/>
<path d="M318.958 67.9982L314.469 47.914L295.846 64.2536L300.271 84.0549L318.958 67.9982Z" fill="#ECEFF3"/>
<path d="M282.917 58.2329L278.618 38.9974L295.797 24.1686L300.569 44.1896L282.917 58.2329Z" fill="#72B35F"/>
<path d="M806.879 8.19327L796.06 4.96816L788.742 10.7619L791.27 22.0769L799.51 24.3934L797.74 16.4729L806.879 8.19327Z" fill="#ACD69F"/>
<path d="M800.932 4.17628L812.097 7.62103L820.294 0.44294L817.892 -10.3064L807.419 -13.3118L809.758 -2.84538L800.932 4.17628Z" fill="#ACD69F"/>
<path d="M824.783 20.5272L820.294 0.44294L801.67 16.7825L806.096 36.5839L824.783 20.5272Z" fill="#ECEFF3"/>
<path d="M788.742 10.7619L784.443 -8.47371L801.622 -23.3024L806.393 -3.28145L788.742 10.7619Z" fill="#72B35F"/>
<path d="M651.707 42.8736L640.888 39.6485L633.57 45.4422L636.099 56.7573L644.339 59.0738L642.568 51.1533L651.707 42.8736Z" fill="#ACD69F"/>
<path d="M645.76 38.8567L656.925 42.3014L665.122 35.1233L662.72 24.374L652.247 21.3686L654.586 31.835L645.76 38.8567Z" fill="#ACD69F"/>
<path d="M669.611 55.2075L665.122 35.1233L646.499 51.4629L650.924 71.2642L669.611 55.2075Z" fill="#ECEFF3"/>
<path d="M633.57 45.4422L629.271 26.2067L646.45 11.3779L651.222 31.3989L633.57 45.4422Z" fill="#72B35F"/>
<path d="M498.487 77.1178L487.668 73.8927L480.35 79.6864L482.879 91.0014L491.119 93.3179L489.348 85.3974L498.487 77.1178Z" fill="#ACD69F"/>
<path d="M492.54 73.1008L503.705 76.5455L511.902 69.3674L509.5 58.6181L499.027 55.6127L501.366 66.0791L492.54 73.1008Z" fill="#ACD69F"/>
<path d="M516.391 89.4517L511.902 69.3674L493.279 85.707L497.704 105.508L516.391 89.4517Z" fill="#ECEFF3"/>
<path d="M480.35 79.6864L476.051 60.4508L493.23 45.6221L498.002 65.6431L480.35 79.6864Z" fill="#72B35F"/>
<path d="M345.267 111.362L334.448 108.137L327.13 113.93L329.659 125.246L337.899 127.562L336.129 119.642L345.267 111.362Z" fill="#ACD69F"/>
<path d="M339.32 107.345L350.486 110.79L358.682 103.612L356.28 92.8623L345.807 89.8568L348.146 100.323L339.32 107.345Z" fill="#ACD69F"/>
<path d="M363.171 123.696L358.682 103.612L340.059 119.951L344.484 139.752L363.171 123.696Z" fill="#ECEFF3"/>
<path d="M327.13 113.93L322.831 94.6949L340.01 79.8662L344.782 99.8872L327.13 113.93Z" fill="#72B35F"/>
<path d="M851.092 63.8908L840.273 60.6656L832.955 66.4594L835.483 77.7744L843.723 80.0909L841.953 72.1704L851.092 63.8908Z" fill="#ACD69F"/>
<path d="M845.145 59.8738L856.31 63.3185L864.507 56.1404L862.105 45.3911L851.632 42.3857L853.971 52.8521L845.145 59.8738Z" fill="#ACD69F"/>
<path d="M868.996 76.2246L864.507 56.1404L845.883 72.48L850.309 92.2813L868.996 76.2246Z" fill="#ECEFF3"/>
<path d="M832.955 66.4594L828.656 47.2238L845.835 32.3951L850.606 52.416L832.955 66.4594Z" fill="#72B35F"/>
<path d="M695.92 98.5711L685.101 95.346L677.783 101.14L680.312 112.455L688.552 114.771L686.781 106.851L695.92 98.5711Z" fill="#ACD69F"/>
<path d="M689.973 94.5541L701.138 97.9989L709.335 90.8208L706.933 80.0715L696.46 77.0661L698.799 87.5325L689.973 94.5541Z" fill="#ACD69F"/>
<path d="M713.824 110.905L709.335 90.8208L690.712 107.16L695.137 126.962L713.824 110.905Z" fill="#ECEFF3"/>
<path d="M677.783 101.14L673.484 81.9042L690.663 67.0754L695.435 87.0964L677.783 101.14Z" fill="#72B35F"/>
<path d="M542.7 132.815L531.881 129.59L524.563 135.384L527.092 146.699L535.332 149.015L533.561 141.095L542.7 132.815Z" fill="#ACD69F"/>
<path d="M536.753 128.798L547.918 132.243L556.115 125.065L553.713 114.316L543.24 111.31L545.579 121.777L536.753 128.798Z" fill="#ACD69F"/>
<path d="M560.604 145.149L556.115 125.065L537.492 141.404L541.917 161.206L560.604 145.149Z" fill="#ECEFF3"/>
<path d="M524.563 135.384L520.264 116.148L537.443 101.32L542.215 121.341L524.563 135.384Z" fill="#72B35F"/>
<path d="M389.48 167.059L378.661 163.834L371.343 169.628L373.872 180.943L382.112 183.26L380.342 175.339L389.48 167.059Z" fill="#ACD69F"/>
<path d="M383.533 163.042L394.699 166.487L402.895 159.309L400.493 148.56L390.02 145.554L392.359 156.021L383.533 163.042Z" fill="#ACD69F"/>
<path d="M407.384 179.393L402.895 159.309L384.272 175.649L388.697 195.45L407.384 179.393Z" fill="#ECEFF3"/>
<path d="M371.343 169.628L367.044 150.392L384.223 135.564L388.995 155.585L371.343 169.628Z" fill="#72B35F"/>
<path d="M895.305 119.588L884.486 116.363L877.168 122.157L879.696 133.472L887.936 135.788L886.166 127.868L895.305 119.588Z" fill="#ACD69F"/>
<path d="M889.358 115.571L900.523 119.016L908.72 111.838L906.318 101.089L895.845 98.0831L898.184 108.549L889.358 115.571Z" fill="#ACD69F"/>
<path d="M913.209 131.922L908.72 111.838L890.096 128.177L894.522 147.979L913.209 131.922Z" fill="#ECEFF3"/>
<path d="M877.168 122.157L872.868 102.921L890.048 88.0925L894.819 108.113L877.168 122.157Z" fill="#72B35F"/>
<path d="M740.133 154.269L729.314 151.043L721.996 156.837L724.525 168.152L732.765 170.469L730.994 162.548L740.133 154.269Z" fill="#ACD69F"/>
<path d="M734.186 150.252L745.351 153.696L753.548 146.518L751.146 135.769L740.673 132.763L743.012 143.23L734.186 150.252Z" fill="#ACD69F"/>
<path d="M758.037 166.602L753.548 146.518L734.925 162.858L739.35 182.659L758.037 166.602Z" fill="#ECEFF3"/>
<path d="M721.996 156.837L717.697 137.602L734.876 122.773L739.648 142.794L721.996 156.837Z" fill="#72B35F"/>
<path d="M586.913 188.513L576.094 185.288L568.776 191.081L571.305 202.396L579.545 204.713L577.774 196.792L586.913 188.513Z" fill="#ACD69F"/>
<path d="M580.966 184.496L592.131 187.94L600.328 180.762L597.926 170.013L587.453 167.008L589.792 177.474L580.966 184.496Z" fill="#ACD69F"/>
<path d="M604.817 200.847L600.328 180.762L581.705 197.102L586.13 216.903L604.817 200.847Z" fill="#ECEFF3"/>
<path d="M568.776 191.081L564.477 171.846L581.656 157.017L586.428 177.038L568.776 191.081Z" fill="#72B35F"/>
<path d="M433.693 222.757L422.874 219.532L415.556 225.325L418.085 236.64L426.325 238.957L424.555 231.036L433.693 222.757Z" fill="#ACD69F"/>
<path d="M427.746 218.74L438.911 222.185L447.108 215.006L444.706 204.257L434.233 201.252L436.572 211.718L427.746 218.74Z" fill="#ACD69F"/>
<path d="M451.597 235.091L447.108 215.006L428.485 231.346L432.91 251.147L451.597 235.091Z" fill="#ECEFF3"/>
<path d="M415.556 225.325L411.257 206.09L428.436 191.261L433.208 211.282L415.556 225.325Z" fill="#72B35F"/>
<path d="M710.942 -35.9442L700.123 -39.1693L692.805 -33.3756L695.333 -22.0605L703.573 -19.744L701.803 -27.6646L710.942 -35.9442Z" fill="#ACD69F"/>
<path d="M704.995 -39.9612L716.16 -36.5164L724.357 -43.6945L721.955 -54.4438L711.482 -57.4492L713.821 -46.9828L704.995 -39.9612Z" fill="#ACD69F"/>
<path d="M728.846 -23.6103L724.357 -43.6945L705.733 -27.3549L710.159 -7.55359L728.846 -23.6103Z" fill="#ECEFF3"/>
<path d="M692.805 -33.3756L688.506 -52.6111L705.685 -67.4399L710.456 -47.4189L692.805 -33.3756Z" fill="#72B35F"/>
<path d="M555.77 -1.26379L544.951 -4.4889L537.633 1.3048L540.162 12.6199L548.402 14.9364L546.631 7.01582L555.77 -1.26379Z" fill="#ACD69F"/>
<path d="M549.823 -5.28079L560.988 -1.83603L569.185 -9.01412L566.783 -19.7634L556.31 -22.7689L558.649 -12.3025L549.823 -5.28079Z" fill="#ACD69F"/>
<path d="M573.674 11.0701L569.185 -9.01412L550.562 7.32545L554.987 27.1268L573.674 11.0701Z" fill="#ECEFF3"/>
<path d="M537.633 1.3048L533.334 -17.9308L550.513 -32.7595L555.285 -12.7385L537.633 1.3048Z" fill="#72B35F"/>
<path d="M402.55 32.9803L391.731 29.7552L384.413 35.5489L386.942 46.864L395.182 49.1805L393.412 41.2599L402.55 32.9803Z" fill="#ACD69F"/>
<path d="M396.603 28.9633L407.768 32.4081L415.965 25.23L413.563 14.4807L403.09 11.4753L405.429 21.9417L396.603 28.9633Z" fill="#ACD69F"/>
<path d="M420.454 45.3142L415.965 25.23L397.342 41.5696L401.767 61.3709L420.454 45.3142Z" fill="#ECEFF3"/>
<path d="M384.413 35.5489L380.114 16.3133L397.293 1.48462L402.065 21.5056L384.413 35.5489Z" fill="#72B35F"/>
<path d="M249.33 67.2245L238.511 63.9994L231.193 69.7931L233.722 81.1081L241.962 83.4246L240.192 75.5041L249.33 67.2245Z" fill="#ACD69F"/>
<path d="M243.384 63.2075L254.549 66.6522L262.746 59.4741L260.343 48.7248L249.87 45.7194L252.209 56.1858L243.384 63.2075Z" fill="#ACD69F"/>
<path d="M267.234 79.5583L262.746 59.4741L244.122 75.8137L248.547 95.615L267.234 79.5583Z" fill="#ECEFF3"/>
<path d="M231.193 69.7931L226.894 50.5575L244.073 35.7288L248.845 55.7497L231.193 69.7931Z" fill="#72B35F"/>
<path d="M755.155 19.7534L744.336 16.5283L737.018 22.322L739.547 33.637L747.786 35.9535L746.016 28.033L755.155 19.7534Z" fill="#ACD69F"/>
<path d="M749.208 15.7364L760.373 19.1812L768.57 12.0031L766.168 1.25376L755.695 -1.75169L758.034 8.71474L749.208 15.7364Z" fill="#ACD69F"/>
<path d="M773.059 32.0873L768.57 12.0031L749.946 28.3426L754.372 48.144L773.059 32.0873Z" fill="#ECEFF3"/>
<path d="M737.018 22.322L732.719 3.08642L749.898 -11.7423L754.669 8.27867L737.018 22.322Z" fill="#72B35F"/>
<path d="M599.983 54.4338L589.164 51.2087L581.846 57.0024L584.375 68.3174L592.615 70.6339L590.844 62.7134L599.983 54.4338Z" fill="#ACD69F"/>
<path d="M594.036 50.4168L605.201 53.8615L613.398 46.6834L610.996 35.9341L600.523 32.9287L602.862 43.3951L594.036 50.4168Z" fill="#ACD69F"/>
<path d="M617.887 66.7677L613.398 46.6834L594.775 63.023L599.2 82.8244L617.887 66.7677Z" fill="#ECEFF3"/>
<path d="M581.846 57.0024L577.547 37.7668L594.726 22.9381L599.498 42.9591L581.846 57.0024Z" fill="#72B35F"/>
<path d="M446.763 88.6779L435.944 85.4528L428.626 91.2465L431.155 102.562L439.395 104.878L437.625 96.9575L446.763 88.6779Z" fill="#ACD69F"/>
<path d="M440.816 84.6609L451.981 88.1057L460.178 80.9276L457.776 70.1783L447.303 67.1728L449.642 77.6393L440.816 84.6609Z" fill="#ACD69F"/>
<path d="M464.667 101.012L460.178 80.9276L441.555 97.2671L445.98 117.068L464.667 101.012Z" fill="#ECEFF3"/>
<path d="M428.626 91.2465L424.327 72.0109L441.506 57.1822L446.278 77.2032L428.626 91.2465Z" fill="#72B35F"/>
<path d="M293.543 122.922L282.724 119.697L275.406 125.491L277.935 136.806L286.175 139.122L284.405 131.202L293.543 122.922Z" fill="#ACD69F"/>
<path d="M287.597 118.905L298.762 122.35L306.959 115.172L304.556 104.422L294.083 101.417L296.422 111.883L287.597 118.905Z" fill="#ACD69F"/>
<path d="M311.447 135.256L306.959 115.172L288.335 131.511L292.76 151.313L311.447 135.256Z" fill="#ECEFF3"/>
<path d="M275.406 125.491L271.107 106.255L288.286 91.4263L293.058 111.447L275.406 125.491Z" fill="#72B35F"/>
<path d="M799.368 75.4509L788.549 72.2258L781.231 78.0195L783.76 89.3345L791.999 91.651L790.229 83.7305L799.368 75.4509Z" fill="#ACD69F"/>
<path d="M793.421 71.4339L804.586 74.8786L812.783 67.7005L810.381 56.9512L799.908 53.9458L802.247 64.4122L793.421 71.4339Z" fill="#ACD69F"/>
<path d="M817.272 87.7848L812.783 67.7005L794.159 84.0401L798.585 103.841L817.272 87.7848Z" fill="#ECEFF3"/>
<path d="M781.231 78.0195L776.932 58.7839L794.111 43.9552L798.882 63.9762L781.231 78.0195Z" fill="#72B35F"/>
<path d="M644.196 110.131L633.377 106.906L626.059 112.7L628.588 124.015L636.828 126.331L635.057 118.411L644.196 110.131Z" fill="#ACD69F"/>
<path d="M638.249 106.114L649.414 109.559L657.611 102.381L655.209 91.6316L644.736 88.6262L647.075 99.0926L638.249 106.114Z" fill="#ACD69F"/>
<path d="M662.1 122.465L657.611 102.381L638.988 118.721L643.413 138.522L662.1 122.465Z" fill="#ECEFF3"/>
<path d="M626.059 112.7L621.76 93.4643L638.939 78.6355L643.711 98.6565L626.059 112.7Z" fill="#72B35F"/>
<path d="M490.976 144.375L480.157 141.15L472.839 146.944L475.368 158.259L483.608 160.576L481.838 152.655L490.976 144.375Z" fill="#ACD69F"/>
<path d="M485.029 140.358L496.194 143.803L504.391 136.625L501.989 125.876L491.516 122.87L493.855 133.337L485.029 140.358Z" fill="#ACD69F"/>
<path d="M508.88 156.709L504.391 136.625L485.768 152.965L490.193 172.766L508.88 156.709Z" fill="#ECEFF3"/>
<path d="M472.839 146.944L468.54 127.708L485.719 112.88L490.491 132.901L472.839 146.944Z" fill="#72B35F"/>
<path d="M337.756 178.62L326.937 175.394L319.619 181.188L322.148 192.503L330.388 194.82L328.618 186.899L337.756 178.62Z" fill="#ACD69F"/>
<path d="M331.81 174.603L342.975 178.047L351.172 170.869L348.769 160.12L338.296 157.114L340.635 167.581L331.81 174.603Z" fill="#ACD69F"/>
<path d="M355.66 190.953L351.172 170.869L332.548 187.209L336.973 207.01L355.66 190.953Z" fill="#ECEFF3"/>
<path d="M319.619 181.188L315.32 161.953L332.499 147.124L337.271 167.145L319.619 181.188Z" fill="#72B35F"/>
<path d="M843.581 131.148L832.762 127.923L825.444 133.717L827.973 145.032L836.212 147.348L834.442 139.428L843.581 131.148Z" fill="#ACD69F"/>
<path d="M837.634 127.131L848.799 130.576L856.996 123.398L854.594 112.649L844.121 109.643L846.46 120.11L837.634 127.131Z" fill="#ACD69F"/>
<path d="M861.485 143.482L856.996 123.398L838.372 139.738L842.798 159.539L861.485 143.482Z" fill="#ECEFF3"/>
<path d="M825.444 133.717L821.145 114.481L838.324 99.6526L843.095 119.674L825.444 133.717Z" fill="#72B35F"/>
<path d="M688.409 165.829L677.59 162.604L670.272 168.397L672.801 179.712L681.041 182.029L679.27 174.108L688.409 165.829Z" fill="#ACD69F"/>
<path d="M682.462 161.812L693.627 165.256L701.824 158.078L699.422 147.329L688.949 144.324L691.288 154.79L682.462 161.812Z" fill="#ACD69F"/>
<path d="M706.313 178.163L701.824 158.078L683.201 174.418L687.626 194.219L706.313 178.163Z" fill="#ECEFF3"/>
<path d="M670.272 168.397L665.973 149.162L683.152 134.333L687.924 154.354L670.272 168.397Z" fill="#72B35F"/>
<path d="M535.189 200.073L524.37 196.848L517.052 202.641L519.581 213.956L527.821 216.273L526.051 208.352L535.189 200.073Z" fill="#ACD69F"/>
<path d="M529.242 196.056L540.408 199.501L548.604 192.322L546.202 181.573L535.729 178.568L538.068 189.034L529.242 196.056Z" fill="#ACD69F"/>
<path d="M553.093 212.407L548.604 192.322L529.981 208.662L534.406 228.463L553.093 212.407Z" fill="#ECEFF3"/>
<path d="M517.052 202.641L512.753 183.406L529.932 168.577L534.704 188.598L517.052 202.641Z" fill="#72B35F"/>
<path d="M381.969 234.317L371.15 231.092L363.832 236.885L366.361 248.201L374.601 250.517L372.831 242.597L381.969 234.317Z" fill="#ACD69F"/>
<path d="M376.023 230.3L387.188 233.745L395.385 226.567L392.982 215.817L382.509 212.812L384.848 223.278L376.023 230.3Z" fill="#ACD69F"/>
<path d="M399.873 246.651L395.385 226.567L376.761 242.906L381.186 262.707L399.873 246.651Z" fill="#ECEFF3"/>
<path d="M363.832 236.885L359.533 217.65L376.712 202.821L381.484 222.842L363.832 236.885Z" fill="#72B35F"/>
<path d="M641.081 -21.8154L648.399 -27.6091L659.218 -24.384L650.079 -16.1044L651.849 -8.18389L643.61 -10.5004L641.081 -21.8154ZM641.081 -21.8154L636.782 -41.051L653.961 -55.8797L658.732 -35.8588L641.081 -21.8154ZM672.633 -32.1344L664.436 -24.9563L653.271 -28.401L662.097 -35.4227L659.758 -45.8891L670.231 -42.8837L672.633 -32.1344ZM672.633 -32.1344L677.122 -12.0501L658.435 4.00655L654.01 -15.7948L672.633 -32.1344ZM485.909 12.8649L493.227 7.07121L504.046 10.2963L494.908 18.5759L496.678 26.4965L488.438 24.18L485.909 12.8649ZM485.909 12.8649L481.61 -6.37067L498.789 -21.1994L503.561 -1.17841L485.909 12.8649ZM517.461 2.54598L509.265 9.72408L498.099 6.27932L506.925 -0.74234L504.586 -11.2088L515.059 -8.20332L517.461 2.54598ZM517.461 2.54598L521.95 22.6302L503.263 38.6869L498.838 18.8856L517.461 2.54598ZM332.689 47.109L340.007 41.3153L350.826 44.5404L341.688 52.8201L343.458 60.7406L335.218 58.4241L332.689 47.109ZM332.689 47.109L328.39 27.8735L345.569 13.0447L350.341 33.0657L332.689 47.109ZM364.242 36.7901L356.045 43.9682L344.879 40.5235L353.705 33.5018L351.366 23.0354L361.839 26.0408L364.242 36.7901ZM364.242 36.7901L368.73 56.8743L350.043 72.931L345.618 53.1297L364.242 36.7901ZM179.469 81.3532L186.787 75.5595L197.606 78.7846L188.468 87.0642L190.238 94.9847L181.998 92.6682L179.469 81.3532ZM179.469 81.3532L175.17 62.1176L192.349 47.2889L197.121 67.3099L179.469 81.3532ZM211.022 71.0343L202.825 78.2124L191.66 74.7676L200.485 67.7459L198.146 57.2795L208.619 60.285L211.022 71.0343ZM211.022 71.0343L215.51 91.1185L196.823 107.175L192.398 87.3738L211.022 71.0343ZM685.294 33.8821L692.612 28.0884L703.431 31.3135L694.292 39.5931L696.062 47.5137L687.823 45.1972L685.294 33.8821ZM685.294 33.8821L680.995 14.6465L698.174 -0.182198L702.946 19.8388L685.294 33.8821ZM716.846 23.5632L708.649 30.7413L697.484 27.2965L706.31 20.2749L703.971 9.80843L714.444 12.8139L716.846 23.5632ZM716.846 23.5632L721.335 43.6474L702.648 59.7041L698.223 39.9028L716.846 23.5632ZM530.122 68.5625L537.44 62.7688L548.259 65.9939L539.121 74.2735L540.891 82.194L532.651 79.8775L530.122 68.5625ZM530.122 68.5625L525.823 49.3269L543.002 34.4982L547.774 54.5192L530.122 68.5625ZM561.674 58.2435L553.478 65.4216L542.312 61.9769L551.138 54.9552L548.799 44.4888L559.272 47.4942L561.674 58.2435ZM561.674 58.2435L566.163 78.3278L547.476 94.3845L543.051 74.5831L561.674 58.2435ZM376.902 102.807L384.22 97.0129L395.039 100.238L385.901 108.518L387.671 116.438L379.431 114.122L376.902 102.807ZM376.902 102.807L372.603 83.571L389.782 68.7423L394.554 88.7633L376.902 102.807ZM408.455 92.4877L400.258 99.6658L389.093 96.221L397.918 89.1994L395.579 78.7329L406.052 81.7384L408.455 92.4877ZM408.455 92.4877L412.943 112.572L394.256 128.629L389.831 108.827L408.455 92.4877ZM223.682 137.051L231 131.257L241.82 134.482L232.681 142.762L234.451 150.682L226.211 148.366L223.682 137.051ZM223.682 137.051L219.383 117.815L236.562 102.986L241.334 123.007L223.682 137.051ZM255.235 126.732L247.038 133.91L235.873 130.465L244.699 123.443L242.359 112.977L252.832 115.983L255.235 126.732ZM255.235 126.732L259.723 146.816L241.037 162.873L236.611 143.071L255.235 126.732ZM173.682 151.051L181 145.257L191.819 148.482L182.681 156.762L184.451 164.682L176.211 162.366L173.682 151.051ZM173.682 151.051L169.383 131.815L186.562 116.986L191.334 137.007L173.682 151.051ZM205.235 140.732L197.038 147.91L185.873 144.465L194.698 137.443L192.359 126.977L202.832 129.982L205.235 140.732ZM205.235 140.732L209.723 160.816L191.036 176.873L186.611 157.071L205.235 140.732ZM123.682 95.0506L131.001 89.2569L141.82 92.482L132.681 100.762L134.451 108.682L126.211 106.366L123.682 95.0506ZM123.682 95.0506L119.383 75.815L136.562 60.9863L141.334 81.0072L123.682 95.0506ZM155.235 84.7316L147.038 91.9097L135.873 88.465L144.699 81.4433L142.359 70.9769L152.832 73.9823L155.235 84.7316ZM155.235 84.7316L159.723 104.816L141.037 120.873L136.611 101.071L155.235 84.7316ZM73.6823 39.0505L81.0006 33.2568L91.8196 36.4819L82.6809 44.7615L84.4511 52.682L76.2112 50.3655L73.6823 39.0505ZM73.6823 39.0505L69.3832 19.8149L86.5625 4.98618L91.3341 25.0072L73.6823 39.0505ZM105.235 28.7316L97.0379 35.9096L85.8727 32.4649L94.6986 25.4432L92.3594 14.9768L102.832 17.9823L105.235 28.7316ZM105.235 28.7316L109.724 48.8158L91.0367 64.8725L86.6112 45.0711L105.235 28.7316ZM-28.318 142.05L-20.9997 136.256L-10.1807 139.481L-19.3194 147.761L-17.5492 155.681L-25.7891 153.365L-28.318 142.05ZM-28.318 142.05L-32.6171 122.814L-15.4378 107.985L-10.6662 128.006L-28.318 142.05ZM3.23447 131.731L-4.96246 138.909L-16.1276 135.464L-7.30167 128.442L-9.64088 117.976L0.832031 120.982L3.23447 131.731ZM3.23447 131.731L7.72324 151.815L-10.9636 167.872L-15.3891 148.07L3.23447 131.731ZM123.682 165.051L131 159.257L141.819 162.482L132.681 170.762L134.451 178.682L126.211 176.366L123.682 165.051ZM123.682 165.051L119.383 145.815L136.562 130.986L141.334 151.007L123.682 165.051ZM155.235 154.732L147.038 161.91L135.873 158.465L144.698 151.443L142.359 140.977L152.832 143.982L155.235 154.732ZM155.235 154.732L159.723 174.816L141.037 190.873L136.611 171.071L155.235 154.732ZM73.6821 109.05L81.0004 103.257L91.8194 106.482L82.6806 114.761L84.4509 122.682L76.211 120.365L73.6821 109.05ZM73.6821 109.05L69.383 89.8149L86.5623 74.9861L91.3339 95.0071L73.6821 109.05ZM105.235 98.7315L97.0376 105.91L85.8725 102.465L94.6984 95.4432L92.3592 84.9768L102.832 87.9822L105.235 98.7315ZM105.235 98.7315L109.723 118.816L91.0365 134.872L86.6109 115.071L105.235 98.7315ZM23.6822 53.0504L31.0005 47.2566L41.8195 50.4818L32.6808 58.7614L34.451 66.6819L26.2111 64.3654L23.6822 53.0504ZM23.6822 53.0504L19.3831 33.8148L36.5624 18.986L41.334 39.007L23.6822 53.0504ZM55.2347 42.7314L47.0378 49.9095L35.8727 46.4648L44.6985 39.4431L42.3593 28.9767L52.8322 31.9821L55.2347 42.7314ZM55.2347 42.7314L59.7234 62.8156L41.0366 78.8723L36.6111 59.071L55.2347 42.7314ZM-78.3181 156.05L-70.9998 150.256L-60.1808 153.481L-69.3195 161.761L-67.5493 169.681L-75.7892 167.365L-78.3181 156.05ZM-78.3181 156.05L-82.6172 136.814L-65.4379 121.985L-60.6663 142.006L-78.3181 156.05ZM-46.7656 145.731L-54.9626 152.909L-66.1277 149.464L-57.3018 142.442L-59.641 131.976L-49.1681 134.981L-46.7656 145.731ZM-46.7656 145.731L-42.2769 165.815L-60.9637 181.872L-65.3893 162.07L-46.7656 145.731ZM73.6822 179.05L81.0005 173.257L91.8195 176.482L82.6807 184.761L84.4509 192.682L76.2111 190.366L73.6822 179.05ZM73.6822 179.05L69.3831 159.815L86.5623 144.986L91.334 165.007L73.6822 179.05ZM105.235 168.732L97.0377 175.91L85.8726 172.465L94.6985 165.443L92.3593 154.977L102.832 157.982L105.235 168.732ZM105.235 168.732L109.723 188.816L91.0365 204.872L86.611 185.071L105.235 168.732ZM23.6821 123.05L31.0004 117.257L41.8194 120.482L32.6807 128.761L34.4509 136.682L26.211 134.365L23.6821 123.05ZM23.6821 123.05L19.383 103.815L36.5623 88.986L41.3339 109.007L23.6821 123.05ZM55.2346 112.731L47.0376 119.909L35.8725 116.465L44.6984 109.443L42.3592 98.9766L52.8321 101.982L55.2346 112.731ZM55.2346 112.731L59.7233 132.816L41.0365 148.872L36.6109 129.071L55.2346 112.731ZM-26.3178 67.0502L-18.9995 61.2565L-8.18049 64.4816L-17.3193 72.7612L-15.549 80.6818L-23.7889 78.3653L-26.3178 67.0502ZM-26.3178 67.0502L-30.6169 47.8147L-13.4376 32.9859L-8.66601 53.0069L-26.3178 67.0502ZM5.23465 56.7313L-2.96228 63.9094L-14.1274 60.4646L-5.30149 53.443L-7.6407 42.9766L2.83221 45.982L5.23465 56.7313ZM5.23465 56.7313L9.7234 76.8155L-8.96343 92.8722L-13.389 73.0709L5.23465 56.7313ZM-128.318 170.049L-121 164.256L-110.181 167.481L-119.32 175.761L-117.549 183.681L-125.789 181.365L-128.318 170.049ZM-128.318 170.049L-132.617 150.814L-115.438 135.985L-110.666 156.006L-128.318 170.049ZM-96.7657 159.731L-104.963 166.909L-116.128 163.464L-107.302 156.442L-109.641 145.976L-99.1681 148.981L-96.7657 159.731ZM-96.7657 159.731L-92.2769 179.815L-110.964 195.871L-115.389 176.07L-96.7657 159.731ZM729.507 89.5796L736.825 83.7859L747.644 87.011L738.505 95.2906L740.276 103.211L732.036 100.895L729.507 89.5796ZM729.507 89.5796L725.208 70.344L742.387 55.5153L747.159 75.5363L729.507 89.5796ZM761.059 79.2607L752.862 86.4388L741.697 82.994L750.523 75.9724L748.184 65.5059L758.657 68.5114L761.059 79.2607ZM761.059 79.2607L765.548 99.3449L746.861 115.402L742.436 95.6002L761.059 79.2607ZM574.335 124.26L581.653 118.466L592.472 121.691L583.333 129.971L585.104 137.892L576.864 135.575L574.335 124.26ZM574.335 124.26L570.036 105.024L587.215 90.1957L591.987 110.217L574.335 124.26ZM605.887 113.941L597.69 121.119L586.525 117.674L595.351 110.653L593.012 100.186L603.485 103.192L605.887 113.941ZM605.887 113.941L610.376 134.025L591.689 150.082L587.264 130.281L605.887 113.941ZM421.115 158.504L428.433 152.71L439.252 155.936L430.114 164.215L431.884 172.136L423.644 169.819L421.115 158.504ZM421.115 158.504L416.816 139.269L433.995 124.44L438.767 144.461L421.115 158.504ZM452.668 148.185L444.471 155.363L433.306 151.919L442.131 144.897L439.792 134.43L450.265 137.436L452.668 148.185ZM452.668 148.185L457.156 168.269L438.469 184.326L434.044 164.525L452.668 148.185ZM267.895 192.748L275.214 186.955L286.033 190.18L276.894 198.459L278.664 206.38L270.424 204.063L267.895 192.748ZM267.895 192.748L263.596 173.513L280.775 158.684L285.547 178.705L267.895 192.748ZM299.448 182.429L291.251 189.607L280.086 186.163L288.911 179.141L286.572 168.675L297.045 171.68L299.448 182.429ZM299.448 182.429L303.936 202.514L285.25 218.57L280.824 198.769L299.448 182.429ZM773.72 145.277L781.038 139.483L791.857 142.708L782.718 150.988L784.489 158.909L776.249 156.592L773.72 145.277ZM773.72 145.277L769.421 126.041L786.6 111.213L791.372 131.234L773.72 145.277ZM805.272 134.958L797.075 142.136L785.91 138.691L794.736 131.67L792.397 121.203L802.87 124.209L805.272 134.958ZM805.272 134.958L809.761 155.042L791.074 171.099L786.649 151.298L805.272 134.958ZM618.548 179.957L625.866 174.164L636.685 177.389L627.546 185.668L629.317 193.589L621.077 191.272L618.548 179.957ZM618.548 179.957L614.249 160.722L631.428 145.893L636.2 165.914L618.548 179.957ZM650.1 169.638L641.903 176.817L630.738 173.372L639.564 166.35L637.225 155.884L647.698 158.889L650.1 169.638ZM650.1 169.638L654.589 189.723L635.902 205.779L631.477 185.978L650.1 169.638ZM465.328 214.202L472.646 208.408L483.465 211.633L474.327 219.913L476.097 227.833L467.857 225.517L465.328 214.202ZM465.328 214.202L461.029 194.966L478.208 180.137L482.98 200.158L465.328 214.202ZM496.881 203.883L488.684 211.061L477.518 207.616L486.344 200.594L484.005 190.128L494.478 193.133L496.881 203.883ZM496.881 203.883L501.369 223.967L482.682 240.023L478.257 220.222L496.881 203.883ZM312.108 248.446L319.426 242.652L330.245 245.877L321.107 254.157L322.877 262.077L314.637 259.761L312.108 248.446ZM312.108 248.446L307.809 229.21L324.988 214.381L329.76 234.402L312.108 248.446ZM343.661 238.127L335.464 245.305L324.299 241.86L333.124 234.838L330.785 224.372L341.258 227.377L343.661 238.127ZM343.661 238.127L348.149 258.211L329.463 274.268L325.037 254.466L343.661 238.127ZM744.529 -44.9357L751.847 -50.7294L762.666 -47.5043L753.527 -39.2247L755.297 -31.3041L747.057 -33.6206L744.529 -44.9357ZM744.529 -44.9357L740.229 -64.1713L757.409 -79L762.18 -58.979L744.529 -44.9357ZM776.081 -55.2546L767.884 -48.0765L756.719 -51.5213L765.545 -58.5429L763.206 -69.0094L773.679 -66.0039L776.081 -55.2546ZM776.081 -55.2546L780.57 -35.1704L761.883 -19.1137L757.457 -38.9151L776.081 -55.2546ZM589.357 -10.2553L596.675 -16.049L607.494 -12.8239L598.355 -4.5443L600.125 3.37623L591.886 1.05973L589.357 -10.2553ZM589.357 -10.2553L585.058 -29.4909L602.237 -44.3196L607.009 -24.2986L589.357 -10.2553ZM620.909 -20.5742L612.712 -13.3961L601.547 -16.8409L610.373 -23.8626L608.034 -34.329L618.507 -31.3235L620.909 -20.5742ZM620.909 -20.5742L625.398 -0.490028L606.711 15.5667L602.286 -4.23467L620.909 -20.5742ZM436.137 23.9888L443.455 18.1951L454.274 21.4202L445.135 29.6998L446.906 37.6204L438.666 35.3039L436.137 23.9888ZM436.137 23.9888L431.838 4.75324L449.017 -10.0755L453.789 9.9455L436.137 23.9888ZM467.689 13.6699L459.492 20.848L448.327 17.4032L457.153 10.3816L454.814 -0.0848618L465.287 2.92059L467.689 13.6699ZM467.689 13.6699L472.178 33.7541L453.491 49.8108L449.066 30.0095L467.689 13.6699ZM282.917 58.2329L290.235 52.4392L301.054 55.6643L291.916 63.944L293.686 71.8645L285.446 69.548L282.917 58.2329ZM282.917 58.2329L278.618 38.9974L295.797 24.1686L300.569 44.1896L282.917 58.2329ZM314.469 47.914L306.272 55.0921L295.107 51.6474L303.933 44.6257L301.594 34.1593L312.067 37.1647L314.469 47.914ZM314.469 47.914L318.958 67.9982L300.271 84.0549L295.846 64.2536L314.469 47.914ZM788.742 10.7619L796.06 4.96816L806.879 8.19327L797.74 16.4729L799.51 24.3934L791.27 22.0769L788.742 10.7619ZM788.742 10.7619L784.443 -8.47371L801.622 -23.3024L806.393 -3.28145L788.742 10.7619ZM820.294 0.44294L812.097 7.62103L800.932 4.17628L809.758 -2.84538L807.419 -13.3118L817.892 -10.3064L820.294 0.44294ZM820.294 0.44294L824.783 20.5272L806.096 36.5839L801.67 16.7825L820.294 0.44294ZM633.57 45.4422L640.888 39.6485L651.707 42.8736L642.568 51.1533L644.339 59.0738L636.099 56.7573L633.57 45.4422ZM633.57 45.4422L629.271 26.2067L646.45 11.3779L651.222 31.3989L633.57 45.4422ZM665.122 35.1233L656.925 42.3014L645.76 38.8567L654.586 31.835L652.247 21.3686L662.72 24.374L665.122 35.1233ZM665.122 35.1233L669.611 55.2075L650.924 71.2642L646.499 51.4629L665.122 35.1233ZM480.35 79.6864L487.668 73.8927L498.487 77.1178L489.348 85.3974L491.119 93.3179L482.879 91.0014L480.35 79.6864ZM480.35 79.6864L476.051 60.4508L493.23 45.6221L498.002 65.6431L480.35 79.6864ZM511.902 69.3674L503.705 76.5455L492.54 73.1008L501.366 66.0791L499.027 55.6127L509.5 58.6181L511.902 69.3674ZM511.902 69.3674L516.391 89.4517L497.704 105.508L493.279 85.707L511.902 69.3674ZM327.13 113.93L334.448 108.137L345.267 111.362L336.129 119.642L337.899 127.562L329.659 125.246L327.13 113.93ZM327.13 113.93L322.831 94.6949L340.01 79.8662L344.782 99.8872L327.13 113.93ZM358.682 103.612L350.486 110.79L339.32 107.345L348.146 100.323L345.807 89.8568L356.28 92.8623L358.682 103.612ZM358.682 103.612L363.171 123.696L344.484 139.752L340.059 119.951L358.682 103.612ZM832.955 66.4594L840.273 60.6656L851.092 63.8908L841.953 72.1704L843.723 80.0909L835.483 77.7744L832.955 66.4594ZM832.955 66.4594L828.656 47.2238L845.835 32.3951L850.606 52.416L832.955 66.4594ZM864.507 56.1404L856.31 63.3185L845.145 59.8738L853.971 52.8521L851.632 42.3857L862.105 45.3911L864.507 56.1404ZM864.507 56.1404L868.996 76.2246L850.309 92.2813L845.883 72.48L864.507 56.1404ZM677.783 101.14L685.101 95.346L695.92 98.5711L686.781 106.851L688.552 114.771L680.312 112.455L677.783 101.14ZM677.783 101.14L673.484 81.9042L690.663 67.0754L695.435 87.0964L677.783 101.14ZM709.335 90.8208L701.138 97.9989L689.973 94.5541L698.799 87.5325L696.46 77.0661L706.933 80.0715L709.335 90.8208ZM709.335 90.8208L713.824 110.905L695.137 126.962L690.712 107.16L709.335 90.8208ZM524.563 135.384L531.881 129.59L542.7 132.815L533.561 141.095L535.332 149.015L527.092 146.699L524.563 135.384ZM524.563 135.384L520.264 116.148L537.443 101.32L542.215 121.341L524.563 135.384ZM556.115 125.065L547.918 132.243L536.753 128.798L545.579 121.777L543.24 111.31L553.713 114.316L556.115 125.065ZM556.115 125.065L560.604 145.149L541.917 161.206L537.492 141.404L556.115 125.065ZM371.343 169.628L378.661 163.834L389.48 167.059L380.342 175.339L382.112 183.26L373.872 180.943L371.343 169.628ZM371.343 169.628L367.044 150.392L384.223 135.564L388.995 155.585L371.343 169.628ZM402.895 159.309L394.699 166.487L383.533 163.042L392.359 156.021L390.02 145.554L400.493 148.56L402.895 159.309ZM402.895 159.309L407.384 179.393L388.697 195.45L384.272 175.649L402.895 159.309ZM877.168 122.157L884.486 116.363L895.305 119.588L886.166 127.868L887.936 135.788L879.696 133.472L877.168 122.157ZM877.168 122.157L872.868 102.921L890.048 88.0925L894.819 108.113L877.168 122.157ZM908.72 111.838L900.523 119.016L889.358 115.571L898.184 108.549L895.845 98.0831L906.318 101.089L908.72 111.838ZM908.72 111.838L913.209 131.922L894.522 147.979L890.096 128.177L908.72 111.838ZM721.996 156.837L729.314 151.043L740.133 154.269L730.994 162.548L732.765 170.469L724.525 168.152L721.996 156.837ZM721.996 156.837L717.697 137.602L734.876 122.773L739.648 142.794L721.996 156.837ZM753.548 146.518L745.351 153.696L734.186 150.252L743.012 143.23L740.673 132.763L751.146 135.769L753.548 146.518ZM753.548 146.518L758.037 166.602L739.35 182.659L734.925 162.858L753.548 146.518ZM568.776 191.081L576.094 185.288L586.913 188.513L577.774 196.792L579.545 204.713L571.305 202.396L568.776 191.081ZM568.776 191.081L564.477 171.846L581.656 157.017L586.428 177.038L568.776 191.081ZM600.328 180.762L592.131 187.94L580.966 184.496L589.792 177.474L587.453 167.008L597.926 170.013L600.328 180.762ZM600.328 180.762L604.817 200.847L586.13 216.903L581.705 197.102L600.328 180.762ZM415.556 225.325L422.874 219.532L433.693 222.757L424.555 231.036L426.325 238.957L418.085 236.64L415.556 225.325ZM415.556 225.325L411.257 206.09L428.436 191.261L433.208 211.282L415.556 225.325ZM447.108 215.006L438.911 222.185L427.746 218.74L436.572 211.718L434.233 201.252L444.706 204.257L447.108 215.006ZM447.108 215.006L451.597 235.091L432.91 251.147L428.485 231.346L447.108 215.006ZM692.805 -33.3756L700.123 -39.1693L710.942 -35.9442L701.803 -27.6646L703.573 -19.744L695.333 -22.0605L692.805 -33.3756ZM692.805 -33.3756L688.506 -52.6111L705.685 -67.4399L710.456 -47.4189L692.805 -33.3756ZM724.357 -43.6945L716.16 -36.5164L704.995 -39.9612L713.821 -46.9828L711.482 -57.4492L721.955 -54.4438L724.357 -43.6945ZM724.357 -43.6945L728.846 -23.6103L710.159 -7.55359L705.733 -27.3549L724.357 -43.6945ZM537.633 1.3048L544.951 -4.4889L555.77 -1.26379L546.631 7.01582L548.402 14.9364L540.162 12.6199L537.633 1.3048ZM537.633 1.3048L533.334 -17.9308L550.513 -32.7595L555.285 -12.7385L537.633 1.3048ZM569.185 -9.01412L560.988 -1.83603L549.823 -5.28079L558.649 -12.3025L556.31 -22.7689L566.783 -19.7634L569.185 -9.01412ZM569.185 -9.01412L573.674 11.0701L554.987 27.1268L550.562 7.32545L569.185 -9.01412ZM384.413 35.5489L391.731 29.7552L402.55 32.9803L393.412 41.2599L395.182 49.1805L386.942 46.864L384.413 35.5489ZM384.413 35.5489L380.114 16.3133L397.293 1.48462L402.065 21.5056L384.413 35.5489ZM415.965 25.23L407.768 32.4081L396.603 28.9633L405.429 21.9417L403.09 11.4753L413.563 14.4807L415.965 25.23ZM415.965 25.23L420.454 45.3142L401.767 61.3709L397.342 41.5696L415.965 25.23ZM231.193 69.7931L238.511 63.9994L249.33 67.2245L240.192 75.5041L241.962 83.4246L233.722 81.1081L231.193 69.7931ZM231.193 69.7931L226.894 50.5575L244.073 35.7288L248.845 55.7497L231.193 69.7931ZM262.746 59.4741L254.549 66.6522L243.384 63.2075L252.209 56.1858L249.87 45.7194L260.343 48.7248L262.746 59.4741ZM262.746 59.4741L267.234 79.5583L248.547 95.615L244.122 75.8137L262.746 59.4741ZM737.018 22.322L744.336 16.5283L755.155 19.7534L746.016 28.033L747.786 35.9535L739.547 33.637L737.018 22.322ZM737.018 22.322L732.719 3.08642L749.898 -11.7423L754.669 8.27867L737.018 22.322ZM768.57 12.0031L760.373 19.1812L749.208 15.7364L758.034 8.71474L755.695 -1.75169L766.168 1.25376L768.57 12.0031ZM768.57 12.0031L773.059 32.0873L754.372 48.144L749.946 28.3426L768.57 12.0031ZM581.846 57.0024L589.164 51.2087L599.983 54.4338L590.844 62.7134L592.615 70.6339L584.375 68.3174L581.846 57.0024ZM581.846 57.0024L577.547 37.7668L594.726 22.9381L599.498 42.9591L581.846 57.0024ZM613.398 46.6834L605.201 53.8615L594.036 50.4168L602.862 43.3951L600.523 32.9287L610.996 35.9341L613.398 46.6834ZM613.398 46.6834L617.887 66.7677L599.2 82.8244L594.775 63.023L613.398 46.6834ZM428.626 91.2465L435.944 85.4528L446.763 88.6779L437.625 96.9575L439.395 104.878L431.155 102.562L428.626 91.2465ZM428.626 91.2465L424.327 72.0109L441.506 57.1822L446.278 77.2032L428.626 91.2465ZM460.178 80.9276L451.981 88.1057L440.816 84.6609L449.642 77.6393L447.303 67.1728L457.776 70.1783L460.178 80.9276ZM460.178 80.9276L464.667 101.012L445.98 117.068L441.555 97.2671L460.178 80.9276ZM275.406 125.491L282.724 119.697L293.543 122.922L284.405 131.202L286.175 139.122L277.935 136.806L275.406 125.491ZM275.406 125.491L271.107 106.255L288.286 91.4263L293.058 111.447L275.406 125.491ZM306.959 115.172L298.762 122.35L287.597 118.905L296.422 111.883L294.083 101.417L304.556 104.422L306.959 115.172ZM306.959 115.172L311.447 135.256L292.76 151.313L288.335 131.511L306.959 115.172ZM781.231 78.0195L788.549 72.2258L799.368 75.4509L790.229 83.7305L791.999 91.651L783.76 89.3345L781.231 78.0195ZM781.231 78.0195L776.932 58.7839L794.111 43.9552L798.882 63.9762L781.231 78.0195ZM812.783 67.7005L804.586 74.8786L793.421 71.4339L802.247 64.4122L799.908 53.9458L810.381 56.9512L812.783 67.7005ZM812.783 67.7005L817.272 87.7848L798.585 103.841L794.159 84.0401L812.783 67.7005ZM626.059 112.7L633.377 106.906L644.196 110.131L635.057 118.411L636.828 126.331L628.588 124.015L626.059 112.7ZM626.059 112.7L621.76 93.4643L638.939 78.6355L643.711 98.6565L626.059 112.7ZM657.611 102.381L649.414 109.559L638.249 106.114L647.075 99.0926L644.736 88.6262L655.209 91.6316L657.611 102.381ZM657.611 102.381L662.1 122.465L643.413 138.522L638.988 118.721L657.611 102.381ZM472.839 146.944L480.157 141.15L490.976 144.375L481.838 152.655L483.608 160.576L475.368 158.259L472.839 146.944ZM472.839 146.944L468.54 127.708L485.719 112.88L490.491 132.901L472.839 146.944ZM504.391 136.625L496.194 143.803L485.029 140.358L493.855 133.337L491.516 122.87L501.989 125.876L504.391 136.625ZM504.391 136.625L508.88 156.709L490.193 172.766L485.768 152.965L504.391 136.625ZM319.619 181.188L326.937 175.394L337.756 178.62L328.618 186.899L330.388 194.82L322.148 192.503L319.619 181.188ZM319.619 181.188L315.32 161.953L332.499 147.124L337.271 167.145L319.619 181.188ZM351.172 170.869L342.975 178.047L331.81 174.603L340.635 167.581L338.296 157.114L348.769 160.12L351.172 170.869ZM351.172 170.869L355.66 190.953L336.973 207.01L332.548 187.209L351.172 170.869ZM825.444 133.717L832.762 127.923L843.581 131.148L834.442 139.428L836.212 147.348L827.973 145.032L825.444 133.717ZM825.444 133.717L821.145 114.481L838.324 99.6526L843.095 119.674L825.444 133.717ZM856.996 123.398L848.799 130.576L837.634 127.131L846.46 120.11L844.121 109.643L854.594 112.649L856.996 123.398ZM856.996 123.398L861.485 143.482L842.798 159.539L838.372 139.738L856.996 123.398ZM670.272 168.397L677.59 162.604L688.409 165.829L679.27 174.108L681.041 182.029L672.801 179.712L670.272 168.397ZM670.272 168.397L665.973 149.162L683.152 134.333L687.924 154.354L670.272 168.397ZM701.824 158.078L693.627 165.256L682.462 161.812L691.288 154.79L688.949 144.324L699.422 147.329L701.824 158.078ZM701.824 158.078L706.313 178.163L687.626 194.219L683.201 174.418L701.824 158.078ZM517.052 202.641L524.37 196.848L535.189 200.073L526.051 208.352L527.821 216.273L519.581 213.956L517.052 202.641ZM517.052 202.641L512.753 183.406L529.932 168.577L534.704 188.598L517.052 202.641ZM548.604 192.322L540.408 199.501L529.242 196.056L538.068 189.034L535.729 178.568L546.202 181.573L548.604 192.322ZM548.604 192.322L553.093 212.407L534.406 228.463L529.981 208.662L548.604 192.322ZM363.832 236.885L371.15 231.092L381.969 234.317L372.831 242.597L374.601 250.517L366.361 248.201L363.832 236.885ZM363.832 236.885L359.533 217.65L376.712 202.821L381.484 222.842L363.832 236.885ZM395.385 226.567L387.188 233.745L376.023 230.3L384.848 223.278L382.509 212.812L392.982 215.817L395.385 226.567ZM395.385 226.567L399.873 246.651L381.186 262.707L376.761 242.906L395.385 226.567Z" stroke="black"/>
</g>
</svg>
