<svg width="40" height="40" viewBox="0 0 40 40" fill="none" xmlns="http://www.w3.org/2000/svg">
<path d="M26.9835 3.33337H13.0168C6.95016 3.33337 3.3335 6.95004 3.3335 13.0167V26.9667C3.3335 33.05 6.95016 36.6667 13.0168 36.6667H26.9668C33.0335 36.6667 36.6502 33.05 36.6502 26.9834V13.0167C36.6668 6.95004 33.0502 3.33337 26.9835 3.33337ZM15.1835 28.1667C15.1835 28.6334 14.8168 29 14.3502 29H9.70016C9.2335 29 8.86683 28.6334 8.86683 28.1667V20.4667C8.86683 19.4167 9.71683 18.5667 10.7668 18.5667H14.3502C14.8168 18.5667 15.1835 18.9334 15.1835 19.4V28.1667ZM23.1502 28.1667C23.1502 28.6334 22.7835 29 22.3168 29H17.6668C17.2002 29 16.8335 28.6334 16.8335 28.1667V12.9C16.8335 11.85 17.6835 11 18.7335 11H21.2668C22.3168 11 23.1668 11.85 23.1668 12.9V28.1667H23.1502ZM31.1335 28.1667C31.1335 28.6334 30.7668 29 30.3002 29H25.6502C25.1835 29 24.8168 28.6334 24.8168 28.1667V22.25C24.8168 21.7834 25.1835 21.4167 25.6502 21.4167H29.2335C30.2835 21.4167 31.1335 22.2667 31.1335 23.3167V28.1667Z" fill="#8C55FD"/>
</svg>
