<svg width="16" height="17" viewBox="0 0 16 17" fill="none" xmlns="http://www.w3.org/2000/svg">
<path opacity="0.4" d="M7.9987 15.1654C11.6806 15.1654 14.6654 12.1806 14.6654 8.4987C14.6654 4.8168 11.6806 1.83203 7.9987 1.83203C4.3168 1.83203 1.33203 4.8168 1.33203 8.4987C1.33203 12.1806 4.3168 15.1654 7.9987 15.1654Z" fill="#374151"/>
<path d="M10.4751 11.1211C10.3884 11.1211 10.3017 11.1011 10.2217 11.0478L8.15505 9.81448C7.64172 9.50781 7.26172 8.83448 7.26172 8.24115V5.50781C7.26172 5.23448 7.48839 5.00781 7.76172 5.00781C8.03505 5.00781 8.26172 5.23448 8.26172 5.50781V8.24115C8.26172 8.48115 8.46172 8.83448 8.66839 8.95448L10.7351 10.1878C10.9751 10.3278 11.0484 10.6345 10.9084 10.8745C10.8084 11.0345 10.6417 11.1211 10.4751 11.1211Z" fill="#374151"/>
</svg>
