<svg width="38" height="38" viewBox="0 0 38 38" fill="none" xmlns="http://www.w3.org/2000/svg">
<path d="M19.0013 3.16797C10.2771 3.16797 3.16797 10.2771 3.16797 19.0013C3.16797 27.7255 10.2771 34.8346 19.0013 34.8346C27.7255 34.8346 34.8346 27.7255 34.8346 19.0013C34.8346 10.2771 27.7255 3.16797 19.0013 3.16797ZM24.3213 22.643C24.7805 23.1021 24.7805 23.8621 24.3213 24.3213C24.0838 24.5588 23.783 24.6696 23.4821 24.6696C23.1813 24.6696 22.8805 24.5588 22.643 24.3213L19.0013 20.6796L15.3596 24.3213C15.1221 24.5588 14.8213 24.6696 14.5205 24.6696C14.2196 24.6696 13.9188 24.5588 13.6813 24.3213C13.2221 23.8621 13.2221 23.1021 13.6813 22.643L17.323 19.0013L13.6813 15.3596C13.2221 14.9005 13.2221 14.1405 13.6813 13.6813C14.1405 13.2221 14.9005 13.2221 15.3596 13.6813L19.0013 17.323L22.643 13.6813C23.1021 13.2221 23.8621 13.2221 24.3213 13.6813C24.7805 14.1405 24.7805 14.9005 24.3213 15.3596L20.6796 19.0013L24.3213 22.643Z" fill="#768FB5"/>
</svg>
