<svg width="40" height="40" viewBox="0 0 40 40" fill="none" xmlns="http://www.w3.org/2000/svg">
<path d="M34.0167 11.6V14.65C34.0167 15.7167 33.5167 16.7167 32.6501 17.3334L14.3167 30.7667C13.1334 31.6334 11.5167 31.6334 10.3501 30.75L7.95007 28.95C6.86673 28.1334 5.9834 26.3667 5.9834 25.0167V11.6C5.9834 9.73336 7.41673 7.66669 9.16673 7.01669L18.2834 3.60002C19.2334 3.25002 20.7667 3.25002 21.7167 3.60002L30.8334 7.01669C32.5834 7.66669 34.0167 9.73336 34.0167 11.6Z" fill="#8C55FD"/>
<path d="M31.6606 20.9707C32.4314 20.4104 33.5161 20.9606 33.5161 21.917V25.0498C33.5161 25.6259 33.3245 26.3235 32.9927 26.9834C32.6609 27.643 32.2132 28.2171 31.7485 28.5674L22.6382 35.3789C21.9386 35.889 20.9803 36.167 19.9995 36.167C19.0191 36.1669 18.0638 35.8899 17.3667 35.3672L17.3657 35.3662L15.9819 34.333L15.981 34.332L15.8706 34.2393C15.3542 33.7501 15.3904 32.8929 15.9937 32.4541L15.9956 32.4531L31.6606 20.9707Z" fill="#8C55FD" stroke="#8C55FD"/>
</svg>
