<svg width="40" height="40" viewBox="0 0 40 40" fill="none" xmlns="http://www.w3.org/2000/svg">
<path d="M15.0001 29.5835C14.3167 29.5835 13.7501 29.0168 13.7501 28.3335V21.3501L12.5501 22.5501C12.0667 23.0335 11.2667 23.0335 10.7834 22.5501C10.3001 22.0668 10.3001 21.2668 10.7834 20.7835L14.1167 17.4501C14.4667 17.1001 15.0167 16.9835 15.4834 17.1835C15.9501 17.3668 16.2501 17.8335 16.2501 18.3335V28.3335C16.2501 29.0168 15.6834 29.5835 15.0001 29.5835Z" fill="#7F8488"/>
<path d="M18.3331 22.9166C18.0164 22.9166 17.6997 22.7999 17.4497 22.5499L14.1164 19.2166C13.6331 18.7332 13.6331 17.9332 14.1164 17.4499C14.5997 16.9666 15.3997 16.9666 15.8831 17.4499L19.2164 20.7832C19.6997 21.2666 19.6997 22.0666 19.2164 22.5499C18.9664 22.7999 18.6497 22.9166 18.3331 22.9166Z" fill="#7F8488"/>
<path d="M24.9997 37.9168H14.9997C5.94967 37.9168 2.08301 34.0502 2.08301 25.0002V15.0002C2.08301 5.95016 5.94967 2.0835 14.9997 2.0835H23.333C24.0163 2.0835 24.583 2.65016 24.583 3.3335C24.583 4.01683 24.0163 4.5835 23.333 4.5835H14.9997C7.31634 4.5835 4.58301 7.31683 4.58301 15.0002V25.0002C4.58301 32.6835 7.31634 35.4168 14.9997 35.4168H24.9997C32.683 35.4168 35.4163 32.6835 35.4163 25.0002V16.6668C35.4163 15.9835 35.983 15.4168 36.6663 15.4168C37.3497 15.4168 37.9163 15.9835 37.9163 16.6668V25.0002C37.9163 34.0502 34.0497 37.9168 24.9997 37.9168Z" fill="#7F8488"/>
<path d="M36.6663 17.9168H29.9997C24.2997 17.9168 22.083 15.7001 22.083 10.0001V3.33348C22.083 2.83348 22.383 2.36681 22.8497 2.18348C23.3163 1.98348 23.8497 2.10014 24.2163 2.45014L37.5497 15.7835C37.8997 16.1335 38.0163 16.6835 37.8163 17.1501C37.6163 17.6168 37.1663 17.9168 36.6663 17.9168ZM24.583 6.35014V10.0001C24.583 14.3001 25.6997 15.4168 29.9997 15.4168H33.6497L24.583 6.35014Z" fill="#7F8488"/>
</svg>
