<svg width="40" height="40" viewBox="0 0 40 40" fill="none" xmlns="http://www.w3.org/2000/svg">
<path d="M16.5502 21.25H5.00016C4.0835 21.25 3.3335 22 3.3335 22.9167V26.9833C3.3335 32.3333 7.66683 36.6667 13.0168 36.6667H15.8502C17.1335 36.6667 17.9168 35.3 17.3002 34.1667C15.9835 31.7167 15.4668 28.7667 16.1168 25.6667C16.3502 24.5333 16.7502 23.4667 17.2835 22.4667C17.5668 21.9167 17.1835 21.25 16.5502 21.25ZM11.2502 30C11.2502 30.6833 10.6835 31.25 10.0002 31.25C9.31683 31.25 8.75016 30.6833 8.75016 30V26.6667C8.75016 25.9833 9.31683 25.4167 10.0002 25.4167C10.6835 25.4167 11.2502 25.9833 11.2502 26.6667V30Z" fill="#8C55FD"/>
<path d="M26.9835 3.33337H13.0168C7.66683 3.33337 3.3335 7.66671 3.3335 13.0167V17.0834C3.3335 18 4.0835 18.75 5.00016 18.75H19.7335C20.1002 18.75 20.4502 18.6167 20.7502 18.3834C22.1835 17.2834 23.8668 16.4834 25.6668 16.1167C28.7668 15.4667 31.7168 15.9834 34.1668 17.3C35.3002 17.9 36.6668 17.1334 36.6668 15.85V13.0167C36.6668 7.66671 32.3335 3.33337 26.9835 3.33337ZM11.2502 13.75C11.2502 14.4334 10.6835 15 10.0002 15C9.31683 15 8.75016 14.4334 8.75016 13.75V10.4167C8.75016 9.73337 9.31683 9.16671 10.0002 9.16671C10.6835 9.16671 11.2502 9.73337 11.2502 10.4167V13.75ZM17.9168 13.75C17.9168 14.4334 17.3502 15 16.6668 15C15.9835 15 15.4168 14.4334 15.4168 13.75V10.4167C15.4168 9.73337 15.9835 9.16671 16.6668 9.16671C17.3502 9.16671 17.9168 9.73337 17.9168 10.4167V13.75ZM30.0002 13.3334H23.3335C22.6502 13.3334 22.0835 12.7667 22.0835 12.0834C22.0835 11.4 22.6502 10.8334 23.3335 10.8334H30.0002C30.6835 10.8334 31.2502 11.4 31.2502 12.0834C31.2502 12.7667 30.6835 13.3334 30.0002 13.3334Z" fill="#8C55FD"/>
<path d="M28.3335 18.3334C22.8168 18.3334 18.3335 22.8167 18.3335 28.3334C18.3335 33.85 22.8168 38.3334 28.3335 38.3334C33.8502 38.3334 38.3335 33.85 38.3335 28.3334C38.3335 22.8167 33.8502 18.3334 28.3335 18.3334ZM33.2168 30.3334C32.9502 30.9834 32.5668 31.5667 32.0668 32.0667C31.0668 33.0667 29.7502 33.6167 28.3335 33.6167C27.2002 33.6167 26.1335 33.25 25.2335 32.5834V32.8167C25.2335 33.3334 24.8168 33.7667 24.2835 33.7667C23.7502 33.75 23.3335 33.3334 23.3335 32.8V30.4C23.3335 29.8834 23.7502 29.45 24.2835 29.45H26.6835C27.2002 29.45 27.6335 29.8667 27.6335 30.4C27.6335 30.8834 27.2835 31.25 26.8168 31.3167C28.0835 31.9334 29.7002 31.7334 30.7168 30.7167C31.0335 30.4 31.2835 30.0167 31.4502 29.6C31.6502 29.1167 32.2002 28.8834 32.6835 29.0834C33.1835 29.2834 33.4168 29.85 33.2168 30.3334ZM33.3335 26.2667C33.3335 26.7834 32.9168 27.2167 32.3835 27.2167H29.9835C29.4668 27.2167 29.0335 26.8 29.0335 26.2667C29.0335 25.7834 29.3835 25.4167 29.8502 25.35C28.5835 24.7334 26.9668 24.9334 25.9335 25.95C25.6502 26.2334 25.4335 26.55 25.2668 26.9C25.1002 27.25 24.7668 27.45 24.4168 27.45C24.2835 27.45 24.1502 27.4167 24.0168 27.3667C23.5502 27.15 23.3335 26.5834 23.5668 26.1C23.8335 25.55 24.1835 25.05 24.6002 24.6167C25.6002 23.6167 26.9168 23.0667 28.3335 23.0667C29.4668 23.0667 30.5335 23.4334 31.4335 24.1V23.8834C31.4335 23.3667 31.8502 22.9334 32.3835 22.9334C32.9168 22.9334 33.3335 23.3334 33.3335 23.8667V26.2667Z" fill="#8C55FD"/>
</svg>
