<svg width="16" height="17" viewBox="0 0 16 17" fill="none" xmlns="http://www.w3.org/2000/svg">
<mask id="path-1-inside-1_5086_32180" fill="white">
<path d="M9.9987 15.6654H5.9987C2.3787 15.6654 0.832031 14.1187 0.832031 10.4987V6.4987C0.832031 2.8787 2.3787 1.33203 5.9987 1.33203H7.33203C7.60536 1.33203 7.83203 1.5587 7.83203 1.83203C7.83203 2.10536 7.60536 2.33203 7.33203 2.33203H5.9987C2.92536 2.33203 1.83203 3.42536 1.83203 6.4987V10.4987C1.83203 13.572 2.92536 14.6654 5.9987 14.6654H9.9987C13.072 14.6654 14.1654 13.572 14.1654 10.4987V9.16536C14.1654 8.89203 14.392 8.66536 14.6654 8.66536C14.9387 8.66536 15.1654 8.89203 15.1654 9.16536V10.4987C15.1654 14.1187 13.6187 15.6654 9.9987 15.6654Z"/>
</mask>
<path d="M9.9987 15.6654H5.9987C2.3787 15.6654 0.832031 14.1187 0.832031 10.4987V6.4987C0.832031 2.8787 2.3787 1.33203 5.9987 1.33203H7.33203C7.60536 1.33203 7.83203 1.5587 7.83203 1.83203C7.83203 2.10536 7.60536 2.33203 7.33203 2.33203H5.9987C2.92536 2.33203 1.83203 3.42536 1.83203 6.4987V10.4987C1.83203 13.572 2.92536 14.6654 5.9987 14.6654H9.9987C13.072 14.6654 14.1654 13.572 14.1654 10.4987V9.16536C14.1654 8.89203 14.392 8.66536 14.6654 8.66536C14.9387 8.66536 15.1654 8.89203 15.1654 9.16536V10.4987C15.1654 14.1187 13.6187 15.6654 9.9987 15.6654Z" fill="white"/>
<path d="M9.9987 14.6654H5.9987V16.6654H9.9987V14.6654ZM5.9987 14.6654C4.30349 14.6654 3.33188 14.2993 2.76497 13.7324C2.19806 13.1655 1.83203 12.1939 1.83203 10.4987H-0.167969C-0.167969 12.4235 0.239332 14.0352 1.35076 15.1466C2.46218 16.2581 4.07391 16.6654 5.9987 16.6654V14.6654ZM1.83203 10.4987V6.4987H-0.167969V10.4987H1.83203ZM1.83203 6.4987C1.83203 4.80349 2.19806 3.83188 2.76497 3.26497C3.33188 2.69806 4.30349 2.33203 5.9987 2.33203V0.332031C4.07391 0.332031 2.46218 0.739332 1.35076 1.85076C0.239332 2.96218 -0.167969 4.57391 -0.167969 6.4987H1.83203ZM5.9987 2.33203H7.33203V0.332031H5.9987V2.33203ZM7.33203 2.33203C7.05308 2.33203 6.83203 2.11098 6.83203 1.83203H8.83203C8.83203 1.00641 8.15765 0.332031 7.33203 0.332031V2.33203ZM6.83203 1.83203C6.83203 1.55308 7.05308 1.33203 7.33203 1.33203V3.33203C8.15765 3.33203 8.83203 2.65765 8.83203 1.83203H6.83203ZM7.33203 1.33203H5.9987V3.33203H7.33203V1.33203ZM5.9987 1.33203C4.39148 1.33203 3.00401 1.60751 2.05576 2.55576C1.10751 3.50401 0.832031 4.89148 0.832031 6.4987H2.83203C2.83203 5.03258 3.10322 4.33672 3.46997 3.96997C3.83672 3.60322 4.53258 3.33203 5.9987 3.33203V1.33203ZM0.832031 6.4987V10.4987H2.83203V6.4987H0.832031ZM0.832031 10.4987C0.832031 12.1059 1.10751 13.4934 2.05576 14.4416C3.00401 15.3899 4.39148 15.6654 5.9987 15.6654V13.6654C4.53258 13.6654 3.83672 13.3942 3.46997 13.0274C3.10322 12.6607 2.83203 11.9648 2.83203 10.4987H0.832031ZM5.9987 15.6654H9.9987V13.6654H5.9987V15.6654ZM9.9987 15.6654C11.6059 15.6654 12.9934 15.3899 13.9416 14.4416C14.8899 13.4934 15.1654 12.1059 15.1654 10.4987H13.1654C13.1654 11.9648 12.8942 12.6607 12.5274 13.0274C12.1607 13.3942 11.4648 13.6654 9.9987 13.6654V15.6654ZM15.1654 10.4987V9.16536H13.1654V10.4987H15.1654ZM15.1654 9.16536C15.1654 9.44432 14.9443 9.66536 14.6654 9.66536V7.66536C13.8397 7.66536 13.1654 8.33975 13.1654 9.16536H15.1654ZM14.6654 9.66536C14.3864 9.66536 14.1654 9.44432 14.1654 9.16536H16.1654C16.1654 8.33975 15.491 7.66536 14.6654 7.66536V9.66536ZM14.1654 9.16536V10.4987H16.1654V9.16536H14.1654ZM14.1654 10.4987C14.1654 12.1939 13.7993 13.1655 13.2324 13.7324C12.6655 14.2993 11.6939 14.6654 9.9987 14.6654V16.6654C11.9235 16.6654 13.5352 16.2581 14.6466 15.1466C15.7581 14.0352 16.1654 12.4235 16.1654 10.4987H14.1654Z" fill="white" mask="url(#path-1-inside-1_5086_32180)"/>
<path d="M12.1813 1.67452C12.1226 1.67996 12.065 1.68852 12.0084 1.69992C12.1212 1.67558 12.2311 1.66406 12.3383 1.66406C12.5651 1.66406 12.8044 1.71565 13.0562 1.83123C12.7708 1.70227 12.4804 1.64685 12.1813 1.67452ZM14.8161 4.31169C14.8743 3.68179 14.5497 3.10241 14.0391 2.56786C14.6582 3.20707 14.8739 3.7903 14.8272 4.31848C14.7818 4.76443 14.5411 5.24855 13.9867 5.79689L13.9847 5.79884L8.73138 11.0522C8.65176 11.1318 8.53951 11.212 8.4158 11.282C8.52285 11.2212 8.63857 11.1425 8.72893 11.0488L13.9785 5.79928C14.4423 5.33543 14.7668 4.84465 14.8161 4.31183L14.8161 4.31169ZM5.72042 11.7921C5.74897 11.7908 5.77719 11.7885 5.80495 11.7854C5.79667 11.7872 5.78283 11.7894 5.75973 11.7908C5.7475 11.7915 5.73488 11.7919 5.72042 11.7921Z" fill="white" stroke="white"/>
<path d="M13.233 7.05221C13.1864 7.05221 13.1397 7.04555 13.0997 7.03221C11.3464 6.53888 9.95305 5.14555 9.45971 3.39221C9.38638 3.12555 9.53971 2.85221 9.80638 2.77221C10.073 2.69888 10.3464 2.85221 10.4197 3.11888C10.8197 4.53888 11.9464 5.66555 13.3664 6.06555C13.633 6.13888 13.7864 6.41888 13.713 6.68555C13.653 6.91221 13.453 7.05221 13.233 7.05221Z" fill="white"/>
</svg>
