<svg width="32" height="32" viewBox="0 0 32 32" fill="none" xmlns="http://www.w3.org/2000/svg">
<path d="M0 16C0 7.16344 7.16344 0 16 0C24.8366 0 32 7.16344 32 16C32 24.8366 24.8366 32 16 32C7.16344 32 0 24.8366 0 16Z" fill="white"/>
<path opacity="0.4" d="M19.5799 16C19.5799 17.98 17.9799 19.58 15.9999 19.58C14.0199 19.58 12.4199 17.98 12.4199 16C12.4199 14.02 14.0199 12.42 15.9999 12.42C17.9799 12.42 19.5799 14.02 19.5799 16Z" stroke="#2C363F" stroke-width="1.5" stroke-linecap="round" stroke-linejoin="round"/>
<path d="M15.9998 24.27C19.5298 24.27 22.8198 22.19 25.1098 18.59C26.0098 17.18 26.0098 14.81 25.1098 13.4C22.8198 9.79997 19.5298 7.71997 15.9998 7.71997C12.4698 7.71997 9.17984 9.79997 6.88984 13.4C5.98984 14.81 5.98984 17.18 6.88984 18.59C9.17984 22.19 12.4698 24.27 15.9998 24.27Z" stroke="#2C363F" stroke-width="1.5" stroke-linecap="round" stroke-linejoin="round"/>
</svg>
