<svg width="84" height="27" viewBox="0 0 84 27" fill="none" xmlns="http://www.w3.org/2000/svg">
<path d="M0 26.9986V0.00123596H17.8268V3.04556H3.73087V11.8518H16.8643V14.8961H3.73087V23.9556H18.0046V26.9999H0.00142104L0 26.9986Z" fill="white"/>
<path d="M24.572 26.9986V0.00125122H34.5845C36.8622 0.00125122 38.7362 0.360797 40.2092 1.07989C41.6822 1.79898 42.7742 2.78576 43.4879 4.04285C44.2017 5.29864 44.5586 6.73026 44.5586 8.3364C44.5586 9.94254 44.2017 11.3624 43.4879 12.5945C42.7742 13.8267 41.6851 14.7898 40.2192 15.484C38.7533 16.1795 36.8807 16.5259 34.6044 16.5259H26.6521V13.4632H34.4266C35.9707 13.4632 37.212 13.2546 38.1476 12.8373C39.0831 12.42 39.767 11.8282 40.1993 11.0619C40.6301 10.2955 40.8462 9.38617 40.8462 8.33509C40.8462 7.28401 40.6301 6.3261 40.1993 5.53615C39.767 4.74488 39.0803 4.12815 38.1376 3.68856C37.1949 3.24765 35.9452 3.0272 34.3883 3.0272H28.3014V26.9999H24.5706L24.572 26.9986ZM41.378 26.9986L34.3101 14.841H38.5115L45.6975 26.9986H41.378Z" fill="white"/>
<path d="M54.5796 0.00131249V27H50.8488V0.00131249H54.5796ZM59.9797 26.9987H52.9118V23.9544H59.7437C62.1252 23.9544 64.0987 23.5358 65.6627 22.6946C67.2268 21.8561 68.3955 20.6502 69.1675 19.0795C69.9396 17.5088 70.3263 15.631 70.3263 13.4449C70.3263 11.2587 69.9439 9.42559 69.1775 7.87325C68.4126 6.32091 67.2737 5.12811 65.7609 4.29486C64.2495 3.46161 62.3613 3.04432 60.0963 3.04432H52.754V0H60.3522C63.2058 0 65.6443 0.538006 67.6647 1.6127C69.6865 2.6874 71.2377 4.23056 72.3183 6.24218C73.3989 8.25379 73.9378 10.6538 73.9378 13.4449C73.9378 16.236 73.3946 18.678 72.3084 20.7014C71.2221 22.7248 69.6382 24.2798 67.5566 25.3676C65.4751 26.4541 62.9499 26.9987 59.9783 26.9987H59.9797Z" fill="white"/>
<path d="M84 0.00125122V26.9999H80.2691V0.00125122H84Z" fill="white"/>
</svg>
