<svg width="20" height="20" viewBox="0 0 20 20" fill="none" xmlns="http://www.w3.org/2000/svg">
<path d="M6.45866 1.66663V6.49996H1.66699C1.66699 3.49163 3.45866 1.68329 6.45866 1.66663Z" fill="#645592"/>
<path d="M18.3337 6.49996H13.542V1.66663C16.542 1.68329 18.3337 3.49163 18.3337 6.49996Z" fill="#645592"/>
<path d="M18.3337 13.5834C18.3003 16.5417 16.517 18.3167 13.542 18.3334V13.5834H18.3337Z" fill="#645592"/>
<path d="M6.45866 13.5834V18.3334C3.48366 18.3167 1.70033 16.5417 1.66699 13.5834H6.45866Z" fill="#645592"/>
<path d="M6.45866 7.75H1.66699V12.3333H6.45866V7.75Z" fill="#645592"/>
<path d="M18.3337 7.75H13.542V12.3333H18.3337V7.75Z" fill="#645592"/>
<path d="M12.2913 7.75H7.70801V12.3333H12.2913V7.75Z" fill="#645592"/>
<path d="M12.2913 1.66663H7.70801V6.49996H12.2913V1.66663Z" fill="#645592"/>
<path d="M12.2913 13.5834H7.70801V18.3334H12.2913V13.5834Z" fill="#645592"/>
</svg>
