<svg width="1178" height="946" viewBox="0 0 1178 946" fill="none" xmlns="http://www.w3.org/2000/svg">
<g filter="url(#filter0_f_1_297)">
<ellipse cx="700.9" cy="473" rx="263" ry="259" fill="#FFF4E3"/>
</g>
<path d="M501.4 478.5C346.2 468.1 167.4 373.167 97.3996 327C23.8996 344.833 -79.0004 393.8 97.3996 447C273.8 500.2 440.233 510.833 501.4 509.5C566.066 503.5 656.6 488.9 501.4 478.5Z" fill="url(#paint0_linear_1_297)"/>
<path d="M217.358 873.752C357.591 806.636 490.647 659.011 539.645 593.588C613.877 581.092 726.048 583.939 580.877 695.292C435.706 806.645 285.144 878.178 228.009 900.025C166.028 919.232 77.1245 940.867 217.358 873.752Z" fill="url(#paint1_linear_1_297)"/>
<path d="M303.898 464.68C304.377 464.405 304.542 463.793 304.266 463.315L299.776 455.515C299.5 455.036 298.889 454.871 298.41 455.147C297.932 455.422 297.767 456.034 298.043 456.512L302.034 463.446L295.1 467.437C294.622 467.712 294.457 468.324 294.733 468.802C295.008 469.281 295.62 469.446 296.098 469.17L303.898 464.68ZM303.399 463.814L303.659 462.848L300.711 462.054L300.451 463.019L300.191 463.985L303.139 464.779L303.399 463.814ZM294.554 461.431L294.814 460.466L288.917 458.877L288.657 459.843L288.397 460.809L294.294 462.397L294.554 461.431ZM282.76 458.255L283.02 457.289L277.123 455.701L276.863 456.667L276.603 457.632L282.5 459.22L282.76 458.255ZM270.966 455.078L271.226 454.113L265.329 452.524L265.068 453.49L264.808 454.456L270.705 456.044L270.966 455.078ZM259.171 451.902L259.431 450.936L253.534 449.348L253.274 450.314L253.014 451.279L258.911 452.867L259.171 451.902ZM247.377 448.725L247.637 447.76L241.74 446.172L241.48 447.137L241.22 448.103L247.117 449.691L247.377 448.725ZM235.583 445.549L235.843 444.583L229.946 442.995L229.686 443.961L229.426 444.926L235.323 446.514L235.583 445.549ZM223.789 442.372L224.049 441.407L218.152 439.819L217.892 440.784L217.632 441.75L223.529 443.338L223.789 442.372ZM211.995 439.196L212.255 438.23L206.358 436.642L206.098 437.608L205.838 438.573L211.735 440.162L211.995 439.196ZM200.201 436.02L200.461 435.054L194.564 433.466L194.304 434.431L194.044 435.397L199.941 436.985L200.201 436.02ZM188.407 432.843L188.667 431.877L182.77 430.289L182.51 431.255L182.25 432.22L188.147 433.809L188.407 432.843ZM176.613 429.667L176.873 428.701L170.976 427.113L170.716 428.078L170.456 429.044L176.353 430.632L176.613 429.667ZM164.819 426.49L165.079 425.525L159.182 423.936L158.922 424.902L158.662 425.867L164.559 427.456L164.819 426.49ZM153.025 423.314L153.285 422.348L147.388 420.76L147.127 421.725L146.867 422.691L152.764 424.279L153.025 423.314ZM141.23 420.137L141.49 419.172L135.593 417.583L135.333 418.549L135.073 419.515L140.97 421.103L141.23 420.137ZM129.436 416.961L129.696 415.995L123.799 414.407L123.539 415.373L123.279 416.338L129.176 417.926L129.436 416.961ZM117.642 413.784L117.902 412.819L112.005 411.23L111.745 412.196L111.485 413.162L117.382 414.75L117.642 413.784ZM105.848 410.608L106.108 409.642L103.16 408.848L102.9 409.814L102.639 410.779L105.588 411.573L105.848 410.608Z" fill="url(#paint2_linear_1_297)"/>
<path d="M397.425 790.271C396.878 790.196 396.495 789.692 396.571 789.145L397.797 780.228C397.872 779.681 398.377 779.299 398.924 779.374C399.471 779.449 399.853 779.954 399.778 780.501L398.688 788.426L406.614 789.516C407.161 789.591 407.543 790.096 407.468 790.643C407.393 791.19 406.888 791.573 406.341 791.497L397.425 790.271ZM397.561 789.281L396.957 788.484L399.39 786.639L399.995 787.436L400.599 788.233L398.166 790.078L397.561 789.281ZM404.861 783.746L404.257 782.949L409.123 779.259L409.728 780.056L410.332 780.853L405.465 784.543L404.861 783.746ZM414.594 776.366L413.99 775.569L418.856 771.879L419.46 772.676L420.065 773.473L415.198 777.163L414.594 776.366ZM424.327 768.986L423.723 768.19L428.589 764.5L429.193 765.296L429.798 766.093L424.931 769.783L424.327 768.986ZM434.06 761.607L433.456 760.81L438.322 757.12L438.926 757.917L439.53 758.714L434.664 762.403L434.06 761.607ZM443.793 754.227L443.189 753.43L448.055 749.74L448.659 750.537L449.263 751.334L444.397 755.024L443.793 754.227ZM453.526 746.847L452.922 746.05L457.788 742.36L458.392 743.157L458.996 743.954L454.13 747.644L453.526 746.847ZM463.259 739.467L462.654 738.67L467.521 734.981L468.125 735.777L468.729 736.574L463.863 740.264L463.259 739.467ZM472.992 732.088L472.387 731.291L477.254 727.601L477.858 728.398L478.462 729.194L473.596 732.884L472.992 732.088ZM482.724 724.708L482.12 723.911L486.987 720.221L487.591 721.018L488.195 721.815L483.329 725.505L482.724 724.708ZM492.457 717.328L491.853 716.531L496.72 712.841L497.324 713.638L497.928 714.435L493.062 718.125L492.457 717.328ZM502.19 709.948L501.586 709.151L506.453 705.461L507.057 706.258L507.661 707.055L502.794 710.745L502.19 709.948ZM511.923 702.568L511.319 701.772L516.185 698.082L516.79 698.879L517.394 699.675L512.527 703.365L511.923 702.568ZM521.656 695.189L521.052 694.392L525.918 690.702L526.523 691.499L527.127 692.296L522.26 695.986L521.656 695.189ZM531.389 687.809L530.785 687.012L535.651 683.322L536.255 684.119L536.86 684.916L531.993 688.606L531.389 687.809ZM541.122 680.429L540.518 679.632L545.384 675.942L545.988 676.739L546.593 677.536L541.726 681.226L541.122 680.429ZM550.855 673.049L550.251 672.253L555.117 668.563L555.721 669.36L556.325 670.156L551.459 673.846L550.855 673.049ZM560.588 665.67L559.984 664.873L562.417 663.028L563.021 663.825L563.625 664.621L561.192 666.466L560.588 665.67Z" fill="url(#paint3_linear_1_297)"/>
<defs>
<filter id="filter0_f_1_297" x="223.9" y="0" width="954" height="946" filterUnits="userSpaceOnUse" color-interpolation-filters="sRGB">
<feFlood flood-opacity="0" result="BackgroundImageFix"/>
<feBlend mode="normal" in="SourceGraphic" in2="BackgroundImageFix" result="shape"/>
<feGaussianBlur stdDeviation="107" result="effect1_foregroundBlur_1_297"/>
</filter>
<linearGradient id="paint0_linear_1_297" x1="90.8994" y1="375.5" x2="412.399" y2="486" gradientUnits="userSpaceOnUse">
<stop stop-color="#F3FFF3"/>
<stop offset="1" stop-color="#FFEFD7" stop-opacity="0.34"/>
</linearGradient>
<linearGradient id="paint1_linear_1_297" x1="562.333" y1="632.252" x2="314.919" y2="860.258" gradientUnits="userSpaceOnUse">
<stop stop-color="#FFEFD7" stop-opacity="0.19"/>
<stop offset="1" stop-color="#F3FFF3"/>
</linearGradient>
<linearGradient id="paint2_linear_1_297" x1="127.9" y1="419.814" x2="295.9" y2="461.814" gradientUnits="userSpaceOnUse">
<stop stop-color="white" stop-opacity="0"/>
<stop offset="1" stop-color="#D5C6F5"/>
</linearGradient>
<linearGradient id="paint3_linear_1_297" x1="543.619" y1="682.494" x2="403.758" y2="784.606" gradientUnits="userSpaceOnUse">
<stop stop-color="white" stop-opacity="0"/>
<stop offset="1" stop-color="#D5C6F5"/>
</linearGradient>
</defs>
</svg>
