<svg width="16" height="16" viewBox="0 0 16 16" fill="none" xmlns="http://www.w3.org/2000/svg">
<path d="M10.1733 14.8332H5.82665C2.55332 14.8332 1.15332 13.4332 1.15332 10.1599V10.0732C1.15332 7.11319 2.31999 5.68652 4.93332 5.43985C5.19999 5.41985 5.45332 5.61985 5.47999 5.89319C5.50665 6.16652 5.30665 6.41319 5.02665 6.43985C2.93332 6.63319 2.15332 7.61985 2.15332 10.0799V10.1665C2.15332 12.8799 3.11332 13.8399 5.82665 13.8399H10.1733C12.8867 13.8399 13.8467 12.8799 13.8467 10.1665V10.0799C13.8467 7.60652 13.0533 6.61985 10.92 6.43985C10.6467 6.41319 10.44 6.17319 10.4667 5.89985C10.4933 5.62652 10.7267 5.41985 11.0067 5.44652C13.66 5.67319 14.8467 7.10652 14.8467 10.0865V10.1732C14.8467 13.4332 13.4467 14.8332 10.1733 14.8332Z" fill="white"/>
<path d="M8 10.4197C7.72667 10.4197 7.5 10.193 7.5 9.91967V1.33301C7.5 1.05967 7.72667 0.833008 8 0.833008C8.27333 0.833008 8.5 1.05967 8.5 1.33301V9.91967C8.5 10.1997 8.27333 10.4197 8 10.4197Z" fill="white"/>
<path d="M8.00022 11.1662C7.87355 11.1662 7.74689 11.1196 7.64689 11.0196L5.41355 8.78624C5.22022 8.5929 5.22022 8.2729 5.41355 8.07957C5.60689 7.88624 5.92689 7.88624 6.12022 8.07957L8.00022 9.95957L9.88022 8.07957C10.0736 7.88624 10.3936 7.88624 10.5869 8.07957C10.7802 8.2729 10.7802 8.5929 10.5869 8.78624L8.35355 11.0196C8.25355 11.1196 8.12689 11.1662 8.00022 11.1662Z" fill="white"/>
</svg>
