<svg width="18" height="18" viewBox="0 0 18 18" fill="none" xmlns="http://www.w3.org/2000/svg">
<path d="M11.25 17.0625H6.75C2.6775 17.0625 0.9375 15.3225 0.9375 11.25V6.75C0.9375 2.6775 2.6775 0.9375 6.75 0.9375H11.25C15.3225 0.9375 17.0625 2.6775 17.0625 6.75V11.25C17.0625 15.3225 15.3225 17.0625 11.25 17.0625ZM6.75 2.0625C3.2925 2.0625 2.0625 3.2925 2.0625 6.75V11.25C2.0625 14.7075 3.2925 15.9375 6.75 15.9375H11.25C14.7075 15.9375 15.9375 14.7075 15.9375 11.25V6.75C15.9375 3.2925 14.7075 2.0625 11.25 2.0625H6.75Z" fill="white"/>
<path d="M6.60755 13.6877C6.55505 13.6877 6.49505 13.6877 6.44255 13.6727L5.55005 13.5527C5.01005 13.4777 4.53755 13.0127 4.45505 12.4577L4.32755 11.5502C4.27505 11.1902 4.42505 10.7327 4.68755 10.4627L6.39755 8.75273C6.14255 7.53773 6.51005 6.27773 7.40255 5.39273C8.83505 3.96023 11.1751 3.96023 12.6076 5.39273C13.3051 6.09023 13.6876 7.01273 13.6876 7.99523C13.6876 8.97773 13.3051 9.90773 12.6076 10.5977C11.7151 11.4827 10.4551 11.8502 9.24755 11.5952L7.53005 13.3052C7.31255 13.5377 6.94505 13.6877 6.60755 13.6877ZM10.0051 5.43773C9.35255 5.43773 8.69255 5.68523 8.19755 6.18773C7.52255 6.86273 7.28255 7.84523 7.56005 8.76023C7.62005 8.96273 7.56755 9.17273 7.41755 9.32273L5.48255 11.2577C5.46755 11.2802 5.43755 11.3627 5.43755 11.3927L5.56505 12.2927C5.57255 12.3377 5.65505 12.4202 5.70005 12.4277L6.60005 12.5552C6.63755 12.5477 6.71255 12.5327 6.73505 12.5102L8.67755 10.5677C8.82755 10.4177 9.04505 10.3727 9.24005 10.4327C10.1476 10.7177 11.1301 10.4777 11.8051 9.80273C12.2851 9.32273 12.5551 8.67773 12.5551 7.99523C12.5551 7.31273 12.2926 6.66773 11.8051 6.18773C11.3176 5.69273 10.6576 5.43773 10.0051 5.43773Z" fill="white"/>
<path d="M7.83746 12.772C7.69496 12.772 7.55246 12.7195 7.43996 12.607L6.79496 11.962C6.57746 11.7445 6.57746 11.3845 6.79496 11.167C7.01246 10.9495 7.37246 10.9495 7.58996 11.167L8.23496 11.812C8.45246 12.0295 8.45246 12.3895 8.23496 12.607C8.12996 12.7195 7.98746 12.772 7.83746 12.772Z" fill="white"/>
<path d="M10.0351 8.85021C9.93009 8.85021 9.83259 8.83521 9.74259 8.79771C9.65259 8.76021 9.57009 8.70021 9.50259 8.63271C9.36009 8.49021 9.27759 8.30271 9.27759 8.10021C9.27759 7.90521 9.36009 7.71021 9.50259 7.57521C9.67509 7.39521 9.93759 7.31271 10.1776 7.36521C10.2226 7.38021 10.2751 7.38771 10.3201 7.41021C10.3651 7.43271 10.4101 7.45521 10.4476 7.47771C10.4851 7.50771 10.5301 7.53771 10.5601 7.57521C10.7026 7.71021 10.7851 7.90521 10.7851 8.10021C10.7851 8.20521 10.7626 8.29521 10.7251 8.39271C10.6876 8.48271 10.6351 8.56521 10.5601 8.63271C10.4176 8.77521 10.2301 8.85021 10.0351 8.85021Z" fill="white"/>
</svg>
