<svg width="1075" height="714" viewBox="0 0 1075 714" fill="none" xmlns="http://www.w3.org/2000/svg">
<path d="M588.309 269.712C588.309 261.248 598.542 257.009 604.527 262.994L716.158 374.626C722.142 380.611 717.904 390.843 709.44 390.843H498.151C490.143 390.843 483.651 397.335 483.651 405.343V433.511C483.651 441.974 473.418 446.212 467.433 440.227L364.522 337.316C358.538 331.332 362.777 321.099 371.24 321.099H573.809C581.817 321.099 588.309 314.607 588.309 306.599V269.712Z" fill="white" fill-opacity="0.25" stroke="url(#paint0_linear_2_1369)" stroke-width="5"/>
<g filter="url(#filter0_f_2_1369)">
<path d="M168.242 152.856C168.242 152.856 180.213 121.775 267.791 103.618C327.086 91.3254 376.731 114.299 376.731 114.299L586.137 316.629L586.137 242.566L917.6 569.017C917.6 569.017 851.11 602.049 804.45 610.283C736.56 622.264 697.956 596.972 697.956 596.972L486.322 393.468L486.322 462.85L327.282 316.629L168.242 152.856Z" fill="url(#paint1_linear_2_1369)" fill-opacity="0.71"/>
</g>
<foreignObject x="603.784" y="163.439" width="394.951" height="394.951"><div xmlns="http://www.w3.org/1999/xhtml" style="backdrop-filter:blur(6.79px);clip-path:url(#bgblur_0_2_1369_clip_path);height:100%;width:100%"></div></foreignObject><g filter="url(#filter1_n_2_1369)" data-figma-bg-blur-radius="13.5778">
<mask id="path-3-inside-1_2_1369" fill="white">
<path d="M617.362 240.121C657.767 199.716 712.567 177.017 769.708 177.017C826.849 177.017 881.649 199.716 922.054 240.121C962.459 280.526 985.158 335.326 985.158 392.467C985.158 449.608 962.459 504.408 922.054 544.813L769.708 392.467L617.362 240.121Z"/>
</mask>
<path d="M617.362 240.121C657.767 199.716 712.567 177.017 769.708 177.017C826.849 177.017 881.649 199.716 922.054 240.121C962.459 280.526 985.158 335.326 985.158 392.467C985.158 449.608 962.459 504.408 922.054 544.813L769.708 392.467L617.362 240.121Z" fill="#151A1F"/>
<path d="M617.362 240.121C657.767 199.716 712.567 177.017 769.708 177.017C826.849 177.017 881.649 199.716 922.054 240.121C962.459 280.526 985.158 335.326 985.158 392.467C985.158 449.608 962.459 504.408 922.054 544.813L769.708 392.467L617.362 240.121Z" stroke="url(#paint2_linear_2_1369)" stroke-width="1.35778" mask="url(#path-3-inside-1_2_1369)"/>
</g>
<mask id="mask0_2_1369" style="mask-type:alpha" maskUnits="userSpaceOnUse" x="556" y="397" width="432" height="216">
<foreignObject x="603.784" y="163.439" width="394.951" height="394.951"><div xmlns="http://www.w3.org/1999/xhtml" style="backdrop-filter:blur(6.79px);clip-path:url(#bgblur_1_2_1369_clip_path);height:100%;width:100%"></div></foreignObject><g data-figma-bg-blur-radius="13.5778">
<mask id="path-4-inside-2_2_1369" fill="white">
<path d="M987.481 397.015C987.481 454.155 964.782 508.956 924.377 549.361C883.972 589.765 829.172 612.464 772.031 612.464C714.89 612.464 660.089 589.765 619.685 549.361C579.28 508.956 556.581 454.155 556.581 397.015L772.031 397.015L987.481 397.015Z"/>
</mask>
<path d="M987.481 397.015C987.481 454.155 964.782 508.956 924.377 549.361C883.972 589.765 829.172 612.464 772.031 612.464C714.89 612.464 660.089 589.765 619.685 549.361C579.28 508.956 556.581 454.155 556.581 397.015L772.031 397.015L987.481 397.015Z" fill="white" stroke="url(#paint3_linear_2_1369)" stroke-width="1.35778" mask="url(#path-4-inside-2_2_1369)"/>
</g>
</mask>
<g mask="url(#mask0_2_1369)">
<foreignObject x="683.63" y="356.317" width="254.422" height="254.422"><div xmlns="http://www.w3.org/1999/xhtml" style="backdrop-filter:blur(6.79px);clip-path:url(#bgblur_2_2_1369_clip_path);height:100%;width:100%"></div></foreignObject><rect data-figma-bg-blur-radius="13.5778" x="924.474" y="577.702" width="27.5183" height="293.885" transform="rotate(135 924.474 577.702)" fill="url(#paint4_linear_2_1369)" fill-opacity="0.25"/>
<foreignObject x="629.318" y="369.894" width="254.422" height="254.422"><div xmlns="http://www.w3.org/1999/xhtml" style="backdrop-filter:blur(6.79px);clip-path:url(#bgblur_3_2_1369_clip_path);height:100%;width:100%"></div></foreignObject><rect data-figma-bg-blur-radius="13.5778" x="870.162" y="591.28" width="27.5183" height="293.885" transform="rotate(135 870.162 591.28)" fill="url(#paint5_linear_2_1369)" fill-opacity="0.25"/>
<foreignObject x="588.585" y="397.05" width="254.422" height="254.422"><div xmlns="http://www.w3.org/1999/xhtml" style="backdrop-filter:blur(6.79px);clip-path:url(#bgblur_4_2_1369_clip_path);height:100%;width:100%"></div></foreignObject><rect data-figma-bg-blur-radius="13.5778" x="829.429" y="618.436" width="27.5183" height="293.885" transform="rotate(135 829.429 618.436)" fill="url(#paint6_linear_2_1369)" fill-opacity="0.25"/>
<foreignObject x="552.603" y="432.352" width="254.422" height="254.422"><div xmlns="http://www.w3.org/1999/xhtml" style="backdrop-filter:blur(6.79px);clip-path:url(#bgblur_5_2_1369_clip_path);height:100%;width:100%"></div></foreignObject><rect data-figma-bg-blur-radius="13.5778" x="793.447" y="653.738" width="27.5183" height="293.885" transform="rotate(135 793.447 653.738)" fill="url(#paint7_linear_2_1369)" fill-opacity="0.25"/>
</g>
<g clip-path="url(#clip6_2_1369)">
<path d="M809.882 332.341C809.882 333.468 810.003 334.381 810.215 335.051C810.458 335.721 810.76 336.452 811.184 337.244C811.336 337.488 811.396 337.731 811.396 337.944C811.396 338.249 811.214 338.554 810.821 338.858L808.913 340.137C808.641 340.32 808.368 340.411 808.126 340.411C807.823 340.411 807.521 340.259 807.218 339.985C806.794 339.528 806.431 339.041 806.128 338.554C805.825 338.036 805.522 337.457 805.189 336.757C802.828 339.559 799.86 340.959 796.288 340.959C793.744 340.959 791.716 340.228 790.232 338.767C788.748 337.305 787.991 335.356 787.991 332.92C787.991 330.331 788.9 328.23 790.747 326.646C792.594 325.063 795.046 324.271 798.165 324.271C799.194 324.271 800.254 324.362 801.374 324.514C802.494 324.667 803.645 324.91 804.856 325.184V322.961C804.856 320.647 804.372 319.033 803.433 318.089C802.464 317.145 800.829 316.688 798.498 316.688C797.438 316.688 796.348 316.81 795.228 317.084C794.108 317.358 793.018 317.693 791.958 318.119C791.473 318.332 791.11 318.454 790.898 318.515C790.686 318.576 790.535 318.606 790.414 318.606C789.99 318.606 789.778 318.302 789.778 317.662V316.17C789.778 315.683 789.838 315.317 789.99 315.104C790.141 314.891 790.414 314.678 790.838 314.465C791.897 313.917 793.169 313.46 794.653 313.094C796.136 312.698 797.711 312.516 799.376 312.516C802.979 312.516 805.613 313.338 807.309 314.982C808.974 316.627 809.822 319.124 809.822 322.474V332.341H809.882ZM797.589 336.97C798.589 336.97 799.618 336.787 800.708 336.422C801.798 336.056 802.767 335.386 803.584 334.473C804.069 333.894 804.432 333.255 804.614 332.524C804.796 331.793 804.917 330.91 804.917 329.874V328.595C804.039 328.382 803.1 328.199 802.131 328.077C801.162 327.956 800.224 327.895 799.285 327.895C797.256 327.895 795.773 328.291 794.774 329.113C793.774 329.935 793.29 331.092 793.29 332.615C793.29 334.046 793.653 335.112 794.41 335.843C795.137 336.605 796.197 336.97 797.589 336.97ZM821.902 340.259C821.357 340.259 820.994 340.168 820.752 339.954C820.51 339.772 820.298 339.345 820.116 338.767L813.001 315.226C812.819 314.617 812.728 314.221 812.728 314.008C812.728 313.521 812.971 313.247 813.455 313.247H816.422C816.998 313.247 817.391 313.338 817.603 313.551C817.845 313.734 818.027 314.16 818.209 314.739L823.295 334.899L828.019 314.739C828.17 314.13 828.352 313.734 828.594 313.551C828.836 313.368 829.26 313.247 829.805 313.247H832.227C832.802 313.247 833.196 313.338 833.438 313.551C833.681 313.734 833.892 314.16 834.014 314.739L838.797 335.143L844.036 314.739C844.217 314.13 844.429 313.734 844.641 313.551C844.883 313.368 845.277 313.247 845.822 313.247H848.638C849.122 313.247 849.395 313.49 849.395 314.008C849.395 314.16 849.364 314.312 849.334 314.495C849.304 314.678 849.243 314.922 849.122 315.257L841.825 338.797C841.644 339.406 841.432 339.802 841.189 339.985C840.947 340.168 840.554 340.289 840.039 340.289H837.435C836.86 340.289 836.466 340.198 836.224 339.985C835.982 339.772 835.77 339.376 835.649 338.767L830.956 319.124L826.293 338.736C826.141 339.345 825.96 339.741 825.717 339.954C825.475 340.168 825.051 340.259 824.506 340.259H821.902ZM860.809 341.081C859.235 341.081 857.66 340.898 856.147 340.533C854.633 340.168 853.452 339.772 852.665 339.315C852.18 339.041 851.847 338.736 851.726 338.462C851.605 338.188 851.544 337.884 851.544 337.609V336.056C851.544 335.417 851.787 335.112 852.241 335.112C852.422 335.112 852.604 335.143 852.786 335.204C852.967 335.265 853.24 335.386 853.543 335.508C854.572 335.965 855.692 336.33 856.873 336.574C858.084 336.818 859.265 336.939 860.476 336.939C862.384 336.939 863.867 336.605 864.897 335.935C865.926 335.265 866.471 334.29 866.471 333.041C866.471 332.189 866.199 331.488 865.654 330.91C865.109 330.331 864.079 329.813 862.596 329.326L858.205 327.956C855.995 327.255 854.36 326.22 853.361 324.849C852.362 323.509 851.847 322.017 851.847 320.434C851.847 319.155 852.12 318.028 852.665 317.053C853.21 316.079 853.936 315.226 854.845 314.556C855.753 313.856 856.782 313.338 857.994 312.973C859.205 312.607 860.476 312.455 861.809 312.455C862.475 312.455 863.171 312.485 863.837 312.577C864.534 312.668 865.169 312.79 865.805 312.912C866.411 313.064 866.986 313.216 867.531 313.399C868.076 313.582 868.5 313.764 868.803 313.947C869.227 314.191 869.529 314.434 869.711 314.708C869.893 314.952 869.984 315.287 869.984 315.713V317.145C869.984 317.784 869.741 318.119 869.287 318.119C869.045 318.119 868.651 317.997 868.137 317.754C866.411 316.962 864.473 316.566 862.323 316.566C860.597 316.566 859.235 316.84 858.296 317.419C857.358 317.997 856.873 318.881 856.873 320.129C856.873 320.982 857.176 321.713 857.782 322.291C858.387 322.87 859.507 323.449 861.112 323.966L865.412 325.337C867.592 326.037 869.166 327.012 870.105 328.26C871.043 329.509 871.497 330.94 871.497 332.524C871.497 333.833 871.225 335.021 870.71 336.056C870.165 337.092 869.439 338.005 868.5 338.736C867.561 339.498 866.441 340.046 865.139 340.442C863.777 340.868 862.354 341.081 860.809 341.081Z" fill="white"/>
<path fill-rule="evenodd" clip-rule="evenodd" d="M866.532 355.882C856.571 363.282 842.098 367.21 829.654 367.21C812.214 367.21 796.5 360.724 784.631 349.943C783.692 349.09 784.54 347.933 785.66 348.603C798.498 356.095 814.333 360.632 830.713 360.632C841.765 360.632 853.906 358.318 865.079 353.567C866.744 352.806 868.167 354.663 866.532 355.882Z" fill="#FF9900"/>
<path fill-rule="evenodd" clip-rule="evenodd" d="M870.68 351.131C869.408 349.486 862.262 350.339 859.023 350.735C858.054 350.857 857.902 350.004 858.78 349.364C864.473 345.345 873.829 346.502 874.919 347.842C876.009 349.212 874.616 358.622 869.287 363.129C868.469 363.83 867.682 363.464 868.045 362.551C869.257 359.536 871.951 352.745 870.68 351.131Z" fill="#FF9900"/>
</g>
<g clip-path="url(#clip7_2_1369)">
<foreignObject x="75.6647" y="153.223" width="394.952" height="394.951"><div xmlns="http://www.w3.org/1999/xhtml" style="backdrop-filter:blur(6.79px);clip-path:url(#bgblur_8_2_1369_clip_path);height:100%;width:100%"></div></foreignObject><g filter="url(#filter6_n_2_1369)" data-figma-bg-blur-radius="13.5778">
<mask id="path-12-inside-3_2_1369" fill="white">
<path d="M457.038 471.493C416.634 511.898 361.833 534.597 304.692 534.597C247.552 534.597 192.751 511.898 152.346 471.493C111.942 431.088 89.2426 376.288 89.2426 319.147C89.2426 262.006 111.942 207.206 152.346 166.801L304.692 319.147L457.038 471.493Z"/>
</mask>
<path d="M457.038 471.493C416.634 511.898 361.833 534.597 304.692 534.597C247.552 534.597 192.751 511.898 152.346 471.493C111.942 431.088 89.2426 376.288 89.2426 319.147C89.2426 262.006 111.942 207.206 152.346 166.801L304.692 319.147L457.038 471.493Z" fill="#016938"/>
<path d="M457.038 471.493C416.634 511.898 361.833 534.597 304.692 534.597C247.552 534.597 192.751 511.898 152.346 471.493C111.942 431.088 89.2426 376.288 89.2426 319.147C89.2426 262.006 111.942 207.206 152.346 166.801L304.692 319.147L457.038 471.493Z" stroke="url(#paint8_linear_2_1369)" stroke-width="1.35778" mask="url(#path-12-inside-3_2_1369)"/>
</g>
<mask id="mask1_2_1369" style="mask-type:alpha" maskUnits="userSpaceOnUse" x="91" y="101" width="432" height="217">
<foreignObject x="75.6647" y="153.223" width="394.952" height="394.951"><div xmlns="http://www.w3.org/1999/xhtml" style="backdrop-filter:blur(6.79px);clip-path:url(#bgblur_9_2_1369_clip_path);height:100%;width:100%"></div></foreignObject><g data-figma-bg-blur-radius="13.5778">
<mask id="path-13-inside-4_2_1369" fill="white">
<path d="M91.1052 317.173C91.1052 260.032 113.804 205.231 154.209 164.827C194.614 124.422 249.414 101.723 306.555 101.723C363.696 101.723 418.496 124.422 458.901 164.827C499.306 205.231 522.005 260.032 522.005 317.173L306.555 317.173L91.1052 317.173Z"/>
</mask>
<path d="M91.1052 317.173C91.1052 260.032 113.804 205.231 154.209 164.827C194.614 124.422 249.414 101.723 306.555 101.723C363.696 101.723 418.496 124.422 458.901 164.827C499.306 205.231 522.005 260.032 522.005 317.173L306.555 317.173L91.1052 317.173Z" fill="white" stroke="url(#paint9_linear_2_1369)" stroke-width="1.35778" mask="url(#path-13-inside-4_2_1369)"/>
</g>
</mask>
<g mask="url(#mask1_2_1369)">
<foreignObject x="136.349" y="100.876" width="254.422" height="254.422"><div xmlns="http://www.w3.org/1999/xhtml" style="backdrop-filter:blur(6.79px);clip-path:url(#bgblur_10_2_1369_clip_path);height:100%;width:100%"></div></foreignObject><rect data-figma-bg-blur-radius="13.5778" x="149.927" y="133.912" width="27.5183" height="293.885" transform="rotate(-45 149.927 133.912)" fill="url(#paint10_linear_2_1369)" fill-opacity="0.25"/>
<foreignObject x="190.66" y="87.2978" width="254.422" height="254.422"><div xmlns="http://www.w3.org/1999/xhtml" style="backdrop-filter:blur(6.79px);clip-path:url(#bgblur_11_2_1369_clip_path);height:100%;width:100%"></div></foreignObject><rect data-figma-bg-blur-radius="13.5778" x="204.238" y="120.334" width="27.5183" height="293.885" transform="rotate(-45 204.238 120.334)" fill="url(#paint11_linear_2_1369)" fill-opacity="0.25"/>
<foreignObject x="231.394" y="60.1423" width="254.422" height="254.422"><div xmlns="http://www.w3.org/1999/xhtml" style="backdrop-filter:blur(6.79px);clip-path:url(#bgblur_12_2_1369_clip_path);height:100%;width:100%"></div></foreignObject><rect data-figma-bg-blur-radius="13.5778" x="244.972" y="93.1785" width="27.5183" height="293.885" transform="rotate(-45 244.972 93.1785)" fill="url(#paint12_linear_2_1369)" fill-opacity="0.25"/>
<foreignObject x="267.375" y="24.8398" width="254.422" height="254.422"><div xmlns="http://www.w3.org/1999/xhtml" style="backdrop-filter:blur(6.79px);clip-path:url(#bgblur_13_2_1369_clip_path);height:100%;width:100%"></div></foreignObject><rect data-figma-bg-blur-radius="13.5778" x="280.953" y="57.876" width="27.5183" height="293.885" transform="rotate(-45 280.953 57.876)" fill="url(#paint13_linear_2_1369)" fill-opacity="0.25"/>
</g>
<g clip-path="url(#clip14_2_1369)">
<path d="M172.418 382.81C172.418 388.614 172.418 394.418 172.452 400.222C172.452 400.822 172.26 401.171 171.735 401.446C165.282 404.827 158.837 408.216 152.392 411.605C152.359 411.622 152.309 411.597 152.117 411.563V409.981C152.117 404.744 152.126 399.498 152.101 394.26C152.101 393.594 152.217 393.144 152.867 392.811C156.622 390.879 160.361 388.914 164.1 386.957C166.631 385.592 169.162 384.226 171.694 382.852C171.944 382.719 172.177 382.677 172.418 382.827V382.81Z" fill="#019049"/>
<path d="M141.459 385.65C141.442 379.763 141.442 373.876 141.4 367.98C141.4 367.364 141.625 367.006 142.125 366.748C147.904 363.742 153.674 360.727 159.453 357.721C159.636 357.63 159.836 357.571 160.161 357.455V365.59C160.161 368.663 160.153 371.744 160.169 374.817C160.169 375.466 160.103 375.941 159.42 376.282C156.189 377.914 152.983 379.604 149.769 381.278C147.038 382.81 144.298 384.326 141.45 385.65H141.459Z" fill="#019049"/>
<path d="M200.339 400.488C198.873 400.488 197.541 400.463 196.208 400.497C195.592 400.513 195.409 400.105 195.192 399.672C193.602 396.467 191.995 393.277 190.438 390.063C190.013 389.18 189.505 388.706 188.456 388.831C187.557 388.931 186.632 388.897 185.716 388.831C184.792 388.764 184.517 389.131 184.534 390.03C184.576 393.061 184.509 396.1 184.576 399.131C184.601 400.164 184.401 400.555 183.252 400.522C180.387 400.439 180.387 400.505 180.387 397.641C180.387 389.88 180.412 382.119 180.362 374.367C180.362 373.234 180.645 372.885 181.811 372.918C185.025 373.001 188.248 372.893 191.462 372.96C197.374 373.093 201.088 378.439 199.081 383.868C198.365 385.8 197.008 387.174 195.118 387.923C194.21 388.281 194.26 388.631 194.626 389.33C196.425 392.769 198.198 396.217 199.972 399.664C200.089 399.889 200.18 400.122 200.339 400.48V400.488ZM184.626 380.995C184.626 382.169 184.642 383.335 184.626 384.509C184.617 385.125 184.859 385.35 185.475 385.333C187.473 385.292 189.48 385.383 191.47 385.234C194.035 385.034 195.526 383.285 195.442 380.845C195.359 378.497 193.769 376.882 191.262 376.765C189.355 376.673 187.44 376.748 185.525 376.707C184.842 376.69 184.601 376.94 184.617 377.606C184.651 378.73 184.626 379.863 184.626 380.987V380.995Z" fill="white"/>
<path d="M290.228 382.636C290.678 382.061 290.078 381.153 290.711 381.037C291.76 380.854 292.868 380.962 293.942 381.037C294.283 381.062 294.216 381.528 294.216 381.819C294.142 388.489 294.425 395.159 294.067 401.829C293.9 404.935 291.394 407.65 288.13 408.324C285.182 408.932 282.351 408.641 279.861 406.734C279.22 406.242 278.987 405.801 279.778 405.26C279.853 405.21 279.919 405.152 279.969 405.085C280.835 404.019 281.485 403.569 283.025 404.552C286.298 406.634 289.77 404.735 290.253 400.905C290.294 400.605 290.353 400.297 290.336 400.006C290.303 399.414 290.619 398.59 290.153 398.29C289.662 397.974 289.279 398.798 288.812 399.073C285.631 400.971 280.086 400.089 278.937 395.209C278.22 392.178 278.204 389.106 278.762 386.066C279.744 380.762 285.656 378.788 289.778 382.302C289.903 382.411 290.045 382.502 290.228 382.636ZM290.294 390.238C290.228 388.814 290.186 387.382 289.628 386.041C289.02 384.584 287.763 384.159 286.356 384.176C284.982 384.193 283.633 384.476 283.067 386C282.026 388.822 282.042 391.679 283.008 394.501C283.508 395.959 284.616 396.45 286.622 396.392C288.329 396.342 289.137 395.775 289.712 394.327C290.236 393.003 290.211 391.62 290.294 390.238Z" fill="white"/>
<path d="M237.127 398.74C235.57 400.064 233.929 400.705 232.031 400.697C228.8 400.68 226.527 399.14 225.702 396.025C224.745 392.428 224.778 388.756 225.711 385.142C227.026 380.062 233.197 379.771 235.978 381.769C236.278 381.986 236.519 382.477 236.935 382.261C237.327 382.061 237.169 381.553 237.169 381.178C237.177 378.755 237.194 376.324 237.16 373.901C237.152 373.201 237.31 372.935 238.085 372.918C241.066 372.86 241.066 372.826 241.066 375.774C241.066 383.402 241.066 391.029 241.066 398.657C241.066 400.797 241.307 400.455 239.167 400.488C239.084 400.488 238.992 400.48 238.909 400.488C237.685 400.655 236.836 400.422 237.135 398.74H237.127ZM228.942 389.905C228.825 390.954 229.067 391.987 229.108 393.019C229.125 393.486 229.25 393.96 229.366 394.418C229.849 396.25 231.098 397.158 233.088 397.149C235.07 397.149 236.169 396.317 236.669 394.443C237.277 392.145 237.285 389.813 236.877 387.49C236.494 385.3 235.112 384.143 233.055 384.143C231.007 384.143 229.758 385.175 229.291 387.34C229.108 388.181 229.05 389.047 228.942 389.905Z" fill="white"/>
<path d="M214.328 391.82C212.546 391.82 210.764 391.845 208.982 391.812C208.241 391.803 208.041 392.003 208.132 392.794C208.341 394.61 209.048 396.117 210.755 396.816C212.829 397.666 215.019 397.599 216.784 396.15C217.783 395.326 218.216 395.642 218.924 396.308C220.481 397.749 220.498 397.732 218.666 398.99C214.852 401.604 209.373 401.213 206.492 398.132C205.609 397.191 205.035 396.075 204.752 394.851C203.936 391.279 203.802 387.723 205.709 384.417C207.408 381.461 210.631 380.137 214.178 380.77C217.284 381.32 219.832 383.96 220.465 387.24C220.698 388.439 220.748 389.638 220.764 390.854C220.773 391.587 220.531 391.853 219.799 391.845C217.975 391.812 216.151 391.837 214.319 391.837L214.328 391.82ZM212.504 389.072C213.72 389.072 214.944 389.064 216.16 389.072C216.634 389.072 216.851 388.964 216.842 388.414C216.792 385.908 214.919 383.935 212.537 383.91C210.206 383.885 208.366 385.667 208.182 388.031C208.124 388.797 208.241 389.139 209.115 389.081C210.239 389.006 211.372 389.064 212.504 389.064V389.072Z" fill="white"/>
<path d="M329.032 390.704C328.898 393.469 328.824 396.258 326.625 398.39C324.21 400.73 321.354 401.213 318.223 400.272C315.059 399.323 313.419 396.999 312.961 393.869C312.619 391.562 312.619 389.23 313.111 386.907C313.96 382.927 317.041 380.487 321.104 380.645C325.293 380.812 328.282 383.46 328.782 387.473C328.915 388.539 329.123 389.613 329.032 390.704ZM325.126 390.638C325.051 389.672 325.01 388.723 324.885 387.782C324.602 385.633 323.095 384.251 320.98 384.159C318.948 384.076 317.407 385.292 316.941 387.432C316.483 389.53 316.533 391.654 316.874 393.752C317.241 396 318.864 397.233 321.071 397.158C323.12 397.091 324.61 395.667 324.885 393.477C325.001 392.536 325.043 391.579 325.118 390.646L325.126 390.638Z" fill="white"/>
<path d="M338.124 382.752C339.557 381.653 340.772 380.928 342.221 380.745C346.751 380.154 349.982 382.735 350.149 387.315C350.29 391.429 350.174 395.551 350.199 399.672C350.199 400.272 350.032 400.472 349.399 400.505C346.285 400.672 346.285 400.688 346.285 397.557C346.285 394.476 346.326 391.404 346.268 388.323C346.235 386.632 345.627 385.167 343.937 384.451C342.288 383.751 340.481 384.168 339.265 385.417C338.333 386.374 338.274 387.59 338.266 388.797C338.249 392.311 338.233 395.817 338.274 399.331C338.283 400.222 338.041 400.513 337.109 400.505C334.302 400.48 334.302 400.522 334.302 397.732C334.302 392.57 334.336 387.415 334.277 382.252C334.261 381.128 334.627 380.779 335.676 380.928C336.018 380.978 336.376 380.978 336.717 380.928C337.875 380.745 338.433 381.153 338.116 382.744L338.124 382.752Z" fill="white"/>
<path d="M261.233 382.494C261.9 382.486 262.141 382.078 262.491 381.861C264.889 380.387 267.379 380.171 269.893 381.453C272.267 382.66 273.183 384.784 273.208 387.324C273.241 391.395 273.208 395.467 273.241 399.539C273.241 400.247 273.074 400.497 272.308 400.513C269.327 400.572 269.327 400.605 269.327 397.682C269.327 394.435 269.361 391.187 269.302 387.94C269.269 385.8 268.037 384.492 265.922 384.168C264.115 383.885 262.224 385.034 261.608 386.757C261.383 387.39 261.442 388.04 261.442 388.681C261.425 392.228 261.408 395.784 261.45 399.331C261.458 400.23 261.217 400.513 260.293 400.513C257.528 400.497 257.528 400.538 257.528 397.732C257.528 392.536 257.553 387.34 257.503 382.144C257.495 381.162 257.769 380.787 258.744 380.945C258.952 380.978 259.177 380.945 259.393 380.945C260.442 380.962 261.825 380.537 261.242 382.494H261.233Z" fill="white"/>
<path d="M172.418 382.81C172.168 382.66 171.935 382.702 171.694 382.835C169.162 384.209 166.631 385.575 164.1 386.941C164.225 386.166 163.508 386.166 163.109 385.95C160.677 384.634 158.213 383.377 155.756 382.103C155.498 381.969 155.107 381.919 155.115 381.561C155.115 381.212 155.515 381.145 155.764 381.012C157.988 379.854 160.203 378.68 162.443 377.573C163.275 377.156 163.633 376.632 163.608 375.658C163.542 373.068 163.583 370.47 163.583 367.814C164.458 367.88 165.057 368.413 165.723 368.763C167.564 369.72 169.379 370.72 171.219 371.686C172.052 372.127 172.477 372.693 172.452 373.717C172.377 376.74 172.418 379.771 172.41 382.802L172.418 382.81Z" fill="#59B557"/>
<path d="M141.459 385.65C144.307 384.326 147.046 382.81 149.777 381.278C149.619 382.061 150.352 382.069 150.743 382.277C153.1 383.551 155.49 384.759 157.854 386.008C158.163 386.174 158.729 386.174 158.679 386.682C158.637 387.124 158.129 387.165 157.796 387.34C154.973 388.839 152.175 390.371 149.319 391.803C148.587 392.17 148.453 392.611 148.462 393.311C148.495 395.043 148.445 396.775 148.478 398.498C148.495 399.323 148.112 399.389 147.529 399.081C145.697 398.115 143.89 397.099 142.042 396.158C141.434 395.85 141.45 395.392 141.45 394.868C141.45 391.795 141.459 388.723 141.467 385.658L141.459 385.65Z" fill="#59B557"/>
<path d="M300.911 390.138C300.911 388.539 300.878 386.932 300.928 385.333C300.953 384.542 300.795 384.043 299.879 384.201C298.746 384.401 298.705 383.71 298.771 382.894C298.83 382.111 298.397 381.02 299.912 381.245C300.712 381.361 300.97 381.028 300.936 380.229C300.878 378.888 300.911 377.548 300.936 376.199C300.936 375.891 300.761 375.383 301.261 375.349C302.344 375.283 303.434 375.258 304.509 375.349C304.992 375.391 304.858 375.974 304.867 376.332C304.883 377.631 304.917 378.93 304.867 380.229C304.825 381.045 305.133 381.32 305.916 381.237C306.349 381.187 306.79 381.278 307.215 381.22C308.422 381.045 308.722 381.545 308.73 382.719C308.73 383.918 308.397 384.268 307.207 384.226C304.892 384.143 304.883 384.209 304.883 386.541C304.883 389.222 304.867 391.912 304.883 394.593C304.9 396.583 305.466 397.166 307.456 397.116C308.414 397.091 308.847 397.316 308.68 398.323C308.622 398.665 308.63 399.023 308.68 399.364C308.805 400.305 308.389 400.513 307.498 400.522C303.509 400.538 301.603 399.206 300.995 395.859C300.928 395.476 300.928 395.084 300.928 394.693C300.928 393.177 300.928 391.662 300.928 390.146L300.911 390.138Z" fill="white"/>
<path d="M247.269 390.621C247.269 387.715 247.286 384.817 247.253 381.911C247.253 381.203 247.427 380.945 248.194 380.92C251.233 380.829 251.233 380.804 251.233 383.843C251.233 388.997 251.216 394.16 251.249 399.314C251.249 400.189 251.05 400.522 250.092 400.513C247.261 400.497 247.261 400.538 247.261 397.774C247.261 395.392 247.261 393.011 247.261 390.621H247.269Z" fill="white"/>
<path d="M251.283 374.858C251.283 377.056 251.283 377.065 249.109 377.048C246.869 377.04 247.153 377.315 247.144 375.008C247.136 372.843 247.144 372.843 249.359 372.843C250.642 372.843 251.283 373.515 251.283 374.858Z" fill="white"/>
</g>
</g>
<defs>
<filter id="filter0_f_2_1369" x="68.2419" y="7.62939e-06" width="949.358" height="713.505" filterUnits="userSpaceOnUse" color-interpolation-filters="sRGB">
<feFlood flood-opacity="0" result="BackgroundImageFix"/>
<feBlend mode="normal" in="SourceGraphic" in2="BackgroundImageFix" result="shape"/>
<feGaussianBlur stdDeviation="50" result="effect1_foregroundBlur_2_1369"/>
</filter>
<filter id="filter1_n_2_1369" x="603.784" y="163.439" width="394.951" height="394.951" filterUnits="userSpaceOnUse" color-interpolation-filters="sRGB">
<feFlood flood-opacity="0" result="BackgroundImageFix"/>
<feBlend mode="normal" in="SourceGraphic" in2="BackgroundImageFix" result="shape"/>
<feTurbulence type="fractalNoise" baseFrequency="1.4729903936386108 1.4729903936386108" stitchTiles="stitch" numOctaves="3" result="noise" seed="3714" />
<feColorMatrix in="noise" type="luminanceToAlpha" result="alphaNoise" />
<feComponentTransfer in="alphaNoise" result="coloredNoise1">
<feFuncA type="discrete" tableValues="0 0 0 0 0 0 0 0 0 0 0 0 0 1 1 1 1 1 1 1 1 1 1 1 1 1 1 1 1 1 1 1 1 1 1 1 0 0 0 0 0 0 0 0 0 0 0 0 0 0 0 0 0 0 0 0 0 0 0 0 0 0 0 0 0 0 0 0 0 0 0 0 0 0 0 0 0 0 0 0 0 0 0 0 0 0 0 0 0 0 0 0 0 0 0 0 0 0 0 0 "/>
</feComponentTransfer>
<feComposite operator="in" in2="shape" in="coloredNoise1" result="noise1Clipped" />
<feFlood flood-color="rgba(255, 255, 255, 0.25)" result="color1Flood" />
<feComposite operator="in" in2="noise1Clipped" in="color1Flood" result="color1" />
<feMerge result="effect1_noise_2_1369">
<feMergeNode in="shape" />
<feMergeNode in="color1" />
</feMerge>
</filter>
<clipPath id="bgblur_0_2_1369_clip_path" transform="translate(-603.784 -163.439)"><path d="M617.362 240.121C657.767 199.716 712.567 177.017 769.708 177.017C826.849 177.017 881.649 199.716 922.054 240.121C962.459 280.526 985.158 335.326 985.158 392.467C985.158 449.608 962.459 504.408 922.054 544.813L769.708 392.467L617.362 240.121Z"/>
</clipPath><clipPath id="bgblur_1_2_1369_clip_path" transform="translate(-603.784 -163.439)"><path d="M987.481 397.015C987.481 454.155 964.782 508.956 924.377 549.361C883.972 589.765 829.172 612.464 772.031 612.464C714.89 612.464 660.089 589.765 619.685 549.361C579.28 508.956 556.581 454.155 556.581 397.015L772.031 397.015L987.481 397.015Z"/>
</clipPath><clipPath id="bgblur_2_2_1369_clip_path" transform="translate(-683.63 -356.317)"><rect x="924.474" y="577.702" width="27.5183" height="293.885" transform="rotate(135 924.474 577.702)"/>
</clipPath><clipPath id="bgblur_3_2_1369_clip_path" transform="translate(-629.318 -369.894)"><rect x="870.162" y="591.28" width="27.5183" height="293.885" transform="rotate(135 870.162 591.28)"/>
</clipPath><clipPath id="bgblur_4_2_1369_clip_path" transform="translate(-588.585 -397.05)"><rect x="829.429" y="618.436" width="27.5183" height="293.885" transform="rotate(135 829.429 618.436)"/>
</clipPath><clipPath id="bgblur_5_2_1369_clip_path" transform="translate(-552.603 -432.352)"><rect x="793.447" y="653.738" width="27.5183" height="293.885" transform="rotate(135 793.447 653.738)"/>
</clipPath><filter id="filter6_n_2_1369" x="75.6647" y="153.223" width="394.952" height="394.951" filterUnits="userSpaceOnUse" color-interpolation-filters="sRGB">
<feFlood flood-opacity="0" result="BackgroundImageFix"/>
<feBlend mode="normal" in="SourceGraphic" in2="BackgroundImageFix" result="shape"/>
<feTurbulence type="fractalNoise" baseFrequency="1.4729903936386108 1.4729903936386108" stitchTiles="stitch" numOctaves="3" result="noise" seed="3714" />
<feColorMatrix in="noise" type="luminanceToAlpha" result="alphaNoise" />
<feComponentTransfer in="alphaNoise" result="coloredNoise1">
<feFuncA type="discrete" tableValues="0 0 0 0 0 0 0 0 0 0 0 0 0 1 1 1 1 1 1 1 1 1 1 1 1 1 1 1 1 1 1 1 1 1 1 1 0 0 0 0 0 0 0 0 0 0 0 0 0 0 0 0 0 0 0 0 0 0 0 0 0 0 0 0 0 0 0 0 0 0 0 0 0 0 0 0 0 0 0 0 0 0 0 0 0 0 0 0 0 0 0 0 0 0 0 0 0 0 0 0 "/>
</feComponentTransfer>
<feComposite operator="in" in2="shape" in="coloredNoise1" result="noise1Clipped" />
<feFlood flood-color="rgba(255, 255, 255, 0.25)" result="color1Flood" />
<feComposite operator="in" in2="noise1Clipped" in="color1Flood" result="color1" />
<feMerge result="effect1_noise_2_1369">
<feMergeNode in="shape" />
<feMergeNode in="color1" />
</feMerge>
</filter>
<clipPath id="bgblur_8_2_1369_clip_path" transform="translate(-75.6647 -153.223)"><path d="M457.038 471.493C416.634 511.898 361.833 534.597 304.692 534.597C247.552 534.597 192.751 511.898 152.346 471.493C111.942 431.088 89.2426 376.288 89.2426 319.147C89.2426 262.006 111.942 207.206 152.346 166.801L304.692 319.147L457.038 471.493Z"/>
</clipPath><clipPath id="bgblur_9_2_1369_clip_path" transform="translate(-75.6647 -153.223)"><path d="M91.1052 317.173C91.1052 260.032 113.804 205.231 154.209 164.827C194.614 124.422 249.414 101.723 306.555 101.723C363.696 101.723 418.496 124.422 458.901 164.827C499.306 205.231 522.005 260.032 522.005 317.173L306.555 317.173L91.1052 317.173Z"/>
</clipPath><clipPath id="bgblur_10_2_1369_clip_path" transform="translate(-136.349 -100.876)"><rect x="149.927" y="133.912" width="27.5183" height="293.885" transform="rotate(-45 149.927 133.912)"/>
</clipPath><clipPath id="bgblur_11_2_1369_clip_path" transform="translate(-190.66 -87.2978)"><rect x="204.238" y="120.334" width="27.5183" height="293.885" transform="rotate(-45 204.238 120.334)"/>
</clipPath><clipPath id="bgblur_12_2_1369_clip_path" transform="translate(-231.394 -60.1423)"><rect x="244.972" y="93.1785" width="27.5183" height="293.885" transform="rotate(-45 244.972 93.1785)"/>
</clipPath><clipPath id="bgblur_13_2_1369_clip_path" transform="translate(-267.375 -24.8398)"><rect x="280.953" y="57.876" width="27.5183" height="293.885" transform="rotate(-45 280.953 57.876)"/>
</clipPath><linearGradient id="paint0_linear_2_1369" x1="391.128" y1="268.199" x2="734.114" y2="396.431" gradientUnits="userSpaceOnUse">
<stop stop-color="#F7971C"/>
<stop offset="1" stop-color="#59B557"/>
</linearGradient>
<linearGradient id="paint1_linear_2_1369" x1="262.752" y1="103.237" x2="833.118" y2="653.499" gradientUnits="userSpaceOnUse">
<stop stop-color="#418E4C"/>
<stop offset="0.29847" stop-color="#418E4C"/>
<stop offset="0.403713" stop-color="#ECB96C"/>
<stop offset="0.506711" stop-color="#ECB96C"/>
<stop offset="0.642843" stop-color="#151A1F"/>
<stop offset="1" stop-color="#151A1F"/>
</linearGradient>
<linearGradient id="paint2_linear_2_1369" x1="769.708" y1="409.963" x2="922.054" y2="240.121" gradientUnits="userSpaceOnUse">
<stop stop-color="white" stop-opacity="0"/>
<stop offset="1" stop-color="white"/>
</linearGradient>
<linearGradient id="paint3_linear_2_1369" x1="759.659" y1="384.643" x2="772.031" y2="612.464" gradientUnits="userSpaceOnUse">
<stop stop-color="white" stop-opacity="0"/>
<stop offset="1" stop-color="white"/>
</linearGradient>
<linearGradient id="paint4_linear_2_1369" x1="938.233" y1="577.702" x2="916.925" y2="872" gradientUnits="userSpaceOnUse">
<stop stop-color="white"/>
<stop offset="1" stop-color="white" stop-opacity="0"/>
</linearGradient>
<linearGradient id="paint5_linear_2_1369" x1="883.921" y1="591.28" x2="862.613" y2="885.578" gradientUnits="userSpaceOnUse">
<stop stop-color="white"/>
<stop offset="1" stop-color="white" stop-opacity="0"/>
</linearGradient>
<linearGradient id="paint6_linear_2_1369" x1="843.188" y1="618.436" x2="821.88" y2="912.734" gradientUnits="userSpaceOnUse">
<stop stop-color="white"/>
<stop offset="1" stop-color="white" stop-opacity="0"/>
</linearGradient>
<linearGradient id="paint7_linear_2_1369" x1="807.206" y1="653.738" x2="785.898" y2="948.036" gradientUnits="userSpaceOnUse">
<stop stop-color="white"/>
<stop offset="1" stop-color="white" stop-opacity="0"/>
</linearGradient>
<linearGradient id="paint8_linear_2_1369" x1="304.692" y1="301.651" x2="152.346" y2="471.493" gradientUnits="userSpaceOnUse">
<stop stop-color="white" stop-opacity="0"/>
<stop offset="1" stop-color="white"/>
</linearGradient>
<linearGradient id="paint9_linear_2_1369" x1="318.926" y1="329.544" x2="306.555" y2="101.723" gradientUnits="userSpaceOnUse">
<stop stop-color="white" stop-opacity="0"/>
<stop offset="1" stop-color="white"/>
</linearGradient>
<linearGradient id="paint10_linear_2_1369" x1="163.686" y1="133.912" x2="142.378" y2="428.21" gradientUnits="userSpaceOnUse">
<stop stop-color="white"/>
<stop offset="1" stop-color="white" stop-opacity="0"/>
</linearGradient>
<linearGradient id="paint11_linear_2_1369" x1="217.997" y1="120.334" x2="196.689" y2="414.632" gradientUnits="userSpaceOnUse">
<stop stop-color="white"/>
<stop offset="1" stop-color="white" stop-opacity="0"/>
</linearGradient>
<linearGradient id="paint12_linear_2_1369" x1="258.731" y1="93.1785" x2="237.423" y2="387.477" gradientUnits="userSpaceOnUse">
<stop stop-color="white"/>
<stop offset="1" stop-color="white" stop-opacity="0"/>
</linearGradient>
<linearGradient id="paint13_linear_2_1369" x1="294.712" y1="57.876" x2="273.404" y2="352.174" gradientUnits="userSpaceOnUse">
<stop stop-color="white"/>
<stop offset="1" stop-color="white" stop-opacity="0"/>
</linearGradient>
<clipPath id="clip6_2_1369">
<rect width="92.8999" height="54.7556" fill="white" transform="translate(783.4 312.455)"/>
</clipPath>
<clipPath id="clip7_2_1369">
<rect width="609.384" height="609.384" fill="white" transform="translate(0 14.4548)"/>
</clipPath>
<clipPath id="clip14_2_1369">
<rect width="209.006" height="54.1251" fill="white" transform="translate(141.4 357.455)"/>
</clipPath>
</defs>
</svg>
