<svg width="17" height="17" viewBox="0 0 17 17" fill="none" xmlns="http://www.w3.org/2000/svg">
<g clip-path="url(#clip0_11264_11965)">
<path d="M14.3939 0H2.27273C1.01753 0 0 1.01753 0 2.27273V14.3939C0 15.6491 1.01753 16.6667 2.27273 16.6667H14.3939C15.6491 16.6667 16.6667 15.6491 16.6667 14.3939V2.27273C16.6667 1.01753 15.6491 0 14.3939 0Z" fill="#0077B5"/>
<path d="M6.004 4.54545C6.004 4.82639 5.92069 5.10102 5.76461 5.33462C5.60852 5.56821 5.38668 5.75027 5.12713 5.85778C4.86757 5.96529 4.58197 5.99342 4.30642 5.93862C4.03088 5.88381 3.77778 5.74852 3.57913 5.54987C3.38047 5.35121 3.24519 5.09811 3.19038 4.82257C3.13557 4.54703 3.1637 4.26142 3.27121 4.00187C3.37872 3.74232 3.56079 3.52047 3.79438 3.36439C4.02797 3.20831 4.3026 3.125 4.58354 3.125C4.96027 3.125 5.32157 3.27465 5.58795 3.54104C5.85434 3.80743 6.004 4.16873 6.004 4.54545Z" fill="white"/>
<path d="M5.6822 6.91282V13.1884C5.68245 13.2347 5.67355 13.2806 5.65601 13.3234C5.63846 13.3663 5.61262 13.4052 5.57998 13.438C5.54733 13.4709 5.50851 13.4969 5.46576 13.5147C5.42302 13.5325 5.37717 13.5416 5.33088 13.5416H3.83372C3.78742 13.5417 3.74156 13.5327 3.69876 13.515C3.65597 13.4974 3.61708 13.4714 3.58435 13.4387C3.55161 13.406 3.52567 13.3671 3.50801 13.3243C3.49035 13.2815 3.48132 13.2356 3.48145 13.1893V6.91282C3.48145 6.81939 3.51856 6.72979 3.58463 6.66373C3.65069 6.59766 3.74029 6.56055 3.83372 6.56055H5.33088C5.42414 6.5608 5.5135 6.59802 5.57936 6.66406C5.64522 6.7301 5.6822 6.81956 5.6822 6.91282Z" fill="white"/>
<path d="M13.5081 10.18V13.2179C13.5082 13.2605 13.4999 13.3026 13.4837 13.342C13.4675 13.3813 13.4436 13.4171 13.4135 13.4472C13.3834 13.4773 13.3477 13.5011 13.3083 13.5174C13.269 13.5336 13.2268 13.5419 13.1842 13.5418H11.5744C11.5318 13.5419 11.4897 13.5336 11.4503 13.5174C11.411 13.5011 11.3752 13.4773 11.3451 13.4472C11.315 13.4171 11.2912 13.3813 11.2749 13.342C11.2587 13.3026 11.2504 13.2605 11.2505 13.2179V10.2738C11.2505 9.83438 11.3793 8.34954 10.1019 8.34954C9.11228 8.34954 8.91057 9.36563 8.8708 9.82207V13.2179C8.87081 13.303 8.83734 13.3847 8.77762 13.4453C8.71791 13.5059 8.63674 13.5405 8.55167 13.5418H6.99675C6.95426 13.5418 6.91219 13.5334 6.87295 13.5171C6.83371 13.5008 6.79807 13.4769 6.76807 13.4469C6.73808 13.4168 6.71431 13.3811 6.69814 13.3418C6.68197 13.3025 6.6737 13.2604 6.67383 13.2179V6.88552C6.6737 6.84303 6.68197 6.80094 6.69814 6.76165C6.71431 6.72237 6.73808 6.68666 6.76807 6.65657C6.79807 6.62649 6.83371 6.60261 6.87295 6.58633C6.91219 6.57004 6.95426 6.56166 6.99675 6.56166H8.55167C8.63756 6.56166 8.71994 6.59578 8.78068 6.65651C8.84141 6.71725 8.87553 6.79963 8.87553 6.88552V7.43287C9.24296 6.88173 9.78747 6.45654 10.9494 6.45654C13.5233 6.45654 13.5081 8.85995 13.5081 10.18Z" fill="white"/>
</g>
<defs>
<clipPath id="clip0_11264_11965">
<rect width="16.6667" height="16.6667" fill="white"/>
</clipPath>
</defs>
</svg>
