<svg width="16" height="17" viewBox="0 0 16 17" fill="none" xmlns="http://www.w3.org/2000/svg">
<path opacity="0.4" d="M13.7448 6.13463C13.0448 3.05464 10.3581 1.66797 7.99811 1.66797C7.99811 1.66797 7.99811 1.66797 7.99144 1.66797C5.63811 1.66797 2.94478 3.04797 2.24478 6.12797C1.46478 9.56797 3.57144 12.4813 5.47811 14.3146C6.18478 14.9946 7.09144 15.3346 7.99811 15.3346C8.90478 15.3346 9.81144 14.9946 10.5114 14.3146C12.4181 12.4813 14.5248 9.57463 13.7448 6.13463Z" fill="#374151"/>
<path d="M7.99844 9.47344C9.15824 9.47344 10.0984 8.53324 10.0984 7.37344C10.0984 6.21364 9.15824 5.27344 7.99844 5.27344C6.83864 5.27344 5.89844 6.21364 5.89844 7.37344C5.89844 8.53324 6.83864 9.47344 7.99844 9.47344Z" fill="#374151"/>
</svg>
