<svg width="269" height="44" viewBox="0 0 269 44" fill="none" xmlns="http://www.w3.org/2000/svg">
<g clip-path="url(#clip0_9_1461)">
<path d="M18.4207 20.9863C18.4207 24.4331 18.4207 27.8799 18.4405 31.3266C18.4405 31.6827 18.3267 31.8904 18.0152 32.0536C14.1827 34.0613 10.3551 36.074 6.52757 38.0867C6.50779 38.0966 6.47812 38.0817 6.36438 38.062V37.1224C6.36438 34.0119 6.36933 30.8964 6.35449 27.7859C6.35449 27.3903 6.42372 27.1233 6.80945 26.9254C9.03972 25.7782 11.2601 24.6111 13.4805 23.449C14.9838 22.638 16.4871 21.827 17.9905 21.011C18.1388 20.9319 18.2773 20.9072 18.4207 20.9962V20.9863Z" fill="#016938"/>
<path d="M0.0346162 22.6726C0.0247258 19.1763 0.0247258 15.6801 0 12.1789C0 11.813 0.13352 11.6003 0.43023 11.447C3.86218 9.66182 7.28918 7.87167 10.7211 6.08647C10.8299 6.03207 10.9486 5.99746 11.1415 5.92822V10.7597C11.1415 12.5844 11.1365 14.4141 11.1464 16.2389C11.1464 16.6246 11.1068 16.9065 10.7013 17.1092C8.78262 18.0785 6.87873 19.0824 4.96989 20.0763C3.34788 20.9863 1.72092 21.8863 0.029671 22.6726H0.0346162Z" fill="#019049"/>
<path d="M35.0019 31.4848C34.1315 31.4848 33.3403 31.47 32.5491 31.4898C32.1831 31.4997 32.0743 31.2574 31.9458 31.0002C31.0012 29.0963 30.0468 27.2023 29.1221 25.2935C28.8699 24.7693 28.5682 24.4874 27.9451 24.5616C27.4111 24.6209 26.8621 24.6012 26.3182 24.5616C25.7693 24.522 25.6061 24.7396 25.616 25.2737C25.6407 27.0737 25.6011 28.8787 25.6407 30.6788C25.6555 31.292 25.5368 31.5244 24.8544 31.5046C23.1533 31.4552 23.1533 31.4947 23.1533 29.7936C23.1533 25.1847 23.1681 20.5758 23.1384 15.9718C23.1384 15.2993 23.3066 15.0916 23.9989 15.1114C25.9077 15.1608 27.8215 15.0965 29.7303 15.1361C33.2414 15.2152 35.4469 18.39 34.2552 21.6143C33.8299 22.7616 33.0238 23.5775 31.9013 24.0226C31.3622 24.2352 31.3919 24.4429 31.6095 24.8583C32.6777 26.9007 33.731 28.948 34.7843 30.9953C34.8535 31.1288 34.9079 31.2672 35.0019 31.4799V31.4848ZM25.6704 19.9082C25.6704 20.6055 25.6802 21.2978 25.6704 21.9951C25.6654 22.361 25.8088 22.4945 26.1748 22.4846C27.3616 22.4599 28.5534 22.5143 29.7353 22.4253C31.2584 22.3066 32.1436 21.2681 32.0941 19.8192C32.0447 18.4246 31.1001 17.4653 29.6117 17.396C28.4792 17.3417 27.3418 17.3862 26.2044 17.3614C25.7989 17.3515 25.6555 17.4999 25.6654 17.8955C25.6852 18.5631 25.6704 19.2356 25.6704 19.9032V19.9082Z" fill="#3C4146"/>
<path d="M88.3849 20.8824C88.652 20.5412 88.2959 20.0022 88.6718 19.9329C89.2949 19.8241 89.9526 19.8884 90.5905 19.9329C90.7932 19.9478 90.7537 20.2247 90.7537 20.3978C90.7092 24.3589 90.8773 28.3199 90.6647 32.281C90.5658 34.1256 89.0773 35.7377 87.1388 36.1383C85.3882 36.4992 83.7068 36.3262 82.2282 35.1937C81.8474 34.902 81.709 34.6399 82.1788 34.3184C82.2233 34.2888 82.2628 34.2541 82.2925 34.2146C82.8068 33.5816 83.1925 33.3146 84.1074 33.8981C86.0508 35.1344 88.113 34.0069 88.3998 31.7321C88.4245 31.5541 88.4591 31.3711 88.4492 31.198C88.4295 30.8469 88.6174 30.3574 88.3404 30.1793C88.0487 29.9914 87.8212 30.481 87.5443 30.6442C85.6552 31.7717 82.3617 31.2475 81.6793 28.3496C81.254 26.5496 81.2441 24.7248 81.5755 22.9198C82.159 19.7697 85.6701 18.5977 88.1179 20.6846C88.1921 20.7489 88.2762 20.8033 88.3849 20.8824ZM88.4245 25.3973C88.3849 24.5517 88.3602 23.7012 88.0289 22.905C87.6679 22.0396 86.9212 21.7874 86.0854 21.7973C85.2695 21.8072 84.4684 21.9753 84.1321 22.8803C83.514 24.5567 83.5238 26.2529 84.0975 27.9293C84.3942 28.7947 85.0519 29.0864 86.2437 29.0518C87.2574 29.0222 87.7371 28.6859 88.0783 27.8254C88.3899 27.0391 88.3751 26.2182 88.4245 25.3973Z" fill="#3C4146"/>
<path d="M56.8495 30.4464C55.9248 31.2327 54.9506 31.6135 53.8231 31.6085C51.9044 31.5986 50.5543 30.6838 50.0648 28.8343C49.4961 26.698 49.5159 24.5171 50.0697 22.3709C50.8511 19.3544 54.5154 19.1813 56.1671 20.3681C56.3451 20.4967 56.4886 20.7885 56.7358 20.6599C56.9682 20.5412 56.8743 20.2396 56.8743 20.017C56.8792 18.578 56.8891 17.134 56.8693 15.695C56.8644 15.2796 56.9583 15.1213 57.4182 15.1114C59.1886 15.0768 59.1886 15.057 59.1886 16.8076C59.1886 21.3374 59.1886 25.8672 59.1886 30.3969C59.1886 31.6679 59.332 31.4651 58.0611 31.4849C58.0117 31.4849 57.9573 31.4799 57.9078 31.4849C57.1809 31.5838 56.6765 31.4453 56.8545 30.4464H56.8495ZM51.9884 25.1996C51.9192 25.8227 52.0626 26.4359 52.0874 27.0491C52.0972 27.326 52.1714 27.6079 52.2407 27.8799C52.5275 28.9678 53.2692 29.5068 54.4511 29.5019C55.6281 29.5019 56.2809 29.0074 56.5776 27.8947C56.9386 26.5298 56.9435 25.1452 56.7012 23.7655C56.4737 22.4649 55.6528 21.7775 54.4314 21.7775C53.2148 21.7775 52.4731 22.3907 52.1961 23.6765C52.0874 24.1759 52.0527 24.6902 51.9884 25.1996Z" fill="#3C4146"/>
<path d="M43.3099 26.3368C42.2516 26.3368 41.1934 26.3517 40.1351 26.3319C39.695 26.327 39.5763 26.4456 39.6307 26.9154C39.7543 27.9935 40.1746 28.8886 41.1884 29.3039C42.4198 29.8084 43.7203 29.7688 44.7687 28.9083C45.3621 28.4188 45.6193 28.6067 46.0396 29.0023C46.9644 29.8578 46.9743 29.8479 45.8863 30.5946C43.6214 32.1474 40.3675 31.915 38.6565 30.0853C38.1323 29.5265 37.7911 28.8638 37.6229 28.1369C37.1383 26.0154 37.0592 23.9038 38.1916 21.9406C39.2005 20.1851 41.1142 19.3988 43.2209 19.7746C45.0654 20.101 46.5786 21.6686 46.9545 23.617C47.0929 24.3291 47.1226 25.0412 47.1325 25.7632C47.1374 26.1984 46.994 26.3566 46.5589 26.3517C45.4759 26.3319 44.3929 26.3467 43.3049 26.3467L43.3099 26.3368ZM42.2269 24.7049C42.9489 24.7049 43.6758 24.7 44.3978 24.7049C44.6797 24.7049 44.8083 24.6407 44.8033 24.3143C44.7737 22.8258 43.661 21.6538 42.2467 21.6389C40.862 21.6241 39.7691 22.6824 39.6603 24.0868C39.6257 24.5418 39.695 24.7445 40.2142 24.7099C40.8818 24.6654 41.5543 24.7 42.2269 24.7V24.7049Z" fill="#3C4146"/>
<path d="M111.43 25.6744C111.35 27.3162 111.306 28.9728 110 30.2388C108.566 31.6283 106.87 31.9152 105.011 31.3564C103.132 30.7926 102.157 29.4129 101.885 27.5535C101.683 26.1837 101.683 24.7991 101.974 23.4194C102.479 21.0556 104.308 19.6066 106.722 19.7006C109.209 19.7995 110.984 21.3721 111.281 23.7556C111.36 24.3886 111.484 25.0265 111.43 25.6744ZM109.11 25.6348C109.066 25.0612 109.041 24.4974 108.967 23.9386C108.799 22.6628 107.904 21.8419 106.648 21.7875C105.441 21.738 104.526 22.46 104.249 23.7309C103.977 24.9771 104.007 26.2381 104.21 27.4843C104.427 28.8195 105.391 29.5514 106.702 29.5069C107.918 29.4673 108.804 28.6217 108.967 27.3211C109.036 26.7623 109.061 26.1936 109.105 25.6397L109.11 25.6348Z" fill="#3C4146"/>
<path d="M116.83 20.9516C117.68 20.2989 118.402 19.8686 119.263 19.7599C121.953 19.4087 123.872 20.9418 123.97 23.6616C124.055 26.1045 123.985 28.5524 124 31.0002C124 31.3563 123.901 31.475 123.525 31.4947C121.676 31.5936 121.676 31.6035 121.676 29.7442C121.676 27.9144 121.701 26.0897 121.666 24.26C121.646 23.2561 121.285 22.3857 120.281 21.9605C119.302 21.5451 118.229 21.7923 117.507 22.5341C116.953 23.1028 116.919 23.8248 116.914 24.5418C116.904 26.6287 116.894 28.7106 116.919 30.7975C116.924 31.3266 116.78 31.4997 116.226 31.4947C114.56 31.4799 114.56 31.5046 114.56 29.848C114.56 26.782 114.58 23.7209 114.545 20.6549C114.535 19.9873 114.753 19.7796 115.376 19.8687C115.579 19.8983 115.791 19.8983 115.994 19.8687C116.681 19.7599 117.013 20.0022 116.825 20.9467L116.83 20.9516Z" fill="#3C4146"/>
<path d="M71.166 20.7983C71.5616 20.7934 71.705 20.5511 71.9127 20.4225C73.3369 19.5472 74.8155 19.4186 76.309 20.1802C77.7183 20.8973 78.2623 22.1583 78.2771 23.6665C78.2969 26.0847 78.2771 28.5029 78.2969 30.9211C78.2969 31.3414 78.198 31.4898 77.7431 31.4997C75.9727 31.5343 75.9727 31.5541 75.9727 29.8183C75.9727 27.8897 75.9925 25.9611 75.9579 24.0325C75.9381 22.7616 75.2062 21.9852 73.9501 21.7923C72.877 21.6242 71.7545 22.3066 71.3885 23.3303C71.255 23.7061 71.2896 24.0918 71.2896 24.4726C71.2797 26.5793 71.2698 28.6908 71.2946 30.7975C71.2995 31.3316 71.1561 31.4997 70.6072 31.4997C68.9654 31.4898 68.9654 31.5145 68.9654 29.848C68.9654 26.7622 68.9802 23.6764 68.9505 20.5907C68.9456 20.0071 69.1088 19.7846 69.6874 19.8785C69.811 19.8983 69.9445 19.8785 70.0731 19.8785C70.6962 19.8884 71.5171 19.6362 71.1709 20.7983H71.166Z" fill="#3C4146"/>
<path d="M18.4207 20.9863C18.2723 20.8973 18.1339 20.922 17.9904 21.0012C16.4871 21.8171 14.9838 22.6281 13.4804 23.4391C13.5546 22.9792 13.1293 22.9792 12.892 22.8507C11.448 22.0693 9.98421 21.3226 8.52539 20.566C8.37209 20.4869 8.13966 20.4572 8.14461 20.2446C8.14461 20.0369 8.38198 19.9973 8.53033 19.9182C9.85069 19.2308 11.1661 18.5335 12.4964 17.8758C12.9909 17.6286 13.2035 17.317 13.1887 16.7384C13.1491 15.2005 13.1738 13.6576 13.1738 12.0801C13.6931 12.1196 14.0491 12.4361 14.4448 12.6438C15.5376 13.2125 16.6157 13.8059 17.7086 14.3796C18.2031 14.6417 18.4553 14.9779 18.4405 15.5862C18.3959 17.3813 18.4207 19.1813 18.4157 20.9814L18.4207 20.9863Z" fill="#59B557"/>
<path d="M0.0345129 22.6726C1.72576 21.8863 3.35272 20.9863 4.97474 20.0764C4.88078 20.5413 5.31595 20.5462 5.54838 20.6698C6.94786 21.4264 8.36712 22.1435 9.77155 22.8853C9.95452 22.9842 10.2908 22.9842 10.2611 23.2858C10.2364 23.5479 9.93474 23.5726 9.73693 23.6765C8.06052 24.5666 6.39894 25.4765 4.70275 26.3271C4.26758 26.5447 4.18845 26.8068 4.1934 27.2222C4.21318 28.2508 4.18351 29.2794 4.20329 30.303C4.21318 30.7926 3.9857 30.8322 3.63954 30.6492C2.5516 30.0755 1.4785 29.4722 0.380675 28.9134C0.0196774 28.7305 0.0295677 28.4585 0.0295677 28.1469C0.0295677 26.3222 0.0345129 24.4974 0.039458 22.6776L0.0345129 22.6726Z" fill="#59B557"/>
<path d="M94.7297 25.3381C94.7297 24.3886 94.7099 23.4342 94.7396 22.4847C94.7544 22.0149 94.6604 21.7182 94.1165 21.8122C93.4439 21.9309 93.4192 21.5204 93.4588 21.0358C93.4934 20.5709 93.2362 19.9231 94.1362 20.0566C94.611 20.1259 94.7643 19.9281 94.7445 19.4533C94.7099 18.6572 94.7297 17.861 94.7445 17.0599C94.7445 16.8769 94.6407 16.5753 94.9374 16.5555C95.5802 16.5159 96.2281 16.5011 96.866 16.5555C97.1528 16.5802 97.0737 16.9264 97.0786 17.139C97.0885 17.9104 97.1083 18.6819 97.0786 19.4533C97.0539 19.938 97.2369 20.1012 97.7017 20.0517C97.9589 20.022 98.221 20.0764 98.4732 20.0418C99.1902 19.938 99.3682 20.2347 99.3732 20.9319C99.3732 21.644 99.1754 21.8517 98.4682 21.827C97.0935 21.7776 97.0885 21.8171 97.0885 23.2018C97.0885 24.7941 97.0786 26.3914 97.0885 27.9838C97.0984 29.1656 97.4347 29.5118 98.6166 29.4821C99.1853 29.4673 99.4424 29.6008 99.3435 30.1992C99.3089 30.4019 99.3138 30.6146 99.3435 30.8173C99.4177 31.3761 99.1704 31.4998 98.6413 31.5047C96.2726 31.5146 95.1401 30.7234 94.7791 28.7354C94.7396 28.5079 94.7396 28.2755 94.7396 28.0431C94.7396 27.1431 94.7396 26.2431 94.7396 25.343L94.7297 25.3381Z" fill="#3C4146"/>
<path d="M62.8729 25.6248C62.8729 23.899 62.8828 22.1781 62.863 20.4522C62.863 20.0319 62.9669 19.8786 63.4218 19.8637C65.2268 19.8093 65.2268 19.7945 65.2268 21.5995C65.2268 24.6605 65.2169 27.7265 65.2367 30.7876C65.2367 31.3068 65.118 31.5046 64.5493 31.4997C62.868 31.4898 62.868 31.5145 62.868 29.8727C62.868 28.4584 62.868 27.0441 62.868 25.6248H62.8729Z" fill="#3C4146"/>
<path d="M65.2564 16.2636C65.2564 17.5691 65.2564 17.5741 63.9657 17.5642C62.6355 17.5593 62.8036 17.7225 62.7987 16.3526C62.7937 15.0669 62.7986 15.0669 64.1141 15.0669C64.8756 15.0669 65.2564 15.4658 65.2564 16.2636Z" fill="#3C4146"/>
</g>
<path d="M136.039 6.12207V37.8781" stroke="#585858" stroke-width="0.85106"/>
<g clip-path="url(#clip1_9_1461)">
<path d="M163.949 17.4206C163.949 18.1094 164.022 18.6678 164.15 19.0774C164.297 19.4869 164.479 19.9337 164.736 20.4177C164.827 20.5667 164.864 20.7156 164.864 20.8459C164.864 21.0321 164.754 21.2182 164.516 21.4044L163.364 22.1862C163.199 22.2979 163.035 22.3538 162.888 22.3538C162.706 22.3538 162.523 22.2607 162.34 22.0932C162.084 21.8139 161.864 21.5161 161.681 21.2182C161.498 20.9017 161.316 20.548 161.114 20.1199C159.688 21.8325 157.896 22.6889 155.738 22.6889C154.201 22.6889 152.976 22.2421 152.08 21.3485C151.184 20.455 150.727 19.2635 150.727 17.7743C150.727 16.1919 151.275 14.9074 152.391 13.9394C153.506 12.9714 154.988 12.4874 156.871 12.4874C157.493 12.4874 158.133 12.5432 158.81 12.6363C159.487 12.7294 160.182 12.8783 160.913 13.0458V11.6869C160.913 10.2721 160.621 9.28543 160.054 8.70834C159.468 8.13125 158.481 7.85201 157.073 7.85201C156.433 7.85201 155.774 7.92647 155.098 8.09402C154.421 8.26156 153.762 8.46634 153.122 8.72696C152.83 8.85727 152.61 8.93173 152.482 8.96896C152.354 9.0062 152.263 9.02481 152.19 9.02481C151.934 9.02481 151.806 8.83865 151.806 8.44772V7.53554C151.806 7.23769 151.842 7.0143 151.934 6.88399C152.025 6.75367 152.19 6.62336 152.446 6.49305C153.086 6.15797 153.854 5.87873 154.75 5.65534C155.646 5.41333 156.597 5.30164 157.603 5.30164C159.779 5.30164 161.37 5.80426 162.395 6.80952C163.4 7.81478 163.913 9.34128 163.913 11.389V17.4206H163.949ZM156.524 20.2502C157.128 20.2502 157.749 20.1385 158.408 19.9151C159.066 19.6917 159.651 19.2822 160.145 18.7237C160.438 18.37 160.657 17.979 160.767 17.5323C160.877 17.0855 160.95 16.5456 160.95 15.9127V15.1308C160.419 15.0005 159.853 14.8888 159.267 14.8144C158.682 14.7399 158.115 14.7027 157.548 14.7027C156.323 14.7027 155.427 14.9447 154.823 15.4473C154.22 15.9499 153.927 16.6573 153.927 17.5881C153.927 18.4631 154.147 19.1146 154.604 19.5614C155.043 20.0268 155.683 20.2502 156.524 20.2502ZM171.21 22.2607C170.88 22.2607 170.661 22.2049 170.515 22.0745C170.368 21.9628 170.24 21.7022 170.131 21.3485L165.833 6.95845C165.723 6.58613 165.668 6.34413 165.668 6.21381C165.668 5.91596 165.815 5.74842 166.107 5.74842H167.899C168.247 5.74842 168.485 5.80426 168.613 5.93458C168.759 6.04627 168.869 6.30689 168.978 6.6606L172.051 18.9843L174.904 6.6606C174.995 6.28828 175.105 6.04627 175.251 5.93458C175.398 5.82288 175.654 5.74842 175.983 5.74842H177.446C177.793 5.74842 178.031 5.80426 178.178 5.93458C178.324 6.04627 178.452 6.30689 178.525 6.6606L181.415 19.1332L184.578 6.6606C184.688 6.28828 184.816 6.04627 184.944 5.93458C185.091 5.82288 185.328 5.74842 185.658 5.74842H187.358C187.651 5.74842 187.816 5.89734 187.816 6.21381C187.816 6.30689 187.797 6.39997 187.779 6.51167C187.761 6.62336 187.724 6.77229 187.651 6.97707L183.243 21.3671C183.134 21.7395 183.006 21.9815 182.859 22.0932C182.713 22.2049 182.475 22.2793 182.164 22.2793H180.592C180.244 22.2793 180.006 22.2235 179.86 22.0932C179.714 21.9628 179.586 21.7208 179.513 21.3485L176.678 9.34128L173.861 21.3299C173.77 21.7022 173.66 21.9442 173.514 22.0745C173.368 22.2049 173.112 22.2607 172.782 22.2607H171.21ZM194.71 22.7633C193.759 22.7633 192.808 22.6516 191.894 22.4282C190.979 22.2049 190.266 21.9628 189.791 21.6836C189.498 21.5161 189.297 21.3299 189.224 21.1624C189.151 20.9948 189.114 20.8087 189.114 20.6411V19.6917C189.114 19.3008 189.26 19.1146 189.535 19.1146C189.644 19.1146 189.754 19.1332 189.864 19.1705C189.974 19.2077 190.138 19.2822 190.321 19.3566C190.943 19.6359 191.62 19.8593 192.333 20.0082C193.064 20.1571 193.778 20.2316 194.509 20.2316C195.661 20.2316 196.557 20.0268 197.179 19.6172C197.801 19.2077 198.13 18.612 198.13 17.8487C198.13 17.3275 197.966 16.8993 197.636 16.5456C197.307 16.1919 196.685 15.8755 195.789 15.5776L193.137 14.7399C191.802 14.3117 190.815 13.6788 190.211 12.8411C189.608 12.022 189.297 11.1098 189.297 10.1418C189.297 9.3599 189.462 8.67111 189.791 8.0754C190.12 7.47969 190.559 6.95845 191.107 6.5489C191.656 6.12073 192.278 5.80426 193.009 5.58087C193.741 5.35748 194.509 5.2644 195.314 5.2644C195.716 5.2644 196.137 5.28302 196.539 5.33887C196.96 5.39472 197.344 5.46918 197.728 5.54364C198.094 5.63672 198.441 5.7298 198.77 5.8415C199.1 5.95319 199.356 6.06489 199.538 6.17658C199.794 6.32551 199.977 6.47444 200.087 6.64198C200.197 6.79091 200.252 6.99568 200.252 7.2563V8.13125C200.252 8.52218 200.105 8.72696 199.831 8.72696C199.685 8.72696 199.447 8.65249 199.136 8.50357C198.094 8.01955 196.923 7.77755 195.625 7.77755C194.582 7.77755 193.759 7.94509 193.192 8.29879C192.625 8.65249 192.333 9.19235 192.333 9.95561C192.333 10.4769 192.516 10.9236 192.881 11.2773C193.247 11.631 193.924 11.9847 194.893 12.3012L197.49 13.1389C198.807 13.5671 199.758 14.1628 200.325 14.926C200.892 15.6893 201.166 16.5642 201.166 17.5323C201.166 18.3328 201.002 19.0588 200.691 19.6917C200.361 20.3247 199.923 20.8831 199.356 21.3299C198.789 21.7953 198.112 22.1304 197.326 22.3724C196.503 22.633 195.643 22.7633 194.71 22.7633Z" fill="#3C4146"/>
<path fill-rule="evenodd" clip-rule="evenodd" d="M198.167 31.8105C192.15 36.3342 183.408 38.7356 175.891 38.7356C165.357 38.7356 155.866 34.7704 148.696 28.1804C148.13 27.6592 148.642 26.9518 149.318 27.3613C157.073 31.9408 166.637 34.7146 176.532 34.7146C183.207 34.7146 190.54 33.2998 197.289 30.3957C198.295 29.9303 199.154 31.0659 198.167 31.8105Z" fill="#FF9900"/>
<path fill-rule="evenodd" clip-rule="evenodd" d="M200.672 28.9066C199.904 27.9013 195.588 28.4225 193.631 28.6646C193.046 28.739 192.955 28.2178 193.485 27.8268C196.923 25.3695 202.574 26.0769 203.233 26.896C203.891 27.7338 203.05 33.4861 199.831 36.2412C199.337 36.6694 198.862 36.446 199.081 35.8875C199.813 34.0445 201.44 29.8932 200.672 28.9066Z" fill="#FF9900"/>
</g>
<path d="M242.498 21.244L245.742 23.665L240.101 31.2238C239.27 32.3366 240.264 33.8958 241.626 33.6043L256.311 30.5068C257.592 30.2365 257.952 28.593 256.902 27.8095L253.658 25.3885L259.299 17.8296C260.13 16.7168 259.136 15.1576 257.774 15.4491L243.089 18.5466C241.819 18.8247 241.459 20.4683 242.498 21.244Z" stroke="#5CB456" stroke-width="2.58419" stroke-miterlimit="10" stroke-linecap="round" stroke-linejoin="round"/>
<path d="M248.908 10.859L241.559 5.37451" stroke="#5CB456" stroke-width="2.58419" stroke-miterlimit="10" stroke-linecap="round" stroke-linejoin="round"/>
<path d="M235.322 26.8731L229.023 22.1721" stroke="#5CB456" stroke-width="2.58419" stroke-miterlimit="10" stroke-linecap="round" stroke-linejoin="round"/>
<path d="M238.441 16.1239L235.291 13.7734" stroke="#5CB456" stroke-width="2.58419" stroke-miterlimit="10" stroke-linecap="round" stroke-linejoin="round"/>
<defs>
<clipPath id="clip0_9_1461">
<rect width="124.124" height="32.1436" fill="white" transform="translate(0 5.92822)"/>
</clipPath>
<clipPath id="clip1_9_1461">
<rect width="56.1137" height="33.4713" fill="white" transform="translate(147.953 5.2644)"/>
</clipPath>
</defs>
</svg>
