<svg width="129" height="60" viewBox="0 0 129 60" fill="none" xmlns="http://www.w3.org/2000/svg">
<path d="M13.0385 10.3613C13.6017 10.3828 14.777 10.4297 15.2035 10.8173C15.2732 10.8807 15.3287 10.9824 15.3748 11.0626L15.3231 11.415C14.8577 11.7287 13.8731 11.4609 13.3221 11.3487L11.3999 10.9603C12.067 10.931 12.5026 10.795 13.1052 10.5111L13.0385 10.3613Z" fill="#E0E0DF"/>
<path d="M20.1021 27.5354C19.0803 27.7853 18.0837 27.9704 17.0829 28.3155C15.0985 28.9999 12.8759 30.3281 10.7844 30.4115C11.3384 30.0087 11.9935 29.7411 12.6104 29.4468C14.7157 28.4427 17.0506 27.7413 19.3033 27.1621L19.3634 27.318L18.8173 27.4931L18.8517 27.5702C19.0542 27.5596 19.2066 27.5502 19.39 27.4506L20.1021 27.5354Z" fill="#A9A7A6"/>
<path d="M115.285 19.1363C116.161 18.9146 117.379 19.0766 118.309 19.077L125.845 19.0853L126 19.3158C125.605 19.9279 123.599 19.8954 122.803 20.4538C122.46 20.6942 122.383 21.1569 122.316 21.544C122.111 22.7069 122.154 23.9833 122.143 25.1659L122.129 31.0092C122.121 34.2038 121.909 37.5646 122.16 40.7388C122.198 41.2318 122.26 41.8124 122.559 42.2215C123.146 43.0277 124.456 43.0803 125.367 43.2114L125.67 43.3621L125.606 43.5789C123.865 43.7262 122.056 43.6128 120.305 43.6191C118.579 43.6253 116.627 43.8368 114.932 43.5205C115.906 43.1133 117.281 43.232 118.079 42.5158C118.568 42.0765 118.639 41.3292 118.661 40.7161L118.679 29.7982C118.678 28.398 118.954 21.6485 118.379 20.7107C117.983 20.0642 116.877 19.812 116.184 19.6907C115.857 19.6336 115.438 19.63 115.201 19.3756L115.285 19.1363Z" fill="white"/>
<path d="M60.2138 19.0165C60.431 19.0102 60.442 19.0026 60.6114 19.1361L60.787 23.4865C60.564 23.7594 60.4621 23.7508 60.1181 23.8309C59.6497 23.5563 59.5765 22.8105 59.4009 22.3083C59.2076 21.7556 58.9291 21.2554 58.4851 20.8642C57.4244 19.9292 50.5946 20.2455 48.9602 20.3626L48.8626 29.9778L53.2547 30.0085C54.0485 30.006 54.9728 30.0655 55.7455 29.8696L55.812 29.8523C56.9441 29.5716 57.2158 28.0269 57.7799 27.1763C57.9612 26.9031 58.1454 26.8999 58.4435 26.8387L58.6899 27.0305L58.7234 32.5523C58.7248 33.0059 58.8315 33.9904 58.6861 34.3867C58.6708 34.4292 58.5536 34.5275 58.5167 34.5661C58.3832 34.5413 58.0091 34.5144 57.9053 34.4527C57.7455 34.3577 57.5967 33.9233 57.5191 33.7503C57.2522 33.1523 57.0225 32.5776 56.5455 32.1097C55.7542 31.3333 54.504 31.4342 53.4696 31.4136L48.8683 31.4306L48.8645 38.2178C48.8736 39.2676 48.7291 40.7193 49.1128 41.706C49.1788 41.8768 49.4425 42.0548 49.608 42.1208C50.2395 42.3725 51.3065 42.2878 51.9873 42.2916C53.9887 42.3026 56.3536 42.4906 58.2373 41.7533C59.6937 41.0108 60.3506 39.9394 61.097 38.5317C61.331 38.0905 61.5247 37.6045 61.929 37.293C62.3027 37.2806 62.3529 37.2426 62.6275 37.4966C62.6443 38.1868 62.3338 38.9433 62.1386 39.6006C61.7372 40.9517 61.3649 42.2629 60.8123 43.5638C59.1674 43.7102 57.4876 43.6293 55.836 43.625L48.0315 43.6269L43.8063 43.6265C43.2571 43.6255 42.525 43.7274 42.0174 43.537L41.9968 43.3332C42.3494 43.0064 42.97 42.9739 43.4231 42.8485C43.9422 42.705 44.402 42.4911 44.878 42.2418C45.0326 41.7672 45.1699 41.2939 45.2321 40.7971C45.345 39.8931 45.2842 38.9361 45.2862 38.025L45.2905 33.1795C45.2909 29.6092 45.4842 25.928 45.2632 22.3718C45.2288 21.819 45.1862 21.0328 44.9235 20.54C44.3891 19.5368 42.6274 19.9811 42.0609 19.2557C42.1069 19.2091 42.1829 19.1058 42.2361 19.0769C42.4638 18.9528 58.288 19.068 60.2138 19.0165Z" fill="white"/>
<path fill-rule="evenodd" clip-rule="evenodd" d="M65.0406 19.0736C64.6948 19.0643 64.3328 19.0545 64.0156 19.1368L63.9773 19.4162C64.1494 19.571 64.4042 19.6267 64.6403 19.6783C64.6988 19.6911 64.7561 19.7036 64.8108 19.7173C64.9256 19.7462 65.0363 19.7731 65.143 19.7991C66.4849 20.1261 67.1833 20.2962 67.2719 21.9929L67.313 32.5709C67.3142 33.4024 67.3324 34.248 67.3506 35.0988C67.3932 37.0795 67.4363 39.0878 67.2666 41.008C67.2317 41.4 67.1552 41.8952 66.8858 42.2005C66.5936 42.5319 65.9214 42.7099 65.2986 42.8748C64.67 43.0413 64.0918 43.1944 64.0055 43.4784C64.4261 43.7247 65.4298 43.6779 66.1841 43.6427C66.4158 43.6319 66.6239 43.6222 66.7844 43.6224L74.2922 43.609L74.4663 43.4779L74.4118 43.2574C74.16 43.1072 73.8564 43.0682 73.5604 43.0301C73.4621 43.0175 73.3647 43.0049 73.2702 42.9885C72.7602 42.9 71.766 42.5923 71.4081 42.2201C71.2808 42.0876 71.1311 41.5383 71.0832 41.3484C70.8547 40.4436 70.8776 39.3577 70.8989 38.3455C70.9058 38.0161 70.9126 37.6944 70.9105 37.3894C70.9073 36.9291 70.8971 36.4637 70.8867 35.9963C70.8611 34.8382 70.8353 33.6678 70.9167 32.532C71.1235 32.5277 71.348 32.5174 71.5815 32.5067C72.3402 32.4719 73.1932 32.4327 73.8386 32.5829L79.0456 40.0382C79.1874 40.2289 79.3377 40.444 79.4968 40.6715C80.3181 41.8465 81.3714 43.3534 82.6789 43.5478C83.9207 43.733 85.353 43.6815 86.6771 43.634C86.9814 43.623 87.2799 43.6123 87.5691 43.6047C87.7929 43.4077 87.8062 43.3109 87.838 43.0807C87.8438 43.0386 87.8502 42.9921 87.8586 42.9397C87.8456 42.9202 87.83 42.8936 87.8131 42.8647C87.7739 42.7979 87.7275 42.7187 87.6888 42.6856C87.6185 42.6254 87.2903 42.5484 87.0074 42.4821C86.8435 42.4436 86.6948 42.4088 86.6204 42.3828C85.6855 42.056 84.8621 41.5129 84.1635 40.8138C82.2998 38.9476 80.7613 36.6569 79.2505 34.4074C78.6232 33.4734 78.0006 32.5464 77.3614 31.6598C79.2891 31.1665 81.301 30.295 82.3617 28.5094C83.2454 27.0214 83.343 25.5112 82.9181 23.8566C82.5057 22.2514 81.3632 20.9192 79.9541 20.096C79.1255 19.6116 78.1671 19.2795 77.216 19.1522C76.3828 19.0408 75.5121 19.0522 74.6559 19.0635C74.3852 19.0671 74.1158 19.0706 73.8496 19.0702L68.1307 19.0737L65.3787 19.0794C65.2693 19.0798 65.1558 19.0767 65.0406 19.0736ZM73.1701 20.3755C72.5628 20.3491 71.9022 20.3204 71.343 20.4526C71.3224 20.4765 71.2909 20.5085 71.256 20.5439C71.1743 20.6269 71.0739 20.7288 71.0511 20.7909C70.8424 21.3552 70.8753 22.2897 70.9027 23.0677C70.9118 23.328 70.9204 23.5707 70.9191 23.7763L70.9329 30.9892C73.041 30.9528 74.8471 30.8729 76.6691 29.6884C77.7953 28.6462 78.4819 27.6355 78.5417 26.061C78.6015 24.4822 78.3786 23.1263 77.2619 21.935C76.237 20.8414 75.061 20.4332 73.5898 20.3916C73.4542 20.3878 73.3136 20.3817 73.1701 20.3755Z" fill="white"/>
<path fill-rule="evenodd" clip-rule="evenodd" d="M91.1991 19.0326C90.2128 18.9878 89.1182 18.938 88.334 19.1373L88.2866 19.4438C88.4812 19.5814 88.7358 19.6094 88.9812 19.6365C89.0695 19.6462 89.1565 19.6558 89.2392 19.6703C90.142 19.829 91.4051 20.1351 91.5865 21.1707C91.7068 21.8579 91.6938 22.6008 91.6812 23.3208C91.6772 23.546 91.6733 23.7689 91.6735 23.9872L91.6692 28.8455C91.6671 30.0514 91.6861 31.2687 91.7051 32.4898C91.7463 35.1389 91.7878 37.8059 91.6152 40.4134C91.5745 41.0296 91.4764 41.677 91.2391 42.2511L91.2169 42.2601C90.7653 42.4419 90.3094 42.6254 89.8382 42.7482C89.6978 42.7848 89.5387 42.8112 89.3746 42.8383C88.9293 42.9121 88.4473 42.992 88.2029 43.2989L88.211 43.5382C88.5845 43.7571 89.6743 43.6956 90.4765 43.6503C90.7491 43.6349 90.9885 43.6214 91.1554 43.6214C92.071 43.6215 92.992 43.6327 93.9151 43.6439C96.2435 43.6721 98.5856 43.7005 100.89 43.5525C101.779 43.4956 102.696 43.3578 103.557 43.1348C104.913 42.7836 106.169 42.3081 107.393 41.6244C110.152 39.8008 112.012 37.3229 112.684 34.0288C113.343 30.7951 112.855 27.2155 111.01 24.4366C109.112 21.5773 106.468 19.9911 103.12 19.3355C101.756 19.0684 100.374 19.071 98.9915 19.0736C98.7856 19.074 98.5796 19.0744 98.3737 19.0739L92.3089 19.0677C91.9746 19.0678 91.5956 19.0506 91.1991 19.0326ZM98.5943 20.3417L97.2413 20.3287L95.7743 20.3886L95.6652 33.3976C95.6652 34.165 95.6454 34.9503 95.6253 35.7415C95.5827 37.4265 95.5393 39.1385 95.6858 40.7616C95.7207 41.1476 95.7528 41.4789 96.0188 41.7808C97.146 42.532 99.5163 42.2445 100.808 41.9875C102.314 41.688 103.658 41.0041 104.834 40.0231C107.149 37.8443 108.329 35.1593 108.425 31.9819C108.522 28.7065 107.67 25.4928 105.391 23.0532C103.455 20.9807 101.332 20.4157 98.5943 20.3417Z" fill="white"/>
<path fill-rule="evenodd" clip-rule="evenodd" d="M9.33603 10.9642C9.19351 10.9717 9.05103 10.9798 8.90859 10.9879C8.02139 11.0385 7.13542 11.089 6.24902 10.989C6.2652 11.1317 6.281 11.2744 6.29677 11.4168C6.56816 13.868 6.83312 16.2611 8.93332 17.9097C10.309 18.9896 12.3925 19.7828 14.1492 19.5532C14.8718 19.4587 15.5243 19.1562 16.1737 18.855L16.1738 18.855C16.7093 18.6067 17.2428 18.3593 17.8119 18.2303C17.7174 18.064 17.6126 17.8956 17.5067 17.7253C17.2869 17.3719 17.0623 17.0108 16.9146 16.6452C16.2641 15.0361 16.3531 13.1935 16.8021 11.5505C17.5659 8.75596 19.9387 6.95903 22.1943 5.25085L22.1943 5.25081C22.7416 4.83641 23.2819 4.42722 23.7906 4.01029L23.8805 4L24.0062 4.27287C25.2066 6.87792 26.8585 10.4624 25.8541 13.3087C25.2912 14.9044 24.6748 15.8445 23.2132 16.785C23.2705 16.6269 23.3282 16.4689 23.3859 16.3109C24.2145 14.0431 25.0444 11.7718 24.6429 9.30256C24.4582 8.16657 24.0556 7.10833 23.6503 6.04281C23.594 5.89476 23.5376 5.74658 23.4818 5.59802C21.0301 7.34771 18.2262 9.58384 17.7188 12.7556C17.4416 14.4882 17.7767 17.0243 18.8386 18.4522L18.9205 18.5608C18.8077 18.6408 18.5764 18.6506 18.3237 18.6614C18.0644 18.6724 17.7825 18.6843 17.5832 18.774C17.2036 18.945 16.8401 19.1531 16.4765 19.3612C16.0068 19.6301 15.5369 19.8991 15.032 20.0881C14.4858 20.2926 13.909 20.3924 13.3336 20.4919L13.3336 20.4919C12.7656 20.5902 12.199 20.6882 11.6646 20.8865C8.27066 22.1459 4.84262 25.5541 4.22428 29.1955C4.05443 30.1958 3.9452 31.2296 4.06074 32.2432C4.42848 35.4678 6.57384 38.8712 8.42008 41.4517C10.1257 43.8353 12.1042 46.0443 14.1767 48.1131C15.6097 49.5437 17.1281 50.9853 18.792 52.1469C18.8649 52.1978 18.9428 52.2543 19.0245 52.3134C19.424 52.6029 19.9139 52.9577 20.347 53.0431C20.9343 53.1589 21.51 52.9489 22.0658 52.7461C22.2174 52.6908 22.3675 52.636 22.516 52.5886L25.5327 51.6331C25.9051 51.5179 26.2863 51.4129 26.6691 51.3075C27.4131 51.1027 28.1626 50.8964 28.8631 50.6102C29.5935 50.3121 30.2555 49.9155 30.8911 49.4528C32.2557 48.4586 33.5616 46.8462 34.2866 45.3281C31.2722 45.64 28.4081 46.1965 25.4847 46.9945C25.2522 47.058 24.9427 47.169 24.6027 47.2909C23.7567 47.5941 22.7211 47.9653 22.2084 47.8438C22.2947 47.5215 22.7704 47.2483 23.0911 47.0641L23.1653 47.0213C25.6797 45.563 28.6557 44.875 31.5094 44.5004C31.6824 44.4776 31.9512 44.4574 32.2649 44.4338C33.2362 44.3608 34.6381 44.2553 34.965 43.9411L34.8755 43.7449C33.9845 43.5524 33.0594 43.571 32.1496 43.5893L31.9225 43.5937C28.3136 43.6593 24.6625 44.4631 21.2425 45.5688C20.5983 45.7771 19.9692 46.0146 19.3411 46.2519L19.3411 46.2519C18.3836 46.6135 17.4282 46.9743 16.4244 47.2295C17.5038 45.9687 18.8352 45.1798 20.2946 44.4281C23.2412 42.911 26.3951 41.8823 29.7129 41.6297C31.6915 41.479 33.6751 41.5823 35.6435 41.801L36.2803 39.2942C36.1508 39.2935 36.0207 39.2921 35.8901 39.2907C35.2421 39.2838 34.5834 39.2768 33.9458 39.3598C32.887 39.4976 31.8483 39.7405 30.8095 39.9834C30.0717 40.1559 29.3339 40.3284 28.5888 40.4634C27.7415 40.6168 26.8986 40.7492 26.0578 40.8812L26.0577 40.8813L26.0576 40.8813C24.4208 41.1383 22.7923 41.3941 21.1561 41.8014L17.6232 42.8378C17.4926 42.8819 17.3085 42.9573 17.102 43.0418C16.5861 43.2528 15.9307 43.5209 15.6223 43.5028C15.5824 43.5005 15.5175 43.4711 15.4622 43.446L15.4621 43.4459C15.438 43.435 15.4156 43.4248 15.398 43.4181C15.5391 43.0869 15.8476 42.9054 16.1545 42.7249C16.2107 42.6918 16.2668 42.6588 16.3219 42.6249C17.51 41.8919 18.7514 41.2821 20.0464 40.7618C22.7437 39.678 25.5273 38.7198 28.4048 38.2516C30.7242 37.8742 33.0514 37.8495 35.3927 37.8559C35.4995 37.8562 35.6059 37.8637 35.7098 37.8709C36.1003 37.8983 36.4563 37.9232 36.6645 37.5571L36.6161 37.0763C36.0332 36.8039 35.0759 36.7543 34.3291 36.7155C34.1945 36.7086 34.0668 36.7019 33.9493 36.6944C29.2846 36.3961 24.3807 36.7956 19.9668 38.4054C17.6399 39.2541 15.3579 40.5807 14.2745 42.9181C14.2421 42.9879 14.2129 43.0532 14.1854 43.1148C14.0164 43.493 13.9089 43.7336 13.5116 44.0162C13.4598 44.0209 13.4064 44.0277 13.3521 44.0346C13.1028 44.0665 12.8366 44.1005 12.632 43.9401C12.5302 43.8604 12.4396 43.7464 12.3558 43.641L12.3554 43.6405C12.3393 43.6202 12.3234 43.6002 12.3077 43.5808C12.2779 42.8386 12.9853 42.0818 13.6548 41.3656C14.0531 40.9395 14.438 40.5277 14.6462 40.142C14.4373 40.2011 14.2269 40.2624 14.0154 40.3241C13.0253 40.6126 12.0091 40.9087 10.9999 41.0259L10.8188 40.8465C10.9973 40.0446 12.2809 39.2562 13.1265 38.7367C13.2522 38.6595 13.3683 38.5882 13.4696 38.5237C17.4597 35.9833 22.7759 34.4102 27.508 34.406C30.5562 34.4032 33.8702 34.9906 36.8477 35.6323C36.8414 35.4404 36.8439 35.2085 36.8467 34.9587C36.8545 34.249 36.864 33.3955 36.675 32.9076C31.7035 31.55 25.9308 31.9737 20.9575 33.1425L17.1604 34.208L12.6349 35.7853C12.6008 35.7956 12.5654 35.807 12.529 35.8188L12.5288 35.8188C12.3008 35.8924 12.035 35.9781 11.8186 35.8826C11.8149 35.8546 11.81 35.8293 11.8056 35.8058C11.7885 35.7159 11.7763 35.6519 11.8445 35.5627C12.311 34.9526 13.159 34.3641 13.8054 33.9155L13.8956 33.8529C15.8343 32.5055 18.0365 31.2777 20.2433 30.4158C22.2177 29.6447 24.3304 28.8909 26.384 28.358L28.8213 27.7509C28.8677 27.7375 28.9278 27.7225 28.9944 27.706L28.9945 27.7059C29.1978 27.6554 29.4608 27.5899 29.5743 27.5097C29.6046 27.4883 29.6416 27.4322 29.673 27.3846L29.673 27.3845C29.6868 27.3636 29.6995 27.3443 29.7102 27.3303C28.931 26.7208 23.3758 27.1404 22.114 27.2946C21.9023 27.3204 21.6852 27.3567 21.4663 27.3932C21.0093 27.4695 20.5442 27.5471 20.1022 27.5347L19.3901 27.4499C19.2066 27.5495 19.0543 27.5589 18.8518 27.5695L18.8174 27.4924L19.3635 27.3173L19.3033 27.1614C19.6303 26.9905 20.0246 26.9044 20.4037 26.8217C20.5429 26.7913 20.6802 26.7613 20.8112 26.7278C22.548 26.2832 24.3232 26.153 26.1018 26.0226L26.102 26.0226C26.8652 25.9666 27.629 25.9106 28.3906 25.8297C25.1929 24.9806 22.0081 25.2562 18.7805 25.7563C16.6011 26.094 14.4292 26.5316 12.3399 27.2528C11.6975 27.4746 11.0208 27.7271 10.4176 28.0415C10.2425 28.1328 10.0814 28.2269 9.92495 28.3183C9.49908 28.567 9.1077 28.7957 8.56247 28.8919C10.0717 27.5508 11.852 26.3865 13.7209 25.6178C14.0939 25.4644 14.4603 25.3345 14.8203 25.2069C15.7147 24.8899 16.5697 24.5868 17.3898 23.9708C18.5874 23.0713 19.5401 21.9421 20.4945 20.811L20.4945 20.811C21.6347 19.4596 22.7772 18.1055 24.3422 17.1374C25.9754 16.1269 27.9694 15.7186 29.8546 16.1698C32.7182 16.8551 35.2994 19.5427 36.8027 21.9665C37.8835 23.7097 38.739 25.6073 39.1093 27.6346C39.7476 31.1302 38.9127 34.998 38.1075 38.3954C37.8111 39.647 37.4008 40.8619 36.99 42.0781L36.9899 42.0782L36.8836 42.3933C35.8439 45.4764 34.5645 48.5954 32.3862 51.0556L32.3662 51.0782L32.3662 51.0782C31.8393 51.6729 31.254 52.3335 30.5751 52.7469C29.8062 53.2147 28.9259 53.4394 28.0591 53.6607L28.059 53.6607L28.0583 53.6609C27.9305 53.6935 27.803 53.7261 27.6763 53.7593L24.5412 54.6799C24.0104 54.8561 23.4817 55.0702 22.9513 55.2851L22.9511 55.2851C22.0904 55.6338 21.2254 55.9842 20.3401 56.1769C19.7429 56.3071 19.1989 56.3109 18.6046 56.1611C16.7608 55.6961 14.9589 54.0377 13.5671 52.7566L13.4816 52.678C10.064 49.5346 6.87479 46.0879 4.49675 42.0699C2.12384 38.0608 1.36693 34.6741 2.55205 30.1327C3.41307 26.8333 5.5236 23.7944 8.231 21.7406C8.89712 21.2352 9.63044 20.8136 10.3579 20.3954C10.5202 20.3021 10.6821 20.209 10.843 20.1151C9.74141 19.7556 8.68132 19.3665 7.80217 18.5798C5.69817 16.697 5.62033 14.2969 5.53839 11.7704C5.52611 11.3916 5.51373 11.0099 5.49442 10.6268L9.20029 10.5339L9.21134 10.5131L13.0386 10.3617L13.1054 10.5115C12.5028 10.7954 12.0671 10.9314 11.4001 10.9607L9.33603 10.9642ZM28.4782 17.2137C29.54 17.2846 30.3459 17.4209 31.2609 18.0004C34.4875 20.044 35.863 24.1243 36.6534 27.642C36.352 27.2391 36.1069 26.7912 35.8644 26.3479L35.8643 26.3478C35.812 26.2521 35.7597 26.1566 35.7071 26.0619C35.3498 25.5205 35.0195 24.9643 34.6898 24.4089C34.0028 23.252 33.3181 22.0989 32.3964 21.0916C30.7887 19.3346 28.9209 17.8303 26.4472 17.7241L26.3791 17.5819C27.1071 17.3204 27.7143 17.261 28.4782 17.2137ZM29.1715 20.1515C28.0582 19.4335 27.0751 19.3248 25.783 19.456C23.1938 20.2286 21.1649 21.9107 19.3868 23.8924C21.7084 23.8892 23.8239 24.2063 26.0884 24.6961C28.8714 25.298 31.0955 25.8521 33.4426 27.5484C33.1698 27.7877 32.0106 27.9548 31.2455 28.065C31.0187 28.0977 30.8264 28.1254 30.7023 28.1485C28.4463 28.5683 26.2709 29.1591 24.0734 29.7559C23.5616 29.8949 23.0486 30.0343 22.5331 30.1718L20.4945 31.0027C21.9916 31.0195 23.4858 30.9608 24.9806 30.9021C27.0566 30.8206 29.1338 30.739 31.2213 30.8597C31.4765 30.8744 32.2719 30.9585 33.1686 31.0533C34.6267 31.2074 36.3527 31.3898 36.4602 31.3487C35.5588 27.1951 32.7755 22.4762 29.1715 20.1515Z" fill="#BAB8B8"/>
<path d="M42.88 47.94H46.128C46.7893 47.94 47.3867 48.052 47.92 48.276C48.4587 48.5 48.888 48.844 49.208 49.308C49.528 49.772 49.688 50.3693 49.688 51.1C49.688 51.8307 49.528 52.4413 49.208 52.932C48.888 53.4173 48.4587 53.7827 47.92 54.028C47.3867 54.2733 46.7893 54.396 46.128 54.396H44.56V58.5H42.88V47.94ZM44.56 53.02H45.664C46.0747 53.02 46.448 52.9613 46.784 52.844C47.1253 52.7213 47.3947 52.5213 47.592 52.244C47.7947 51.9667 47.896 51.5987 47.896 51.14C47.896 50.676 47.7947 50.3133 47.592 50.052C47.3947 49.7853 47.1253 49.596 46.784 49.484C46.448 49.372 46.0747 49.316 45.664 49.316H44.56V53.02ZM53.7794 58.692C53.0914 58.692 52.478 58.5427 51.9394 58.244C51.406 57.94 50.9874 57.5293 50.6834 57.012C50.3794 56.4893 50.2274 55.8973 50.2274 55.236C50.2274 54.5747 50.3794 53.98 50.6834 53.452C50.9874 52.924 51.406 52.508 51.9394 52.204C52.478 51.8947 53.0914 51.74 53.7794 51.74C54.4674 51.74 55.0754 51.8947 55.6034 52.204C56.1314 52.508 56.5447 52.924 56.8434 53.452C57.1474 53.98 57.2994 54.5747 57.2994 55.236C57.2994 55.8973 57.1474 56.4893 56.8434 57.012C56.5447 57.5293 56.1314 57.94 55.6034 58.244C55.0754 58.5427 54.4674 58.692 53.7794 58.692ZM53.7794 57.252C54.1634 57.252 54.4967 57.164 54.7794 56.988C55.062 56.812 55.2807 56.572 55.4354 56.268C55.59 55.964 55.6674 55.6173 55.6674 55.228C55.6674 54.8387 55.59 54.492 55.4354 54.188C55.2807 53.8787 55.062 53.6333 54.7794 53.452C54.4967 53.2707 54.1634 53.18 53.7794 53.18C53.3954 53.18 53.0594 53.2707 52.7714 53.452C52.4887 53.6333 52.2674 53.8787 52.1074 54.188C51.9527 54.492 51.8754 54.8387 51.8754 55.228C51.8754 55.6173 51.9527 55.964 52.1074 56.268C52.2674 56.572 52.4887 56.812 52.7714 56.988C53.0594 57.164 53.3954 57.252 53.7794 57.252ZM60.3691 58.5H58.6651V51.932H60.3691V53.028H60.3291C60.3665 52.8947 60.4678 52.7293 60.6331 52.532C60.8038 52.3293 61.0385 52.148 61.3371 51.988C61.6358 51.8227 61.9958 51.74 62.4171 51.74C62.7211 51.74 62.9931 51.7827 63.2331 51.868C63.4731 51.9533 63.6438 52.0387 63.7451 52.124L63.0571 53.532C62.9878 53.4467 62.8571 53.364 62.6651 53.284C62.4785 53.1987 62.2465 53.156 61.9691 53.156C61.6225 53.156 61.3291 53.2573 61.0891 53.46C60.8545 53.6627 60.6758 53.9053 60.5531 54.188C60.4305 54.4707 60.3691 54.7347 60.3691 54.98V58.5ZM64.1383 51.932H65.3703V49.236H67.0663V51.932H68.6903V53.372H67.0663V56.18C67.0663 56.532 67.1249 56.796 67.2423 56.972C67.3649 57.148 67.5383 57.236 67.7623 57.236C67.9489 57.236 68.0956 57.2013 68.2023 57.132C68.3143 57.0627 68.3809 57.0147 68.4023 56.988L69.0343 58.228C69.0023 58.26 68.9089 58.3133 68.7543 58.388C68.5996 58.4627 68.3996 58.532 68.1543 58.596C67.9089 58.66 67.6289 58.692 67.3143 58.692C66.7596 58.692 66.2956 58.5267 65.9223 58.196C65.5543 57.8653 65.3703 57.348 65.3703 56.644V53.372H64.1383V51.932ZM75.3674 58.5V57.284C75.3247 57.412 75.202 57.588 74.9994 57.812C74.802 58.036 74.53 58.2387 74.1834 58.42C73.842 58.6013 73.4367 58.692 72.9674 58.692C72.354 58.692 71.802 58.5453 71.3114 58.252C70.8207 57.9587 70.434 57.5507 70.1514 57.028C69.8687 56.5053 69.7274 55.9027 69.7274 55.22C69.7274 54.5373 69.8687 53.9347 70.1514 53.412C70.434 52.8893 70.8207 52.4813 71.3114 52.188C71.802 51.8893 72.354 51.74 72.9674 51.74C73.426 51.74 73.8234 51.82 74.1594 51.98C74.4954 52.14 74.7647 52.324 74.9674 52.532C75.1754 52.74 75.3034 52.9213 75.3514 53.076V51.932H77.0474V58.5H75.3674ZM71.4154 55.22C71.4154 55.6413 71.5087 56.0093 71.6954 56.324C71.882 56.6387 72.1247 56.8813 72.4234 57.052C72.7274 57.2227 73.0527 57.308 73.3994 57.308C73.7727 57.308 74.1034 57.22 74.3914 57.044C74.6847 56.868 74.914 56.6253 75.0794 56.316C75.25 56.0013 75.3354 55.636 75.3354 55.22C75.3354 54.804 75.25 54.4413 75.0794 54.132C74.914 53.8173 74.6847 53.572 74.3914 53.396C74.1034 53.2147 73.7727 53.124 73.3994 53.124C73.0527 53.124 72.7274 53.212 72.4234 53.388C72.1247 53.5587 71.882 53.8013 71.6954 54.116C71.5087 54.4307 71.4154 54.7987 71.4154 55.22ZM80.5516 58.5H78.8316V47.492H80.5516V58.5Z" fill="#BAB8B8"/>
</svg>
