<svg width="129" height="60" viewBox="0 0 129 60" fill="none" xmlns="http://www.w3.org/2000/svg">
<path d="M13.0385 10.3613C13.6017 10.3828 14.777 10.4297 15.2035 10.8173C15.2732 10.8807 15.3287 10.9824 15.3748 11.0626L15.3231 11.415C14.8577 11.7287 13.8731 11.4609 13.3221 11.3487L11.3999 10.9603C12.067 10.931 12.5026 10.795 13.1052 10.5111L13.0385 10.3613Z" fill="#E0E0DF"/>
<path d="M20.1021 27.5354C19.0803 27.7853 18.0837 27.9704 17.0829 28.3155C15.0985 28.9999 12.8759 30.3281 10.7844 30.4115C11.3384 30.0087 11.9935 29.7411 12.6104 29.4468C14.7157 28.4427 17.0506 27.7413 19.3033 27.1621L19.3634 27.318L18.8173 27.4931L18.8517 27.5702C19.0542 27.5596 19.2066 27.5502 19.39 27.4506L20.1021 27.5354Z" fill="#A9A7A6"/>
<path d="M43 45.448H46.248C46.9093 45.448 47.5067 45.56 48.04 45.784C48.5787 46.008 49.008 46.352 49.328 46.816C49.648 47.28 49.808 47.8773 49.808 48.608C49.808 49.3387 49.648 49.9493 49.328 50.44C49.008 50.9253 48.5787 51.2907 48.04 51.536C47.5067 51.7813 46.9093 51.904 46.248 51.904H44.68V56.008H43V45.448ZM44.68 50.528H45.784C46.1947 50.528 46.568 50.4693 46.904 50.352C47.2453 50.2293 47.5147 50.0293 47.712 49.752C47.9147 49.4747 48.016 49.1067 48.016 48.648C48.016 48.184 47.9147 47.8213 47.712 47.56C47.5147 47.2933 47.2453 47.104 46.904 46.992C46.568 46.88 46.1947 46.824 45.784 46.824H44.68V50.528ZM53.8994 56.2C53.2114 56.2 52.598 56.0507 52.0594 55.752C51.526 55.448 51.1074 55.0373 50.8034 54.52C50.4994 53.9973 50.3474 53.4053 50.3474 52.744C50.3474 52.0827 50.4994 51.488 50.8034 50.96C51.1074 50.432 51.526 50.016 52.0594 49.712C52.598 49.4027 53.2114 49.248 53.8994 49.248C54.5874 49.248 55.1954 49.4027 55.7234 49.712C56.2514 50.016 56.6647 50.432 56.9634 50.96C57.2674 51.488 57.4194 52.0827 57.4194 52.744C57.4194 53.4053 57.2674 53.9973 56.9634 54.52C56.6647 55.0373 56.2514 55.448 55.7234 55.752C55.1954 56.0507 54.5874 56.2 53.8994 56.2ZM53.8994 54.76C54.2834 54.76 54.6167 54.672 54.8994 54.496C55.182 54.32 55.4007 54.08 55.5554 53.776C55.71 53.472 55.7874 53.1253 55.7874 52.736C55.7874 52.3467 55.71 52 55.5554 51.696C55.4007 51.3867 55.182 51.1413 54.8994 50.96C54.6167 50.7787 54.2834 50.688 53.8994 50.688C53.5154 50.688 53.1794 50.7787 52.8914 50.96C52.6087 51.1413 52.3874 51.3867 52.2274 51.696C52.0727 52 51.9954 52.3467 51.9954 52.736C51.9954 53.1253 52.0727 53.472 52.2274 53.776C52.3874 54.08 52.6087 54.32 52.8914 54.496C53.1794 54.672 53.5154 54.76 53.8994 54.76ZM60.4891 56.008H58.7851V49.44H60.4891V50.536H60.4491C60.4865 50.4027 60.5878 50.2373 60.7531 50.04C60.9238 49.8373 61.1585 49.656 61.4571 49.496C61.7558 49.3307 62.1158 49.248 62.5371 49.248C62.8411 49.248 63.1131 49.2907 63.3531 49.376C63.5931 49.4613 63.7638 49.5467 63.8651 49.632L63.1771 51.04C63.1078 50.9547 62.9771 50.872 62.7851 50.792C62.5985 50.7067 62.3665 50.664 62.0891 50.664C61.7425 50.664 61.4491 50.7653 61.2091 50.968C60.9745 51.1707 60.7958 51.4133 60.6731 51.696C60.5505 51.9787 60.4891 52.2427 60.4891 52.488V56.008ZM64.2583 49.44H65.4903V46.744H67.1863V49.44H68.8103V50.88H67.1863V53.688C67.1863 54.04 67.2449 54.304 67.3623 54.48C67.4849 54.656 67.6583 54.744 67.8823 54.744C68.0689 54.744 68.2156 54.7093 68.3223 54.64C68.4343 54.5707 68.5009 54.5227 68.5223 54.496L69.1543 55.736C69.1223 55.768 69.0289 55.8213 68.8743 55.896C68.7196 55.9707 68.5196 56.04 68.2743 56.104C68.0289 56.168 67.7489 56.2 67.4343 56.2C66.8796 56.2 66.4156 56.0347 66.0423 55.704C65.6743 55.3733 65.4903 54.856 65.4903 54.152V50.88H64.2583V49.44ZM75.4874 56.008V54.792C75.4447 54.92 75.322 55.096 75.1194 55.32C74.922 55.544 74.65 55.7467 74.3034 55.928C73.962 56.1093 73.5567 56.2 73.0874 56.2C72.474 56.2 71.922 56.0533 71.4314 55.76C70.9407 55.4667 70.554 55.0587 70.2714 54.536C69.9887 54.0133 69.8474 53.4107 69.8474 52.728C69.8474 52.0453 69.9887 51.4427 70.2714 50.92C70.554 50.3973 70.9407 49.9893 71.4314 49.696C71.922 49.3973 72.474 49.248 73.0874 49.248C73.546 49.248 73.9434 49.328 74.2794 49.488C74.6154 49.648 74.8847 49.832 75.0874 50.04C75.2954 50.248 75.4234 50.4293 75.4714 50.584V49.44H77.1674V56.008H75.4874ZM71.5354 52.728C71.5354 53.1493 71.6287 53.5173 71.8154 53.832C72.002 54.1467 72.2447 54.3893 72.5434 54.56C72.8474 54.7307 73.1727 54.816 73.5194 54.816C73.8927 54.816 74.2234 54.728 74.5114 54.552C74.8047 54.376 75.034 54.1333 75.1994 53.824C75.37 53.5093 75.4554 53.144 75.4554 52.728C75.4554 52.312 75.37 51.9493 75.1994 51.64C75.034 51.3253 74.8047 51.08 74.5114 50.904C74.2234 50.7227 73.8927 50.632 73.5194 50.632C73.1727 50.632 72.8474 50.72 72.5434 50.896C72.2447 51.0667 72.002 51.3093 71.8154 51.624C71.6287 51.9387 71.5354 52.3067 71.5354 52.728ZM80.6716 56.008H78.9516V45H80.6716V56.008Z" fill="#BAB8B8"/>
<path d="M22.5078 17.8371C22.3835 18.0986 22.4525 18.1705 22.7148 18.0527C23.2097 17.8331 23.6632 17.4658 24.0773 16.9487C25.5916 15.0621 28.9376 16.0304 30.6057 17.0984C32.9402 18.5937 34.8509 20.646 36.3376 23.2532C36.5544 23.6306 36.7516 24.0398 36.9271 24.477C37.0927 24.8923 37.2722 25.2975 37.4634 25.6948C38.0687 26.9525 38.3606 28.4777 38.3389 30.2665C38.3211 31.8017 38.2797 33.3369 38.2166 34.8701C38.191 35.505 37.9623 36.0719 37.7414 36.6489C37.562 37.128 37.7809 37.6311 37.564 38.0523C37.3491 38.4676 37.215 38.8888 37.1617 39.32C37.0829 39.9469 36.9054 40.4939 36.6294 40.959C35.8427 42.2747 35.261 43.5364 34.8844 44.7442C34.4644 46.0897 33.8867 47.3694 33.5298 48.7469C33.4766 48.9485 33.3602 49.1282 33.2005 49.258C32.7332 49.6333 32.4197 50.1563 32.258 50.8271C32.2324 50.9329 32.1831 51.0267 32.1082 51.1046C31.7414 51.4919 31.3136 51.8233 30.8246 52.0968C29.675 52.7416 28.3126 53.3725 26.7391 53.9913C26.5321 54.0732 26.3073 54.0692 26.1003 54.0013C25.6113 53.8416 25.1479 53.8117 24.7141 53.9095C24.6195 53.9315 24.5347 53.9774 24.4618 54.0452C23.4956 54.9696 22.5472 55.5605 21.6185 55.818C20.7805 56.0516 19.7887 56.2612 18.9448 56.2692C18.0339 56.2772 17.3142 56.2253 16.7858 56.1095C15.4134 55.81 14.4571 54.8578 13.4101 54.0472C12.7457 53.5322 11.3852 52.1487 9.32666 49.8928C7.4752 47.8645 5.78345 45.5647 4.24746 42.9973C4.18042 42.8855 4.10155 42.7697 4.01085 42.648C2.34078 40.436 1.34308 37.5712 1.01775 34.0556C0.970424 33.5505 1.01775 33.0315 1.15971 32.4944C1.35491 31.7418 1.53631 31.0251 1.70194 30.3443C1.71969 30.2725 1.69602 30.2525 1.62701 30.2845C1.60532 30.2964 1.58758 30.3124 1.57378 30.3304C1.53631 30.3903 1.51265 30.3843 1.50082 30.3144C1.41998 29.7913 1.55997 29.3721 1.91489 29.0547C1.97798 28.9968 2.01939 28.9209 2.02925 28.8371C2.11009 28.2601 2.53599 27.8908 2.80217 27.3957C3.26159 26.5273 3.85508 25.7607 4.37168 24.9342C5.07362 23.8102 5.99048 22.7082 7.12226 21.6282C7.68618 21.0912 8.38615 20.8636 9.00922 20.4164C9.0664 20.3745 9.0802 20.2946 9.03879 20.2367C9.03288 20.2287 9.02696 20.2227 9.02105 20.2168C8.43544 19.6698 7.78476 19.2006 7.06508 18.8053C5.85837 18.1425 4.91588 16.3558 4.24746 15.0222C3.89254 14.3195 3.70523 13.6287 3.68354 12.952C3.68354 12.8681 3.71114 12.7963 3.76833 12.7404C4.93165 11.5825 6.44201 10.8218 8.30136 10.4605C9.443 10.2369 10.5156 10.1351 11.6277 10.3407C11.9471 10.4006 12.2665 10.4505 12.5879 10.4924C13.3411 10.5923 14.2205 10.8678 15.2241 11.3169C15.2636 11.3369 15.2813 11.3848 15.2616 11.4247C15.2557 11.4387 15.2439 11.4507 15.232 11.4587L15.1571 11.5026C15.0506 11.5645 14.9363 11.5785 14.818 11.5425C14.1771 11.3529 13.5639 11.1992 12.9823 11.0814C12.3868 10.9656 11.882 11.1892 11.3004 11.0494C11.186 11.0215 11.0736 11.0315 10.9632 11.0754C10.7443 11.1652 10.5137 11.2051 10.2692 11.1952C10.139 11.1892 10.0109 11.2251 9.90241 11.299C9.26949 11.7322 8.75092 11.2391 8.1239 11.5805C7.27408 12.0456 6.27441 12.4888 5.52318 13.0777C5.11897 13.3972 5.0401 13.9082 5.28854 14.6149C5.29445 14.6329 5.30826 14.6449 5.32797 14.6469L5.41867 14.6589C5.43839 14.6589 5.45811 14.6449 5.46008 14.6249C5.46008 14.6209 5.46008 14.6169 5.46008 14.6129C5.41276 14.3375 5.38713 14.0759 5.37924 13.8284C5.37529 13.6607 5.41473 13.6507 5.49754 13.7964L6.42229 15.4275C6.46961 15.5093 6.48933 15.5992 6.47947 15.695C6.42032 16.3358 7.58365 17.3859 7.94053 17.5975C8.82979 18.1186 9.63031 18.7075 10.6556 18.9131C10.8153 18.9451 10.9691 19.003 11.117 19.0848C11.6513 19.3843 12.162 19.5061 12.649 19.4541C12.8482 19.4322 13.0552 19.4262 13.2721 19.4362C13.9662 19.4661 14.609 19.0409 15.2537 18.8792C15.7427 18.7554 15.8906 18.9291 15.6934 19.3982C15.6067 19.6039 15.5041 19.8055 15.3839 20.0031C15.1394 20.4044 14.7884 20.652 14.329 20.7438C13.4673 20.9195 12.8896 20.9953 12.5958 20.9734C11.7618 20.9135 10.8508 20.7558 9.86495 20.5002C9.77622 20.4763 9.69932 20.4982 9.63426 20.5641C9.21033 20.9874 8.69768 21.3008 8.09433 21.5044C7.90504 21.5683 7.8242 21.6981 7.85378 21.8937C7.86363 21.9516 7.838 22.0115 7.78871 22.0454C7.46534 22.269 7.15578 22.5206 6.86002 22.8021C6.43806 23.2053 6.4775 23.2572 6.97438 22.9598C7.61322 22.5745 8.25009 22.2012 8.88105 21.8358C9.46074 21.5024 10.2001 21.4605 11.0973 21.71C11.2077 21.742 11.2077 21.7739 11.0973 21.8059C10.5097 21.9855 9.90833 22.0674 9.29315 22.0514C8.97175 22.0434 8.48868 22.2091 8.31122 22.5126C7.99771 23.0496 7.43971 23.4249 6.63721 23.6365C6.49327 23.6745 6.47356 23.7423 6.57411 23.8422C6.63327 23.9021 6.63524 23.9619 6.58003 24.0278C6.52679 24.0897 6.46567 24.1456 6.39666 24.1955C5.62176 24.7505 4.84884 25.5051 4.07789 26.4594C3.9024 26.677 3.80382 26.9126 3.78213 27.1661C3.73283 27.7451 3.43707 28.356 3.58298 28.9269C3.60467 29.0108 3.60467 29.0966 3.58101 29.1825C3.30299 30.1387 3.02695 31.4443 3.24384 32.4485C3.32863 32.8438 3.37398 33.2371 3.38186 33.6324C3.38975 34.0616 3.37003 34.8342 3.65002 35.1636C3.74466 35.2714 3.78016 35.2534 3.75649 35.1097C3.70917 34.8082 3.70917 34.5168 3.75649 34.2353C3.76438 34.1834 3.8117 34.1494 3.86297 34.1594C3.87283 34.1594 3.88071 34.1634 3.8886 34.1674L3.95367 34.2033C4.03648 34.2433 4.08578 34.3331 4.07592 34.4289L3.96353 35.5728C3.95564 35.6487 3.96944 35.7206 4.00888 35.7884C4.3145 36.3255 4.64378 36.8625 5.00066 37.3975C5.20178 37.697 5.32797 38.0184 5.37529 38.3598C5.47191 39.0785 5.68683 39.9708 6.21329 40.4959C6.32567 40.6057 6.36708 40.5837 6.34145 40.428C6.26455 39.9609 6.13836 39.4917 5.96485 39.0206C5.9195 38.9008 5.94513 38.8828 6.03977 38.9667C6.18174 39.0924 6.29807 39.2382 6.3868 39.3999C6.61749 39.8231 6.79101 40.2863 6.9034 40.7894C6.97832 41.1247 7.1124 41.4501 7.30563 41.7656C8.09827 43.0612 8.79824 44.2391 9.97143 45.2113C10.6536 45.7783 11.1584 46.2335 11.4857 46.5748C12.7299 47.8844 14.0017 49.1861 15.2991 50.4837C15.6993 50.881 16.1154 51.2603 16.5452 51.6217C17.0322 52.0269 17.5567 52.0409 18.0989 52.2785C18.8936 52.6258 19.698 52.8953 20.5143 53.085C20.609 53.107 20.6997 53.097 20.7864 53.0551L23.3635 51.8133C23.4503 51.7714 23.541 51.7534 23.6356 51.7634C24.5544 51.8413 24.655 51.2463 25.2938 50.889C26.1338 50.4158 27.0566 50.3779 28.0641 50.7752C28.0937 50.7872 28.1154 50.7752 28.1272 50.7453L28.1627 50.6594C28.1824 50.6055 28.1548 50.5456 28.1016 50.5257C28.0957 50.5257 28.0917 50.5217 28.0858 50.5217C27.4529 50.3959 26.9757 49.9647 26.3073 50.0705C25.9563 50.1264 25.6034 50.33 25.2485 50.6834C24.9034 51.0267 24.8541 50.9888 25.1006 50.5676C25.5147 49.8569 26.4374 49.7411 27.1828 49.799C28.1943 49.8788 29.2472 49.791 30.3435 49.5354C30.5722 49.4835 30.795 49.2899 31.0158 48.9565C31.0789 48.8607 31.0592 48.8347 30.9527 48.8786C30.7201 48.9765 30.4795 49.0943 30.235 49.232C30.2271 49.236 30.2192 49.232 30.2133 49.226L30.1581 49.1502C30.1285 49.1102 30.1345 49.0743 30.1759 49.0443C31.146 48.3436 31.7197 47.7587 32.0983 46.505C32.3034 45.8262 32.5065 45.1654 32.7076 44.5266C32.7569 44.3728 32.7174 44.3409 32.5853 44.4327C31.0986 45.4808 29.5587 46.0737 27.8157 46.3373C26.8693 46.481 25.982 46.8084 25.0296 46.9521C22.9652 47.2716 21.0822 47.8146 19.4299 49.0463C19.351 49.1042 19.28 49.0982 19.213 49.0284L19.1558 48.9705C19.1203 48.9325 19.1223 48.8986 19.1617 48.8647C19.6882 48.3995 20.1791 47.8705 20.8456 47.593C21.8019 47.1977 22.6951 46.6906 23.7066 46.4131C24.3158 46.2454 24.9409 46.0298 25.5778 45.7663C25.6468 45.7384 25.7178 45.7364 25.7907 45.7603C25.9346 45.8142 26.0884 45.8402 26.2521 45.8382C26.3053 45.8382 26.3467 45.7943 26.3448 45.7403C26.3448 45.7184 26.3369 45.6964 26.3211 45.6785C26.2955 45.6485 26.2639 45.6306 26.2265 45.6246C26.1318 45.6086 26.1298 45.5846 26.2186 45.5487C26.2876 45.5207 26.3546 45.5227 26.4217 45.5547C26.5084 45.5926 26.5991 45.6046 26.6918 45.5866C27.0408 45.5267 27.372 45.4289 27.6836 45.2952C28.6221 44.8979 29.5469 44.5166 30.4618 44.1472C30.7516 44.0295 30.9409 43.8438 31.0316 43.5883C31.1637 43.2189 31.0848 43.165 30.795 43.4246C30.4144 43.7699 30.0319 43.8019 29.6534 43.5184C29.5765 43.4625 29.4917 43.4365 29.399 43.4425C28.7661 43.4865 28.1055 43.5184 27.4904 43.6442C26.5084 43.8478 25.56 44.0854 24.6491 44.3549C23.8899 44.5785 23.1782 44.7621 22.5156 44.9039C21.8472 45.0456 21.2498 45.2233 20.7194 45.4369C19.487 45.932 18.3553 46.7904 17.257 47.561C17.1052 47.6668 16.8982 47.6289 16.7956 47.4752C16.7759 47.4472 16.7601 47.4153 16.7503 47.3814C16.5294 46.6507 17.1367 45.7184 17.6967 45.375C19.6408 44.1792 21.5278 43.3866 23.3556 42.9993C24.1975 42.8197 25.0868 42.628 26.0234 42.4224C27.8216 42.0251 29.4956 41.9872 31.2722 41.9512C31.4772 41.9453 31.6468 41.8714 31.7789 41.7257C31.8164 41.6837 31.8144 41.6198 31.773 41.5819C31.7611 41.5699 31.7454 41.5619 31.7296 41.558C30.7713 41.3144 29.886 41.2046 29.0737 41.2286C28.354 41.2505 27.6343 41.2305 26.9126 41.1707C24.9567 41.007 23.2077 41.2785 21.3247 41.7197C19.56 42.1329 17.5508 42.1848 15.8709 42.6699C15.0151 42.9155 14.0766 43.3128 13.0572 43.8598C12.8443 43.9736 12.4755 44.263 11.953 44.7242C11.7953 44.8639 11.5547 44.848 11.4147 44.6863C11.4147 44.6863 11.4147 44.6863 11.4128 44.6843L10.7365 43.8717C10.5945 43.7021 10.6201 43.5643 10.8134 43.4625C11.4443 43.1211 12.0733 42.7278 12.7003 42.2806C13.0414 42.0371 13.4082 41.8814 13.8025 41.8135C14.8968 41.6238 15.9971 41.3104 17.1032 40.8692C17.608 40.6696 18.0575 40.6895 18.582 40.7095C18.7023 40.7155 18.8127 40.6835 18.9152 40.6157C19.5639 40.1864 20.2935 39.9129 21.0999 39.7992C21.5554 39.7333 21.9912 39.6355 22.4072 39.5057C23.2767 39.2322 24.1561 39.1463 25.0434 39.0306C25.3865 38.9846 25.633 39.1903 25.9662 39.1264C27.3642 38.8648 28.7562 38.6472 30.1443 38.4736C31.1203 38.3498 32.0628 38.0264 32.9186 37.5353C32.9659 37.5073 32.9994 37.4654 33.0132 37.4115C33.029 37.3496 32.9915 37.2857 32.9284 37.2698C32.9264 37.2698 32.9225 37.2698 32.9205 37.2698C32.3152 37.154 31.7355 36.8126 31.1065 36.9224C30.5012 37.0282 29.8939 36.9423 29.2767 37.0242C28.0917 37.1799 26.9067 37.2917 25.7178 37.3616C24.7417 37.4195 23.8091 37.6451 22.841 37.8287C22.4506 37.9026 22.0621 38.0004 21.6757 38.1222C19.7473 38.7351 18.5032 39.1623 17.9471 39.4039C16.5669 40.0068 15.1374 40.7514 13.6625 41.6378C13.3273 41.8394 12.9586 41.9572 12.5564 41.9892C12.4519 41.9952 12.4085 41.9472 12.4262 41.8434C12.5445 41.1507 12.8364 40.7115 13.3017 40.5258C13.4456 40.4679 13.5265 40.3621 13.5462 40.2104L13.5679 40.0507C13.5915 39.889 13.5304 39.8451 13.3885 39.9209L10.5531 41.4102C10.4703 41.4541 10.4013 41.4382 10.3461 41.3623C10.0818 40.999 9.8827 40.5957 9.75059 40.1525C9.72299 40.0647 9.77031 39.9728 9.85509 39.9449C10.63 39.6814 11.3891 39.336 12.1344 38.9068C13.2642 38.258 14.3625 37.6311 15.4292 37.0262C16.1351 36.6269 16.841 36.3135 17.5488 36.0879C18.3592 35.8304 19.1164 35.5549 19.8222 35.2654C20.2777 35.0757 20.7766 35.0059 21.3188 35.0538C21.4075 35.0618 21.4844 35.0378 21.5515 34.9779C22.3244 34.3071 23.9156 34.1674 24.9567 34.0895C25.1006 34.0776 25.2426 34.0476 25.3786 34.0017C25.9425 33.81 26.4355 33.9079 27.0329 33.824C27.4194 33.7721 27.8078 33.7422 28.1982 33.7382C29.1092 33.7262 30.0083 33.5805 30.8936 33.299C31.2091 33.1992 31.5324 33.1133 31.8656 33.0434C32.2975 32.9496 33.0053 32.9117 33.3168 32.5683C33.4608 32.4106 33.4253 32.3427 33.2143 32.3687C32.2008 32.4845 31.213 32.4685 30.2508 32.3207C29.7046 32.2369 29.186 32.2249 28.6971 32.2848C27.2537 32.4645 25.6389 32.5963 23.8545 32.6841C22.5571 32.748 21.3523 32.9256 20.2383 33.2151C17.6533 33.8899 15.2872 34.936 13.142 36.3554C12.6629 36.6708 12.1502 36.9044 11.6119 37.12C11.5646 37.138 11.5114 37.114 11.4916 37.0661C11.4838 37.0482 11.4838 37.0282 11.4877 37.0082C11.535 36.8505 11.6198 36.7188 11.746 36.611C11.813 36.5531 11.8051 36.5071 11.7263 36.4692C11.3812 36.3075 11.0697 36.046 10.7917 35.6866C10.7463 35.6287 10.7542 35.5788 10.8114 35.5329C11.9767 34.6266 13.14 33.7821 14.2974 32.9955C14.9284 32.5663 15.5909 32.175 16.281 31.8237C16.9987 31.4603 17.7381 31.085 18.4972 30.7037C18.8679 30.518 19.2485 30.3823 19.6389 30.2984C20.187 30.1786 20.6523 29.8133 21.2084 29.6576C22.4447 29.3142 23.5962 28.7892 24.864 28.5197C26.051 28.2661 27.2892 28.0385 28.5827 27.8369C29.0579 27.763 29.472 27.4975 29.9511 27.4097C29.9649 27.4057 29.9728 27.3997 29.9787 27.3897C29.9945 27.3658 29.9984 27.3418 29.9945 27.3198C29.9885 27.2919 29.9688 27.2799 29.9393 27.2879C29.2669 27.4536 28.63 27.4157 28.0306 27.1741C27.9774 27.1521 27.9281 27.1601 27.8827 27.2001L27.8196 27.256C27.7901 27.2839 27.7546 27.2939 27.7171 27.2919C24.1463 27.1042 20.6681 27.4736 17.2826 28.3999C16.3461 28.6574 15.3858 28.7492 14.4709 29.0327C12.9547 29.4979 11.5114 30.0289 10.141 30.6258C9.77228 30.7875 9.38187 30.7995 8.96584 30.6618C8.85148 30.6238 8.84359 30.5739 8.94612 30.508C9.59877 30.0788 10.1548 29.7714 10.6162 29.5837C12.9606 28.6275 15.0664 27.9267 16.9336 27.4796C17.7125 27.2919 18.8285 27.1182 20.2777 26.9585C22.1883 26.7469 23.8899 26.5572 25.3845 26.3895C26.5025 26.2638 28.0858 26.2817 30.1364 26.4454C30.4756 26.4734 30.7792 26.5792 31.1006 26.675C31.1893 26.703 31.2741 26.695 31.3589 26.6531C31.9386 26.3656 32.6149 26.3536 33.3878 26.6231C33.3937 26.6231 33.4016 26.6191 33.4016 26.6131C33.4016 26.6131 33.4016 26.6131 33.4016 26.6111C33.374 26.4414 33.305 26.2937 33.1926 26.1679C33.1769 26.152 33.1611 26.14 33.1394 26.132C32.0924 25.7766 31.2682 25.6289 30.6649 25.6928C30.3592 25.7247 30.0556 25.7168 29.7559 25.6668C29.3536 25.601 28.977 25.571 28.6241 25.575C26.611 25.605 24.7319 25.7327 22.9849 25.9603C22.8784 25.9743 22.772 25.9643 22.6675 25.9324L22.3599 25.8345C22.2731 25.8066 22.1883 25.8146 22.1075 25.8605C21.794 26.0382 21.4884 26.0342 21.1887 25.8485C20.9501 25.7028 20.6918 25.605 20.4138 25.561C20.3093 25.5451 20.2757 25.585 20.3172 25.6848C20.3724 25.8246 20.4769 25.9004 20.6287 25.9104C20.7352 25.9164 20.749 25.9563 20.6721 26.0302C20.3901 26.2877 19.7434 26.0561 19.4456 25.8785C19.3195 25.8046 19.2623 25.8405 19.278 25.9863C19.284 26.0362 19.3017 26.0781 19.3333 26.108C19.4279 26.2019 19.4121 26.2658 19.284 26.2997C18.9724 26.3815 18.7417 26.3276 18.5919 26.132C18.5386 26.0621 18.4677 26.0262 18.3829 26.0242C17.5193 25.9943 16.7246 26.0941 15.9951 26.3257C14.8712 26.683 13.8222 26.7109 12.7299 27.214C12.6431 27.254 12.5524 27.2699 12.4558 27.2619C11.9333 27.216 11.2984 27.218 10.8765 27.5933C10.6753 27.773 10.4545 27.9208 10.2159 28.0385C9.48441 28.4019 8.97372 29.0347 8.37037 29.5698C8.25995 29.6696 8.09038 29.6576 7.9918 29.5458C7.96419 29.5139 7.94447 29.4759 7.93264 29.434C7.77688 28.8231 7.86363 28.2322 8.19291 27.6612C8.38614 27.3218 8.70754 27.4157 8.95203 27.1661C9.27934 26.8347 9.63031 26.5872 10.0069 26.4255C10.8173 26.0761 11.7144 25.7287 12.6983 25.3814C13.144 25.2237 13.5915 25.1498 14.0372 25.1618C14.812 25.1817 16.0661 25.042 16.5511 24.2734C17.2255 23.2033 17.5508 22.9178 18.4834 22.5325C18.6924 22.4467 18.6885 22.3728 18.4716 22.309C18.3296 22.269 18.1837 22.2551 18.0339 22.265C17.9629 22.271 17.9018 22.2171 17.8959 22.1472C17.8939 22.1113 17.9057 22.0774 17.9274 22.0494C18.2665 21.6701 18.4874 21.2988 18.8936 20.9634C19.6941 20.3066 20.4611 19.6318 21.2005 18.9351C21.5179 18.6356 21.7861 18.2803 22.005 17.873C22.3323 17.2641 22.7542 16.7251 23.1624 16.1661C23.3241 15.9445 23.5488 15.1919 23.8387 13.9062C23.959 13.3752 23.8505 12.7863 23.7835 12.2472C23.7697 12.1434 23.8131 12.0416 23.8978 11.9817C24.0575 11.8699 24.1226 11.7202 24.093 11.5345C24.0773 11.4347 24.028 11.4148 23.9452 11.4707C23.8821 11.5146 23.8269 11.5705 23.7835 11.6384C23.7342 11.7122 23.6908 11.7082 23.6553 11.6264C23.6257 11.5565 23.6257 11.4866 23.6573 11.4168C23.8249 11.0374 23.9097 10.6661 23.8012 10.2549C23.4641 8.96721 23.0579 7.66758 22.5847 6.35596C22.4092 5.87284 21.8275 5.93872 21.5219 6.25415C21.4095 6.36794 21.4332 6.42184 21.5909 6.41585C21.6954 6.40986 21.7979 6.38391 21.8985 6.33799C22.0207 6.2801 22.074 6.32003 22.0582 6.45378C22.0503 6.53563 22.0168 6.6075 21.9576 6.66939C21.6757 6.96286 21.2873 7.08863 21.0329 7.42402C20.8121 7.71749 20.5321 7.92511 20.189 8.04888C18.8364 8.53999 17.953 10.4705 17.4049 11.6743C16.9317 12.7044 16.91 13.8104 16.5373 14.8924C16.4506 15.146 16.6418 15.4614 16.7266 15.699C17.1032 16.771 17.7401 17.6195 18.6412 18.2443C18.7772 18.3382 18.8127 18.5278 18.7181 18.6676C18.6905 18.7095 18.653 18.7414 18.6096 18.7654C18.1798 18.993 17.7145 19.0329 17.2136 18.8852C16.6063 18.7055 16.3875 18.0327 16.0385 17.5576C14.9856 16.1082 15.0684 14.1099 15.3365 12.389C15.3937 12.0237 15.5377 11.6623 15.7703 11.307C16.2376 10.5923 16.6714 9.8556 17.0677 9.09897C17.261 8.73164 17.5922 8.30642 17.888 8.00297C19.142 6.7173 20.258 5.7291 21.234 5.03836C21.6579 4.7389 22.2495 4.39952 23.0106 4.01821C23.0855 3.98028 23.1387 4.00224 23.1722 4.0781C23.8663 5.70115 24.3198 7.01876 24.5308 8.02892C24.8522 9.56612 25.1085 12.0796 24.6984 13.6507C24.3888 14.8505 23.8683 16.0224 23.1367 17.1703C22.9593 17.4478 22.6438 17.5776 22.5137 17.8531L22.5078 17.8371ZM9.52976 11.2012C9.51201 11.1393 9.40159 11.1173 9.28132 11.1532C9.16301 11.1892 9.0802 11.267 9.09794 11.3289C9.11569 11.3908 9.22611 11.4128 9.34638 11.3768C9.46469 11.3409 9.5475 11.263 9.52976 11.2012ZM35.0993 25.589C35.3832 25.9883 35.401 26.5612 35.6849 26.9705C35.7342 27.0384 35.7973 27.0683 35.8801 27.0643L35.9472 27.0583C36.0556 27.0503 36.0891 26.9944 36.0497 26.8906C35.8131 26.2817 35.6198 25.6529 35.263 25.0999C34.7799 24.3512 34.4841 23.5267 34.0129 22.7502C33.5337 21.9556 33.0408 21.0932 32.4986 20.4623C30.7891 18.4839 28.5452 17.6774 25.9741 17.3001C25.8735 17.2861 25.771 17.318 25.7 17.3879L25.3628 17.7193C25.2643 17.8151 25.282 17.877 25.4181 17.905C26.6188 18.1365 27.5909 18.426 28.3362 18.7734C30.935 19.9872 33.1808 22.4906 34.6675 24.9761C34.6833 25.0021 34.8272 25.2057 35.0993 25.589ZM32.7687 25.4592C32.8101 25.5071 32.8594 25.5331 32.9186 25.5331C33.0467 25.5331 33.0664 25.4892 32.9757 25.3973C32.2738 24.6806 32.1259 23.7583 31.5009 23.0237C30.9803 22.4148 30.5347 21.7679 29.8584 21.3128C28.35 20.2966 26.5873 19.8335 24.6806 19.3923C24.5998 19.3723 24.5268 19.3923 24.4637 19.4502C22.7286 21.0832 20.9974 22.3948 19.2721 23.385C18.5662 23.7903 17.7164 24.1396 16.7227 24.4371C16.6753 24.4511 16.6576 24.481 16.6675 24.5309L16.6832 24.6008C16.703 24.6946 16.7897 24.7565 16.8824 24.7445C18.7023 24.5209 19.9544 24.4231 20.6385 24.457C22.2179 24.5309 23.7145 24.5629 25.1262 24.5509C26.1732 24.5409 27.2123 24.6247 28.2514 24.6846C28.908 24.7246 29.6415 24.8463 30.4559 25.048C30.9764 25.1777 31.702 25.2915 32.6327 25.3874C32.6839 25.3913 32.7332 25.4173 32.7667 25.4572L32.7687 25.4592ZM7.61717 21.748C7.5659 21.6801 7.24253 21.8498 6.89748 22.1253C6.55242 22.4008 6.31384 22.6783 6.36511 22.7462C6.41637 22.814 6.73974 22.6443 7.08479 22.3688C7.42985 22.0933 7.66843 21.8159 7.61717 21.748ZM5.17812 24.9102L6.36314 23.928C6.37694 23.918 6.37891 23.8981 6.36905 23.8861L6.36117 23.8761C6.26652 23.7623 5.92738 23.8861 5.60205 24.1576L5.55275 24.1975C5.22741 24.467 5.03813 24.7785 5.1308 24.8962L5.14066 24.9062C5.15052 24.9182 5.16826 24.9202 5.18009 24.9122L5.17812 24.9102ZM36.4677 27.0084C36.517 26.9964 36.4992 26.7589 36.4283 26.4774C36.3573 26.1979 36.2587 25.9803 36.2094 25.9943C36.1601 26.0062 36.1778 26.2438 36.2488 26.5253C36.3198 26.8048 36.4184 27.0224 36.4677 27.0084ZM36.7437 29.1206L36.8009 29.0826C36.8108 29.0766 36.8127 29.0707 36.8068 29.0607C36.5604 28.6355 36.444 28.1843 36.4598 27.7051C36.4637 27.6033 36.3849 27.5175 36.2843 27.5135C36.2587 27.5135 36.2311 27.5175 36.2074 27.5275C36.0556 27.5933 36.0142 27.7071 36.0832 27.8708C36.2607 28.2961 36.4657 28.7093 36.7023 29.1106C36.7142 29.1286 36.728 29.1325 36.7457 29.1206H36.7437ZM26.0845 30.3923C26.0786 30.4182 26.0806 30.4422 26.0904 30.4661C26.1141 30.542 26.0727 30.6238 25.9977 30.6478C25.9859 30.6518 25.9761 30.6538 25.9642 30.6538C25.9406 30.6538 25.9169 30.6598 25.8913 30.6638C25.7769 30.6857 25.773 30.7177 25.8834 30.7576C25.9859 30.7935 26.0924 30.8035 26.2008 30.7875C27.1729 30.6478 28.1016 30.6238 28.981 30.7137C30.2153 30.8394 31.4121 30.8814 32.5715 30.8374C33.1256 30.8155 33.7368 31.0251 34.2436 30.8195C34.3264 30.7855 34.4112 30.7815 34.4979 30.8075L35.1782 30.9972C35.3162 31.0351 35.3556 30.9892 35.2925 30.8574L35.1348 30.518C35.0914 30.4262 35.0737 30.3304 35.0816 30.2266C35.1111 29.9151 35.0401 29.6336 34.8686 29.3861C34.6714 29.0986 34.5098 28.7353 34.4269 28.3979C34.3776 28.1903 34.2672 28.0306 34.0977 27.9168C33.5988 27.5794 33.3681 27.8948 32.889 27.9707C32.1042 28.0924 31.3845 28.2581 30.5919 28.342C29.9531 28.4099 29.3477 28.5296 28.7799 28.7033C28.4861 28.7952 28.2002 28.8551 27.9182 28.889C27.1453 28.9808 26.5005 29.3561 25.7454 29.43C25.071 29.4939 24.4006 29.4759 23.7381 29.6596C22.6379 29.965 21.4785 30.3324 20.2541 30.7596C19.8893 30.8874 19.5423 31.069 19.215 31.3006C18.8896 31.5322 18.5386 31.7158 18.1581 31.8556C17.9057 31.9474 17.9116 31.9734 18.1778 31.9374C18.9606 31.8257 19.6842 31.5741 20.4315 31.3944C21.7408 31.077 23.05 30.8095 24.3612 30.5899C24.4302 30.5779 24.444 30.5999 24.3987 30.6558C24.373 30.6837 24.3435 30.6977 24.306 30.6957C24.2764 30.6917 24.2488 30.7117 24.2429 30.7416C24.2409 30.7576 24.2449 30.7736 24.2547 30.7855C24.2922 30.8355 24.3435 30.8634 24.4065 30.8674C25.0493 30.8973 25.5778 30.7217 25.9899 30.3404C26.0668 30.2705 26.0963 30.2884 26.0806 30.3903L26.0845 30.3923ZM35.0342 28.8511C35.0993 28.6135 35.048 28.4119 34.8785 28.2442C34.7621 28.1264 34.7247 28.1483 34.7661 28.31L34.9633 29.0567C34.981 29.1266 35.0027 29.1286 35.0263 29.0587C35.048 28.9868 35.05 28.9169 35.0342 28.8511ZM4.55111 41.0449C5.00855 41.5041 5.30826 42.0371 5.45022 42.646C5.58233 43.2169 5.72429 43.6262 5.87415 43.8777C6.69045 45.2253 7.54027 46.3193 8.42361 47.1618C9.48243 48.1739 10.0207 48.687 10.0345 48.703C11.6829 50.3979 13.3924 52.0948 15.1591 53.7897C15.6284 54.2409 16.2218 54.1471 16.766 54.4146C17.466 54.756 18.2468 55.0275 19.1065 55.2271C19.5403 55.3289 19.9386 54.8119 20.3408 54.6861C20.7154 54.5703 21.0782 54.4345 21.4312 54.2788C21.8078 54.1131 21.792 54.0453 21.3839 54.0772C20.6464 54.1351 19.8282 54.1371 18.9271 54.0832C18.4933 54.0572 18.0753 53.9754 17.6711 53.8356C16.2751 53.3525 14.9304 52.0668 13.8715 51.0347C11.2925 48.5233 9.11175 46.0258 7.32929 43.5403C6.92903 42.9814 6.57806 42.4244 6.27638 41.8674C5.99639 41.3523 5.66908 40.8452 5.29643 40.3462C4.5728 39.3779 4.01479 38.3797 3.62636 37.3476C2.94414 35.5409 2.53599 33.6523 2.39796 31.6799C2.36642 31.2227 2.41374 30.7835 2.53993 30.3623C2.74302 29.6935 2.89484 29.0547 2.99146 28.4478C2.99737 28.4198 2.97766 28.3919 2.94808 28.3859C2.93822 28.3859 2.92639 28.3859 2.91653 28.3899C2.76471 28.4538 2.64443 28.5576 2.55373 28.7033C2.47683 28.8231 2.43148 28.9529 2.41965 29.0946C2.38022 29.5458 2.29543 29.987 2.1653 30.4202C2.03516 30.8634 2.1929 31.2327 2.08249 31.644C1.8025 32.6861 1.70983 33.5845 1.80447 34.3351C1.89517 35.0418 1.96418 35.8004 2.0115 36.6129C2.02531 36.8405 2.0884 37.0502 2.20079 37.2438C2.32501 37.4554 2.36839 37.4394 2.33487 37.1959C2.29543 36.8964 2.29543 36.6249 2.33684 36.3794C2.35853 36.2396 2.41374 36.2237 2.50444 36.3315C2.74893 36.6289 2.77062 36.9883 2.56951 37.4115C2.49852 37.5572 2.50444 37.7269 2.58134 37.8667C2.93428 38.4955 3.29708 39.0944 3.67171 39.6654C3.84325 39.9269 3.94578 40.2124 3.9793 40.5238C4.06211 41.3024 4.29872 41.9472 4.68716 42.4563C4.89025 42.7218 4.96517 42.6899 4.90996 42.3585C4.83504 41.9053 4.69504 41.4821 4.48998 41.0888C4.419 40.9511 4.43675 40.9371 4.54716 41.0449H4.55111ZM36.9784 31.2148C37.0336 31.2148 37.0789 30.8774 37.0789 30.4641C37.0789 30.0509 37.0336 29.7135 36.9784 29.7135C36.9232 29.7135 36.8778 30.0509 36.8778 30.4641C36.8778 30.8774 36.9232 31.2148 36.9784 31.2148ZM35.2807 32.0892C35.3004 32.0393 35.1959 31.9474 35.0461 31.8835C34.8962 31.8217 34.7562 31.8097 34.7365 31.8616C34.7168 31.9115 34.8213 32.0033 34.9711 32.0672C35.121 32.1291 35.261 32.1411 35.2807 32.0892ZM35.052 36.0999C34.9238 36.0999 34.8588 36.1598 34.8548 36.2776C34.8509 36.3654 34.8942 36.4492 34.9672 36.5011L35.1013 36.597C35.1939 36.6629 35.2373 36.6389 35.2294 36.5231C35.1801 35.7525 35.2393 34.9939 35.4069 34.2492C35.4917 33.8779 35.3261 33.4926 35.5863 33.1732C35.7519 32.9716 35.7066 32.8917 35.4483 32.9376C34.9928 33.0195 34.6083 33.2371 34.2968 33.5924C33.9163 34.0276 33.3425 34.2433 32.7904 34.359C31.7809 34.5707 30.7615 34.8322 29.7342 35.1436C29.4404 35.2315 29.4483 35.2694 29.7539 35.2554C30.0339 35.2434 30.2981 35.2554 30.5485 35.2933C32.0569 35.5229 33.5377 35.7605 34.9869 36.0061C35.0204 36.012 35.048 36.024 35.0717 36.046C35.1111 36.0819 35.1052 36.0999 35.052 36.0999ZM15.374 33.4786C15.3602 33.4327 15.1512 33.4607 14.9106 33.5385C14.6681 33.6164 14.4847 33.7182 14.4985 33.7621C14.5123 33.808 14.7214 33.7801 14.9619 33.7022C15.2044 33.6244 15.3878 33.5226 15.374 33.4786ZM37.6093 34.2552C37.6626 34.2932 37.7493 34.2672 37.7986 34.1933C37.8499 34.1195 37.8479 34.0296 37.7927 33.9917C37.7395 33.9538 37.6527 33.9797 37.6034 34.0536C37.5521 34.1275 37.5541 34.2173 37.6093 34.2552ZM23.8249 34.7364C23.8209 34.6904 23.4286 34.6864 22.9494 34.7264C22.4703 34.7663 22.0838 34.8382 22.0878 34.8841C22.0917 34.93 22.4841 34.934 22.9632 34.8941C23.4424 34.8541 23.8288 34.7823 23.8249 34.7364ZM27.6639 35.491L28.6773 35.2574C28.8311 35.2215 28.8311 35.1815 28.6793 35.1356C28.3737 35.0438 28.0188 35.1257 27.6165 35.3812C27.4233 35.505 27.4391 35.5409 27.6619 35.489L27.6639 35.491ZM4.01085 36.8046C4.06211 36.7846 4.03845 36.593 3.95761 36.3794C3.87677 36.1638 3.7703 36.0061 3.71706 36.026C3.66579 36.046 3.68946 36.2376 3.7703 36.4512C3.85114 36.6668 3.95761 36.8246 4.01085 36.8046ZM4.42492 37.6371C4.44858 37.6271 4.40717 37.4734 4.33027 37.2957C4.25337 37.118 4.17253 36.9823 4.14887 36.9923C4.12521 37.0022 4.16662 37.156 4.24352 37.3336C4.32041 37.5113 4.40125 37.6471 4.42492 37.6371ZM17.8249 37.699C17.8071 37.667 17.3655 37.8866 16.839 38.1921C16.3125 38.4975 15.9024 38.771 15.9202 38.803C15.9379 38.8349 16.3796 38.6153 16.906 38.3099C17.4325 38.0044 17.8426 37.7309 17.8249 37.699ZM33.4884 41.6418L33.1729 41.8953C33.0664 41.9812 33.0802 42.0391 33.2123 42.067C33.4844 42.1269 33.7329 42.109 33.9577 42.0131C34.0444 41.9772 34.1055 41.9153 34.141 41.8255C34.5176 40.8353 34.7759 39.8411 34.9179 38.8449C34.9593 38.5514 34.9218 38.258 34.8035 37.9665C34.7562 37.8507 34.7227 37.8547 34.703 37.9785C34.6202 38.5055 34.1055 38.4496 33.7329 38.6592C33.2557 38.9327 32.7135 39.2002 32.1082 39.4638C31.5383 39.7133 31.0001 39.871 30.4933 39.9369C29.3536 40.0846 28.2337 40.2803 27.1295 40.5238C27.0881 40.5338 27.0625 40.5757 27.0723 40.6157C27.0723 40.6177 27.0723 40.6217 27.0743 40.6237L27.096 40.6875C27.1335 40.7854 27.2025 40.8313 27.303 40.8233C28.2199 40.7694 29.0737 40.6975 30.024 40.8433C31.1617 41.0209 32.2935 41.2006 33.4194 41.3843C33.4963 41.3962 33.5475 41.4681 33.5357 41.548C33.5298 41.5839 33.5121 41.6158 33.4844 41.6378L33.4884 41.6418ZM2.49655 38.8249C2.54387 38.8169 2.5557 38.6472 2.52416 38.4456C2.49064 38.244 2.42557 38.0883 2.37825 38.0962C2.33093 38.1042 2.3191 38.2739 2.35064 38.4756C2.38416 38.6772 2.44923 38.8329 2.49655 38.8249ZM14.9047 38.9906C14.8811 38.9527 14.6425 39.0585 14.3704 39.2282C14.0983 39.3979 13.8972 39.5656 13.9208 39.6035C13.9445 39.6414 14.1831 39.5356 14.4552 39.3659C14.7273 39.1963 14.9284 39.0286 14.9047 38.9906ZM3.10976 39.8331C3.01709 39.5776 2.90076 39.334 2.76471 39.1024C2.75879 39.0944 2.76077 39.0864 2.76668 39.0805C2.76668 39.0805 2.74696 39.0745 2.70753 39.0645C2.70753 39.0645 2.70556 39.0645 2.70556 39.0665C2.76471 39.334 2.86724 39.5935 3.00723 39.8451C3.02695 39.881 3.05455 39.889 3.09202 39.871H3.09399C3.10976 39.863 3.11371 39.8491 3.10976 39.8331ZM32.051 43.0532C32.047 42.9854 31.9544 42.9374 31.8459 42.9434C31.7355 42.9494 31.6488 43.0093 31.6527 43.0752C31.6566 43.1431 31.7493 43.191 31.8578 43.185C31.9682 43.179 32.0549 43.1211 32.051 43.0532ZM29.6218 51.2364C29.6001 51.1884 29.3162 51.2723 28.9889 51.424C28.6616 51.5757 28.4151 51.7394 28.4368 51.7874C28.4585 51.8353 28.7424 51.7514 29.0697 51.5997C29.397 51.448 29.6435 51.2843 29.6218 51.2364ZM27.447 51.8832C27.447 51.8193 27.1256 51.7634 26.7293 51.7614C26.331 51.7574 26.0096 51.8073 26.0096 51.8712C26.0096 51.9351 26.331 51.991 26.7273 51.993C27.1256 51.997 27.447 51.9471 27.447 51.8832ZM25.1578 52.518L26.7391 52.8754C26.7391 52.8754 26.745 52.8754 26.747 52.8694V52.8594C26.7845 52.7037 26.471 52.4981 26.049 52.4022L25.9859 52.3903C25.564 52.2944 25.1933 52.3423 25.1558 52.4981V52.508C25.1558 52.508 25.1538 52.516 25.1558 52.518H25.1578Z" fill="#D7DCDF"/>
<path d="M43 40.9986V14.0012H60.4788V17.0456H46.658V25.8518H59.535V28.8961H46.658V37.9556H60.653V40.9999H43.0014L43 40.9986Z" fill="white"/>
<path d="M67.0922 40.9986V14.0013H76.9092C79.1425 14.0013 80.9799 14.3608 82.4242 15.0799C83.8684 15.799 84.9391 16.7858 85.6389 18.0429C86.3387 19.2986 86.6886 20.7303 86.6886 22.3364C86.6886 23.9425 86.3387 25.3624 85.6389 26.5945C84.9391 27.8267 83.8712 28.7898 82.4339 29.484C80.9966 30.1795 79.1607 30.5259 76.9288 30.5259H69.1317V27.4632H76.7545C78.2685 27.4632 79.4855 27.2546 80.4028 26.8373C81.3201 26.42 81.9906 25.8282 82.4144 25.0619C82.8368 24.2955 83.0487 23.3862 83.0487 22.3351C83.0487 21.284 82.8368 20.3261 82.4144 19.5361C81.9906 18.7449 81.3173 18.1281 80.393 17.6886C79.4687 17.2477 78.2434 17.0272 76.7169 17.0272H70.7489V40.9999H67.0908L67.0922 40.9986ZM83.5701 40.9986L76.6402 28.841H80.7596L87.8053 40.9986H83.5701Z" fill="white"/>
<path d="M96.514 14.0013V41H92.856V14.0013H96.514ZM101.809 40.9987H94.8788V37.9544H101.577C103.912 37.9544 105.847 37.5358 107.381 36.6946C108.914 35.8561 110.06 34.6502 110.817 33.0795C111.574 31.5088 111.953 29.631 111.953 27.4449C111.953 25.2587 111.578 23.4256 110.827 21.8732C110.077 20.3209 108.96 19.1281 107.477 18.2949C105.995 17.4616 104.144 17.0443 101.923 17.0443H94.7241V14H102.174C104.972 14 107.363 14.538 109.344 15.6127C111.326 16.6874 112.847 18.2306 113.906 20.2422C114.966 22.2538 115.494 24.6538 115.494 27.4449C115.494 30.236 114.962 32.678 113.897 34.7014C112.832 36.7248 111.279 38.2798 109.238 39.3676C107.197 40.4541 104.721 40.9987 101.807 40.9987H101.809Z" fill="white"/>
<path d="M125.36 14.0013V40.9999H121.702V14.0013H125.36Z" fill="white"/>
</svg>
