<svg width="13" height="13" viewBox="0 0 13 13" fill="none" xmlns="http://www.w3.org/2000/svg">
<path d="M10.8692 11.3684C10.7625 11.3684 10.6612 11.3258 10.5865 11.2511L7.18387 7.84842C7.0292 7.69376 7.0292 7.43776 7.18387 7.28309L11.3065 3.16043C11.4079 3.05909 11.5625 3.02176 11.7012 3.05909C11.8399 3.10176 11.9465 3.21376 11.9785 3.35243C12.0799 3.80576 12.1332 4.31242 12.1332 4.89909V8.09909C12.1332 9.57642 11.8239 10.5738 11.1519 11.2511C11.0772 11.3258 10.9652 11.3418 10.8692 11.3684ZM8.03187 7.56576L10.8372 10.3711C11.1732 9.85375 11.3332 9.11776 11.3332 8.09909V4.89909C11.3332 4.68042 11.3279 4.47776 11.3119 4.28576L8.03187 7.56576Z" fill="#1B3865"/>
<path d="M3.34432 12.0902C3.31232 12.0902 3.28566 12.0849 3.25366 12.0796C1.48833 11.6742 0.666992 10.4102 0.666992 8.10091V4.90091C0.666992 2.00491 1.90433 0.767578 4.80033 0.767578H8.00033C10.3097 0.767578 11.5737 1.58891 11.979 3.35425C12.011 3.48758 11.9683 3.63158 11.8723 3.72758L3.62699 11.9729C3.55232 12.0476 3.45099 12.0902 3.34432 12.0902ZM4.80033 1.56758C2.34166 1.56758 1.46699 2.44224 1.46699 4.90091V8.10091C1.46699 9.95158 1.979 10.8796 3.22166 11.2476L11.1417 3.32758C10.779 2.08491 9.84565 1.57291 7.99499 1.57291H4.80033V1.56758Z" fill="#1B3865"/>
<path d="M7.99981 12.2333H4.79981C4.21314 12.2333 3.71181 12.1853 3.25315 12.0786C3.10915 12.0466 2.99714 11.94 2.9598 11.8013C2.91714 11.6626 2.9598 11.5133 3.06114 11.4066L7.18381 7.28397C7.33848 7.1293 7.59447 7.1293 7.74914 7.28397L11.1518 10.6866C11.2265 10.7613 11.2691 10.8626 11.2691 10.9693C11.2691 11.076 11.2265 11.1773 11.1518 11.252C10.4745 11.924 9.47714 12.2333 7.99981 12.2333ZM4.18648 11.412C4.37848 11.428 4.58114 11.4333 4.79981 11.4333H7.99981C9.02381 11.4333 9.75448 11.2733 10.2718 10.9373L7.46648 8.13197L4.18648 11.412Z" fill="#1B3865"/>
<path d="M4.86403 7.19778C4.52803 7.19778 4.19203 7.07511 3.92536 6.82445C3.07736 6.01911 2.73604 5.13378 2.93871 4.26978C3.14137 3.38445 3.9147 2.78711 4.86403 2.78711C5.81337 2.78711 6.58671 3.38445 6.78938 4.26978C6.98671 5.13912 6.64537 6.01911 5.79737 6.82445C5.53603 7.06978 5.20003 7.19778 4.86403 7.19778ZM3.71737 4.44578C3.5467 5.17111 4.03737 5.82178 4.48003 6.24311C4.6987 6.45111 5.0347 6.45111 5.24803 6.24311C5.68537 5.82712 6.17603 5.17644 6.0107 4.44578C5.8667 3.81111 5.30137 3.58178 4.86403 3.58178C4.4267 3.58178 3.8667 3.81111 3.71737 4.44578Z" fill="#1B3865"/>
<path d="M4.88001 5.16237C4.58668 5.16237 4.34668 4.92237 4.34668 4.62904C4.34668 4.3357 4.58135 4.0957 4.88001 4.0957H4.88535C5.17869 4.0957 5.41869 4.3357 5.41869 4.62904C5.41869 4.92237 5.17335 5.16237 4.88001 5.16237Z" fill="#1B3865"/>
</svg>
