<svg width="81" height="113" viewBox="0 0 81 113" fill="none" xmlns="http://www.w3.org/2000/svg">
<path id="Subtract" fill-rule="evenodd" clip-rule="evenodd" d="M15.8582 15.0544C15.5501 15.0706 15.2421 15.0882 14.9342 15.1057C13.0164 15.215 11.1012 15.3242 9.18505 15.108C9.22002 15.4165 9.25416 15.7249 9.28826 16.0328C9.87492 21.3315 10.4477 26.5047 14.9876 30.0684C17.9614 32.4028 22.4652 34.1175 26.2627 33.6211C27.8247 33.4169 29.2352 32.7629 30.6392 32.1118C31.7969 31.575 32.9502 31.0402 34.1803 30.7615C33.976 30.4019 33.7495 30.0378 33.5207 29.6698C33.0455 28.9058 32.56 28.1251 32.2406 27.3349C30.8345 23.8566 31.0268 19.8734 31.9974 16.3219C33.6485 10.2809 38.7778 6.39649 43.6537 2.70395C44.8366 1.80811 46.0047 0.923553 47.1045 0.0222361L47.2988 0C47.3873 0.192432 47.4772 0.38764 47.5684 0.585463L47.5704 0.589843C50.1654 6.22115 53.7361 13.9698 51.5651 20.1225C50.3481 23.5718 49.0157 25.6041 45.8561 27.6371C45.9798 27.296 46.1044 26.9551 46.229 26.6141L46.2297 26.6122C48.0208 21.7099 49.8147 16.8001 48.9468 11.4625C48.5475 9.00679 47.6773 6.71921 46.8012 4.41587L46.8006 4.41424C46.679 4.09477 46.5574 3.77499 46.4369 3.45442C41.137 7.23669 35.076 12.0705 33.9791 18.9268C33.3798 22.6721 34.1042 28.1545 36.3997 31.2411L36.5767 31.4759C36.333 31.6489 35.8329 31.6701 35.2866 31.6932C34.7261 31.717 34.1168 31.7428 33.6861 31.9368C32.8654 32.3063 32.0797 32.7561 31.2938 33.206L31.2937 33.206C30.2782 33.7873 29.2626 34.3687 28.1711 34.7774C26.9903 35.2195 25.7435 35.4352 24.4998 35.6503C23.2719 35.8627 22.0471 36.0746 20.8918 36.5033C13.5552 39.2257 6.14486 46.5932 4.80819 54.4646C4.44102 56.627 4.2049 58.8618 4.45468 61.053C5.2496 68.0235 9.88721 75.3806 13.8782 80.9588C17.5651 86.1114 21.8422 90.8866 26.3222 95.3587C29.42 98.4511 32.7022 101.567 36.2989 104.079C36.4565 104.188 36.6249 104.31 36.8016 104.438L36.8016 104.438L36.8017 104.439C37.6654 105.064 38.7242 105.831 39.6603 106.016C40.9301 106.266 42.1744 105.812 43.3759 105.374L43.3761 105.374C43.7038 105.254 44.0282 105.136 44.3491 105.033L50.8702 102.968C51.6752 102.719 52.4994 102.492 53.3267 102.264C54.935 101.821 56.5552 101.375 58.0695 100.756C59.6484 100.112 61.0795 99.2548 62.4534 98.2546C65.4034 96.1054 68.2262 92.62 69.7934 89.3383C63.2772 90.0126 57.086 91.2155 50.7665 92.9406C50.2639 93.0779 49.595 93.3177 48.8599 93.5811L48.8598 93.5812C47.0311 94.2367 44.7926 95.039 43.6841 94.7764C43.8708 94.0797 44.899 93.4892 45.5922 93.091L45.5935 93.0903C45.6489 93.0585 45.7022 93.0279 45.7527 92.9985C51.188 89.8461 57.6211 88.3589 63.7899 87.549C64.164 87.4998 64.7449 87.4561 65.4229 87.4051L65.4232 87.4051H65.4233C67.5228 87.2472 70.5533 87.0193 71.26 86.34L71.0665 85.916C69.1404 85.4997 67.1407 85.5399 65.174 85.5795H65.1739L65.1656 85.5797C65.0045 85.5829 64.8435 85.5862 64.6829 85.5891C56.8817 85.7308 48.9892 87.4684 41.5961 89.8585C40.2036 90.3088 38.8438 90.8224 37.486 91.3352C35.4162 92.117 33.351 92.897 31.1811 93.4484C33.5144 90.7232 36.3923 89.0177 39.5472 87.3929C45.9168 84.1132 52.7345 81.8896 59.9066 81.3435C64.1837 81.0177 68.4716 81.2411 72.7265 81.7138L74.1031 76.2949C73.8237 76.2935 73.5428 76.2905 73.261 76.2875L73.2596 76.2875C71.859 76.2725 70.435 76.2572 69.0568 76.4367C66.7679 76.7347 64.5226 77.2597 62.277 77.7848L62.277 77.7848C60.6822 78.1577 59.0873 78.5306 57.4765 78.8223C55.6449 79.154 53.8227 79.4402 52.0051 79.7257C48.4669 80.2813 44.9465 80.8342 41.4094 81.7148L33.7724 83.955C33.4902 84.0505 33.0923 84.2133 32.646 84.3958L32.6457 84.396C31.5306 84.8522 30.1139 85.4318 29.4471 85.3926C29.3608 85.3876 29.2205 85.3239 29.1009 85.2697C29.0486 85.2459 29.0003 85.224 28.9622 85.2096C29.2674 84.4936 29.9341 84.1013 30.5975 83.711L30.5976 83.7109C30.7191 83.6394 30.8404 83.5681 30.9593 83.4948C33.5277 81.9103 36.2113 80.5921 39.0106 79.4674C44.8414 77.1246 50.8586 75.0534 57.079 74.0411C62.0926 73.2253 67.1232 73.1718 72.1846 73.1858C72.4152 73.1864 72.6452 73.2025 72.8699 73.2183H72.87C73.7142 73.2774 74.4836 73.3313 74.9336 72.5399L74.8292 71.5005C73.569 70.9118 71.4995 70.8044 69.8853 70.7207L69.8842 70.7207C69.5937 70.7056 69.318 70.6913 69.0643 70.6751C58.9806 70.0301 48.3799 70.8938 38.8386 74.3737C33.8085 76.2082 28.8756 79.076 26.5336 84.1288C26.4636 84.2795 26.4005 84.4207 26.341 84.554C25.9756 85.3715 25.7432 85.8914 24.8845 86.5024C24.7725 86.5125 24.657 86.5273 24.5398 86.5423C24.0007 86.6111 23.4254 86.6845 22.983 86.3379C22.7629 86.1656 22.5671 85.9192 22.3859 85.6912C22.3507 85.647 22.3161 85.6034 22.2819 85.5612C22.2176 83.9569 23.7469 82.3209 25.1941 80.7726C26.0551 79.8515 26.887 78.9614 27.3371 78.1276C26.8856 78.2554 26.4309 78.3879 25.9736 78.5212C23.8332 79.1448 21.6365 79.7849 19.4549 80.0383L19.0635 79.6504C19.4494 77.917 22.224 76.2127 24.0521 75.0898C24.3238 74.9229 24.5747 74.7688 24.7936 74.6294C33.4189 69.1377 44.911 65.7373 55.1402 65.7281C61.7295 65.7221 68.8933 66.992 75.3298 68.3791C75.316 67.9644 75.3216 67.4632 75.3275 66.9235V66.923C75.3445 65.3889 75.3649 63.5438 74.9564 62.4891C64.2096 59.5544 51.7308 60.4703 40.9801 62.9969L32.772 65.3001L22.9894 68.7098C22.9155 68.7321 22.8388 68.7569 22.76 68.7823C22.267 68.9412 21.6925 69.1265 21.2248 68.92C21.2166 68.8596 21.2062 68.8049 21.1965 68.7541C21.1596 68.5598 21.1333 68.4215 21.2807 68.2286C22.2891 66.9096 24.1223 65.6375 25.5197 64.6678L25.7145 64.5325C29.9054 61.6199 34.6659 58.9657 39.4363 57.1026C43.7043 55.4357 48.2713 53.8062 52.7105 52.6544L57.9792 51.3419C58.0795 51.313 58.2096 51.2806 58.3537 51.2448L58.3538 51.2448C58.7931 51.1355 59.3617 50.994 59.607 50.8205C59.6724 50.7743 59.7523 50.6531 59.8203 50.55C59.8501 50.5048 59.8776 50.4631 59.9006 50.4327C58.2162 49.1152 46.2078 50.0222 43.4801 50.3555C43.0225 50.4114 42.5535 50.4897 42.0803 50.5687L42.08 50.5687C41.0922 50.7336 40.0868 50.9013 39.1312 50.8746L37.5918 50.6913C37.1953 50.9065 36.866 50.9269 36.4283 50.9498L36.3539 50.7832L37.5343 50.4047L37.4043 50.0676C38.1111 49.6983 38.9635 49.5122 39.783 49.3333C40.084 49.2675 40.3806 49.2028 40.664 49.1303C44.4182 48.1693 48.2557 47.8879 52.1006 47.6059C53.7504 47.4849 55.4017 47.3638 57.0482 47.1889C50.1357 45.3534 43.2513 45.9492 36.2741 47.0303C31.563 47.7603 26.8679 48.7061 22.3516 50.2651C20.9629 50.7446 19.5001 51.2904 18.1961 51.9701C17.8176 52.1674 17.4694 52.3708 17.1312 52.5684C16.2106 53.1062 15.3646 53.6005 14.186 53.8084C17.4485 50.9095 21.297 48.3925 25.3369 46.7309C26.1433 46.3992 26.9352 46.1185 27.7135 45.8426C29.6468 45.1573 31.4951 44.5022 33.2678 43.1707C35.8566 41.2262 37.9162 38.7851 39.9793 36.34L39.9793 36.34C42.4441 33.4187 44.9137 30.4917 48.2967 28.3988C51.8273 26.2146 56.1377 25.3318 60.2129 26.3072C66.403 27.7887 71.9829 33.5983 75.2325 38.838C77.5689 42.6061 79.4182 46.7082 80.2187 51.0905C81.5984 58.6469 79.7936 67.008 78.0529 74.3519C77.4122 77.0576 76.5252 79.6838 75.6372 82.3129L75.6339 82.3226C75.5584 82.5465 75.4828 82.7703 75.4073 82.9942C73.1599 89.6589 70.3943 96.4012 65.6854 101.719L65.6421 101.768C64.5033 103.054 63.2379 104.482 61.7703 105.375C60.1081 106.387 58.2053 106.872 56.3314 107.351C56.0547 107.421 55.7786 107.492 55.504 107.564L48.7269 109.554C47.5794 109.935 46.4363 110.398 45.2897 110.862C43.4291 111.616 41.5592 112.373 39.6454 112.79C38.3546 113.071 37.1785 113.08 35.8939 112.756C31.9082 111.751 28.013 108.166 25.0043 105.396L24.8197 105.227C17.4318 98.4315 10.5378 90.9807 5.39719 82.295C0.267698 73.6288 -1.3685 66.3077 1.19336 56.4906C3.0546 49.3584 7.61692 42.7893 13.4695 38.3495C14.9094 37.2571 16.4945 36.3458 18.067 35.4417L18.0671 35.4416C18.4179 35.24 18.768 35.0387 19.1158 34.8358C16.7345 34.0587 14.4429 33.2176 12.5425 31.517C7.99428 27.4468 7.82602 22.2587 7.64889 16.7972C7.62233 15.9783 7.59558 15.1533 7.55383 14.325L15.5648 14.1243L15.5886 14.0792L23.8621 13.752L24.0063 14.0758C22.7037 14.6894 21.7619 14.9835 20.32 15.0469L15.8582 15.0544ZM57.2368 28.5625C59.532 28.7159 61.2743 29.0104 63.2521 30.2632C70.2271 34.6807 73.2006 43.5012 74.9091 51.1051C74.2576 50.2344 73.7277 49.266 73.2034 48.3077L73.2034 48.3076L73.2029 48.3067C73.0898 48.1001 72.9771 47.8941 72.8634 47.6895C72.0911 46.5193 71.3772 45.3169 70.6643 44.1163C69.1794 41.6155 67.6993 39.1227 65.7067 36.9452C62.2313 33.1473 58.1939 29.8953 52.8464 29.6659L52.6992 29.3585C54.273 28.7931 55.5856 28.6647 57.2368 28.5625ZM58.7353 34.9119C56.3287 33.3597 54.2035 33.1248 51.4104 33.4084C45.8134 35.0785 41.4275 38.7145 37.584 42.9985C42.6024 42.9916 47.1756 43.6771 52.0706 44.7358C58.0866 46.0368 62.8944 47.2347 67.968 50.9016C67.3783 51.4189 64.8726 51.78 63.2187 52.0183C62.7283 52.089 62.3128 52.1489 62.0443 52.1988C57.1677 53.1062 52.4651 54.3834 47.715 55.6735C46.6085 55.974 45.4995 56.2752 44.3851 56.5726L39.9783 58.3686C43.2146 58.405 46.4446 58.2781 49.6758 58.1512C54.1637 57.975 58.6538 57.7986 63.1664 58.0595C63.718 58.0914 65.4373 58.2731 67.3757 58.478C70.5276 58.8111 74.2587 59.2055 74.4912 59.1166C72.5427 50.1378 66.5261 39.937 58.7353 34.9119Z" fill="#BAB8B8"/>
</svg>
