<svg width="40" height="40" viewBox="0 0 40 40" fill="none" xmlns="http://www.w3.org/2000/svg">
<path d="M21.7988 3.46751C21.506 3.42489 21.25 3.65689 21.25 3.95281V9.30692C21.25 9.50528 21.3692 9.68174 21.5414 9.78015C22.4831 10.3182 23.1167 11.3334 23.1167 12.5V15.8334C23.1167 17.55 21.7167 18.9667 20 18.9667C18.2667 18.9667 16.8667 17.55 16.8667 15.8334V12.5C16.8667 11.3332 17.5142 10.318 18.4585 9.77998C18.6308 9.68178 18.75 9.50528 18.75 9.30692V3.95345C18.75 3.6573 18.4938 3.42521 18.2008 3.46806C15.4715 3.86711 13.0261 5.14058 11.1667 7.00002C8.9 9.26669 7.5 12.4 7.5 15.8334V24.1667C7.5 31.05 13.1167 36.6667 20 36.6667C26.8833 36.6667 32.5 31.05 32.5 24.1667V15.8334C32.5 9.55568 27.8351 4.34606 21.7988 3.46751Z" fill="#8C55FD"/>
</svg>
