<svg width="89" height="23" viewBox="0 0 89 23" fill="none" xmlns="http://www.w3.org/2000/svg">
<path d="M13.0983 10.7072C13.0983 13.1581 13.0983 15.6089 13.1124 18.0598C13.1124 18.3129 13.0315 18.4606 12.81 18.5767C10.0848 20.0043 7.36323 21.4354 4.64162 22.8665C4.62756 22.8736 4.60646 22.863 4.52559 22.849V22.1809C4.52559 19.9691 4.5291 17.7539 4.51855 15.5421C4.51855 15.2608 4.56778 15.0709 4.84205 14.9303C6.4279 14.1145 8.00672 13.2847 9.58553 12.4583C10.6545 11.8817 11.7234 11.305 12.7924 10.7248C12.8979 10.6685 12.9963 10.6509 13.0983 10.7142V10.7072Z" fill="#016938"/>
<path d="M0.024614 11.9062C0.0175815 9.42014 0.0175815 6.93413 0 4.44459C0 4.18439 0.0949399 4.03319 0.305917 3.92418C2.74622 2.6548 5.18301 1.3819 7.62332 0.112521C7.70068 0.0738421 7.78507 0.0492281 7.9222 0V3.43542C7.9222 4.73293 7.91869 6.03396 7.92572 7.33147C7.92572 7.60574 7.89759 7.80617 7.60925 7.95033C6.24493 8.63953 4.89116 9.35333 3.53387 10.0601C2.38053 10.7071 1.22367 11.3471 0.0210977 11.9062H0.024614Z" fill="#019049"/>
<path d="M24.8887 18.1722C24.2698 18.1722 23.7072 18.1616 23.1446 18.1757C22.8844 18.1827 22.8071 18.0104 22.7156 17.8276C22.044 16.4738 21.3654 15.127 20.7078 13.7698C20.5285 13.397 20.314 13.1966 19.871 13.2493C19.4912 13.2915 19.1009 13.2775 18.7141 13.2493C18.3238 13.2212 18.2078 13.3759 18.2148 13.7557C18.2324 15.0356 18.2042 16.3191 18.2324 17.599C18.2429 18.035 18.1585 18.2003 17.6733 18.1862C16.4637 18.1511 16.4637 18.1792 16.4637 16.9696C16.4637 13.6924 16.4742 10.4152 16.4531 7.14155C16.4531 6.66333 16.5727 6.51565 17.065 6.52971C18.4222 6.56488 19.7831 6.51916 21.1403 6.54729C23.6369 6.60355 25.2052 8.86101 24.3577 11.1536C24.0553 11.9694 23.4822 12.5496 22.684 12.8661C22.3007 13.0173 22.3218 13.165 22.4765 13.4603C23.2361 14.9126 23.985 16.3683 24.734 17.824C24.7832 17.919 24.8219 18.0174 24.8887 18.1686V18.1722ZM18.2535 9.94052C18.2535 10.4363 18.2605 10.9286 18.2535 11.4244C18.2499 11.6846 18.3519 11.7795 18.6121 11.7725C19.456 11.7549 20.3035 11.7936 21.1439 11.7303C22.2269 11.6459 22.8563 10.9075 22.8211 9.87722C22.786 8.88563 22.1144 8.20347 21.056 8.15424C20.2507 8.11556 19.442 8.14721 18.6332 8.12963C18.3449 8.12259 18.2429 8.22808 18.25 8.50938C18.264 8.98408 18.2535 9.4623 18.2535 9.937V9.94052Z" fill="white"/>
<path d="M62.8468 10.6333C63.0366 10.3907 62.7835 10.0074 63.0507 9.95815C63.4938 9.88079 63.9614 9.9265 64.415 9.95815C64.5592 9.9687 64.5311 10.1656 64.5311 10.2887C64.4994 13.1052 64.619 15.9218 64.4678 18.7383C64.3975 20.0499 63.3391 21.1962 61.9607 21.481C60.7159 21.7377 59.5204 21.6147 58.469 20.8094C58.1982 20.602 58.0998 20.4156 58.4338 20.187C58.4655 20.1659 58.4936 20.1413 58.5147 20.1132C58.8804 19.6631 59.1547 19.4732 59.8052 19.8882C61.1871 20.7672 62.6534 19.9655 62.8573 18.348C62.8749 18.2214 62.8995 18.0913 62.8925 17.9683C62.8784 17.7186 63.012 17.3705 62.8151 17.2439C62.6077 17.1103 62.4459 17.4584 62.249 17.5744C60.9058 18.3761 58.5639 18.0034 58.0787 15.9429C57.7763 14.6629 57.7692 13.3654 58.0048 12.082C58.4198 9.84211 60.9163 9.00875 62.6569 10.4926C62.7096 10.5383 62.7694 10.577 62.8468 10.6333ZM62.8749 13.8436C62.8468 13.2424 62.8292 12.6376 62.5936 12.0714C62.3369 11.4561 61.8059 11.2768 61.2117 11.2838C60.6315 11.2908 60.0619 11.4104 59.8228 12.0539C59.3832 13.2459 59.3903 14.452 59.7981 15.644C60.0091 16.2593 60.4768 16.4668 61.3242 16.4422C62.0451 16.4211 62.3861 16.182 62.6288 15.5701C62.8503 15.0111 62.8397 14.4274 62.8749 13.8436Z" fill="white"/>
<path d="M40.4237 17.4338C39.7662 17.9929 39.0735 18.2636 38.2717 18.2601C36.9074 18.2531 35.9475 17.6026 35.5994 16.2875C35.195 14.7684 35.2091 13.2177 35.6029 11.6917C36.1585 9.54674 38.764 9.42367 39.9385 10.2676C40.0651 10.359 40.167 10.5665 40.3428 10.475C40.5081 10.3907 40.4413 10.1762 40.4413 10.0179C40.4448 8.99468 40.4518 7.96793 40.4378 6.94468C40.4343 6.64932 40.5011 6.53679 40.8281 6.52976C42.0869 6.50515 42.0869 6.49108 42.0869 7.73585C42.0869 10.9568 42.0869 14.1777 42.0869 17.3986C42.0869 18.3023 42.1889 18.1581 41.2852 18.1722C41.25 18.1722 41.2114 18.1687 41.1762 18.1722C40.6593 18.2425 40.3006 18.1441 40.4272 17.4338H40.4237ZM36.9672 13.703C36.918 14.146 37.0199 14.5821 37.0375 15.0181C37.0446 15.215 37.0973 15.4154 37.1465 15.6088C37.3505 16.3824 37.8779 16.7657 38.7183 16.7622C39.5552 16.7622 40.0193 16.4105 40.2303 15.6194C40.487 14.6489 40.4905 13.6643 40.3182 12.6833C40.1565 11.7585 39.5728 11.2697 38.7042 11.2697C37.8392 11.2697 37.3118 11.7057 37.1149 12.62C37.0375 12.9751 37.0129 13.3408 36.9672 13.703Z" fill="white"/>
<path d="M30.7956 14.5118C30.0431 14.5118 29.2906 14.5224 28.5381 14.5083C28.2252 14.5048 28.1408 14.5892 28.1795 14.9232C28.2674 15.6898 28.5662 16.3262 29.2871 16.6216C30.1626 16.9802 31.0874 16.9521 31.8329 16.3403C32.2548 15.9922 32.4377 16.1258 32.7366 16.4071C33.3941 17.0154 33.4011 17.0084 32.6276 17.5393C31.0171 18.6434 28.7034 18.4782 27.4867 17.1772C27.114 16.7798 26.8714 16.3086 26.7518 15.7917C26.4072 14.2832 26.351 12.7818 27.1562 11.3858C27.8735 10.1375 29.2343 9.57845 30.7323 9.84568C32.0439 10.0778 33.1198 11.1924 33.3871 12.5778C33.4855 13.0842 33.5066 13.5905 33.5137 14.1039C33.5172 14.4133 33.4152 14.5259 33.1058 14.5224C32.3357 14.5083 31.5656 14.5188 30.7921 14.5188L30.7956 14.5118ZM30.0255 13.3514C30.5389 13.3514 31.0558 13.3479 31.5692 13.3514C31.7696 13.3514 31.861 13.3057 31.8575 13.0736C31.8364 12.0152 31.0452 11.1819 30.0396 11.1713C29.055 11.1608 28.2779 11.9133 28.2005 12.9119C28.1759 13.2354 28.2252 13.3796 28.5944 13.3549C29.0691 13.3233 29.5473 13.3479 30.0255 13.3479V13.3514Z" fill="white"/>
<path d="M79.2325 14.0405C79.1762 15.2079 79.1446 16.3859 78.2162 17.2861C77.1965 18.2742 75.9904 18.4781 74.6683 18.0808C73.3321 17.6799 72.6394 16.6989 72.446 15.3767C72.3018 14.4027 72.3018 13.4182 72.5093 12.4371C72.868 10.7563 74.169 9.72605 75.8849 9.79286C77.6536 9.86318 78.916 10.9814 79.127 12.6762C79.1832 13.1263 79.2711 13.5799 79.2325 14.0405ZM77.5833 14.0124C77.5517 13.6045 77.5341 13.2037 77.4813 12.8063C77.3618 11.8991 76.7253 11.3154 75.8322 11.2767C74.9742 11.2416 74.3237 11.7549 74.1268 12.6586C73.9334 13.5447 73.9545 14.4414 74.0987 15.3275C74.2534 16.2769 74.9391 16.7973 75.8709 16.7657C76.7359 16.7375 77.3653 16.1362 77.4813 15.2115C77.5306 14.8141 77.5482 14.4097 77.5798 14.0159L77.5833 14.0124Z" fill="white"/>
<path d="M83.072 10.6825C83.6768 10.2184 84.1902 9.91247 84.802 9.83511C86.7149 9.58545 88.0792 10.6755 88.1495 12.6095C88.2093 14.3465 88.1601 16.0871 88.1706 17.8276C88.1706 18.0808 88.1003 18.1652 87.8331 18.1793C86.518 18.2496 86.518 18.2566 86.518 16.9345C86.518 15.6335 86.5356 14.336 86.511 13.0349C86.4969 12.3211 86.2402 11.7023 85.5264 11.3999C84.8302 11.1045 84.0671 11.2803 83.5537 11.8077C83.1599 12.2121 83.1353 12.7255 83.1318 13.2354C83.1248 14.7192 83.1177 16.1996 83.1353 17.6835C83.1388 18.0597 83.0369 18.1828 82.643 18.1793C81.458 18.1687 81.458 18.1863 81.458 17.0083C81.458 14.8282 81.4721 12.6517 81.4475 10.4716C81.4405 9.99686 81.5952 9.84918 82.0382 9.91247C82.1824 9.93357 82.3336 9.93357 82.4778 9.91247C82.9665 9.83511 83.2021 10.0074 83.0685 10.679L83.072 10.6825Z" fill="white"/>
<path d="M50.6027 10.5735C50.884 10.57 50.986 10.3977 51.1337 10.3063C52.1464 9.68389 53.1977 9.59246 54.2597 10.134C55.2618 10.6438 55.6486 11.5405 55.6591 12.613C55.6732 14.3324 55.6591 16.0519 55.6732 17.7714C55.6732 18.0702 55.6029 18.1757 55.2794 18.1828C54.0206 18.2074 54.0206 18.2214 54.0206 16.9872C54.0206 15.6159 54.0346 14.2445 54.01 12.8732C53.9959 11.9695 53.4755 11.4174 52.5824 11.2803C51.8194 11.1607 51.0212 11.646 50.761 12.3738C50.666 12.6411 50.6906 12.9154 50.6906 13.1861C50.6836 14.6841 50.6766 16.1855 50.6941 17.6834C50.6977 18.0632 50.5957 18.1828 50.2054 18.1828C49.038 18.1757 49.038 18.1933 49.038 17.0083C49.038 14.8142 49.0485 12.62 49.0274 10.4258C49.0239 10.0109 49.1399 9.85267 49.5514 9.91948C49.6393 9.93354 49.7342 9.91948 49.8256 9.91948C50.2687 9.92651 50.8524 9.74718 50.6062 10.5735H50.6027Z" fill="white"/>
<path d="M13.0979 10.7071C12.9924 10.6438 12.894 10.6614 12.792 10.7177C11.7231 11.2978 10.6541 11.8745 9.58515 12.4512C9.63789 12.1242 9.33549 12.1242 9.16671 12.0328C8.13995 11.4772 7.09913 10.9462 6.06183 10.4082C5.95282 10.352 5.78755 10.3309 5.79107 10.1797C5.79107 10.032 5.95985 10.0039 6.06534 9.94759C7.00419 9.45883 7.93953 8.96303 8.88541 8.49536C9.23704 8.31955 9.38824 8.09802 9.37769 7.68661C9.34956 6.59305 9.36714 5.49596 9.36714 4.37427C9.73635 4.4024 9.98952 4.62744 10.2708 4.77512C11.0479 5.1795 11.8145 5.60145 12.5916 6.00934C12.9432 6.19571 13.1225 6.43481 13.112 6.86732C13.0803 8.14373 13.0979 9.42366 13.0944 10.7036L13.0979 10.7071Z" fill="#59B557"/>
<path d="M0.0250196 11.9061C1.22759 11.347 2.38445 10.7071 3.53779 10.0601C3.47099 10.3906 3.78042 10.3941 3.94568 10.482C4.9408 11.02 5.94997 11.5299 6.9486 12.0573C7.0787 12.1276 7.31781 12.1276 7.29671 12.3421C7.27913 12.5285 7.06464 12.5461 6.92398 12.6199C5.73196 13.2529 4.55049 13.8998 3.3444 14.5047C3.03497 14.6594 2.9787 14.8457 2.98222 15.1411C2.99629 15.8725 2.97519 16.6039 2.98925 17.3317C2.99629 17.6799 2.83454 17.708 2.5884 17.5779C1.81481 17.17 1.05178 16.741 0.27116 16.3437C0.0144708 16.2136 0.0215034 16.0202 0.0215034 15.7986C0.0215034 14.5011 0.0250196 13.2036 0.0285359 11.9096L0.0250196 11.9061Z" fill="#59B557"/>
<path d="M67.3583 13.8014C67.3583 13.1263 67.3443 12.4476 67.3654 11.7725C67.3759 11.4384 67.3091 11.2275 66.9223 11.2943C66.4441 11.3787 66.4265 11.0868 66.4546 10.7422C66.4793 10.4117 66.2964 9.95105 66.9364 10.046C67.2739 10.0952 67.3829 9.95457 67.3689 9.617C67.3443 9.05088 67.3583 8.48476 67.3689 7.91512C67.3689 7.78502 67.295 7.57052 67.506 7.55646C67.9631 7.52833 68.4238 7.51778 68.8774 7.55646C69.0813 7.57404 69.025 7.82018 69.0286 7.97138C69.0356 8.51992 69.0497 9.06846 69.0286 9.617C69.011 9.9616 69.1411 10.0776 69.4716 10.0425C69.6545 10.0214 69.8408 10.0601 70.0202 10.0354C70.53 9.9616 70.6566 10.1726 70.6601 10.6684C70.6601 11.1747 70.5195 11.3224 70.0166 11.3048C69.0391 11.2697 69.0356 11.2978 69.0356 12.2824C69.0356 13.4146 69.0286 14.5504 69.0356 15.6826C69.0426 16.523 69.2817 16.7691 70.1221 16.748C70.5265 16.7375 70.7093 16.8324 70.639 17.2579C70.6144 17.4021 70.6179 17.5533 70.639 17.6974C70.6918 18.0948 70.516 18.1827 70.1397 18.1862C68.4554 18.1932 67.6502 17.6306 67.3935 16.2171C67.3654 16.0553 67.3654 15.8901 67.3654 15.7248C67.3654 15.0848 67.3654 14.4449 67.3654 13.8049L67.3583 13.8014Z" fill="white"/>
<path d="M44.7063 14.0054C44.7063 12.7782 44.7133 11.5546 44.6992 10.3274C44.6992 10.0285 44.7731 9.9195 45.0966 9.90895C46.38 9.87027 46.38 9.85972 46.38 11.1432C46.38 13.3198 46.373 15.4999 46.387 17.6764C46.387 18.0456 46.3026 18.1863 45.8983 18.1828C44.7027 18.1758 44.7027 18.1933 44.7027 17.0259C44.7027 16.0203 44.7027 15.0146 44.7027 14.0054H44.7063Z" fill="white"/>
<path d="M46.4012 7.34899C46.4012 8.27729 46.4012 8.28081 45.4834 8.27377C44.5375 8.27026 44.6571 8.3863 44.6536 7.41228C44.65 6.49805 44.6536 6.49805 45.5889 6.49805C46.1304 6.49805 46.4012 6.78169 46.4012 7.34899Z" fill="white"/>
</svg>
