<svg width="125" height="33" viewBox="0 0 125 33" fill="none" xmlns="http://www.w3.org/2000/svg">
<g clip-path="url(#clip0_10547_35381)">
<path d="M18.4207 15.0578C18.4207 18.5046 18.4207 21.9514 18.4405 25.3982C18.4405 25.7542 18.3267 25.9619 18.0152 26.1251C14.1827 28.1329 10.3551 30.1455 6.52757 32.1582C6.50779 32.1681 6.47812 32.1533 6.36438 32.1335V31.1939C6.36438 28.0834 6.36933 24.968 6.35449 21.8574C6.35449 21.4618 6.42372 21.1948 6.80945 20.997C9.03972 19.8497 11.2601 18.6826 13.4805 17.5205C14.9838 16.7095 16.4871 15.8985 17.9905 15.0826C18.1388 15.0034 18.2773 14.9787 18.4207 15.0677V15.0578Z" fill="#016938"/>
<path d="M0.0346162 16.7443C0.0247258 13.2481 0.0247258 9.75187 0 6.25069C0 5.88475 0.13352 5.67211 0.43023 5.51881C3.86218 3.7336 7.28918 1.94345 10.7211 0.158245C10.8299 0.103849 10.9486 0.0692324 11.1415 0V4.83143C11.1415 6.6562 11.1365 8.48591 11.1464 10.3107C11.1464 10.6964 11.1068 10.9783 10.7013 11.181C8.78262 12.1503 6.87873 13.1541 4.96989 14.1481C3.34788 15.058 1.72092 15.9581 0.029671 16.7443H0.0346162Z" fill="#019049"/>
<path d="M35.0021 25.5569C34.1318 25.5569 33.3406 25.542 32.5493 25.5618C32.1834 25.5717 32.0746 25.3294 31.946 25.0722C31.0015 23.1683 30.0471 21.2743 29.1223 19.3655C28.8701 18.8413 28.5685 18.5594 27.9454 18.6336C27.4113 18.693 26.8624 18.6732 26.3184 18.6336C25.7695 18.5941 25.6063 18.8116 25.6162 19.3457C25.6409 21.1458 25.6014 22.9507 25.6409 24.7508C25.6558 25.364 25.5371 25.5964 24.8546 25.5766C23.1535 25.5272 23.1535 25.5667 23.1535 23.8656C23.1535 19.2567 23.1683 14.6478 23.1387 10.0439C23.1387 9.37132 23.3068 9.16362 23.9991 9.1834C25.908 9.23285 27.8217 9.16857 29.7306 9.20813C33.2416 9.28725 35.4472 12.462 34.2554 15.6863C33.8301 16.8336 33.0241 17.6495 31.9015 18.0946C31.3625 18.3072 31.3922 18.5149 31.6097 18.9303C32.6779 20.9727 33.7312 23.02 34.7845 25.0673C34.8538 25.2008 34.9082 25.3393 35.0021 25.5519V25.5569ZM25.6706 13.9802C25.6706 14.6775 25.6805 15.3698 25.6706 16.0671C25.6657 16.433 25.8091 16.5665 26.175 16.5566C27.3618 16.5319 28.5536 16.5863 29.7355 16.4973C31.2586 16.3786 32.1438 15.3401 32.0944 13.8912C32.0449 12.4967 31.1004 11.5373 29.6119 11.4681C28.4795 11.4137 27.3421 11.4582 26.2047 11.4335C25.7992 11.4236 25.6558 11.5719 25.6657 11.9675C25.6854 12.6351 25.6706 13.3077 25.6706 13.9753V13.9802Z" fill="#3C4146"/>
<path d="M88.3847 14.9542C88.6517 14.613 88.2957 14.0739 88.6715 14.0047C89.2946 13.8959 89.9523 13.9602 90.5903 14.0047C90.793 14.0195 90.7534 14.2965 90.7534 14.4696C90.7089 18.4306 90.8771 22.3917 90.6644 26.3528C90.5655 28.1973 89.077 29.8095 87.1385 30.21C85.3879 30.571 83.7066 30.3979 82.228 29.2655C81.8472 28.9737 81.7087 28.7116 82.1785 28.3902C82.223 28.3605 82.2626 28.3259 82.2923 28.2864C82.8066 27.6534 83.1923 27.3863 84.1071 27.9699C86.0506 29.2062 88.1127 28.0787 88.3995 25.8039C88.4243 25.6259 88.4589 25.4429 88.449 25.2698C88.4292 24.9187 88.6171 24.4291 88.3402 24.2511C88.0484 24.0632 87.821 24.5528 87.544 24.7159C85.655 25.8434 82.3615 25.3193 81.6791 22.4214C81.2538 20.6213 81.2439 18.7966 81.5752 16.9916C82.1587 13.8415 85.6698 12.6695 88.1177 14.7564C88.1918 14.8207 88.2759 14.8751 88.3847 14.9542ZM88.4243 19.4691C88.3847 18.6235 88.36 17.7729 88.0286 16.9768C87.6677 16.1114 86.9209 15.8592 86.0852 15.869C85.2692 15.8789 84.4681 16.0471 84.1319 16.952C83.5137 18.6284 83.5236 20.3246 84.0972 22.0011C84.394 22.8665 85.0517 23.1582 86.2434 23.1236C87.2572 23.0939 87.7369 22.7577 88.0781 21.8972C88.3896 21.1109 88.3748 20.29 88.4243 19.4691Z" fill="#3C4146"/>
<path d="M56.8498 24.5182C55.925 25.3045 54.9508 25.6852 53.8233 25.6803C51.9046 25.6704 50.5546 24.7555 50.065 22.9061C49.4963 20.7697 49.5161 18.5889 50.07 16.4427C50.8513 13.4262 54.5157 13.2531 56.1674 14.4399C56.3454 14.5685 56.4888 14.8603 56.7361 14.7317C56.9685 14.613 56.8745 14.3114 56.8745 14.0888C56.8795 12.6498 56.8894 11.2058 56.8696 9.76674C56.8646 9.35135 56.9586 9.1931 57.4185 9.18321C59.1889 9.1486 59.1889 9.12881 59.1889 10.8794C59.1889 15.4092 59.1889 19.939 59.1889 24.4687C59.1889 25.7396 59.3323 25.5369 58.0614 25.5567C58.0119 25.5567 57.9575 25.5517 57.9081 25.5567C57.1811 25.6556 56.6767 25.5171 56.8547 24.5182H56.8498ZM51.9887 19.2714C51.9195 19.8944 52.0629 20.5076 52.0876 21.1208C52.0975 21.3978 52.1717 21.6797 52.2409 21.9516C52.5277 23.0396 53.2695 23.5786 54.4514 23.5737C55.6283 23.5737 56.2811 23.0791 56.5778 21.9665C56.9388 20.6016 56.9438 19.217 56.7014 17.8373C56.474 16.5367 55.6531 15.8493 54.4316 15.8493C53.2151 15.8493 52.4733 16.4625 52.1964 17.7482C52.0876 18.2477 52.053 18.762 51.9887 19.2714Z" fill="#3C4146"/>
<path d="M43.3104 20.4086C42.2521 20.4086 41.1938 20.4235 40.1356 20.4037C39.6955 20.3987 39.5768 20.5174 39.6312 20.9872C39.7548 22.0653 40.1751 22.9603 41.1889 23.3757C42.4202 23.8801 43.7208 23.8406 44.7692 22.9801C45.3626 22.4905 45.6198 22.6785 46.0401 23.0741C46.9649 23.9296 46.9747 23.9197 45.8868 24.6664C43.6219 26.2192 40.368 25.9868 38.657 24.1571C38.1328 23.5983 37.7916 22.9356 37.6234 22.2087C37.1388 20.0872 37.0597 17.9756 38.1921 16.0124C39.2009 14.2568 41.1147 13.4706 43.2214 13.8464C45.0659 14.1728 46.5791 15.7404 46.955 17.6888C47.0934 18.4009 47.1231 19.113 47.133 19.835C47.1379 20.2702 46.9945 20.4284 46.5593 20.4235C45.4764 20.4037 44.3934 20.4185 43.3054 20.4185L43.3104 20.4086ZM42.2274 18.7767C42.9494 18.7767 43.6763 18.7718 44.3983 18.7767C44.6802 18.7767 44.8088 18.7124 44.8038 18.3861C44.7741 16.8976 43.6615 15.7256 42.2472 15.7107C40.8625 15.6959 39.7696 16.7541 39.6608 18.1586C39.6262 18.6135 39.6955 18.8163 40.2147 18.7817C40.8823 18.7372 41.5548 18.7718 42.2274 18.7718V18.7767Z" fill="#3C4146"/>
<path d="M111.43 19.7461C111.351 21.3879 111.306 23.0446 110.001 24.3105C108.567 25.7001 106.87 25.9869 105.011 25.4281C103.132 24.8644 102.158 23.4847 101.886 21.6253C101.683 20.2555 101.683 18.8708 101.975 17.4911C102.479 15.1274 104.309 13.6784 106.722 13.7724C109.209 13.8713 110.985 15.4438 111.281 17.8274C111.361 18.4604 111.484 19.0983 111.43 19.7461ZM109.111 19.7066C109.066 19.1329 109.041 18.5692 108.967 18.0104C108.799 16.7345 107.904 15.9136 106.648 15.8592C105.441 15.8098 104.526 16.5318 104.249 17.8027C103.977 19.0489 104.007 20.3099 104.21 21.5561C104.427 22.8913 105.392 23.6232 106.702 23.5786C107.919 23.5391 108.804 22.6935 108.967 21.3929C109.036 20.8341 109.061 20.2654 109.106 19.7115L109.111 19.7066Z" fill="#3C4146"/>
<path d="M116.83 15.0232C117.68 14.3704 118.402 13.9402 119.263 13.8314C121.953 13.4803 123.872 15.0133 123.971 17.7331C124.055 20.176 123.986 22.6239 124 25.0718C124 25.4278 123.901 25.5465 123.526 25.5663C121.676 25.6652 121.676 25.6751 121.676 23.8157C121.676 21.986 121.701 20.1612 121.666 18.3315C121.647 17.3276 121.286 16.4573 120.282 16.032C119.302 15.6166 118.229 15.8639 117.507 16.6056C116.954 17.1743 116.919 17.8963 116.914 18.6134C116.904 20.7002 116.894 22.7821 116.919 24.869C116.924 25.3981 116.78 25.5712 116.227 25.5663C114.56 25.5514 114.56 25.5762 114.56 23.9195C114.56 20.8535 114.58 17.7925 114.545 14.7265C114.535 14.0589 114.753 13.8512 115.376 13.9402C115.579 13.9699 115.791 13.9699 115.994 13.9402C116.682 13.8314 117.013 14.0737 116.825 15.0182L116.83 15.0232Z" fill="#3C4146"/>
<path d="M71.1657 14.8701C71.5614 14.8652 71.7048 14.6229 71.9125 14.4943C73.3367 13.619 74.8153 13.4904 76.3087 14.252C77.7181 14.969 78.2621 16.23 78.2769 17.7383C78.2967 20.1565 78.2769 22.5747 78.2967 24.9929C78.2967 25.4132 78.1978 25.5616 77.7428 25.5715C75.9725 25.6061 75.9724 25.6259 75.9724 23.8901C75.9724 21.9615 75.9922 20.0329 75.9576 18.1043C75.9378 16.8334 75.2059 16.057 73.9499 15.8641C72.8768 15.696 71.7542 16.3784 71.3883 17.4021C71.2548 17.7779 71.2894 18.1636 71.2894 18.5444C71.2795 20.651 71.2696 22.7626 71.2943 24.8693C71.2993 25.4033 71.1559 25.5715 70.6069 25.5715C68.9651 25.5616 68.9651 25.5863 68.9651 23.9198C68.9651 20.834 68.98 17.7482 68.9503 14.6624C68.9454 14.0789 69.1086 13.8564 69.6871 13.9503C69.8108 13.9701 69.9443 13.9503 70.0729 13.9503C70.696 13.9602 71.5168 13.708 71.1707 14.8701H71.1657Z" fill="#3C4146"/>
<path d="M18.4207 15.0581C18.2723 14.9691 18.1339 14.9938 17.9904 15.0729C16.4871 15.8889 14.9838 16.6999 13.4804 17.5109C13.5546 17.051 13.1293 17.051 12.892 16.9224C11.448 16.1411 9.98421 15.3944 8.52539 14.6378C8.37209 14.5586 8.13966 14.529 8.14461 14.3163C8.14461 14.1086 8.38198 14.0691 8.53033 13.9899C9.85069 13.3026 11.1661 12.6053 12.4964 11.9476C12.9909 11.7003 13.2035 11.3888 13.1887 10.8102C13.1491 9.27226 13.1738 7.72936 13.1738 6.15186C13.6931 6.19142 14.0491 6.50791 14.4448 6.7156C15.5376 7.2843 16.6157 7.87772 17.7086 8.45136C18.2031 8.71345 18.4553 9.04972 18.4405 9.65798C18.3959 11.4531 18.4207 13.2531 18.4157 15.0532L18.4207 15.0581Z" fill="#59B557"/>
<path d="M0.0342687 16.7442C1.72552 15.9579 3.35248 15.0579 4.97449 14.1479C4.88053 14.6128 5.31571 14.6177 5.54813 14.7414C6.94761 15.498 8.36688 16.215 9.77131 16.9568C9.95428 17.0557 10.2905 17.0557 10.2609 17.3574C10.2362 17.6195 9.9345 17.6442 9.73669 17.748C8.06028 18.6382 6.3987 19.5481 4.70251 20.3986C4.26733 20.6162 4.18821 20.8783 4.19316 21.2937C4.21294 22.3223 4.18327 23.3509 4.20305 24.3746C4.21294 24.8641 3.98546 24.9037 3.6393 24.7207C2.55136 24.1471 1.47826 23.5438 0.380431 22.985C0.0194332 22.802 0.0293236 22.53 0.0293236 22.2185C0.0293236 20.3937 0.0342687 18.5689 0.0392139 16.7491L0.0342687 16.7442Z" fill="#59B557"/>
<path d="M94.7299 19.4099C94.7299 18.4604 94.7101 17.506 94.7398 16.5565C94.7546 16.0867 94.6607 15.79 94.1167 15.884C93.4442 16.0026 93.4194 15.5922 93.459 15.1076C93.4936 14.6427 93.2365 13.9949 94.1365 14.1284C94.6112 14.1977 94.7645 13.9999 94.7447 13.5251C94.7101 12.7289 94.7299 11.9328 94.7447 11.1317C94.7447 10.9487 94.6409 10.647 94.9376 10.6272C95.5805 10.5877 96.2283 10.5729 96.8662 10.6272C97.153 10.652 97.0739 10.9981 97.0789 11.2108C97.0888 11.9822 97.1085 12.7537 97.0789 13.5251C97.0541 14.0097 97.2371 14.1729 97.702 14.1235C97.9591 14.0938 98.2212 14.1482 98.4734 14.1136C99.1905 14.0097 99.3685 14.3065 99.3734 15.0037C99.3734 15.7158 99.1756 15.9235 98.4685 15.8988C97.0937 15.8493 97.0888 15.8889 97.0888 17.2736C97.0888 18.8659 97.0789 20.4632 97.0888 22.0555C97.0986 23.2374 97.4349 23.5836 98.6168 23.5539C99.1855 23.5391 99.4427 23.6726 99.3438 24.271C99.3091 24.4737 99.3141 24.6864 99.3438 24.8891C99.4179 25.4479 99.1707 25.5715 98.6415 25.5765C96.2728 25.5864 95.1404 24.7952 94.7794 22.8072C94.7398 22.5797 94.7398 22.3473 94.7398 22.1149C94.7398 21.2149 94.7398 20.3148 94.7398 19.4148L94.7299 19.4099Z" fill="#3C4146"/>
<path d="M62.8732 19.6969C62.8732 17.971 62.8831 16.2501 62.8633 14.5242C62.8633 14.1039 62.9671 13.9506 63.4221 13.9357C65.2271 13.8813 65.2271 13.8665 65.2271 15.6715C65.2271 18.7325 65.2172 21.7986 65.237 24.8596C65.237 25.3789 65.1183 25.5767 64.5496 25.5717C62.8682 25.5618 62.8682 25.5866 62.8682 23.9448C62.8682 22.5304 62.8682 21.1161 62.8682 19.6969H62.8732Z" fill="#3C4146"/>
<path d="M65.2562 10.3354C65.2562 11.6409 65.2562 11.6459 63.9655 11.636C62.6352 11.631 62.8034 11.7942 62.7984 10.4244C62.7935 9.13867 62.7984 9.13867 64.1138 9.13867C64.8754 9.13867 65.2562 9.53758 65.2562 10.3354Z" fill="#3C4146"/>
</g>
<defs>
<clipPath id="clip0_10547_35381">
<rect width="124.124" height="32.1436" fill="white"/>
</clipPath>
</defs>
</svg>
