<svg width="18" height="18" viewBox="0 0 18 18" fill="none" xmlns="http://www.w3.org/2000/svg">
<path d="M3.83203 4.91016H9.66797C10.674 4.91041 11.4997 5.7362 11.5 6.74219V15.2627C11.5 15.6956 11.3493 15.8806 11.2373 15.9463C11.124 16.0127 10.8838 16.0542 10.499 15.8438L7.55566 14.2031H7.55469C7.30727 14.065 7.01377 14.0107 6.74902 14.0107C6.48285 14.0107 6.18845 14.0648 5.93945 14.2012L5.93652 14.2031L2.98926 15.8457L2.98828 15.8467C2.60991 16.0581 2.37486 16.0157 2.26367 15.9502C2.15154 15.8839 2.00001 15.6962 2 15.2627V6.74219C2.00024 5.79881 2.72648 5.01418 3.64648 4.91992L3.83203 4.91016Z" fill="white" stroke="white"/>
<path d="M16.4999 3.8325V12.3525C16.4999 13.44 15.7199 13.8975 14.7674 13.3725L13.3199 12.5625C13.1999 12.495 13.1249 12.3675 13.1249 12.2325V6.7425C13.1249 4.8375 11.5724 3.285 9.66738 3.285H6.61488C6.33738 3.285 6.14238 2.9925 6.26988 2.7525C6.65988 2.01 7.43988 1.5 8.33238 1.5H14.1674C15.4499 1.5 16.4999 2.55 16.4999 3.8325Z" fill="white"/>
</svg>
