<svg width="61" height="61" viewBox="0 0 61 61" fill="none" xmlns="http://www.w3.org/2000/svg">
<rect width="61" height="61" fill="#F5F5F5"/>
<g id="spring 2" filter="url(#filter0_d_0_1)">
<rect x="8" y="12" width="45" height="45" rx="22.5" fill="#F5F6F7"/>
<g id="Group">
<g id="Group_2">
<path id="Vector" fill-rule="evenodd" clip-rule="evenodd" d="M30.5 32.924C31.3925 32.924 32.0366 32.0301 32.4491 30.6966C33.6837 31.3478 34.7712 31.5244 35.4022 30.8934C36.0332 30.2624 35.8566 29.175 35.2054 27.9403C36.5389 27.5277 37.4327 26.8836 37.4327 25.9912C37.4327 25.0989 36.5389 24.4547 35.2054 24.0422C35.8566 22.8076 36.0332 21.7201 35.4022 21.0891C34.7711 20.4581 33.6837 20.6347 32.449 21.2859C32.0366 19.9524 31.3925 19.0586 30.5 19.0586C29.6076 19.0586 28.9635 19.9524 28.551 21.2859C27.3164 20.6347 26.229 20.4581 25.5979 21.0891C24.9669 21.7201 25.1435 22.8076 25.7947 24.0421C24.4612 24.4547 23.5674 25.0988 23.5674 25.9912C23.5674 26.8836 24.4612 27.5277 25.7947 27.9402C25.1435 29.1748 24.9669 30.2623 25.5979 30.8933C26.229 31.5244 27.3164 31.3478 28.551 30.6966C28.9635 32.0301 29.6076 32.924 30.5 32.924Z" fill="#FD7DA0"/>
<path id="Vector_2" d="M32.6978 26.1731C32.7977 24.959 31.8944 23.8938 30.6803 23.7939C29.4661 23.694 28.4009 24.5973 28.301 25.8114C28.2011 27.0255 29.1044 28.0907 30.3185 28.1906C31.5326 28.2905 32.5979 27.3873 32.6978 26.1731Z" fill="white"/>
<path id="Vector_3" fill-rule="evenodd" clip-rule="evenodd" d="M26.2647 35.8235C25.876 34.5669 25.269 33.7246 24.4281 33.7246C23.5871 33.7246 22.9802 34.5669 22.5914 35.8235C21.428 35.2098 20.4032 35.0434 19.8085 35.6381C19.2138 36.2327 19.3801 37.2575 19.9939 38.421C18.7374 38.8097 17.895 39.4167 17.895 40.2576C17.895 41.0986 18.7374 41.7055 19.9939 42.0942C21.6854 42.4533 23.5188 41.9759 24.8328 40.6623C26.1464 39.3484 26.6238 37.5149 26.2647 35.8235Z" fill="#FD7DA0"/>
<path id="Vector_4" fill-rule="evenodd" clip-rule="evenodd" d="M34.7352 35.8235C34.3762 37.515 34.8535 39.3484 36.1672 40.6624C37.4811 41.976 39.3145 42.4533 41.006 42.0943C42.2626 41.7056 43.1049 41.0986 43.1049 40.2577C43.1049 39.4167 42.2626 38.8098 41.006 38.421C41.6197 37.2576 41.7861 36.2328 41.1914 35.6381C40.5968 35.0434 39.572 35.2097 38.4085 35.8235C38.0197 34.5669 37.4127 33.7246 36.5718 33.7246C35.7309 33.7247 35.124 34.5669 34.7352 35.8235Z" fill="#FD7DA0"/>
<path id="Vector_5" fill-rule="evenodd" clip-rule="evenodd" d="M41.113 45.7888C38.7115 44.4022 35.6121 45.2327 34.2256 47.6343C36.6272 49.0209 39.7266 48.1904 41.113 45.7888Z" fill="#B1D952"/>
<path id="Vector_6" fill-rule="evenodd" clip-rule="evenodd" d="M26.8118 47.6343C25.4253 45.2327 22.326 44.4022 19.9243 45.7888C21.3109 48.1904 24.4103 49.0209 26.8118 47.6343Z" fill="#B1D952"/>
<path id="Vector_7" fill-rule="evenodd" clip-rule="evenodd" d="M42.0758 41.6493C39.2636 39.9616 36.8755 37.6395 35.1095 34.8809C34.9677 35.1566 34.8431 35.4733 34.7352 35.8219C34.3762 37.5134 34.8535 39.3468 36.1672 40.6607C37.4811 41.9743 39.3145 42.4517 41.006 42.0926C41.4102 41.9677 41.7716 41.8201 42.0758 41.6493Z" fill="#DB4B86"/>
<path id="Vector_8" fill-rule="evenodd" clip-rule="evenodd" d="M18.9243 41.6493C21.7366 39.9616 24.1247 37.6395 25.8907 34.8809C26.0325 35.1566 26.1571 35.4733 26.265 35.8219C26.624 37.5134 26.1467 39.3468 24.8331 40.6607C23.5191 41.9743 21.6857 42.4517 19.9942 42.0926C19.5899 41.9677 19.2285 41.8201 18.9243 41.6493Z" fill="#DB4B86"/>
</g>
<g id="Group_3">
<g id="Group_4">
<path id="Vector_9" d="M35.8479 31.3384C36.3419 30.8445 36.7416 29.9281 36.0704 28.298C37.6977 27.62 38.063 26.6893 38.063 25.9906C38.063 25.292 37.6977 24.3612 36.0704 23.6833C36.7416 22.0532 36.3419 21.1368 35.8479 20.6428C35.354 20.1489 34.4375 19.7491 32.8075 20.4203C32.1295 18.793 31.1988 18.4277 30.5001 18.4277C29.8015 18.4277 28.8707 18.793 28.1928 20.4203C26.5627 19.7491 25.6464 20.1489 25.1523 20.6428C24.6584 21.1368 24.2586 22.0532 24.9298 23.6833C23.3025 24.3613 22.9372 25.292 22.9372 25.9906C22.9372 26.6892 23.3025 27.62 24.9298 28.298C24.2586 29.9281 24.6584 30.8445 25.1524 31.3384C25.6463 31.8324 26.5626 32.2322 28.1928 31.5609C28.6811 32.7329 29.3005 33.2503 29.8699 33.4481V49.9403C29.8699 50.2884 30.152 50.5706 30.5001 50.5706C30.8482 50.5706 31.1304 50.2884 31.1304 49.9403V33.4482C31.6998 33.2504 32.3192 32.733 32.8075 31.561C34.4375 32.2322 35.354 31.8324 35.8479 31.3384ZM32.7433 30.1386C32.5774 30.0512 32.3812 30.042 32.208 30.1137C32.0348 30.1855 31.9025 30.3306 31.8471 30.5097C31.6812 31.0459 31.2179 32.2931 30.5001 32.2931C29.7823 32.2931 29.319 31.0459 29.1532 30.5097C29.0978 30.3306 28.9655 30.1855 28.7923 30.1137C28.7148 30.0817 28.6329 30.0658 28.5511 30.0658C28.4498 30.0658 28.3488 30.0902 28.257 30.1386C27.7606 30.4004 26.551 30.9547 26.0436 30.4471C25.5361 29.9397 26.0904 28.7302 26.3522 28.2337C26.4397 28.0679 26.4487 27.8717 26.377 27.6985C26.3052 27.5253 26.1602 27.393 25.981 27.3376C25.4448 27.1717 24.1977 26.7084 24.1977 25.9906C24.1977 25.2728 25.4448 24.8095 25.981 24.6437C26.1601 24.5883 26.3052 24.456 26.377 24.2828C26.4488 24.1095 26.4397 23.9134 26.3522 23.7475C26.0903 23.2511 25.5361 22.0416 26.0436 21.5341C26.551 21.0266 27.7606 21.5808 28.257 21.8427C28.4228 21.9302 28.619 21.9392 28.7922 21.8675C28.9654 21.7957 29.0977 21.6507 29.1531 21.4715C29.319 20.9354 29.7823 19.6882 30.5001 19.6882C31.2179 19.6882 31.6812 20.9354 31.8471 21.4715C31.9025 21.6507 32.0348 21.7958 32.208 21.8676C32.3813 21.9394 32.5774 21.9302 32.7433 21.8428C33.2396 21.5809 34.4492 21.0266 34.9566 21.5341C35.4641 22.0417 34.9099 23.2511 34.6481 23.7475C34.5606 23.9133 34.5515 24.1095 34.6232 24.2828C34.695 24.456 34.8401 24.5883 35.0192 24.6437C35.5554 24.8095 36.8026 25.2728 36.8026 25.9906C36.8026 26.7084 35.5554 27.1717 35.0192 27.3376C34.8401 27.393 34.695 27.5253 34.6232 27.6985C34.5515 27.8717 34.5606 28.0679 34.6481 28.2337C34.9099 28.7301 35.4642 29.9397 34.9567 30.4471C34.449 30.9546 33.2396 30.4004 32.7433 30.1386Z" fill="#052A75"/>
<path id="Vector_10" d="M39.8975 42.8407C40.3091 42.8407 40.7244 42.7978 41.1372 42.7102C41.1558 42.7062 41.1744 42.7014 41.1926 42.6958C43.2943 42.0455 43.7355 41.0107 43.7355 40.257C43.7355 39.5922 43.3923 38.7086 41.8687 38.0632C42.4896 36.5296 42.1076 35.6619 41.6375 35.1918C41.1674 34.7217 40.2998 34.3395 38.766 34.9606C38.1206 33.4369 37.237 33.0938 36.5722 33.0938C35.8185 33.0938 34.7837 33.5349 34.1335 35.6366C34.1278 35.6549 34.123 35.6734 34.1191 35.692C33.7338 37.5069 34.2127 39.3688 35.4032 40.7626C34.1419 43.2662 33.4509 46.4599 33.4509 49.8159C33.4509 49.859 33.4509 49.902 33.4512 49.9451C33.4533 50.2919 33.735 50.5716 34.0814 50.5716H34.0852C34.4332 50.5696 34.7138 50.2858 34.7117 49.9377C34.7115 49.8971 34.7114 49.8565 34.7114 49.8159C34.7114 49.3991 34.7226 48.9853 34.7447 48.5756C35.3804 48.8159 36.0501 48.9379 36.7272 48.9379C37.2222 48.9379 37.7213 48.8726 38.2133 48.7408C39.6806 48.3477 40.9044 47.4112 41.6591 46.1039C41.8332 45.8024 41.7299 45.4169 41.4284 45.2429C39.3672 44.0529 36.8617 44.3078 35.0925 45.6912C35.3721 44.2293 35.8013 42.8664 36.3657 41.6652C37.3891 42.4312 38.6259 42.8407 39.8975 42.8407ZM40.1801 46.0387C39.599 46.7594 38.8043 47.2774 37.887 47.5232C36.9696 47.769 36.0224 47.7177 35.1587 47.3841C36.3573 45.8973 38.3988 45.3503 40.1801 46.0387ZM35.3463 35.9816C35.5071 35.4702 35.9319 34.3543 36.5722 34.3543C37.2243 34.3543 37.6528 35.5116 37.8067 36.0092C37.8621 36.1883 37.9944 36.3334 38.1677 36.4052C38.3409 36.4769 38.5371 36.4678 38.7029 36.3803C39.1636 36.1373 40.2849 35.6219 40.7461 36.0831C41.2073 36.5443 40.6919 37.6656 40.4489 38.1262C40.3615 38.2921 40.3523 38.4883 40.4241 38.6615C40.4958 38.8347 40.641 38.9669 40.8201 39.0224C41.3177 39.1763 42.475 39.6048 42.475 40.2569C42.475 40.8973 41.359 41.322 40.8476 41.4829C39.3063 41.8004 37.7254 41.328 36.6132 40.216C35.5013 39.1038 35.0288 37.5228 35.3463 35.9816Z" fill="#052A75"/>
<path id="Vector_11" d="M26.8813 35.692C26.8773 35.6734 26.8725 35.6548 26.8668 35.6366C26.2167 33.5349 25.1818 33.0938 24.4281 33.0938C23.7634 33.0938 22.8797 33.4372 22.2343 34.9606C20.7007 34.3396 19.833 34.7218 19.3629 35.1918C18.8928 35.6619 18.5107 36.5296 19.1316 38.0632C17.608 38.7086 17.2648 39.5922 17.2648 40.257C17.2648 41.0107 17.706 42.0455 19.8077 42.6957C19.826 42.7014 19.8444 42.7062 19.8631 42.7101C20.276 42.7978 20.6911 42.8407 21.1028 42.8407C22.3742 42.8406 23.6112 42.4311 24.6347 41.6651C25.1948 42.857 25.6217 44.2082 25.9014 45.6574C24.1348 44.3036 21.6533 44.0625 19.609 45.2428C19.3075 45.4168 19.2042 45.8023 19.3783 46.1038C20.133 47.4111 21.3568 48.3476 22.824 48.7407C23.3162 48.8726 23.815 48.9378 24.3102 48.9378C24.9742 48.9378 25.6315 48.8204 26.2564 48.5891C26.278 48.9944 26.2889 49.4037 26.2889 49.8159C26.2889 49.8565 26.2888 49.8971 26.2886 49.9377C26.2866 50.2858 26.567 50.5696 26.9151 50.5716H26.919C27.2653 50.5716 27.5471 50.2919 27.5492 49.9451C27.5494 49.902 27.5495 49.859 27.5495 49.8159C27.5495 46.4599 26.8585 43.2663 25.5971 40.7626C26.7876 39.3689 27.2665 37.5069 26.8813 35.692ZM23.1504 47.5232C22.233 47.2774 21.4384 46.7594 20.8573 46.0387C21.7209 45.7052 22.668 45.6539 23.5854 45.8997C24.5028 46.1455 25.2975 46.6635 25.8785 47.3841C25.0148 47.7178 24.0677 47.769 23.1504 47.5232ZM20.1527 41.483C19.6414 41.3221 18.5253 40.8974 18.5253 40.257C18.5253 39.6049 19.6827 39.1764 20.1802 39.0225C20.3594 38.9671 20.5045 38.8348 20.5762 38.6615C20.648 38.4883 20.6389 38.2921 20.5514 38.1263C20.3084 37.6656 19.793 36.5443 20.2542 36.0832C20.7155 35.622 21.8367 36.1374 22.2975 36.3804C22.4633 36.4678 22.6594 36.4769 22.8327 36.4052C23.0059 36.3335 23.1381 36.1883 23.1936 36.0092C23.3476 35.5116 23.776 34.3543 24.4281 34.3543C25.0685 34.3543 25.4932 35.4704 25.654 35.9817C25.9716 37.5229 25.4991 39.104 24.3872 40.2161C23.2749 41.328 21.6939 41.8006 20.1527 41.483Z" fill="#052A75"/>
</g>
<g id="Group_5">
<g id="Group_6">
<path id="Vector_12" d="M45.9409 30.0203H45.3109C44.9628 30.0203 44.6807 29.7381 44.6807 29.39C44.6807 29.0419 44.9628 28.7598 45.3109 28.7598H45.9409C46.289 28.7598 46.5712 29.0419 46.5712 29.39C46.5712 29.7381 46.289 30.0203 45.9409 30.0203Z" fill="#FDCB50"/>
</g>
<g id="Group_7">
<path id="Vector_13" d="M41.5176 30.0203H40.8876C40.5395 30.0203 40.2573 29.7381 40.2573 29.39C40.2573 29.0419 40.5395 28.7598 40.8876 28.7598H41.5176C41.8657 28.7598 42.1478 29.0419 42.1478 29.39C42.1478 29.7381 41.8656 30.0203 41.5176 30.0203Z" fill="#FDCB50"/>
</g>
<g id="Group_8">
<path id="Vector_14" d="M43.4145 28.1229C43.0664 28.1229 42.7843 27.8408 42.7843 27.4927V26.8627C42.7843 26.5146 43.0664 26.2324 43.4145 26.2324C43.7626 26.2324 44.0448 26.5146 44.0448 26.8627V27.4927C44.0448 27.8407 43.7626 28.1229 43.4145 28.1229Z" fill="#FDCB50"/>
</g>
<g id="Group_9">
<path id="Vector_15" d="M43.4145 32.5468C43.0664 32.5468 42.7843 32.2646 42.7843 31.9165V31.2865C42.7843 30.9384 43.0664 30.6562 43.4145 30.6562C43.7626 30.6562 44.0448 30.9384 44.0448 31.2865V31.9165C44.0448 32.2646 43.7626 32.5468 43.4145 32.5468Z" fill="#FDCB50"/>
</g>
<g id="Group_10">
<path id="Vector_16" d="M20.1123 30.0203H19.4823C19.1342 30.0203 18.8521 29.7381 18.8521 29.39C18.8521 29.0419 19.1342 28.7598 19.4823 28.7598H20.1123C20.4604 28.7598 20.7426 29.0419 20.7426 29.39C20.7426 29.7381 20.4604 30.0203 20.1123 30.0203Z" fill="#FDCB50"/>
</g>
<g id="Group_11">
<path id="Vector_17" d="M15.689 30.0203H15.059C14.7109 30.0203 14.4287 29.7381 14.4287 29.39C14.4287 29.0419 14.7109 28.7598 15.059 28.7598H15.689C16.0371 28.7598 16.3192 29.0419 16.3192 29.39C16.3192 29.7381 16.0371 30.0203 15.689 30.0203Z" fill="#FDCB50"/>
</g>
<g id="Group_12">
<path id="Vector_18" d="M17.5858 28.1229C17.2377 28.1229 16.9555 27.8408 16.9555 27.4927V26.8627C16.9555 26.5146 17.2377 26.2324 17.5858 26.2324C17.9339 26.2324 18.216 26.5146 18.216 26.8627V27.4927C18.216 27.8407 17.9339 28.1229 17.5858 28.1229Z" fill="#FDCB50"/>
</g>
<g id="Group_13">
<path id="Vector_19" d="M17.5858 32.5468C17.2377 32.5468 16.9555 32.2646 16.9555 31.9165V31.2865C16.9555 30.9384 17.2377 30.6562 17.5858 30.6562C17.9339 30.6562 18.216 30.9384 18.216 31.2865V31.9165C18.216 32.2646 17.9339 32.5468 17.5858 32.5468Z" fill="#FDCB50"/>
</g>
</g>
</g>
</g>
</g>
<defs>
<filter id="filter0_d_0_1" x="0" y="0" width="61" height="61" filterUnits="userSpaceOnUse" color-interpolation-filters="sRGB">
<feFlood flood-opacity="0" result="BackgroundImageFix"/>
<feColorMatrix in="SourceAlpha" type="matrix" values="0 0 0 0 0 0 0 0 0 0 0 0 0 0 0 0 0 0 127 0" result="hardAlpha"/>
<feOffset dy="-4"/>
<feGaussianBlur stdDeviation="4"/>
<feComposite in2="hardAlpha" operator="out"/>
<feColorMatrix type="matrix" values="0 0 0 0 0 0 0 0 0 0 0 0 0 0 0 0 0 0 0.25 0"/>
<feBlend mode="normal" in2="BackgroundImageFix" result="effect1_dropShadow_0_1"/>
<feBlend mode="normal" in="SourceGraphic" in2="effect1_dropShadow_0_1" result="shape"/>
</filter>
</defs>
</svg>
