<svg width="16" height="16" viewBox="0 0 16 16" fill="none" xmlns="http://www.w3.org/2000/svg">
<path fill-rule="evenodd" clip-rule="evenodd" d="M8.00002 7.29953C8.39666 7.29953 8.68294 6.90227 8.86627 6.30961C9.41498 6.59902 9.89831 6.67751 10.1788 6.39706C10.4592 6.11661 10.3807 5.63331 10.0913 5.08457C10.684 4.90121 11.0812 4.61493 11.0812 4.21832C11.0812 3.82171 10.6839 3.53541 10.0913 3.35208C10.3807 2.80336 10.4592 2.32006 10.1787 2.03961C9.89829 1.75916 9.41498 1.83765 8.86624 2.12706C8.68294 1.5344 8.39666 1.13715 8.00002 1.13715C7.60338 1.13715 7.31711 1.5344 7.13378 2.12706C6.58506 1.83765 6.10176 1.75913 5.82131 2.03958C5.54086 2.32003 5.61935 2.80336 5.90876 3.35205C5.3161 3.53541 4.91885 3.82168 4.91885 4.21829C4.91885 4.61493 5.3161 4.90121 5.90876 5.08454C5.61935 5.63325 5.54086 6.11659 5.82131 6.39703C6.10176 6.67748 6.58506 6.599 7.13378 6.30958C7.31711 6.90227 7.60338 7.29953 8.00002 7.29953Z" fill="#FD7DA0"/>
<path d="M8.97678 4.29917C9.02118 3.75956 8.61973 3.28612 8.08012 3.24172C7.5405 3.19732 7.06706 3.59877 7.02266 4.13839C6.97826 4.678 7.37972 5.15144 7.91933 5.19584C8.45895 5.24024 8.93238 4.83879 8.97678 4.29917Z" fill="white"/>
<path fill-rule="evenodd" clip-rule="evenodd" d="M6.11765 8.58821C5.94487 8.02972 5.67512 7.65538 5.30137 7.65538C4.92762 7.65538 4.65787 8.02975 4.48507 8.58821C3.96798 8.31546 3.51252 8.24151 3.24821 8.5058C2.98392 8.77009 3.05784 9.22555 3.33061 9.74266C2.77216 9.91544 2.39779 10.1852 2.39779 10.5589C2.39779 10.9327 2.77216 11.2024 3.33064 11.3752C4.08241 11.5348 4.89725 11.3226 5.48123 10.7388C6.06507 10.1548 6.27723 9.33997 6.11765 8.58821Z" fill="#FD7DA0"/>
<path fill-rule="evenodd" clip-rule="evenodd" d="M9.88232 8.58824C9.72274 9.34 9.9349 10.1548 10.5187 10.7388C11.1027 11.3227 11.9176 11.5348 12.6693 11.3752C13.2278 11.2025 13.6022 10.9327 13.6022 10.559C13.6022 10.1852 13.2278 9.91546 12.6693 9.74266C12.9421 9.22558 13.016 8.77011 12.7517 8.5058C12.4874 8.24151 12.032 8.31544 11.5149 8.58821C11.3421 8.02972 11.0723 7.65538 10.6986 7.65538C10.3248 7.65541 10.0551 8.02975 9.88232 8.58824Z" fill="#FD7DA0"/>
<path fill-rule="evenodd" clip-rule="evenodd" d="M12.7169 13.0172C11.6495 12.401 10.272 12.7701 9.65582 13.8375C10.7232 14.4537 12.1007 14.0846 12.7169 13.0172Z" fill="#B1D952"/>
<path fill-rule="evenodd" clip-rule="evenodd" d="M6.36081 13.8375C5.74457 12.7701 4.36709 12.401 3.29969 13.0172C3.91594 14.0846 5.29345 14.4537 6.36081 13.8375Z" fill="#B1D952"/>
<path fill-rule="evenodd" clip-rule="evenodd" d="M13.1448 11.1774C11.8949 10.4274 10.8336 9.39532 10.0487 8.16927C9.98566 8.29181 9.93025 8.43257 9.88232 8.5875C9.72274 9.33927 9.9349 10.1541 10.5187 10.7381C11.1027 11.3219 11.9176 11.5341 12.6693 11.3745C12.849 11.319 13.0096 11.2534 13.1448 11.1774Z" fill="#DB4B86"/>
<path fill-rule="evenodd" clip-rule="evenodd" d="M2.85525 11.1774C4.10514 10.4274 5.16651 9.39532 5.95141 8.16927C6.01444 8.29181 6.06982 8.43257 6.11777 8.5875C6.27732 9.33927 6.0652 10.1541 5.48136 10.7381C4.89738 11.3219 4.08253 11.5341 3.33077 11.3745C3.15108 11.319 2.99046 11.2534 2.85525 11.1774Z" fill="#DB4B86"/>
<path d="M10.3769 6.59486C10.5964 6.37534 10.7741 5.96803 10.4757 5.24354C11.199 4.9422 11.3613 4.52856 11.3613 4.21805C11.3613 3.90755 11.199 3.49388 10.4757 3.19256C10.7741 2.46808 10.5964 2.0608 10.3769 1.84125C10.1573 1.62172 9.75 1.44402 9.02555 1.74237C8.72423 1.01912 8.31056 0.856766 8.00006 0.856766C7.68956 0.856766 7.27589 1.01912 6.97457 1.74237C6.25009 1.44405 5.84283 1.62172 5.62325 1.84125C5.40373 2.0608 5.22603 2.46808 5.52437 3.19256C4.80112 3.49391 4.63877 3.90755 4.63877 4.21805C4.63877 4.52853 4.80112 4.94223 5.52437 5.24354C5.22605 5.96803 5.40373 6.37534 5.62328 6.59486C5.8428 6.81439 6.25006 6.99209 6.97457 6.69374C7.1916 7.21464 7.46689 7.44458 7.71995 7.53248V14.8624C7.71995 15.0171 7.84535 15.1425 8.00006 15.1425C8.15477 15.1425 8.28017 15.0171 8.28017 14.8624V7.53251C8.53322 7.44461 8.80852 7.21466 9.02555 6.69377C9.75 6.99209 10.1573 6.81441 10.3769 6.59486ZM8.99701 6.06158C8.92328 6.02273 8.83611 6.01867 8.75911 6.05055C8.68213 6.08245 8.62334 6.14693 8.59872 6.22654C8.52499 6.46486 8.31908 7.01915 8.00006 7.01915C7.68104 7.01915 7.47513 6.46486 7.4014 6.22654C7.37678 6.14693 7.31799 6.08242 7.24101 6.05055C7.20659 6.03629 7.17017 6.02923 7.13381 6.02923C7.0888 6.02923 7.0439 6.04007 7.00311 6.06158C6.7825 6.17794 6.24491 6.4243 6.01939 6.19873C5.79384 5.97318 6.04017 5.43565 6.15653 5.21497C6.19541 5.14128 6.19944 5.05408 6.16757 4.9771C6.13566 4.90013 6.07118 4.84133 5.99154 4.81671C5.75325 4.74298 5.19897 4.53707 5.19897 4.21805C5.19897 3.89903 5.75325 3.69312 5.99154 3.6194C6.07115 3.59478 6.13566 3.53598 6.16757 3.45901C6.19947 3.382 6.19541 3.29483 6.15653 3.22111C6.04014 3.00049 5.79381 2.46293 6.01939 2.23738C6.24491 2.01181 6.78247 2.25814 7.00311 2.37452C7.07681 2.4134 7.16401 2.41744 7.24098 2.38556C7.31796 2.35366 7.37675 2.28917 7.40138 2.20957C7.47513 1.97128 7.68104 1.41699 8.00006 1.41699C8.31908 1.41699 8.52499 1.97128 8.59872 2.20957C8.62334 2.28917 8.68213 2.35368 8.75911 2.38559C8.83614 2.41749 8.92331 2.41343 8.99701 2.37455C9.21762 2.25817 9.75519 2.01184 9.98073 2.23738C10.2063 2.46296 9.95995 3.00049 9.84359 3.22111C9.80471 3.2948 9.80068 3.382 9.83255 3.45901C9.86446 3.53598 9.92894 3.59478 10.0085 3.6194C10.2469 3.69312 10.8012 3.89903 10.8012 4.21805C10.8012 4.53707 10.2469 4.74298 10.0085 4.81671C9.92894 4.84133 9.86443 4.90013 9.83255 4.9771C9.80065 5.0541 9.80471 5.14128 9.84359 5.21497C9.95998 5.43562 10.2063 5.97318 9.98076 6.19873C9.75513 6.42427 9.21762 6.17797 8.99701 6.06158Z" fill="#052A75"/>
<path d="M12.1767 11.707C12.3596 11.707 12.5442 11.6879 12.7276 11.649C12.7359 11.6472 12.7442 11.6451 12.7523 11.6426C13.6864 11.3536 13.8824 10.8936 13.8824 10.5587C13.8824 10.2632 13.7299 9.87049 13.0528 9.58363C13.3287 8.90206 13.1589 8.5164 12.95 8.30746C12.741 8.09853 12.3555 7.92867 11.6738 8.20469C11.3869 7.52752 10.9942 7.375 10.6988 7.375C10.3638 7.375 9.90388 7.57108 9.61489 8.50517C9.61237 8.51329 9.61024 8.5215 9.60847 8.52979C9.43727 9.3364 9.6501 10.1639 10.1792 10.7834C9.61861 11.8961 9.3115 13.3155 9.3115 14.8071C9.3115 14.8262 9.31152 14.8453 9.31164 14.8645C9.31256 15.0186 9.43777 15.143 9.59172 15.143H9.59343C9.74811 15.142 9.87279 15.0159 9.87189 14.8612C9.87178 14.8432 9.87175 14.8251 9.87175 14.8071C9.87175 14.6218 9.87671 14.4379 9.88654 14.2558C10.1691 14.3626 10.4667 14.4168 10.7676 14.4168C10.9877 14.4168 11.2095 14.3878 11.4281 14.3293C12.0803 14.1545 12.6242 13.7383 12.9596 13.1573C13.037 13.0233 12.991 12.852 12.8571 12.7746C11.941 12.2457 10.8274 12.359 10.0411 12.9739C10.1654 12.3241 10.3561 11.7184 10.607 11.1846C11.0618 11.525 11.6115 11.707 12.1767 11.707ZM12.3023 13.1283C12.044 13.4486 11.6908 13.6789 11.2831 13.7881C10.8754 13.8973 10.4544 13.8746 10.0705 13.7263C10.6032 13.0655 11.5106 12.8224 12.3023 13.1283ZM10.1539 8.6585C10.2254 8.43122 10.4142 7.93522 10.6988 7.93522C10.9886 7.93522 11.179 8.44959 11.2474 8.67074C11.2721 8.75035 11.3309 8.81486 11.4079 8.84674C11.4849 8.87864 11.5721 8.87458 11.6457 8.8357C11.8505 8.72769 12.3489 8.49861 12.5538 8.7036C12.7588 8.90856 12.5297 9.40693 12.4217 9.61167C12.3829 9.68536 12.3788 9.77256 12.4107 9.84954C12.4426 9.92654 12.5071 9.98531 12.5867 10.01C12.8079 10.0784 13.3222 10.2688 13.3222 10.5586C13.3222 10.8433 12.8262 11.032 12.5989 11.1035C11.9139 11.2446 11.2113 11.0347 10.717 10.5405C10.2228 10.0461 10.0128 9.34349 10.1539 8.6585Z" fill="#052A75"/>
<path d="M6.39168 8.52979C6.38991 8.5215 6.38779 8.51326 6.38527 8.50517C6.0963 7.57108 5.63636 7.375 5.3014 7.375C5.00594 7.375 4.61322 7.52763 4.32636 8.20469C3.64476 7.92872 3.2591 8.09856 3.05017 8.30746C2.84123 8.5164 2.67143 8.90206 2.94739 9.58363C2.27022 9.87049 2.1177 10.2632 2.1177 10.5587C2.1177 10.8936 2.31378 11.3536 3.24787 11.6425C3.25599 11.6451 3.2642 11.6472 3.27249 11.6489C3.45602 11.6879 3.64048 11.707 3.82347 11.707C4.38851 11.7069 4.93829 11.5249 5.39319 11.1845C5.64213 11.7142 5.83185 12.3148 5.95616 12.9589C5.17104 12.3572 4.06815 12.25 3.15955 12.7746C3.02557 12.8519 2.97966 13.0233 3.057 13.1572C3.39246 13.7383 3.93636 14.1545 4.58846 14.3292C4.8072 14.3878 5.02888 14.4168 5.24896 14.4168C5.54409 14.4168 5.83622 14.3646 6.11395 14.2618C6.12356 14.4419 6.1284 14.6239 6.1284 14.8071C6.1284 14.8251 6.12837 14.8432 6.12826 14.8612C6.12737 15.0159 6.25202 15.142 6.40672 15.143H6.40843C6.56235 15.143 6.68759 15.0186 6.68851 14.8645C6.68863 14.8453 6.68865 14.8262 6.68865 14.8071C6.68865 13.3155 6.38154 11.8961 5.82095 10.7834C6.35005 10.1639 6.56288 9.3364 6.39168 8.52979ZM4.7335 13.7881C4.3258 13.6789 3.9726 13.4486 3.71434 13.1283C4.09818 12.9801 4.51913 12.9573 4.92686 13.0665C5.33457 13.1758 5.68776 13.406 5.94602 13.7263C5.56216 13.8746 5.1412 13.8974 4.7335 13.7881ZM3.4012 11.1035C3.17395 11.0321 2.67793 10.8433 2.67793 10.5587C2.67793 10.2688 3.1923 10.0784 3.41344 10.01C3.49305 9.98536 3.55756 9.92657 3.58944 9.84957C3.62134 9.77256 3.61728 9.68539 3.5784 9.61169C3.47042 9.40693 3.24134 8.90859 3.44633 8.70363C3.65134 8.49867 4.14966 8.72772 4.35442 8.83573C4.42812 8.87458 4.51529 8.87864 4.5923 8.84676C4.6693 8.81489 4.72807 8.75038 4.75272 8.67077C4.82115 8.44962 5.01157 7.93525 5.3014 7.93525C5.58602 7.93525 5.77476 8.43127 5.84625 8.65853C5.98737 9.34352 5.77737 10.0462 5.28319 10.5405C4.78885 11.0347 4.08619 11.2447 3.4012 11.1035Z" fill="#052A75"/>
<path d="M14.8626 6.009H14.5826C14.4279 6.009 14.3025 5.88359 14.3025 5.72889C14.3025 5.57418 14.4279 5.44878 14.5826 5.44878H14.8626C15.0173 5.44878 15.1427 5.57418 15.1427 5.72889C15.1427 5.88359 15.0173 6.009 14.8626 6.009Z" fill="#FDCB50"/>
<path d="M12.8967 6.009H12.6167C12.462 6.009 12.3366 5.88359 12.3366 5.72889C12.3366 5.57418 12.462 5.44878 12.6167 5.44878H12.8967C13.0514 5.44878 13.1768 5.57418 13.1768 5.72889C13.1768 5.88359 13.0514 6.009 12.8967 6.009Z" fill="#FDCB50"/>
<path d="M13.7398 5.16574C13.5851 5.16574 13.4597 5.04033 13.4597 4.88563V4.60563C13.4597 4.45092 13.5851 4.32552 13.7398 4.32552C13.8945 4.32552 14.0199 4.45092 14.0199 4.60563V4.88563C14.0199 5.04031 13.8945 5.16574 13.7398 5.16574Z" fill="#FDCB50"/>
<path d="M13.7398 7.13188C13.5851 7.13188 13.4597 7.00647 13.4597 6.85177V6.57177C13.4597 6.41706 13.5851 6.29166 13.7398 6.29166C13.8945 6.29166 14.0199 6.41706 14.0199 6.57177V6.85177C14.0199 7.00647 13.8945 7.13188 13.7398 7.13188Z" fill="#FDCB50"/>
<path d="M3.38324 6.009H3.10324C2.94854 6.009 2.82313 5.88359 2.82313 5.72889C2.82313 5.57418 2.94854 5.44878 3.10324 5.44878H3.38324C3.53795 5.44878 3.66336 5.57418 3.66336 5.72889C3.66336 5.88359 3.53795 6.009 3.38324 6.009Z" fill="#FDCB50"/>
<path d="M1.41732 6.009H1.13732C0.982611 6.009 0.857204 5.88359 0.857204 5.72889C0.857204 5.57418 0.982611 5.44878 1.13732 5.44878H1.41732C1.57202 5.44878 1.69743 5.57418 1.69743 5.72889C1.69743 5.88359 1.57202 6.009 1.41732 6.009Z" fill="#FDCB50"/>
<path d="M2.26035 5.16574C2.10565 5.16574 1.98024 5.04033 1.98024 4.88563V4.60563C1.98024 4.45092 2.10565 4.32552 2.26035 4.32552C2.41506 4.32552 2.54046 4.45092 2.54046 4.60563V4.88563C2.54046 5.04031 2.41506 5.16574 2.26035 5.16574Z" fill="#FDCB50"/>
<path d="M2.26035 7.13188C2.10565 7.13188 1.98024 7.00647 1.98024 6.85177V6.57177C1.98024 6.41706 2.10565 6.29166 2.26035 6.29166C2.41506 6.29166 2.54046 6.41706 2.54046 6.57177V6.85177C2.54046 7.00647 2.41506 7.13188 2.26035 7.13188Z" fill="#FDCB50"/>
</svg>
