<svg width="27" height="27" viewBox="0 0 27 27" fill="none" xmlns="http://www.w3.org/2000/svg">
<path d="M26.4964 21.6911C26.4985 21.8741 26.4008 22.0432 26.2411 22.1325C24.0006 23.3853 21.3908 24.7633 19.0221 26.0548C17.9537 26.6373 16.6605 26.6377 15.6009 26.0396C13.0511 24.6003 9.95351 22.8424 7.72128 21.6434C7.43095 21.4882 6.99078 21.43 7.00015 21.013C7.00015 20.6056 7.44968 20.528 7.73065 20.3728C10.2312 19.0247 12.7224 17.6571 15.2417 16.3672C16.1782 15.8822 16.5809 15.2712 16.5528 14.1364C16.4779 11.12 16.5247 8.09396 16.5247 5C17.5081 5.07759 18.1824 5.69832 18.9316 6.10568C21.0014 7.22106 23.043 8.38493 25.1128 9.51001C26.0493 10.0241 26.5269 10.6836 26.4988 11.8766C26.4252 14.9524 26.4811 20.3708 26.4964 21.6911Z" fill="#59B557"/>
<path d="M15.4964 14.6911C15.4985 14.8741 15.4008 15.0432 15.2411 15.1325C13.0006 16.3853 10.3908 17.7633 8.02208 19.0548C6.95374 19.6373 5.65163 19.6497 4.61879 19.0064C3.34617 18.2137 2.76657 17.742 0.72128 16.6434C0.430954 16.4882 -0.00921834 16.43 0.000147018 16.013C0.000147018 15.6056 0.449685 15.528 0.730646 15.3728C3.2312 14.0247 5.72238 12.6571 8.24167 11.3672C9.1782 10.8822 9.58091 10.2712 9.55282 9.13641C9.47789 6.12004 9.52472 3.09396 9.52472 0C10.5081 0.0775916 11.1824 0.698324 11.9316 1.10568C14.0014 2.22106 12.043 1.38493 14.1128 2.51001C15.0493 3.02405 15.5269 3.68358 15.4988 4.87655C15.4252 7.95236 15.4811 13.3708 15.4964 14.6911Z" fill="#8078B9"/>
</svg>
