<svg width="124" height="42" viewBox="0 0 124 42" fill="none" xmlns="http://www.w3.org/2000/svg">
<g opacity="0.8">
<path d="M53.9437 13.1316V28.4744H51.9415V13.1316H53.9437ZM58.8753 13.1316V14.7965H47.0204V13.1316H58.8753ZM59.2863 22.9V22.6576C59.2863 21.8356 59.4057 21.0734 59.6445 20.3709C59.8834 19.6614 60.2276 19.0467 60.6772 18.5268C61.1268 17.9999 61.6713 17.5925 62.3106 17.3045C62.9498 17.0094 63.6664 16.8619 64.4602 16.8619C65.2611 16.8619 65.9812 17.0094 66.6205 17.3045C67.2668 17.5925 67.8147 17.9999 68.2643 18.5268C68.721 19.0467 69.0687 19.6614 69.3076 20.3709C69.5464 21.0734 69.6658 21.8356 69.6658 22.6576V22.9C69.6658 23.7219 69.5464 24.4841 69.3076 25.1866C69.0687 25.8891 68.721 26.5038 68.2643 27.0307C67.8147 27.5506 67.2703 27.958 66.631 28.2531C65.9987 28.5411 65.2822 28.6851 64.4813 28.6851C63.6805 28.6851 62.9604 28.5411 62.3211 28.2531C61.6818 27.958 61.1339 27.5506 60.6772 27.0307C60.2276 26.5038 59.8834 25.8891 59.6445 25.1866C59.4057 24.4841 59.2863 23.7219 59.2863 22.9ZM61.2357 22.6576V22.9C61.2357 23.469 61.3025 24.0064 61.4359 24.5122C61.5694 25.011 61.7696 25.4536 62.0366 25.84C62.3106 26.2263 62.6513 26.5319 63.0587 26.7567C63.4662 26.9745 63.9404 27.0834 64.4813 27.0834C65.0152 27.0834 65.4824 26.9745 65.8828 26.7567C66.2903 26.5319 66.6275 26.2263 66.8944 25.84C67.1614 25.4536 67.3616 25.011 67.4951 24.5122C67.6356 24.0064 67.7058 23.469 67.7058 22.9V22.6576C67.7058 22.0956 67.6356 21.5652 67.4951 21.0664C67.3616 20.5606 67.1579 20.1145 66.8839 19.7281C66.6169 19.3347 66.2797 19.0256 65.8723 18.8008C65.4719 18.576 65.0012 18.4636 64.4602 18.4636C63.9263 18.4636 63.4557 18.576 63.0482 18.8008C62.6478 19.0256 62.3106 19.3347 62.0366 19.7281C61.7696 20.1145 61.5694 20.5606 61.4359 21.0664C61.3025 21.5652 61.2357 22.0956 61.2357 22.6576ZM74.06 19.5068V28.4744H72.1106V17.0726H73.9547L74.06 19.5068ZM73.5964 22.3415L72.785 22.3098C72.792 21.5301 72.9079 20.81 73.1327 20.1496C73.3575 19.4822 73.6737 18.9027 74.0811 18.4109C74.4886 17.9192 74.9733 17.5398 75.5353 17.2728C76.1043 16.9989 76.7331 16.8619 77.4215 16.8619C77.9836 16.8619 78.4894 16.9392 78.939 17.0937C79.3886 17.2412 79.7714 17.4801 80.0876 17.8103C80.4107 18.1404 80.6566 18.569 80.8252 19.0959C80.9938 19.6157 81.0781 20.2515 81.0781 21.0032V28.4744H79.1181V20.9821C79.1181 20.385 79.0303 19.9073 78.8547 19.549C78.679 19.1837 78.4226 18.9202 78.0854 18.7587C77.7482 18.5901 77.3337 18.5058 76.842 18.5058C76.3572 18.5058 75.9147 18.6076 75.5142 18.8113C75.1208 19.0151 74.7801 19.2961 74.4921 19.6544C74.2111 20.0126 73.9898 20.4236 73.8282 20.8873C73.6737 21.3439 73.5964 21.8286 73.5964 22.3415ZM90.1932 16.0505L86.231 28.4744H82.5639L88.2437 13.1316H90.562L90.1932 16.0505ZM93.4809 28.4744L89.5082 16.0505L89.0973 13.1316H91.4472L97.148 28.4744H93.4809ZM93.3123 22.763V25.4184H85.3142V22.763H93.3123ZM102.08 13.1316V28.4744H98.6549V13.1316H102.08Z" fill="white"/>
<path d="M49.4446 35.5824V40.1136H48.7913V34.8518H49.3884L49.4446 35.5824ZM52.0053 36.7204V36.7942C52.0053 37.0705 51.9725 37.3269 51.9069 37.5635C51.8413 37.7976 51.7453 38.0014 51.6189 38.1746C51.4948 38.3479 51.3414 38.4826 51.1587 38.5786C50.9761 38.6746 50.7665 38.7226 50.53 38.7226C50.2888 38.7226 50.0757 38.6828 49.8907 38.6032C49.7057 38.5236 49.5488 38.4076 49.42 38.2554C49.2912 38.1032 49.1882 37.9206 49.1109 37.7075C49.036 37.4944 48.9845 37.2543 48.9564 36.9874V36.594C48.9845 36.313 49.0371 36.0613 49.1144 35.8388C49.1917 35.6163 49.2936 35.4267 49.42 35.2698C49.5488 35.1105 49.7045 34.9899 49.8872 34.908C50.0698 34.8237 50.2806 34.7815 50.5194 34.7815C50.7583 34.7815 50.9702 34.8283 51.1552 34.922C51.3402 35.0133 51.4959 35.1445 51.6224 35.3154C51.7488 35.4864 51.8437 35.6913 51.9069 35.9301C51.9725 36.1666 52.0053 36.4301 52.0053 36.7204ZM51.3519 36.7942V36.7204C51.3519 36.5308 51.332 36.3528 51.2922 36.1865C51.2524 36.0179 51.1903 35.8704 51.106 35.744C51.0241 35.6152 50.9187 35.5145 50.7899 35.4419C50.6611 35.3669 50.5077 35.3295 50.3298 35.3295C50.1658 35.3295 50.023 35.3576 49.9012 35.4138C49.7818 35.47 49.6799 35.5461 49.5956 35.6421C49.5113 35.7358 49.4423 35.8435 49.3884 35.9652C49.3369 36.0847 49.2982 36.2088 49.2725 36.3376V37.2473C49.3193 37.4112 49.3849 37.5658 49.4692 37.711C49.5535 37.8538 49.6659 37.9697 49.8064 38.0587C49.9469 38.1454 50.1237 38.1887 50.3368 38.1887C50.5124 38.1887 50.6635 38.1524 50.7899 38.0798C50.9187 38.0049 51.0241 37.903 51.106 37.7742C51.1903 37.6454 51.2524 37.4979 51.2922 37.3316C51.332 37.163 51.3519 36.9839 51.3519 36.7942ZM52.6621 36.7942V36.7134C52.6621 36.4394 52.7019 36.1854 52.7815 35.9512C52.8611 35.7147 52.9759 35.5098 53.1258 35.3365C53.2756 35.1609 53.4571 35.0251 53.6702 34.929C53.8833 34.8307 54.1221 34.7815 54.3868 34.7815C54.6537 34.7815 54.8937 34.8307 55.1068 34.929C55.3223 35.0251 55.5049 35.1609 55.6548 35.3365C55.807 35.5098 55.9229 35.7147 56.0025 35.9512C56.0821 36.1854 56.122 36.4394 56.122 36.7134V36.7942C56.122 37.0682 56.0821 37.3223 56.0025 37.5564C55.9229 37.7906 55.807 37.9955 55.6548 38.1711C55.5049 38.3444 55.3234 38.4802 55.1103 38.5786C54.8996 38.6746 54.6607 38.7226 54.3938 38.7226C54.1268 38.7226 53.8868 38.6746 53.6737 38.5786C53.4606 38.4802 53.278 38.3444 53.1258 38.1711C52.9759 37.9955 52.8611 37.7906 52.7815 37.5564C52.7019 37.3223 52.6621 37.0682 52.6621 36.7942ZM53.3119 36.7134V36.7942C53.3119 36.9839 53.3342 37.163 53.3787 37.3316C53.4232 37.4979 53.4899 37.6454 53.5789 37.7742C53.6702 37.903 53.7838 38.0049 53.9196 38.0798C54.0554 38.1524 54.2135 38.1887 54.3938 38.1887C54.5718 38.1887 54.7275 38.1524 54.861 38.0798C54.9968 38.0049 55.1092 37.903 55.1982 37.7742C55.2871 37.6454 55.3539 37.4979 55.3984 37.3316C55.4452 37.163 55.4686 36.9839 55.4686 36.7942V36.7134C55.4686 36.5261 55.4452 36.3493 55.3984 36.183C55.3539 36.0144 55.286 35.8657 55.1946 35.7369C55.1057 35.6058 54.9933 35.5028 54.8574 35.4278C54.724 35.3529 54.5671 35.3154 54.3868 35.3154C54.2088 35.3154 54.0519 35.3529 53.9161 35.4278C53.7826 35.5028 53.6702 35.6058 53.5789 35.7369C53.4899 35.8657 53.4232 36.0144 53.3787 36.183C53.3342 36.3493 53.3119 36.5261 53.3119 36.7134ZM57.8993 37.9779L58.8758 34.8518H59.3043L59.22 35.4735L58.226 38.6523H57.808L57.8993 37.9779ZM57.2425 34.8518L58.0749 38.0131L58.1346 38.6523H57.6956L56.5926 34.8518H57.2425ZM60.2387 37.9885L61.0325 34.8518H61.6788L60.5759 38.6523H60.1403L60.2387 37.9885ZM59.3992 34.8518L60.3546 37.9252L60.4635 38.6523H60.049L59.0268 35.4665L58.9425 34.8518H59.3992ZM63.9233 38.7226C63.6587 38.7226 63.4187 38.6781 63.2033 38.5891C62.9902 38.4978 62.8063 38.3702 62.6518 38.2063C62.4996 38.0423 62.3825 37.848 62.3005 37.6232C62.2186 37.3984 62.1776 37.1525 62.1776 36.8855V36.738C62.1776 36.4289 62.2233 36.1538 62.3146 35.9126C62.4059 35.669 62.53 35.4629 62.6869 35.2943C62.8438 35.1257 63.0218 34.9981 63.2208 34.9115C63.4199 34.8248 63.6259 34.7815 63.839 34.7815C64.1107 34.7815 64.3448 34.8283 64.5415 34.922C64.7406 35.0157 64.9033 35.1468 65.0298 35.3154C65.1562 35.4817 65.2499 35.6784 65.3108 35.9055C65.3717 36.1303 65.4021 36.3762 65.4021 36.6432V36.9347H62.564V36.4043H64.7523V36.3551C64.7429 36.1865 64.7078 36.0226 64.6469 35.8634C64.5884 35.7041 64.4947 35.573 64.3659 35.47C64.2371 35.3669 64.0615 35.3154 63.839 35.3154C63.6915 35.3154 63.5557 35.347 63.4316 35.4103C63.3075 35.4711 63.2009 35.5625 63.1119 35.6842C63.0229 35.806 62.9539 35.9547 62.9047 36.1303C62.8555 36.306 62.8309 36.5085 62.8309 36.738V36.8855C62.8309 37.0658 62.8555 37.2356 62.9047 37.3949C62.9562 37.5517 63.03 37.6899 63.126 37.8093C63.2243 37.9288 63.3426 38.0224 63.4807 38.0903C63.6212 38.1582 63.7805 38.1922 63.9585 38.1922C64.1879 38.1922 64.3823 38.1454 64.5415 38.0517C64.7008 37.958 64.8401 37.8327 64.9595 37.6759L65.3529 37.9885C65.271 38.1126 65.1668 38.2308 65.0403 38.3432C64.9139 38.4556 64.7581 38.547 64.5732 38.6172C64.3905 38.6875 64.1739 38.7226 63.9233 38.7226ZM66.8106 35.4489V38.6523H66.1608V34.8518H66.7931L66.8106 35.4489ZM67.9979 34.8307L67.9944 35.4348C67.9405 35.4231 67.889 35.4161 67.8398 35.4138C67.793 35.4091 67.7391 35.4067 67.6782 35.4067C67.5284 35.4067 67.3961 35.4302 67.2813 35.477C67.1666 35.5238 67.0694 35.5894 66.9898 35.6737C66.9102 35.758 66.8469 35.8587 66.8001 35.9758C66.7556 36.0905 66.7263 36.217 66.7123 36.3551L66.5296 36.4605C66.5296 36.231 66.5519 36.0156 66.5964 35.8142C66.6432 35.6128 66.7146 35.4348 66.8106 35.2803C66.9067 35.1234 67.0284 35.0016 67.1759 34.915C67.3258 34.826 67.5038 34.7815 67.7099 34.7815C67.7567 34.7815 67.8105 34.7874 67.8714 34.7991C67.9323 34.8084 67.9745 34.819 67.9979 34.8307ZM70.1054 38.7226C69.8408 38.7226 69.6008 38.6781 69.3853 38.5891C69.1722 38.4978 68.9884 38.3702 68.8339 38.2063C68.6817 38.0423 68.5646 37.848 68.4826 37.6232C68.4007 37.3984 68.3597 37.1525 68.3597 36.8855V36.738C68.3597 36.4289 68.4053 36.1538 68.4967 35.9126C68.588 35.669 68.7121 35.4629 68.869 35.2943C69.0259 35.1257 69.2039 34.9981 69.4029 34.9115C69.6019 34.8248 69.808 34.7815 70.0211 34.7815C70.2928 34.7815 70.5269 34.8283 70.7236 34.922C70.9227 35.0157 71.0854 35.1468 71.2119 35.3154C71.3383 35.4817 71.432 35.6784 71.4929 35.9055C71.5538 36.1303 71.5842 36.3762 71.5842 36.6432V36.9347H68.7461V36.4043H70.9344V36.3551C70.925 36.1865 70.8899 36.0226 70.829 35.8634C70.7705 35.7041 70.6768 35.573 70.548 35.47C70.4192 35.3669 70.2436 35.3154 70.0211 35.3154C69.8736 35.3154 69.7378 35.347 69.6137 35.4103C69.4895 35.4711 69.383 35.5625 69.294 35.6842C69.205 35.806 69.136 35.9547 69.0868 36.1303C69.0376 36.306 69.013 36.5085 69.013 36.738V36.8855C69.013 37.0658 69.0376 37.2356 69.0868 37.3949C69.1383 37.5517 69.2121 37.6899 69.3081 37.8093C69.4064 37.9288 69.5247 38.0224 69.6628 38.0903C69.8033 38.1582 69.9626 38.1922 70.1405 38.1922C70.37 38.1922 70.5644 38.1454 70.7236 38.0517C70.8829 37.958 71.0222 37.8327 71.1416 37.6759L71.535 37.9885C71.4531 38.1126 71.3489 38.2308 71.2224 38.3432C71.096 38.4556 70.9402 38.547 70.7552 38.6172C70.5726 38.6875 70.356 38.7226 70.1054 38.7226ZM74.7385 37.9147V33.2571H75.3918V38.6523H74.7947L74.7385 37.9147ZM72.1813 36.7942V36.7204C72.1813 36.4301 72.2165 36.1666 72.2867 35.9301C72.3593 35.6913 72.4612 35.4864 72.5923 35.3154C72.7258 35.1445 72.8838 35.0133 73.0665 34.922C73.2515 34.8283 73.4576 34.7815 73.6847 34.7815C73.9236 34.7815 74.132 34.8237 74.3099 34.908C74.4902 34.9899 74.6425 35.1105 74.7666 35.2698C74.893 35.4267 74.9925 35.6163 75.0651 35.8388C75.1377 36.0613 75.1881 36.313 75.2162 36.594V36.9171C75.1904 37.1958 75.1401 37.4464 75.0651 37.6688C74.9925 37.8913 74.893 38.081 74.7666 38.2379C74.6425 38.3948 74.4902 38.5154 74.3099 38.5997C74.1296 38.6816 73.9189 38.7226 73.6777 38.7226C73.4552 38.7226 73.2515 38.6746 73.0665 38.5786C72.8838 38.4826 72.7258 38.3479 72.5923 38.1746C72.4612 38.0014 72.3593 37.7976 72.2867 37.5635C72.2165 37.3269 72.1813 37.0705 72.1813 36.7942ZM72.8347 36.7204V36.7942C72.8347 36.9839 72.8534 37.1619 72.8909 37.3281C72.9307 37.4944 72.9916 37.6407 73.0735 37.7672C73.1555 37.8936 73.2597 37.9932 73.3861 38.0657C73.5126 38.136 73.6636 38.1711 73.8393 38.1711C74.0547 38.1711 74.2315 38.1255 74.3696 38.0341C74.5101 37.9428 74.6226 37.8222 74.7069 37.6723C74.7912 37.5225 74.8567 37.3597 74.9036 37.1841V36.3376C74.8755 36.2088 74.8345 36.0847 74.7806 35.9652C74.7291 35.8435 74.6612 35.7358 74.5769 35.6421C74.4949 35.5461 74.3931 35.47 74.2713 35.4138C74.1519 35.3576 74.0102 35.3295 73.8463 35.3295C73.6683 35.3295 73.5149 35.3669 73.3861 35.4419C73.2597 35.5145 73.1555 35.6152 73.0735 35.744C72.9916 35.8704 72.9307 36.0179 72.8909 36.1865C72.8534 36.3528 72.8347 36.5308 72.8347 36.7204ZM78.1843 33.2571H78.8376V37.9147L78.7814 38.6523H78.1843V33.2571ZM81.4053 36.7204V36.7942C81.4053 37.0705 81.3725 37.3269 81.3069 37.5635C81.2414 37.7976 81.1454 38.0014 81.0189 38.1746C80.8924 38.3479 80.7379 38.4826 80.5552 38.5786C80.3726 38.6746 80.163 38.7226 79.9265 38.7226C79.6853 38.7226 79.4734 38.6816 79.2907 38.5997C79.1104 38.5154 78.9582 38.3948 78.8341 38.2379C78.71 38.081 78.6105 37.8913 78.5355 37.6688C78.4629 37.4464 78.4126 37.1958 78.3845 36.9171V36.594C78.4126 36.313 78.4629 36.0613 78.5355 35.8388C78.6105 35.6163 78.71 35.4267 78.8341 35.2698C78.9582 35.1105 79.1104 34.9899 79.2907 34.908C79.471 34.8237 79.6806 34.7815 79.9195 34.7815C80.1583 34.7815 80.3703 34.8283 80.5552 34.922C80.7402 35.0133 80.8948 35.1445 81.0189 35.3154C81.1454 35.4864 81.2414 35.6913 81.3069 35.9301C81.3725 36.1666 81.4053 36.4301 81.4053 36.7204ZM80.7519 36.7942V36.7204C80.7519 36.5308 80.7344 36.3528 80.6993 36.1865C80.6641 36.0179 80.6079 35.8704 80.5307 35.744C80.4534 35.6152 80.3515 35.5145 80.2251 35.4419C80.0986 35.3669 79.9429 35.3295 79.7579 35.3295C79.594 35.3295 79.4511 35.3576 79.3294 35.4138C79.2099 35.47 79.1081 35.5461 79.0238 35.6421C78.9395 35.7358 78.8704 35.8435 78.8165 35.9652C78.765 36.0847 78.7264 36.2088 78.7006 36.3376V37.1841C78.7381 37.348 78.799 37.5061 78.8833 37.6583C78.9699 37.8082 79.0847 37.9311 79.2275 38.0271C79.3727 38.1231 79.5518 38.1711 79.7649 38.1711C79.9405 38.1711 80.0904 38.136 80.2145 38.0657C80.341 37.9932 80.4428 37.8936 80.5201 37.7672C80.5997 37.6407 80.6583 37.4944 80.6957 37.3281C80.7332 37.1619 80.7519 36.9839 80.7519 36.7942ZM83.2529 38.2589L84.3102 34.8518H85.0056L83.4812 39.2389C83.4461 39.3326 83.3992 39.4333 83.3407 39.541C83.2845 39.6511 83.2119 39.7553 83.1229 39.8536C83.0339 39.952 82.9262 40.0316 82.7998 40.0925C82.6757 40.1557 82.527 40.1873 82.3537 40.1873C82.3022 40.1873 82.2366 40.1803 82.157 40.1663C82.0773 40.1522 82.0211 40.1405 81.9884 40.1311L81.9849 39.6042C82.0036 39.6066 82.0329 39.6089 82.0727 39.6113C82.1148 39.616 82.1441 39.6183 82.1605 39.6183C82.308 39.6183 82.4333 39.5984 82.5363 39.5586C82.6394 39.5211 82.726 39.4567 82.7962 39.3654C82.8688 39.2764 82.9309 39.1535 82.9824 38.9966L83.2529 38.2589ZM82.4766 34.8518L83.4636 37.8023L83.6322 38.4873L83.1651 38.7261L81.7671 34.8518H82.4766Z" fill="white"/>
<path d="M120.279 32.3979C120.789 32.3438 121.299 32.3612 121.775 32.5717C122.374 32.8369 122.787 33.3596 123.02 33.9614C123.41 34.9737 123.395 36.5281 122.954 37.5211C122.679 38.1398 122.26 38.5659 121.63 38.812C122.098 39.0633 122.555 39.2218 123.073 39.3308C123.097 39.38 123.116 39.4198 123.129 39.4733C123.2 39.7636 123.221 40.0237 123.075 40.2843C122.893 40.3702 122.775 40.3135 122.583 40.2779C122.363 40.1171 122.001 40.0491 121.75 39.9041C121.316 39.6537 120.959 39.2849 120.568 38.9766C120.209 38.9201 119.878 38.8576 119.558 38.6764C118.923 38.3173 118.545 37.6934 118.364 37.0011C118.083 35.9294 118.126 34.4703 118.699 33.5087C119.076 32.8757 119.58 32.574 120.279 32.3979Z" fill="#8078B9"/>
<path d="M120.36 33.4646C120.665 33.4247 120.936 33.3751 121.216 33.5389C121.569 33.7449 121.763 34.1272 121.858 34.5109C122.063 35.3412 122.055 36.6735 121.6 37.4094C121.438 37.6721 121.255 37.8043 120.957 37.8783C120.834 37.9363 120.662 37.9265 120.531 37.9035C120.299 37.8631 120.127 37.738 119.991 37.549C119.468 36.8204 119.461 35.5324 119.624 34.6717C119.726 34.1286 119.902 33.7779 120.36 33.4646Z" fill="#202D47"/>
<path d="M94.5749 34.0819C94.8535 34.0495 95.1222 34.0199 95.3947 34.1052C95.6506 34.1854 95.7786 34.3241 95.901 34.5561C96.1346 34.4289 96.37 34.2997 96.6172 34.2006C96.964 34.0616 97.4027 33.9722 97.7565 34.1363C98.001 34.2498 98.1563 34.4671 98.2478 34.7134C98.4291 35.201 98.4609 38.4315 98.2867 38.8211L97.0302 38.8218C97.2181 38.4799 97.1517 35.9546 97.0712 35.4386C97.0449 35.2696 96.9963 35.1599 96.855 35.0578C96.6836 35.0005 96.5311 35.0056 96.359 35.0562C95.7137 35.246 96.3119 37.8636 95.9902 38.4364C95.9847 38.4461 95.9782 38.4553 95.9723 38.465C96.0278 38.5573 96.0421 38.6116 96.0543 38.7187C95.8258 38.9374 95.0487 38.8288 94.7248 38.8222C94.737 38.8022 94.7504 38.783 94.7615 38.7623C94.9091 38.488 94.8536 35.7168 94.7357 35.2924C94.7171 35.225 94.6854 35.1156 94.6217 35.0824C94.338 34.9346 94.0076 35.0956 93.7256 35.1865C93.7394 35.219 93.7494 35.239 93.7582 35.2717C93.8601 35.6515 93.8465 38.5423 93.6935 38.8215L92.4365 38.8229C92.4674 38.7739 92.4939 38.7227 92.5096 38.6667C92.6123 38.2979 92.5699 34.9747 92.5254 34.4181C92.5177 34.3227 92.4899 34.2502 92.4401 34.1685C92.7335 34.1615 93.0367 34.1441 93.3288 34.1767C93.5557 34.202 93.6022 34.2583 93.7366 34.4286C93.951 34.4559 94.3723 34.176 94.5749 34.0819Z" fill="#8078B9"/>
<path d="M88.7835 32.5148C89.2618 32.5319 89.7445 32.5159 90.2232 32.5122C90.4347 33.3926 91.9818 38.4106 91.8483 38.8245L90.5369 38.8199C90.4121 38.328 90.3165 37.8254 90.2087 37.3293L88.7032 37.3264C88.6156 37.8267 88.4999 38.3244 88.3957 38.8215L87.0439 38.8224L88.7835 32.5148Z" fill="#8078B9"/>
<path d="M89.4198 33.9316C89.6614 34.3153 89.9008 35.8118 89.9837 36.3276C89.8853 36.4188 89.7987 36.3966 89.6675 36.4047L88.9189 36.4027L89.4198 33.9316Z" fill="#202D47"/>
<path d="M108.47 34.0825C109.029 34.014 109.541 34.011 110.019 34.3496C110.489 34.6825 110.736 35.2255 110.833 35.7796C110.97 36.5624 110.914 37.5681 110.435 38.2348C110.173 38.6001 109.83 38.8165 109.389 38.8912C109.376 38.8983 109.364 38.9072 109.35 38.9124C109.097 39.0091 108.591 38.9689 108.338 38.8737C107.885 38.703 107.532 38.2803 107.341 37.8471C107.002 37.0792 106.997 35.9608 107.313 35.1855C107.547 34.6115 107.911 34.3189 108.47 34.0825Z" fill="#8078B9"/>
<path d="M108.76 35.0369C108.88 35.0218 109.029 34.9929 109.143 35.0409C109.311 35.1117 109.418 35.2827 109.483 35.4447C109.704 35.9972 109.711 37.0961 109.446 37.6386C109.346 37.8429 109.255 37.8795 109.056 37.9573C109.029 37.9648 109.001 37.9745 108.972 37.9763C108.899 37.9809 108.733 37.933 108.679 37.8821C108.39 37.6088 108.377 37.0204 108.364 36.6455C108.345 36.0944 108.366 35.4577 108.76 35.0369Z" fill="#202D47"/>
<path d="M113.788 34.0827C114.11 34.0367 114.481 34.0046 114.78 34.1554C114.985 34.2585 115.119 34.4112 115.192 34.6271C115.36 35.1215 115.457 38.3985 115.248 38.8226L113.988 38.8224C114.197 38.4738 114.114 36.1529 114.057 35.6529C114.035 35.4587 114.014 35.1984 113.853 35.07C113.526 34.9465 113.264 35.0832 112.962 35.2058C113.042 35.5599 113.083 38.5147 112.938 38.8226L111.643 38.823C111.673 38.774 111.699 38.7228 111.714 38.6669C111.818 38.29 111.776 34.9793 111.731 34.4183C111.723 34.323 111.695 34.2507 111.645 34.1691C112.008 34.1625 112.393 34.1285 112.749 34.2106C112.805 34.2657 112.849 34.311 112.887 34.3808C112.897 34.3995 112.907 34.4185 112.917 34.4373C113.166 34.4459 113.56 34.1895 113.788 34.0827Z" fill="#8078B9"/>
<path d="M100.419 34.0825C100.878 34.0388 101.412 33.9836 101.846 34.168C102.137 34.2918 102.342 34.5071 102.453 34.803C102.631 35.2764 102.67 38.4294 102.498 38.8224C102.238 38.832 101.954 38.8641 101.699 38.8051C101.644 38.6779 101.599 38.6234 101.48 38.5515C101.18 38.576 101.041 38.8352 100.774 38.9246C100.396 39.0505 99.9418 38.848 99.609 38.6871C99.3812 38.0925 99.1441 37.9115 99.2802 37.1852C99.3467 36.8304 99.5174 36.4901 99.8267 36.2894C100.262 36.0069 100.838 36.0492 101.322 36.1484C101.407 35.9457 101.456 35.6018 101.416 35.3816C101.393 35.2552 101.309 35.1427 101.197 35.081C100.733 34.8241 99.8828 35.1363 99.4094 35.2581C99.4288 35.2262 99.4356 35.2177 99.4494 35.1859C99.553 34.949 99.521 34.6323 99.4241 34.4002C99.7514 34.2784 100.084 34.1805 100.419 34.0825Z" fill="#8078B9"/>
<path d="M100.809 36.8339C101.009 36.8226 101.137 36.8111 101.312 36.9109C101.378 37.0051 101.432 37.0953 101.458 37.2086C101.505 37.4189 101.43 37.6616 101.308 37.8366C101.207 37.9813 101.013 38.0091 100.852 38.0446L100.69 38.018C100.617 37.9688 100.544 37.9176 100.498 37.8401C100.387 37.6501 100.394 37.409 100.461 37.2047C100.528 36.9973 100.617 36.9293 100.809 36.8339Z" fill="#202D47"/>
<path d="M103.344 34.195C104.321 34.0672 105.43 34.1672 106.422 34.1702C106.441 34.2006 106.449 34.2101 106.462 34.2408C106.57 34.4875 106.537 34.817 106.434 35.0572C106.433 35.0765 106.435 35.0959 106.432 35.115C106.397 35.3572 104.818 37.6587 104.577 37.8453C105.21 37.854 105.843 37.8591 106.476 37.8607C106.499 37.8969 106.504 37.9007 106.52 37.9478C106.597 38.1747 106.587 38.5581 106.466 38.7641C106.284 38.911 103.654 38.824 103.218 38.8224C103.237 38.7923 103.245 38.7832 103.259 38.7526C103.362 38.5204 103.342 38.1518 103.246 37.9224C103.268 37.9063 103.29 37.8895 103.31 37.8718C103.579 37.6411 105.053 35.4729 105.074 35.133C104.493 35.1686 103.89 35.1351 103.306 35.134C103.311 35.1261 103.317 35.1186 103.321 35.1104C103.436 34.8879 103.412 34.433 103.344 34.195Z" fill="#8078B9"/>
<path d="M38.1216 31.208C38.1246 31.4713 37.984 31.7145 37.7542 31.843C34.5307 33.6455 30.776 35.6282 27.3679 37.4862C25.8309 38.3243 23.9703 38.3249 22.4457 37.4643C18.7773 35.3936 14.3206 32.8644 11.109 31.1394C10.6913 30.9161 10.058 30.8324 10.0715 30.2323C10.0715 29.6463 10.7183 29.5346 11.1225 29.3114C14.7201 27.3717 18.3043 25.4042 21.9289 23.5482C23.2763 22.8505 23.8557 21.9714 23.8153 20.3388C23.7075 15.999 23.7749 11.6453 23.7749 7.19385C25.1897 7.30548 26.1598 8.19855 27.2378 8.78463C30.2156 10.3894 33.153 12.0639 36.1308 13.6826C37.4783 14.4222 38.1655 15.371 38.125 17.0874C38.0191 21.5127 38.0995 29.3084 38.1216 31.208Z" fill="#59B557"/>
<path d="M22.2953 21.1367C22.2984 21.4 22.1578 21.6432 21.928 21.7717C18.7045 23.5741 14.9497 25.5568 11.5417 27.4149C10.0046 28.2529 8.13122 28.2708 6.64524 27.3453C4.81427 26.2048 3.98037 25.5261 1.03773 23.9455C0.620031 23.7222 -0.0132628 23.6385 0.000211521 23.0385C0.000211521 22.4524 0.646979 22.3408 1.05121 22.1175C4.64885 20.1779 8.23302 18.2103 11.8576 16.3544C13.205 15.6567 13.7844 14.7776 13.744 13.1449C13.6362 8.80514 13.7036 4.45141 13.7036 0C15.1184 0.111634 16.0885 1.00471 17.1665 1.59079C20.1443 3.19553 17.3268 1.99256 20.3046 3.61125C21.652 4.35083 22.3392 5.29972 22.2988 7.01609C22.1928 11.4414 22.2733 19.2371 22.2953 21.1367Z" fill="#8078B9"/>
</g>
</svg>
