<svg width="97" height="46" viewBox="0 0 97 46" fill="none" xmlns="http://www.w3.org/2000/svg">
<path d="M9.80414 7.94336C10.2276 7.95983 11.1114 7.99581 11.4321 8.29297C11.4845 8.34157 11.5263 8.41948 11.5609 8.48103L11.522 8.75119C11.1721 8.99167 10.4317 8.78637 10.0174 8.70035L8.57202 8.40261C9.0736 8.38012 9.4012 8.27584 9.85433 8.05821L9.80414 7.94336Z" fill="#E0E0DF"/>
<path d="M15.1157 21.1104C14.3474 21.302 13.598 21.4439 12.8454 21.7085C11.3533 22.2332 9.68201 23.2514 8.10938 23.3155C8.52591 23.0066 9.01854 22.8014 9.48238 22.5759C11.0654 21.806 12.8212 21.2683 14.515 20.8242L14.5602 20.9438L14.1496 21.078L14.1755 21.1371C14.3278 21.129 14.4423 21.1217 14.5802 21.0454L15.1157 21.1104Z" fill="#A9A7A6"/>
<path d="M86.6869 14.6716C87.346 14.5016 88.2619 14.6258 88.9613 14.6261L94.6276 14.6325L94.7442 14.8091C94.447 15.2784 92.9389 15.2535 92.3399 15.6816C92.0819 15.866 92.0247 16.2207 91.9736 16.5174C91.8196 17.409 91.8524 18.3876 91.8441 19.2942L91.8333 23.7741C91.8276 26.2233 91.6682 28.7999 91.8563 31.2335C91.8855 31.6115 91.9319 32.0566 92.1564 32.3702C92.5982 32.9883 93.5832 33.0286 94.2678 33.1292L94.4959 33.2447L94.4477 33.4109C93.1389 33.5238 91.7783 33.4369 90.4615 33.4417C89.1642 33.4464 87.696 33.6086 86.4214 33.3661C87.1542 33.054 88.1878 33.1449 88.7879 32.5958C89.156 32.2591 89.2092 31.6861 89.2257 31.2161L89.2391 22.8456C89.2383 21.7722 89.4463 16.5976 89.0138 15.8786C88.7156 15.3829 87.8838 15.1896 87.3629 15.0966C87.1175 15.0528 86.802 15.0501 86.6243 14.855L86.6869 14.6716Z" fill="white"/>
<path d="M45.2771 14.5803C45.4404 14.5755 45.4487 14.5696 45.5761 14.672L45.7081 18.0073C45.5405 18.2166 45.4638 18.21 45.2052 18.2713C44.853 18.0608 44.7979 17.489 44.6659 17.104C44.5205 16.6803 44.3112 16.2968 43.9773 15.9968C43.1797 15.28 38.0441 15.5225 36.8151 15.6123L36.7417 22.9839L40.0443 23.0075C40.6412 23.0056 41.3363 23.0512 41.9173 22.901L41.9673 22.8877C42.8185 22.6726 43.0228 21.4883 43.447 20.8361C43.5834 20.6267 43.7219 20.6243 43.946 20.5773L44.1313 20.7244L44.1565 24.9578C44.1575 25.3055 44.2378 26.0603 44.1284 26.3641C44.1169 26.3967 44.0287 26.472 44.001 26.5016C43.9007 26.4827 43.6193 26.462 43.5413 26.4147C43.4211 26.3419 43.3092 26.0088 43.2509 25.8762C43.0502 25.4177 42.8775 24.9771 42.5188 24.6184C41.9238 24.0232 40.9837 24.1006 40.2059 24.0848L36.746 24.0977L36.7432 29.3013C36.75 30.1061 36.6413 31.2191 36.9299 31.9756C36.9795 32.1065 37.1778 32.243 37.3022 32.2936C37.7771 32.4865 38.5794 32.4216 39.0913 32.4245C40.5962 32.433 42.3745 32.5771 43.7909 32.0119C44.8861 31.4426 45.38 30.6212 45.9412 29.542C46.1172 29.2037 46.2629 28.8311 46.5669 28.5923C46.8478 28.5828 46.8856 28.5536 47.0921 28.7484C47.1047 29.2775 46.8712 29.8575 46.7245 30.3614C46.4226 31.3973 46.1427 32.4025 45.7272 33.3999C44.4903 33.5121 43.2272 33.4501 41.9853 33.4468L36.1168 33.4483L32.9397 33.4479C32.5267 33.4472 31.9763 33.5253 31.5946 33.3793L31.5791 33.2231C31.8442 32.9725 32.3109 32.9476 32.6516 32.8515C33.0419 32.7415 33.3876 32.5775 33.7456 32.3864C33.8618 32.0225 33.9651 31.6597 34.0118 31.2787C34.0967 30.5857 34.051 29.852 34.0525 29.1535L34.0557 25.4386C34.0561 22.7013 34.2014 19.8791 34.0352 17.1527C34.0093 16.7289 33.9773 16.1261 33.7798 15.7483C33.3779 14.9792 32.0533 15.3198 31.6273 14.7637C31.6618 14.728 31.719 14.6488 31.759 14.6266C31.9302 14.5314 43.8291 14.6198 45.2771 14.5803Z" fill="white"/>
<path fill-rule="evenodd" clip-rule="evenodd" d="M48.9065 14.6224C48.6464 14.6152 48.3743 14.6077 48.1357 14.6709L48.1069 14.885C48.2364 15.0037 48.428 15.0464 48.6054 15.086C48.6494 15.0958 48.6926 15.1054 48.7336 15.1159C48.82 15.138 48.9032 15.1587 48.9835 15.1786C49.9925 15.4293 50.5176 15.5597 50.5843 16.8605L50.6152 24.9703C50.6161 25.6078 50.6297 26.2561 50.6435 26.9083C50.6755 28.4269 50.7079 29.9666 50.5803 31.4387C50.554 31.7393 50.4965 32.119 50.2939 32.353C50.0742 32.6071 49.5688 32.7436 49.1004 32.87C48.6278 32.9976 48.193 33.115 48.1282 33.3327C48.4444 33.5216 49.1992 33.4857 49.7663 33.4587C49.9405 33.4504 50.097 33.443 50.2177 33.4431L55.8631 33.4329L55.994 33.3324L55.953 33.1633C55.7637 33.0482 55.5354 33.0182 55.3128 32.989C55.2389 32.9793 55.1657 32.9697 55.0946 32.9571C54.7111 32.8893 53.9635 32.6534 53.6944 32.368C53.5987 32.2664 53.4861 31.8453 53.4502 31.6997C53.2783 31.006 53.2955 30.1735 53.3116 29.3975C53.3168 29.1449 53.3219 28.8983 53.3203 28.6645C53.3179 28.3116 53.3102 27.9548 53.3024 27.5964C53.2832 26.7086 53.2637 25.8112 53.325 24.9405C53.4805 24.9372 53.6493 24.9293 53.8248 24.9211C54.3953 24.8944 55.0367 24.8644 55.522 24.9795L59.4373 30.6953C59.544 30.8415 59.657 31.0064 59.7766 31.1808C60.3942 32.0816 61.1862 33.2369 62.1694 33.3859C63.1032 33.5279 64.1801 33.4885 65.1757 33.452C65.4045 33.4436 65.6291 33.4354 65.8465 33.4296C66.0148 33.2785 66.0248 33.2043 66.0487 33.0278C66.053 32.9956 66.0579 32.9599 66.0642 32.9197C66.0544 32.9047 66.0427 32.8844 66.0299 32.8622C66.0005 32.811 65.9656 32.7503 65.9365 32.7249C65.8836 32.6787 65.6369 32.6197 65.4242 32.5689C65.3009 32.5394 65.1891 32.5127 65.1331 32.4927C64.4302 32.2422 63.811 31.8259 63.2857 31.2899C61.8843 29.8591 60.7275 28.1029 59.5914 26.3783C59.1197 25.6622 58.6516 24.9515 58.171 24.2718C59.6205 23.8936 61.1333 23.2254 61.9309 21.8565C62.5954 20.7157 62.6687 19.5579 62.3493 18.2894C62.0392 17.0587 61.18 16.0373 60.1205 15.4062C59.4974 15.0349 58.7768 14.7802 58.0616 14.6826C57.4351 14.5972 56.7804 14.606 56.1366 14.6146C55.933 14.6174 55.7305 14.6201 55.5303 14.6198L51.23 14.6225L49.1607 14.6268C49.0784 14.6271 48.9931 14.6248 48.9065 14.6224ZM55.0194 15.6205C54.5627 15.6003 54.0659 15.5783 53.6455 15.6796C53.63 15.6979 53.6063 15.7225 53.5801 15.7496C53.5186 15.8133 53.4431 15.8914 53.426 15.939C53.2691 16.3716 53.2938 17.088 53.3144 17.6846C53.3213 17.8841 53.3277 18.0702 53.3267 18.2278L53.3371 23.7576C54.9223 23.7298 56.2804 23.6685 57.6504 22.7604C58.4972 21.9614 59.0135 21.1865 59.0585 19.9794C59.1034 18.769 58.9358 17.7295 58.0961 16.8161C57.3255 15.9777 56.4412 15.6647 55.3349 15.6329C55.233 15.63 55.1273 15.6253 55.0194 15.6205Z" fill="white"/>
<path fill-rule="evenodd" clip-rule="evenodd" d="M68.5762 14.5915C67.8345 14.5572 67.0115 14.519 66.4218 14.6718L66.3862 14.9068C66.5325 15.0122 66.724 15.0338 66.9085 15.0545C66.9748 15.062 67.0403 15.0693 67.1025 15.0805C67.7814 15.2021 68.7311 15.4368 68.8675 16.2307C68.9579 16.7576 68.9482 17.3272 68.9387 17.8792C68.9357 18.0518 68.9328 18.2227 68.933 18.3901L68.9297 22.1147C68.9281 23.0393 68.9424 23.9726 68.9567 24.9087C68.9877 26.9397 69.0189 28.9844 68.8891 30.9834C68.8585 31.4559 68.7848 31.9522 68.6063 32.3924L68.5895 32.3993C68.25 32.5386 67.9072 32.6793 67.5529 32.7735C67.4473 32.8016 67.3277 32.8218 67.2043 32.8426C66.8695 32.8992 66.507 32.9604 66.3232 33.1957L66.3294 33.3791C66.6102 33.547 67.4296 33.4998 68.0329 33.4651C68.2379 33.4533 68.4179 33.443 68.5433 33.443C69.2319 33.4431 69.9244 33.4516 70.6185 33.4602C72.3693 33.4818 74.1304 33.5036 75.8635 33.3901C76.5315 33.3465 77.2209 33.2408 77.8688 33.0699C78.8884 32.8007 79.8327 32.4361 80.7527 31.9119C82.8278 30.5138 84.2262 28.6141 84.7313 26.0886C85.2274 23.6094 84.8601 20.8651 83.4728 18.7346C82.0453 16.5425 80.0576 15.3264 77.54 14.8237C76.5142 14.619 75.4749 14.621 74.4356 14.623C74.2808 14.6233 74.1259 14.6236 73.9711 14.6232L69.4107 14.6185C69.1593 14.6185 68.8743 14.6053 68.5762 14.5915ZM74.137 15.5952L73.1195 15.5852L72.0165 15.6311L71.9345 25.6047C71.9345 26.193 71.9195 26.7951 71.9045 27.4017C71.8724 28.6935 71.8398 30.006 71.95 31.2505C71.9762 31.5464 72.0003 31.8004 72.2003 32.0318C73.048 32.6077 74.8302 32.3873 75.8016 32.1903C76.9338 31.9607 77.9447 31.4363 78.8286 30.6843C80.5699 29.0138 81.4571 26.9553 81.5287 24.5193C81.6021 22.0082 80.9617 19.5443 79.2478 17.674C77.7918 16.0851 76.1955 15.6519 74.137 15.5952Z" fill="white"/>
<path fill-rule="evenodd" clip-rule="evenodd" d="M6.69877 8.42383L6.69874 8.42383H6.69873C6.03162 8.4626 5.36542 8.50131 4.69891 8.42463C4.71107 8.53405 4.72295 8.64341 4.73481 8.75263C4.93888 10.6319 5.13811 12.4666 6.71733 13.7305C7.75176 14.5584 9.31839 15.1666 10.6393 14.9905C11.1827 14.9181 11.6733 14.6861 12.1617 14.4552C12.5644 14.2649 12.9656 14.0752 13.3935 13.9763C13.3224 13.8488 13.2436 13.7197 13.164 13.5892C12.9987 13.3182 12.8298 13.0413 12.7187 12.761C12.2296 11.5274 12.2965 10.1148 12.6342 8.85516C13.2085 6.71264 14.9927 5.335 16.6888 4.0254C17.1002 3.70767 17.5065 3.39396 17.8891 3.07429L17.9567 3.06641L18.0512 3.2756C18.9539 5.27281 20.1959 8.02095 19.4407 10.2031C19.0174 11.4264 18.5539 12.1472 17.4549 12.8682C17.498 12.747 17.5414 12.6259 17.5848 12.5047C18.2078 10.7661 18.8319 9.02476 18.53 7.1317C18.3911 6.26077 18.0884 5.44945 17.7836 4.63255C17.7413 4.51905 17.6989 4.40544 17.6569 4.29155C15.8134 5.63298 13.705 7.34735 13.3235 9.77901C13.115 11.1073 13.367 13.0517 14.1655 14.1464L14.227 14.2297C14.1423 14.291 13.9683 14.2986 13.7783 14.3068C13.5833 14.3152 13.3714 14.3244 13.2215 14.3932C12.9361 14.5242 12.6628 14.6838 12.3894 14.8433L12.3894 14.8433C12.0361 15.0495 11.6828 15.2557 11.3032 15.4006C10.8924 15.5574 10.4587 15.6339 10.0261 15.7102C9.59901 15.7855 9.17296 15.8607 8.77108 16.0127C6.21906 16.9783 3.64138 19.5912 3.17642 22.3829C3.04871 23.1498 2.96657 23.9424 3.05346 24.7195C3.32997 27.1917 4.94315 29.801 6.33141 31.7794C7.6139 33.6068 9.10167 35.3004 10.66 36.8865C11.7376 37.9832 12.8793 39.0885 14.1304 39.9791C14.1852 40.0181 14.2438 40.0613 14.3053 40.1067C14.6057 40.3286 14.974 40.6006 15.2997 40.6661C15.7414 40.7549 16.1742 40.5939 16.5922 40.4384C16.7061 40.396 16.819 40.354 16.9307 40.3176L19.199 39.5851C19.479 39.4968 19.7657 39.4163 20.0535 39.3355L20.0535 39.3355C20.613 39.1785 21.1765 39.0203 21.7033 38.8009C22.2525 38.5723 22.7503 38.2683 23.2282 37.9136C24.2544 37.1513 25.2363 35.9152 25.7814 34.7513C23.5147 34.9904 21.3612 35.417 19.1629 36.0289C18.9881 36.0776 18.7554 36.1626 18.4997 36.2561C17.8636 36.4885 17.0849 36.7731 16.6993 36.68C16.7643 36.4329 17.1219 36.2234 17.3631 36.0822L17.4189 36.0494C19.3096 34.9314 21.5473 34.4039 23.6931 34.1167C23.8233 34.0992 24.0254 34.0837 24.2613 34.0657C24.9915 34.0097 26.0457 33.9288 26.2916 33.6879L26.2243 33.5375C25.5543 33.3899 24.8587 33.4041 24.1746 33.4182L24.0037 33.4216C21.2901 33.4718 18.5447 34.0881 15.9731 34.9358C15.4887 35.0955 15.0157 35.2776 14.5434 35.4595L14.5433 35.4595L14.5433 35.4595C13.8233 35.7368 13.105 36.0134 12.3502 36.209C13.1618 35.2424 14.1629 34.6376 15.2603 34.0613C17.476 32.8981 19.8475 32.1095 22.3423 31.9158C23.8301 31.8003 25.3216 31.8795 26.8017 32.0471L27.2805 30.1253C27.1832 30.1248 27.0853 30.1237 26.9871 30.1226H26.9871C26.4999 30.1173 26.0046 30.1119 25.5252 30.1756C24.729 30.2813 23.948 30.4675 23.1669 30.6537C22.6121 30.7859 22.0573 30.9182 21.497 31.0217C20.8599 31.1393 20.226 31.2408 19.5938 31.342C18.363 31.5391 17.1385 31.7352 15.9081 32.0475L13.2516 32.842C13.1534 32.8759 13.0149 32.9336 12.8597 32.9984L12.8597 32.9984C12.4718 33.1602 11.979 33.3658 11.747 33.3519C11.717 33.3501 11.6682 33.3275 11.6266 33.3083L11.6265 33.3083C11.6084 33.2999 11.5916 33.2921 11.5784 33.287C11.6845 33.0331 11.9164 32.8939 12.1472 32.7555C12.1894 32.7301 12.2317 32.7048 12.2731 32.6788C13.1665 32.1168 14.0999 31.6493 15.0737 31.2504C17.1019 30.4195 19.195 29.685 21.3587 29.326C23.1027 29.0366 24.8526 29.0177 26.6132 29.0226C26.6934 29.0228 26.7734 29.0285 26.8515 29.0341L26.8516 29.0341C27.1453 29.0551 27.4129 29.0742 27.5694 28.7935L27.5331 28.4249C27.0948 28.2161 26.3749 28.178 25.8134 28.1483L25.8132 28.1483C25.7121 28.143 25.6161 28.1379 25.5278 28.1321C22.0202 27.9034 18.3328 28.2097 15.0138 29.4439C13.2641 30.0945 11.5482 31.1116 10.7336 32.9037C10.7092 32.9571 10.6873 33.0071 10.6666 33.0544L10.6666 33.0545C10.5395 33.3444 10.4586 33.5288 10.1599 33.7455C10.121 33.7491 10.0808 33.7543 10.04 33.7596C9.85252 33.784 9.65238 33.8101 9.49849 33.6872C9.42193 33.626 9.35383 33.5387 9.2908 33.4578C9.27856 33.4421 9.26652 33.4267 9.25464 33.4117C9.23226 32.8427 9.76421 32.2625 10.2676 31.7133C10.5671 31.3867 10.8565 31.071 11.0131 30.7753C10.856 30.8206 10.6978 30.8676 10.5387 30.9149C9.79423 31.136 9.03011 31.3631 8.27126 31.4529L8.13512 31.3154C8.26933 30.7006 9.23448 30.0961 9.87036 29.6979C9.9649 29.6387 10.0522 29.584 10.1283 29.5346C13.1286 27.5869 17.1261 26.3809 20.6843 26.3776C22.9764 26.3755 25.4683 26.8259 27.7072 27.3179C27.7024 27.1707 27.7044 26.9929 27.7065 26.8014V26.8014C27.7124 26.2573 27.7194 25.6029 27.5773 25.2289C23.8391 24.1881 19.4984 24.5129 15.7588 25.409L12.9036 26.2259L9.50072 27.4351C9.47502 27.4431 9.44834 27.4518 9.42094 27.4608C9.24944 27.5172 9.04962 27.5829 8.88692 27.5097C8.88407 27.4883 8.88045 27.4689 8.87709 27.4509C8.86422 27.3819 8.85507 27.3329 8.90635 27.2645C9.25714 26.7967 9.89479 26.3455 10.3809 26.0016L10.4487 25.9536C11.9065 24.9206 13.5624 23.9793 15.2218 23.3185C16.7064 22.7273 18.295 22.1494 19.8391 21.7409L21.6719 21.2754C21.7067 21.2652 21.752 21.2537 21.8021 21.241L21.8022 21.241C21.955 21.2022 22.1528 21.152 22.2381 21.0905C22.2608 21.0741 22.2886 21.0311 22.3123 20.9946C22.3227 20.9785 22.3322 20.9637 22.3402 20.953C21.7543 20.4857 17.5772 20.8074 16.6284 20.9256C16.4692 20.9454 16.306 20.9732 16.1414 21.0012L16.1414 21.0012C15.7978 21.0597 15.448 21.1192 15.1156 21.1097L14.5802 21.0447C14.4422 21.121 14.3277 21.1282 14.1754 21.1364L14.1496 21.0773L14.5601 20.943L14.5149 20.8235C14.7608 20.6925 15.0573 20.6265 15.3423 20.563L15.3424 20.563C15.4471 20.5397 15.5503 20.5167 15.6488 20.491C16.9547 20.1502 18.2896 20.0504 19.627 19.9504L19.6271 19.9504C20.2009 19.9075 20.7753 19.8645 21.348 19.8025C18.9435 19.1515 16.5488 19.3628 14.1218 19.7463C12.4831 20.0051 10.8499 20.3406 9.27888 20.8935C8.79583 21.0636 8.28698 21.2571 7.83339 21.4982C7.70175 21.5682 7.58063 21.6403 7.463 21.7104L7.46298 21.7104C7.14275 21.9011 6.84846 22.0764 6.43848 22.1502C7.57335 21.1221 8.91203 20.2294 10.3173 19.6401C10.5978 19.5224 10.8733 19.4229 11.144 19.325C11.8165 19.082 12.4594 18.8496 13.0761 18.3774C13.9766 17.6877 14.693 16.822 15.4106 15.9548L15.4106 15.9548C16.268 14.9188 17.1271 13.8806 18.3038 13.1384C19.5319 12.3637 21.0313 12.0506 22.4488 12.3966C24.6021 12.922 26.543 14.9824 27.6734 16.8407C28.4861 18.1771 29.1294 19.632 29.4078 21.1862C29.8878 23.8662 29.26 26.8316 28.6545 29.4362C28.4316 30.3958 28.1231 31.3271 27.8142 32.2595L27.8142 32.2596L27.7342 32.5013C26.9524 34.865 25.9904 37.2562 24.3525 39.1424L24.3374 39.1597C23.9412 39.6156 23.5011 40.1221 22.9906 40.439C22.4124 40.7977 21.7505 40.97 21.0987 41.1396C21.0024 41.1647 20.9064 41.1897 20.8109 41.2152L18.4535 41.921C18.0543 42.0561 17.6567 42.2203 17.2579 42.385C16.6107 42.6523 15.9602 42.921 15.2945 43.0687C14.8455 43.1685 14.4364 43.1714 13.9895 43.0566C12.6031 42.7001 11.2482 41.4286 10.2016 40.4465L10.1374 40.3862C7.56752 37.9763 5.16945 35.3338 3.38131 32.2533C1.59702 29.1797 1.02788 26.5832 1.91901 23.1015C2.56644 20.5719 4.15344 18.2421 6.18923 16.6675C6.69011 16.2801 7.24152 15.9568 7.78852 15.6362C7.91053 15.5647 8.03233 15.4933 8.15329 15.4213C7.32497 15.1457 6.52784 14.8474 5.86678 14.2443C4.2847 12.8008 4.22617 10.9607 4.16456 9.02374L4.16456 9.02371C4.15532 8.73329 4.14601 8.44069 4.13149 8.14692L6.91808 8.07576L6.92639 8.05977L9.80428 7.94371L9.85447 8.05856C9.40135 8.27619 9.07375 8.38047 8.57217 8.40296L7.02014 8.40563C6.91299 8.41138 6.80587 8.41761 6.69877 8.42383ZM21.4139 13.1969C22.2122 13.2513 22.8183 13.3558 23.5063 13.8001C25.9325 15.3668 26.9668 18.4951 27.5611 21.1919C27.3345 20.8831 27.1502 20.5396 26.9678 20.1997L26.9677 20.1995C26.9283 20.1262 26.8891 20.0531 26.8495 19.9805C26.5809 19.5655 26.3326 19.1391 26.0846 18.7133L26.0846 18.7132C25.5681 17.8263 25.0532 16.9422 24.3601 16.1699C23.1512 14.8229 21.7468 13.6696 19.8867 13.5882L19.8355 13.4792C20.3829 13.2787 20.8395 13.2331 21.4139 13.1969ZM21.9352 15.4493C21.0981 14.8987 20.3588 14.8154 19.3872 14.916C17.4403 15.5083 15.9147 16.7979 14.5777 18.3173C16.3234 18.3148 17.9142 18.5579 19.6169 18.9334C21.7095 19.3949 23.3819 19.8197 25.1468 21.1202C24.9416 21.3037 24.07 21.4317 23.4947 21.5163C23.3241 21.5413 23.1796 21.5626 23.0862 21.5803C21.3899 21.9021 19.7541 22.3551 18.1018 22.8126C17.7169 22.9192 17.3311 23.026 16.9435 23.1315L15.4106 23.7685C16.5363 23.7814 17.6599 23.7364 18.7839 23.6914C20.3449 23.6288 21.9068 23.5663 23.4765 23.6588C23.6684 23.6701 24.2665 23.7346 24.9408 23.8072C26.0371 23.9254 27.335 24.0653 27.4158 24.0337C26.738 20.8493 24.6452 17.2315 21.9352 15.4493Z" fill="#BAB8B8"/>
</svg>
