<svg width="16" height="16" viewBox="0 0 16 16" fill="none" xmlns="http://www.w3.org/2000/svg">
<path d="M7.99984 8.49967C5.8865 8.49967 4.1665 6.77967 4.1665 4.66634C4.1665 2.55301 5.8865 0.833008 7.99984 0.833008C10.1132 0.833008 11.8332 2.55301 11.8332 4.66634C11.8332 6.77967 10.1132 8.49967 7.99984 8.49967ZM7.99984 1.83301C6.43984 1.83301 5.1665 3.10634 5.1665 4.66634C5.1665 6.22634 6.43984 7.49967 7.99984 7.49967C9.55984 7.49967 10.8332 6.22634 10.8332 4.66634C10.8332 3.10634 9.55984 1.83301 7.99984 1.83301Z" fill="white"/>
<path d="M2.27344 15.1667C2.0001 15.1667 1.77344 14.94 1.77344 14.6667C1.77344 11.82 4.56677 9.5 8.0001 9.5C8.67344 9.5 9.33343 9.58668 9.97343 9.76668C10.2401 9.84002 10.3934 10.1133 10.3201 10.38C10.2468 10.6467 9.97343 10.8 9.70677 10.7267C9.1601 10.5734 8.58677 10.5 8.0001 10.5C5.1201 10.5 2.77344 12.3667 2.77344 14.6667C2.77344 14.94 2.54677 15.1667 2.27344 15.1667Z" fill="white"/>
<path d="M12.0002 15.1663C11.2135 15.1663 10.4668 14.873 9.88682 14.3464C9.65349 14.1464 9.44682 13.8997 9.28682 13.6263C8.99349 13.1463 8.8335 12.5797 8.8335 11.9997C8.8335 11.1663 9.15349 10.3863 9.72683 9.79301C10.3268 9.17301 11.1335 8.83301 12.0002 8.83301C12.9068 8.83301 13.7668 9.21969 14.3535 9.88635C14.8735 10.4664 15.1668 11.213 15.1668 11.9997C15.1668 12.253 15.1335 12.5063 15.0668 12.7463C15.0002 13.0463 14.8735 13.3597 14.7002 13.633C14.1468 14.5797 13.1068 15.1663 12.0002 15.1663ZM12.0002 9.83301C11.4068 9.83301 10.8602 10.0663 10.4468 10.4863C10.0535 10.893 9.8335 11.4263 9.8335 11.9997C9.8335 12.393 9.94016 12.7797 10.1468 13.113C10.2535 13.2997 10.3935 13.4663 10.5535 13.6063C10.9535 13.973 11.4668 14.173 12.0002 14.173C12.7535 14.173 13.4668 13.773 13.8535 13.1263C13.9668 12.9397 14.0535 12.7264 14.1002 12.5197C14.1468 12.3464 14.1668 12.1797 14.1668 12.0063C14.1668 11.473 13.9668 10.9597 13.6068 10.5597C13.2068 10.093 12.6202 9.83301 12.0002 9.83301Z" fill="white"/>
<path d="M12.9997 12.4863H11.0063C10.733 12.4863 10.5063 12.2597 10.5063 11.9863C10.5063 11.713 10.733 11.4863 11.0063 11.4863H12.9997C13.273 11.4863 13.4997 11.713 13.4997 11.9863C13.4997 12.2597 13.273 12.4863 12.9997 12.4863Z" fill="white"/>
<path d="M12 13.507C11.7267 13.507 11.5 13.2803 11.5 13.007V11.0137C11.5 10.7403 11.7267 10.5137 12 10.5137C12.2733 10.5137 12.5 10.7403 12.5 11.0137V13.007C12.5 13.287 12.2733 13.507 12 13.507Z" fill="white"/>
</svg>
