<svg width="16" height="16" viewBox="0 0 16 16" fill="none" xmlns="http://www.w3.org/2000/svg">
<path d="M7.19345 10.1129C7.06012 10.1129 6.93345 10.0595 6.84012 9.9662L5.22679 8.35286C5.03345 8.15953 5.03345 7.83953 5.22679 7.6462C5.42012 7.45286 5.74012 7.45286 5.93345 7.6462L7.19345 8.9062L10.0601 6.03953C10.2535 5.8462 10.5735 5.8462 10.7668 6.03953C10.9601 6.23286 10.9601 6.55286 10.7668 6.7462L7.54679 9.9662C7.45345 10.0595 7.32679 10.1129 7.19345 10.1129Z" fill="#019049"/>
<path d="M8 15.1663C7.58 15.1663 7.16 15.0263 6.83334 14.7463L5.78 13.8397C5.67334 13.7463 5.40667 13.653 5.26667 13.653H4.12C3.13334 13.653 2.33334 12.853 2.33334 11.8663V10.7263C2.33334 10.5863 2.24 10.3263 2.14667 10.2197L1.24667 9.15967C0.700003 8.51301 0.700003 7.49301 1.24667 6.84634L2.14667 5.78634C2.24 5.67967 2.33334 5.41967 2.33334 5.27967V4.13301C2.33334 3.14634 3.13334 2.34634 4.12 2.34634H5.27334C5.41334 2.34634 5.68 2.24634 5.78667 2.15967L6.84 1.25301C7.49334 0.693008 8.51334 0.693008 9.16667 1.25301L10.22 2.15967C10.3267 2.25301 10.5933 2.34634 10.7333 2.34634H11.8667C12.8533 2.34634 13.6533 3.14634 13.6533 4.13301V5.26634C13.6533 5.40634 13.7533 5.67301 13.8467 5.77967L14.7533 6.83301C15.3133 7.48634 15.3133 8.50634 14.7533 9.15967L13.8467 10.213C13.7533 10.3197 13.6533 10.5863 13.6533 10.7263V11.8597C13.6533 12.8463 12.8533 13.6463 11.8667 13.6463H10.7333C10.5933 13.6463 10.3267 13.7463 10.22 13.833L9.16667 14.7397C8.84 15.0263 8.42 15.1663 8 15.1663ZM4.12 3.34634C3.68667 3.34634 3.33334 3.69967 3.33334 4.13301V5.27301C3.33334 5.65301 3.15334 6.13967 2.90667 6.42634L2.00667 7.48634C1.77334 7.75967 1.77334 8.23301 2.00667 8.50634L2.90667 9.56634C3.15334 9.85967 3.33334 10.3397 3.33334 10.7197V11.8597C3.33334 12.293 3.68667 12.6463 4.12 12.6463H5.27334C5.66 12.6463 6.14667 12.8263 6.44 13.0797L7.49334 13.9863C7.76667 14.2197 8.24667 14.2197 8.52 13.9863L9.57334 13.0797C9.86667 12.833 10.3533 12.6463 10.74 12.6463H11.8733C12.3067 12.6463 12.66 12.293 12.66 11.8597V10.7263C12.66 10.3397 12.84 9.85301 13.0933 9.55967L14 8.50634C14.2333 8.23301 14.2333 7.75301 14 7.47967L13.0933 6.42634C12.84 6.13301 12.66 5.64634 12.66 5.25967V4.13301C12.66 3.69967 12.3067 3.34634 11.8733 3.34634H10.74C10.3533 3.34634 9.86667 3.16634 9.57334 2.91301L8.52 2.00634C8.24667 1.77301 7.76667 1.77301 7.49334 2.00634L6.44 2.91967C6.14667 3.16634 5.65334 3.34634 5.27334 3.34634H4.12Z" fill="#019049"/>
</svg>
