<svg width="24" height="29" viewBox="0 0 24 29" fill="none" xmlns="http://www.w3.org/2000/svg">
<path opacity="0.4" d="M18.9116 19.7484L18.913 19.7506C19.2233 20.2598 19.2775 20.8588 19.0721 21.4041C18.8637 21.957 18.4355 22.3741 17.8839 22.5554L17.8811 22.5563C15.9942 23.1885 14.0079 23.5004 12.0199 23.5004C10.032 23.5004 8.04657 23.1885 6.16098 22.547L6.15998 22.5467C5.54292 22.3382 5.10185 21.9176 4.92065 21.4118L4.91923 21.4079C4.7272 20.8855 4.78757 20.3029 5.11856 19.7479C5.11879 19.7475 5.11902 19.7471 5.11925 19.7467L6.12778 18.0791L6.13183 18.0723C6.2675 17.8397 6.38148 17.5285 6.46118 17.2353C6.54078 16.9425 6.59994 16.6173 6.59994 16.3504V13.8204C6.59994 10.836 9.02664 8.40039 12.0199 8.40039C15.0133 8.40039 17.4399 10.836 17.4399 13.8204V16.3504C17.4399 16.6173 17.4991 16.9425 17.5786 17.236C17.6583 17.5307 17.7717 17.8421 17.9051 18.0772L17.9117 18.0884L18.9116 19.7484Z" fill="white" stroke="white"/>
<path d="M14.25 8.32C13.56 8.05 12.81 7.9 12.02 7.9C11.24 7.9 10.49 8.04 9.80005 8.32C10.23 7.51 11.08 7 12.02 7C12.97 7 13.81 7.51 14.25 8.32Z" fill="white"/>
<mask id="mask0_7_720" style="mask-type:luminance" maskUnits="userSpaceOnUse" x="9" y="7" width="6" height="2">
<path d="M14.25 8.32C13.56 8.05 12.81 7.9 12.02 7.9C11.24 7.9 10.49 8.04 9.80005 8.32C10.23 7.51 11.08 7 12.02 7C12.97 7 13.81 7.51 14.25 8.32Z" fill="white"/>
</mask>
<g mask="url(#mask0_7_720)">
<path d="M14.25 8.32L13.8856 9.25124L16.436 10.2492L15.1288 7.84267L14.25 8.32ZM9.80005 8.32L8.91679 7.85111L7.6268 10.2811L10.1761 9.24661L9.80005 8.32ZM14.6144 7.38876C13.8115 7.07456 12.9381 6.9 12.02 6.9V8.9C12.682 8.9 13.3086 9.02544 13.8856 9.25124L14.6144 7.38876ZM12.02 6.9C11.12 6.9 10.2414 7.06171 9.42403 7.39339L10.1761 9.24661C10.7387 9.01829 11.3601 8.9 12.02 8.9V6.9ZM10.6833 8.78889C10.937 8.31096 11.4441 8 12.02 8V6C10.716 6 9.52308 6.70904 8.91679 7.85111L10.6833 8.78889ZM12.02 8C12.602 8 13.1056 8.30814 13.3713 8.79733L15.1288 7.84267C14.5145 6.71186 13.3381 6 12.02 6V8Z" fill="white"/>
</g>
<path d="M10.0955 25.6143C10.1459 25.6193 10.1966 25.6239 10.2473 25.6282C10.8288 25.6792 11.4233 25.71 12.0199 25.71C12.6073 25.71 13.1923 25.6791 13.7644 25.628L13.7673 25.6277C13.8103 25.6237 13.8579 25.6197 13.9085 25.6156C13.4473 26.1572 12.762 26.5 11.9999 26.5C11.341 26.5 10.6923 26.2319 10.2397 25.7628L10.231 25.7538L10.2219 25.7452C10.1781 25.7042 10.1359 25.6604 10.0955 25.6143Z" fill="white" stroke="white"/>
<rect x="18" y="2" width="4" height="4" rx="2" fill="#D92D20"/>
</svg>
