<svg width="117" height="117" viewBox="0 0 117 117" fill="none" xmlns="http://www.w3.org/2000/svg">
<path d="M58.2765 90.9905C76.221 90.9905 90.7678 76.4436 90.7678 58.4991C90.7678 40.5547 76.221 26.0078 58.2765 26.0078C40.332 26.0078 25.7852 40.5547 25.7852 58.4991C25.7852 76.4436 40.332 90.9905 58.2765 90.9905Z" fill="#FDCB50"/>
<path d="M40.6942 56.1137C40.6942 42.5838 48.9647 30.9873 60.7254 26.0994C59.917 26.0391 59.1004 26.0078 58.2765 26.0078C40.3321 26.0078 25.7852 40.5548 25.7852 58.4991C25.7852 76.4435 40.3319 90.9905 58.2765 90.9905C62.6912 90.9905 66.8993 90.1084 70.7366 88.5135C53.936 87.2616 40.6942 73.2342 40.6942 56.1137Z" fill="#FD8F01"/>
<path d="M114.208 56.2165H92.9736C92.6693 51.5445 91.4388 47.1219 89.4634 43.1297L107.856 32.5108C108.948 31.8804 109.322 30.4842 108.691 29.3923C108.061 28.3004 106.665 27.9262 105.573 28.5568L87.175 39.1789C84.638 35.3966 81.3794 32.138 77.597 29.601L88.219 11.203C88.8495 10.111 88.4754 8.71481 87.3834 8.0845C86.2911 7.45396 84.8953 7.82813 84.265 8.92005L73.6462 27.3126C69.6541 25.3372 65.2312 24.1064 60.5594 23.8021V2.56807C60.5594 1.30722 59.5372 0.285156 58.2765 0.285156C57.0157 0.285156 55.9936 1.30722 55.9936 2.56807V23.8021C51.3216 24.1064 46.8989 25.3369 42.9068 27.3126L32.2876 8.92005C31.6571 7.82836 30.2611 7.45396 29.1692 8.0845C28.0772 8.71481 27.7031 10.111 28.3336 11.203L38.9555 29.601C35.1734 32.138 31.9146 35.3966 29.3776 39.1789L10.9798 28.5568C9.88744 27.9262 8.49213 28.3004 7.86136 29.3923C7.23082 30.4842 7.60499 31.8804 8.6969 32.5108L27.0892 43.1297C25.1138 47.1219 23.8833 51.5445 23.579 56.2165H2.34492C1.08407 56.2165 0.0620117 57.2386 0.0620117 58.4994C0.0620117 59.7603 1.08407 60.7824 2.34492 60.7824H23.579C23.8833 65.4543 25.1138 69.877 27.0892 73.8692L8.6969 84.4881C7.60499 85.1184 7.23082 86.5149 7.86136 87.6066C8.28438 88.3392 9.05144 88.7485 9.84064 88.7485C10.2278 88.7485 10.6205 88.6499 10.9798 88.4424L29.3776 77.8202C31.9146 81.6025 35.1732 84.8612 38.9555 87.3982L28.3336 105.796C27.7031 106.888 28.0772 108.284 29.1692 108.915C29.5287 109.122 29.9211 109.221 30.3083 109.221C31.0973 109.221 31.8648 108.811 32.2876 108.079L42.9064 89.6865C46.8985 91.662 51.3214 92.8927 55.9932 93.1968V114.431C55.9932 115.692 57.0152 116.714 58.2761 116.714C59.5367 116.714 60.559 115.692 60.559 114.431V93.1968C65.231 92.8924 69.6537 91.662 73.6458 89.6865L84.2645 108.079C84.6876 108.811 85.4546 109.221 86.2438 109.221C86.631 109.221 87.0237 109.122 87.383 108.915C88.4749 108.284 88.8491 106.888 88.2185 105.796L77.5966 87.3982C81.3787 84.8612 84.6376 81.6025 87.1746 77.8202L105.572 88.4424C105.932 88.6499 106.324 88.7485 106.711 88.7485C107.5 88.7485 108.268 88.3389 108.691 87.6066C109.321 86.5147 108.947 85.1184 107.855 84.4881L89.4629 73.8692C91.4384 69.877 92.6688 65.4543 92.9732 60.7824H114.208C115.468 60.7824 116.491 59.7603 116.491 58.4994C116.491 57.2386 115.468 56.2165 114.208 56.2165ZM58.2763 88.7079C41.6195 88.7079 28.0681 75.1565 28.0681 58.4994C28.0681 41.8424 41.6195 28.291 58.2763 28.291C74.9331 28.291 88.4845 41.8426 88.4845 58.4994C88.4845 75.1563 74.9331 88.7079 58.2763 88.7079Z" fill="white"/>
<path d="M71.49 110.101C70.4818 110.101 69.5595 109.429 69.2863 108.409L68.0848 103.925C67.7583 102.707 68.4811 101.456 69.699 101.129C70.9163 100.803 72.1684 101.526 72.4949 102.743L73.6964 107.227C74.0228 108.445 73.3001 109.696 72.0824 110.023C71.8842 110.076 71.6854 110.101 71.49 110.101Z" fill="#FDCB50"/>
<path d="M46.2614 15.9449C45.2533 15.9449 44.331 15.2724 44.0577 14.2524L42.8562 9.76898C42.5298 8.55127 43.2526 7.29932 44.4703 6.97309C45.6891 6.64618 46.9399 7.36941 47.2664 8.58734L48.4679 13.0708C48.7943 14.2885 48.0716 15.5404 46.8536 15.8669C46.6559 15.9196 46.4568 15.9449 46.2614 15.9449Z" fill="#FDCB50"/>
<path d="M94.38 96.8869C93.7955 96.8869 93.2116 96.664 92.7657 96.2182L89.4836 92.936C88.5921 92.0446 88.5921 90.599 89.4836 89.7075C90.3753 88.8161 91.8204 88.8161 92.7123 89.7075L95.9944 92.9897C96.8859 93.8812 96.8859 95.3267 95.9944 96.2184C95.5483 96.6638 94.9642 96.8869 94.38 96.8869Z" fill="#FDCB50"/>
<path d="M25.4551 27.9595C24.8707 27.9595 24.2867 27.7367 23.8409 27.2908L20.5587 24.0087C19.6673 23.1172 19.6673 21.6716 20.5587 20.7799C21.4505 19.8885 22.8955 19.8885 23.7875 20.7799L27.0696 24.0621C27.9611 24.9536 27.9611 26.3991 27.0696 27.2906C26.6238 27.7367 26.0396 27.9595 25.4551 27.9595Z" fill="#FDCB50"/>
<path d="M107.595 73.9966C107.4 73.9966 107.201 73.9713 107.003 73.9183L102.52 72.717C101.302 72.3908 100.579 71.1388 100.906 69.9211C101.232 68.7037 102.483 67.9804 103.701 68.3069L108.185 69.5082C109.403 69.8344 110.126 71.0863 109.799 72.304C109.526 73.3238 108.603 73.9966 107.595 73.9966Z" fill="#FDCB50"/>
<path d="M13.4431 48.7683C13.2477 48.7683 13.0488 48.7429 12.8509 48.69L8.36747 47.4887C7.14954 47.1625 6.42676 45.9105 6.75322 44.6928C7.07968 43.4751 8.33071 42.7519 9.5491 43.0786L14.0325 44.2798C15.2505 44.6061 15.9732 45.858 15.6468 47.0757C15.3735 48.0957 14.451 48.7683 13.4431 48.7683Z" fill="#FDCB50"/>
<path d="M103.109 48.7683C102.101 48.7683 101.179 48.0957 100.905 47.0757C100.579 45.8578 101.302 44.6061 102.52 44.2798L107.003 43.0786C108.22 42.7519 109.473 43.4751 109.799 44.6928C110.125 45.9107 109.403 47.1625 108.185 47.4887L103.701 48.69C103.503 48.7432 103.305 48.7683 103.109 48.7683Z" fill="#FDCB50"/>
<path d="M8.95691 73.9967C7.94877 73.9967 7.02648 73.3241 6.75321 72.3041C6.42675 71.0862 7.14952 69.8345 8.36746 69.5083L12.8509 68.307C14.0681 67.9803 15.3203 68.7035 15.6468 69.9212C15.9732 71.1392 15.2504 72.3909 14.0325 72.7171L9.54909 73.9184C9.35117 73.9714 9.15232 73.9967 8.95691 73.9967Z" fill="#FDCB50"/>
<path d="M91.0973 27.9592C90.5129 27.9592 89.9289 27.7364 89.4831 27.2906C88.5916 26.3991 88.5916 24.9536 89.4831 24.0621L92.7652 20.7799C93.6569 19.8885 95.102 19.8885 95.9939 20.7799C96.8854 21.6714 96.8854 23.117 95.9939 24.0087L92.7118 27.2908C92.2657 27.7364 91.6815 27.9592 91.0973 27.9592Z" fill="#FDCB50"/>
<path d="M22.173 96.8871C21.5886 96.8871 21.0046 96.6643 20.5588 96.2184C19.6673 95.3269 19.6673 93.8814 20.5588 92.9897L23.8409 89.7075C24.7326 88.8161 26.1777 88.8161 27.0694 89.7075C27.9609 90.599 27.9609 92.0446 27.0694 92.936L23.7873 96.2182C23.3416 96.664 22.7574 96.8871 22.173 96.8871Z" fill="#FDCB50"/>
<path d="M70.2907 15.945C70.0953 15.945 69.8962 15.9197 69.6985 15.8667C68.4806 15.5402 67.7578 14.2885 68.0843 13.0706L69.2858 8.58717C69.6122 7.36946 70.8639 6.64647 72.0819 6.97292C73.2996 7.29938 74.0224 8.5511 73.6959 9.76881L72.4944 14.2522C72.2211 15.2725 71.2986 15.945 70.2907 15.945Z" fill="#FDCB50"/>
<path d="M45.0627 110.101C44.8673 110.101 44.6682 110.076 44.4703 110.023C43.2526 109.696 42.5298 108.444 42.8562 107.227L44.0577 102.743C44.3842 101.525 45.6366 100.803 46.8536 101.129C48.0716 101.456 48.7943 102.707 48.4679 103.925L47.2664 108.409C46.9931 109.428 46.0706 110.101 45.0627 110.101Z" fill="#FDCB50"/>
</svg>
