<svg width="22" height="22" viewBox="0 0 22 22" fill="none" xmlns="http://www.w3.org/2000/svg">
<path opacity="0.4" d="M19.4788 13.0741L19.4788 13.074L19.4741 13.0788C18.8428 13.7186 17.9088 14.1 16.75 14.1H16.25V14.6V16.41C16.25 16.6983 15.9309 16.8557 15.7107 16.7063L15.7108 16.7062L15.7054 16.7027L15.025 16.2537C15.0702 15.999 15.09 15.7361 15.09 15.47V11.4C15.09 10.2664 14.7099 9.28286 14.0086 8.58146C13.3072 7.88006 12.3236 7.5 11.19 7.5H4.5V5.25C4.5 4.08862 4.88494 3.15966 5.5223 2.5223C6.15966 1.88494 7.08862 1.5 8.25 1.5H16.75C17.9114 1.5 18.8403 1.88494 19.4777 2.5223C20.1151 3.15966 20.5 4.08862 20.5 5.25V10.35C20.5 11.5088 20.1186 12.4428 19.4788 13.0741Z" fill="#374151" stroke="#374151"/>
<path d="M13.9798 16.3406L13.9773 16.3492L13.9751 16.3579C13.6665 17.5841 12.664 18.37 11.19 18.37H8.47H8.31882L8.19297 18.4538L5.17296 20.4638L5.17293 20.4637L5.16634 20.4683C5.06086 20.5409 4.89999 20.4728 4.89999 20.32V18.87V18.37H4.39999C3.493 18.37 2.77678 18.0697 2.29356 17.5864C1.79956 17.0925 1.5 16.3757 1.5 15.47V11.4C1.5 10.5553 1.76075 9.87643 2.19077 9.39395C2.61939 8.91302 3.2461 8.59348 4.04255 8.51822C4.17296 8.5082 4.28332 8.5 4.39999 8.5H11.19C12.0964 8.5 12.8128 8.79995 13.3014 9.28856C13.7901 9.77718 14.09 10.4936 14.09 11.4V15.47C14.09 15.7942 14.0538 16.0857 13.9798 16.3406Z" fill="#374151" stroke="#374151"/>
</svg>
