<svg width="12" height="11" viewBox="0 0 12 11" fill="none" xmlns="http://www.w3.org/2000/svg">
<path opacity="0.4" d="M5.92968 9.61327C8.27149 9.61327 10.1699 7.71485 10.1699 5.37304C10.1699 3.03123 8.27149 1.13281 5.92968 1.13281C3.58787 1.13281 1.68945 3.03123 1.68945 5.37304C1.68945 7.71485 3.58787 9.61327 5.92968 9.61327Z" fill="#374151"/>
<path d="M7.50277 7.04063C7.44765 7.04063 7.39253 7.02791 7.34164 6.99399L6.02717 6.20955C5.70068 6.0145 5.45898 5.58623 5.45898 5.20885V3.47036C5.45898 3.29651 5.60315 3.15234 5.777 3.15234C5.95085 3.15234 6.09502 3.29651 6.09502 3.47036V5.20885C6.09502 5.3615 6.22223 5.58623 6.35367 5.66256L7.66814 6.447C7.82079 6.53604 7.86743 6.73109 7.77839 6.88374C7.71478 6.98551 7.60878 7.04063 7.50277 7.04063Z" fill="#374151"/>
</svg>
