<svg width="12" height="11" viewBox="0 0 12 11" fill="none" xmlns="http://www.w3.org/2000/svg">
<path opacity="0.4" d="M5.92968 10.1445C8.27149 10.1445 10.1699 8.2461 10.1699 5.90429C10.1699 3.56248 8.27149 1.66406 5.92968 1.66406C3.58787 1.66406 1.68945 3.56248 1.68945 5.90429C1.68945 8.2461 3.58787 10.1445 5.92968 10.1445Z" fill="white"/>
<path d="M7.50277 7.57188C7.44765 7.57188 7.39253 7.55916 7.34164 7.52524L6.02717 6.7408C5.70068 6.54575 5.45898 6.11748 5.45898 5.7401V4.00161C5.45898 3.82776 5.60315 3.68359 5.777 3.68359C5.95085 3.68359 6.09502 3.82776 6.09502 4.00161V5.7401C6.09502 5.89275 6.22222 6.11748 6.35367 6.19381L7.66814 6.97825C7.82079 7.06729 7.86743 7.26234 7.77839 7.41499C7.71478 7.51676 7.60878 7.57188 7.50277 7.57188Z" fill="white"/>
</svg>
