<svg width="16" height="17" viewBox="0 0 16 17" fill="none" xmlns="http://www.w3.org/2000/svg">
<g id="vuesax/bulk/clock">
<g id="clock">
<path id="Vector" opacity="0.4" d="M7.99992 15.1673C11.6818 15.1673 14.6666 12.1825 14.6666 8.50065C14.6666 4.81875 11.6818 1.83398 7.99992 1.83398C4.31802 1.83398 1.33325 4.81875 1.33325 8.50065C1.33325 12.1825 4.31802 15.1673 7.99992 15.1673Z" fill="#374151"/>
<path id="Vector_2" d="M10.4733 11.1192C10.3867 11.1192 10.3 11.0992 10.22 11.0459L8.15334 9.81253C7.64001 9.50586 7.26001 8.83253 7.26001 8.23919V5.50586C7.26001 5.23253 7.48668 5.00586 7.76001 5.00586C8.03334 5.00586 8.26001 5.23253 8.26001 5.50586V8.23919C8.26001 8.47919 8.46001 8.83253 8.66668 8.95253L10.7333 10.1859C10.9733 10.3259 11.0467 10.6325 10.9067 10.8725C10.8067 11.0325 10.64 11.1192 10.4733 11.1192Z" fill="#374151"/>
</g>
</g>
</svg>
