<svg width="17" height="17" viewBox="0 0 17 17" fill="none" xmlns="http://www.w3.org/2000/svg">
<g id="vuesax/outline/close-circle">
<g id="close-circle">
<path id="Vector" d="M8.7487 15.6654C4.79536 15.6654 1.58203 12.452 1.58203 8.4987C1.58203 4.54536 4.79536 1.33203 8.7487 1.33203C12.702 1.33203 15.9154 4.54536 15.9154 8.4987C15.9154 12.452 12.702 15.6654 8.7487 15.6654ZM8.7487 2.33203C5.3487 2.33203 2.58203 5.0987 2.58203 8.4987C2.58203 11.8987 5.3487 14.6654 8.7487 14.6654C12.1487 14.6654 14.9154 11.8987 14.9154 8.4987C14.9154 5.0987 12.1487 2.33203 8.7487 2.33203Z" fill="#F98080"/>
<path id="Vector_2" d="M6.86161 10.8849C6.73495 10.8849 6.60828 10.8383 6.50828 10.7383C6.31495 10.5449 6.31495 10.2249 6.50828 10.0316L10.2816 6.25828C10.4749 6.06495 10.7949 6.06495 10.9883 6.25828C11.1816 6.45161 11.1816 6.77161 10.9883 6.96495L7.21495 10.7383C7.12161 10.8383 6.98828 10.8849 6.86161 10.8849Z" fill="#F98080"/>
<path id="Vector_3" d="M10.6349 10.8849C10.5083 10.8849 10.3816 10.8383 10.2816 10.7383L6.50828 6.96495C6.31495 6.77161 6.31495 6.45161 6.50828 6.25828C6.70161 6.06495 7.02161 6.06495 7.21495 6.25828L10.9883 10.0316C11.1816 10.2249 11.1816 10.5449 10.9883 10.7383C10.8883 10.8383 10.7616 10.8849 10.6349 10.8849Z" fill="#F98080"/>
</g>
</g>
</svg>
