<svg width="16" height="17" viewBox="0 0 16 17" fill="none" xmlns="http://www.w3.org/2000/svg">
<mask id="path-1-inside-1_4982_29700" fill="white">
<path d="M10.0007 15.6654H6.00065C2.38065 15.6654 0.833984 14.1187 0.833984 10.4987V6.4987C0.833984 2.8787 2.38065 1.33203 6.00065 1.33203H7.33398C7.60732 1.33203 7.83398 1.5587 7.83398 1.83203C7.83398 2.10536 7.60732 2.33203 7.33398 2.33203H6.00065C2.92732 2.33203 1.83398 3.42536 1.83398 6.4987V10.4987C1.83398 13.572 2.92732 14.6654 6.00065 14.6654H10.0007C13.074 14.6654 14.1673 13.572 14.1673 10.4987V9.16536C14.1673 8.89203 14.394 8.66536 14.6673 8.66536C14.9407 8.66536 15.1673 8.89203 15.1673 9.16536V10.4987C15.1673 14.1187 13.6207 15.6654 10.0007 15.6654Z"/>
</mask>
<path d="M10.0007 15.6654H6.00065C2.38065 15.6654 0.833984 14.1187 0.833984 10.4987V6.4987C0.833984 2.8787 2.38065 1.33203 6.00065 1.33203H7.33398C7.60732 1.33203 7.83398 1.5587 7.83398 1.83203C7.83398 2.10536 7.60732 2.33203 7.33398 2.33203H6.00065C2.92732 2.33203 1.83398 3.42536 1.83398 6.4987V10.4987C1.83398 13.572 2.92732 14.6654 6.00065 14.6654H10.0007C13.074 14.6654 14.1673 13.572 14.1673 10.4987V9.16536C14.1673 8.89203 14.394 8.66536 14.6673 8.66536C14.9407 8.66536 15.1673 8.89203 15.1673 9.16536V10.4987C15.1673 14.1187 13.6207 15.6654 10.0007 15.6654Z" fill="white"/>
<path d="M10.0007 14.6654H6.00065V16.6654H10.0007V14.6654ZM6.00065 14.6654C4.30544 14.6654 3.33383 14.2993 2.76692 13.7324C2.20002 13.1655 1.83398 12.1939 1.83398 10.4987H-0.166016C-0.166016 12.4235 0.241285 14.0352 1.35271 15.1466C2.46414 16.2581 4.07586 16.6654 6.00065 16.6654V14.6654ZM1.83398 10.4987V6.4987H-0.166016V10.4987H1.83398ZM1.83398 6.4987C1.83398 4.80349 2.20002 3.83188 2.76692 3.26497C3.33383 2.69806 4.30544 2.33203 6.00065 2.33203V0.332031C4.07586 0.332031 2.46414 0.739332 1.35271 1.85076C0.241285 2.96218 -0.166016 4.57391 -0.166016 6.4987H1.83398ZM6.00065 2.33203H7.33398V0.332031H6.00065V2.33203ZM7.33398 2.33203C7.05503 2.33203 6.83398 2.11098 6.83398 1.83203H8.83398C8.83398 1.00641 8.1596 0.332031 7.33398 0.332031V2.33203ZM6.83398 1.83203C6.83398 1.55308 7.05503 1.33203 7.33398 1.33203V3.33203C8.1596 3.33203 8.83398 2.65765 8.83398 1.83203H6.83398ZM7.33398 1.33203H6.00065V3.33203H7.33398V1.33203ZM6.00065 1.33203C4.39343 1.33203 3.00596 1.60751 2.05771 2.55576C1.10946 3.50401 0.833984 4.89148 0.833984 6.4987H2.83398C2.83398 5.03258 3.10518 4.33672 3.47192 3.96997C3.83867 3.60322 4.53454 3.33203 6.00065 3.33203V1.33203ZM0.833984 6.4987V10.4987H2.83398V6.4987H0.833984ZM0.833984 10.4987C0.833984 12.1059 1.10946 13.4934 2.05771 14.4416C3.00596 15.3899 4.39343 15.6654 6.00065 15.6654V13.6654C4.53454 13.6654 3.83867 13.3942 3.47192 13.0274C3.10518 12.6607 2.83398 11.9648 2.83398 10.4987H0.833984ZM6.00065 15.6654H10.0007V13.6654H6.00065V15.6654ZM10.0007 15.6654C11.6079 15.6654 12.9953 15.3899 13.9436 14.4416C14.8918 13.4934 15.1673 12.1059 15.1673 10.4987H13.1673C13.1673 11.9648 12.8961 12.6607 12.5294 13.0274C12.1626 13.3942 11.4668 13.6654 10.0007 13.6654V15.6654ZM15.1673 10.4987V9.16536H13.1673V10.4987H15.1673ZM15.1673 9.16536C15.1673 9.44432 14.9463 9.66536 14.6673 9.66536V7.66536C13.8417 7.66536 13.1673 8.33975 13.1673 9.16536H15.1673ZM14.6673 9.66536C14.3884 9.66536 14.1673 9.44432 14.1673 9.16536H16.1673C16.1673 8.33975 15.4929 7.66536 14.6673 7.66536V9.66536ZM14.1673 9.16536V10.4987H16.1673V9.16536H14.1673ZM14.1673 10.4987C14.1673 12.1939 13.8013 13.1655 13.2344 13.7324C12.6675 14.2993 11.6959 14.6654 10.0007 14.6654V16.6654C11.9254 16.6654 13.5372 16.2581 14.6486 15.1466C15.76 14.0352 16.1673 12.4235 16.1673 10.4987H14.1673Z" fill="white" mask="url(#path-1-inside-1_4982_29700)"/>
<path d="M12.1833 1.67452C12.1246 1.67996 12.067 1.68852 12.0104 1.69992C12.1231 1.67558 12.2331 1.66406 12.3402 1.66406C12.567 1.66406 12.8063 1.71565 13.0582 1.83123C12.7728 1.70227 12.4823 1.64685 12.1833 1.67452ZM14.8181 4.31169C14.8762 3.68179 14.5516 3.10241 14.041 2.56786C14.6602 3.20707 14.8759 3.7903 14.8291 4.31848C14.7838 4.76443 14.5431 5.24855 13.9886 5.79689L13.9867 5.79884L8.73333 11.0522C8.65371 11.1318 8.54146 11.212 8.41776 11.282C8.5248 11.2212 8.64052 11.1425 8.73089 11.0488L13.9804 5.79928C14.4443 5.33543 14.7688 4.84465 14.8181 4.31183L14.8181 4.31169ZM5.72238 11.7921C5.75092 11.7908 5.77914 11.7885 5.80691 11.7854C5.79863 11.7872 5.78478 11.7894 5.76169 11.7908C5.74946 11.7915 5.73684 11.7919 5.72238 11.7921Z" fill="white" stroke="white"/>
<path d="M13.233 7.05221C13.1864 7.05221 13.1397 7.04555 13.0997 7.03221C11.3464 6.53888 9.95305 5.14555 9.45971 3.39221C9.38638 3.12555 9.53971 2.85221 9.80638 2.77221C10.073 2.69888 10.3464 2.85221 10.4197 3.11888C10.8197 4.53888 11.9464 5.66555 13.3664 6.06555C13.633 6.13888 13.7864 6.41888 13.713 6.68555C13.653 6.91221 13.453 7.05221 13.233 7.05221Z" fill="white"/>
</svg>
