<svg width="32" height="32" viewBox="0 0 32 32" fill="none" xmlns="http://www.w3.org/2000/svg">
<path d="M0 16C0 7.16344 7.16344 0 16 0C24.8366 0 32 7.16344 32 16C32 24.8366 24.8366 32 16 32C7.16344 32 0 24.8366 0 16Z" fill="#EBFEFF"/>
<path d="M22.6663 12.0013C22.6663 11.268 22.0663 10.668 21.333 10.668H10.6663C9.93301 10.668 9.33301 11.268 9.33301 12.0013V20.0013C9.33301 20.7346 9.93301 21.3346 10.6663 21.3346H21.333C22.0663 21.3346 22.6663 20.7346 22.6663 20.0013V12.0013ZM21.333 12.0013L15.9997 15.3346L10.6663 12.0013H21.333ZM21.333 20.0013H10.6663V13.3346L15.9997 16.668L21.333 13.3346V20.0013Z" fill="#077397"/>
</svg>
