<svg width="32" height="32" viewBox="0 0 32 32" fill="none" xmlns="http://www.w3.org/2000/svg">
<path d="M0 16C0 7.16344 7.16344 0 16 0C24.8366 0 32 7.16344 32 16C32 24.8366 24.8366 32 16 32C7.16344 32 0 24.8366 0 16Z" fill="#EBFEFF"/>
<path d="M22.6663 15.9987C22.6663 12.3187 19.6797 9.33203 15.9997 9.33203C12.3197 9.33203 9.33301 12.3187 9.33301 15.9987C9.33301 19.2254 11.6263 21.912 14.6663 22.532V17.9987H13.333V15.9987H14.6663V14.332C14.6663 13.0454 15.713 11.9987 16.9997 11.9987H18.6663V13.9987H17.333C16.9663 13.9987 16.6663 14.2987 16.6663 14.6654V15.9987H18.6663V17.9987H16.6663V22.632C20.033 22.2987 22.6663 19.4587 22.6663 15.9987Z" fill="#077397"/>
</svg>
