<svg width="24" height="24" viewBox="0 0 24 24" fill="none" xmlns="http://www.w3.org/2000/svg">
<g id="Group">
<g id="Group_2">
<path id="Vector" d="M12.0139 14.7188C10.9368 14.7188 10.0636 15.5919 10.0636 16.6691C10.0636 16.745 10.0684 16.8198 10.0768 16.8935C10.0724 16.8934 10.068 16.8932 10.0636 16.8932C8.98645 16.8932 8.11328 17.7663 8.11328 18.8435C8.11328 19.9206 8.98645 20.7938 10.0636 20.7938C10.068 20.7938 10.0724 20.7935 10.0768 20.7935C10.0684 20.8671 10.0636 20.9419 10.0636 21.0179C10.0636 22.0951 10.9368 22.9682 12.0139 22.9682C12.7416 22.9682 13.3757 22.5694 13.7109 21.9788C14.0516 22.2698 14.4933 22.4459 14.9765 22.4459C16.0185 22.4459 16.8695 21.6288 16.9239 20.6003C17.5764 20.2849 18.0264 19.6168 18.0264 18.8435C18.0264 18.0703 17.5763 17.4021 16.9239 17.0867C16.8695 16.0583 16.0185 15.2411 14.9765 15.2411C14.4933 15.2411 14.0516 15.4172 13.7109 15.7082C13.3757 15.1175 12.7416 14.7188 12.0139 14.7188Z" fill="#FD6050"/>
</g>
<g id="Group_3">
<path id="Vector_2" d="M22.2696 8.54203L22.5098 6.45753L21.2357 5.18337L22.6283 4.31071L22.7815 1.03125L19.5021 1.18445L18.6294 2.57713L17.3553 1.30297L15.2708 1.54324L15.0305 3.62774L16.0879 4.68513L14.3477 5.39198L15.5583 6.60263L17.0292 6.78356L17.2102 8.2545L18.4208 9.46515L19.1277 7.72491L20.1851 8.78231L22.2696 8.54203Z" fill="#BC3C85"/>
</g>
<g id="Group_4">
<path id="Vector_3" d="M6.83977 8.28908C5.83879 6.44106 1.41403 4.89844 1.41403 4.89844C1.41403 4.89844 0.288812 9.4473 1.28984 11.2953C2.11997 12.8279 4.03531 13.3973 5.5679 12.5672C7.10048 11.737 7.6699 9.82167 6.83977 8.28908Z" fill="#FD8F01"/>
</g>
<g id="Group_5">
<g id="Group_6">
<path id="Vector_4" d="M18.4221 9.9208C18.3018 9.9208 18.1849 9.87336 18.0981 9.78657L16.8874 8.57592C16.8151 8.50365 16.7691 8.40925 16.7566 8.30778L16.6194 7.192L15.5036 7.05479C15.4022 7.04238 15.3078 6.99632 15.2355 6.924L14.0249 5.71336C13.9162 5.60475 13.8693 5.44888 13.8997 5.29834C13.9303 5.14779 14.0341 5.0225 14.1765 4.96471L15.2765 4.51784L14.7077 3.94911C14.6088 3.85021 14.5605 3.71149 14.5765 3.57254L14.8168 1.48805C14.8412 1.27655 15.0081 1.10964 15.2196 1.08526L17.3041 0.845032C17.4433 0.82913 17.5817 0.877387 17.6806 0.976238L18.5479 1.84354L19.115 0.93843C19.1948 0.811119 19.3319 0.731012 19.482 0.723954L22.7614 0.570751C22.8908 0.565159 23.0157 0.613279 23.1069 0.704477C23.1981 0.795675 23.2466 0.921107 23.2406 1.04993L23.0874 4.32944C23.0804 4.47948 23.0003 4.61664 22.8729 4.69639L21.9678 5.26351L22.8351 6.13081C22.934 6.2297 22.9823 6.36843 22.9663 6.50738L22.7261 8.59183C22.7017 8.80332 22.5348 8.97023 22.3233 8.99461L20.2388 9.23489C20.0999 9.25093 19.9612 9.20258 19.8623 9.10368L19.2935 8.53491L18.8467 9.63497C18.7888 9.77726 18.6636 9.88116 18.513 9.91163C18.4828 9.91782 18.4524 9.9208 18.4221 9.9208ZM17.6471 8.03937L18.2575 8.64984L18.7044 7.54974C18.7622 7.40744 18.8875 7.30355 19.038 7.27307C19.1886 7.2426 19.3444 7.28957 19.453 7.39814L20.3538 8.29898L21.8572 8.12571L22.0304 6.62231L20.9128 5.5047C20.8142 5.40603 20.7658 5.26772 20.7815 5.12905C20.7972 4.99037 20.8753 4.86641 20.9936 4.7923L22.183 4.047L22.3016 1.50977L19.7643 1.62833L19.0191 2.81784C18.945 2.93613 18.821 3.01417 18.6824 3.02989C18.5437 3.04579 18.4054 2.99726 18.3067 2.89859L17.1891 1.78098L15.6858 1.95426L15.5125 3.45765L16.4133 4.3584C16.5219 4.46702 16.5689 4.62288 16.5384 4.77342C16.5079 4.92397 16.404 5.04926 16.2617 5.10705L15.1616 5.55392L15.7721 6.1644L17.0865 6.32604C17.2952 6.3517 17.4597 6.51613 17.4854 6.72492L17.6471 8.03937Z" fill="#1C2E72"/>
</g>
<g id="Group_7">
<path id="Vector_5" d="M14.2571 10.01C14.1398 10.01 14.0225 9.96521 13.933 9.87575C13.7541 9.69679 13.7541 9.40661 13.933 9.22761L16.7061 6.4545C16.8851 6.27558 17.1753 6.27558 17.3542 6.4545C17.5332 6.63346 17.5332 6.92364 17.3542 7.10265L14.5812 9.87575C14.4917 9.96526 14.3744 10.01 14.2571 10.01Z" fill="#1C2E72"/>
</g>
</g>
<g id="Group_8">
<g id="Group_9">
<path id="Vector_6" d="M19.984 18.3823H18.441C18.3136 17.733 17.9195 17.1542 17.3549 16.799C17.1679 15.6478 16.1702 14.7803 14.9778 14.7803C14.5717 14.7803 14.1748 14.8829 13.8229 15.0754C13.3701 14.5621 12.7129 14.2578 12.015 14.2578C10.7515 14.2578 9.7121 15.2358 9.61403 16.4745C8.50086 16.6862 7.65625 17.6665 7.65625 18.8406C7.65625 20.0147 8.50086 20.9955 9.61403 21.2072C9.7121 22.4459 10.7515 23.4239 12.015 23.4239C12.7129 23.4239 13.3701 23.1191 13.8229 22.6059C14.1748 22.7983 14.5717 22.9015 14.9778 22.9015C16.1702 22.9015 17.1679 22.0339 17.3549 20.8827C17.9195 20.5276 18.3136 19.9488 18.441 19.2989H19.984C20.237 19.2989 20.4423 19.0941 20.4423 18.8406C20.4423 18.5877 20.237 18.3823 19.984 18.3823ZM16.7256 20.1852C16.5753 20.2576 16.4763 20.4066 16.4676 20.5734C16.4255 21.3648 15.771 21.9849 14.9778 21.9849C14.6235 21.9849 14.2793 21.858 14.0099 21.6274C13.9058 21.5385 13.7674 21.501 13.6327 21.5248C13.498 21.5482 13.3811 21.6311 13.3137 21.7498C13.0484 22.2168 12.5512 22.5073 12.015 22.5073C11.1924 22.5073 10.5233 21.8378 10.5233 21.0152C10.5233 20.9602 10.5265 20.9024 10.5333 20.8429C10.5485 20.7132 10.5072 20.583 10.4201 20.4859C10.3331 20.3882 10.2089 20.3323 10.0783 20.3323C10.0719 20.3323 10.0659 20.3323 10.0595 20.3328C9.23916 20.33 8.57281 19.6619 8.57281 18.8406C8.57281 18.0198 9.23916 17.3517 10.0595 17.3489C10.196 17.3521 10.3289 17.2981 10.4201 17.1959C10.5072 17.0982 10.5485 16.9681 10.5333 16.8384C10.5265 16.7784 10.5233 16.722 10.5233 16.6661C10.5233 15.8435 11.1924 15.1744 12.015 15.1744C12.5512 15.1744 13.0484 15.4645 13.3137 15.9315C13.3811 16.0506 13.498 16.1331 13.6327 16.1569C13.7674 16.1803 13.9058 16.1427 14.0099 16.0538C14.2793 15.8238 14.6235 15.6968 14.9778 15.6968C15.771 15.6968 16.4255 16.3164 16.4676 17.1083C16.4763 17.2751 16.5753 17.4236 16.7256 17.4965C17.1028 17.6789 17.3764 17.9997 17.4983 18.3823H13.371C13.1181 18.3823 12.9127 18.5877 12.9127 18.8406C12.9127 19.0941 13.1181 19.2989 13.371 19.2989H17.4983C17.3764 19.6816 17.1028 20.0024 16.7256 20.1852Z" fill="#1C2E72"/>
</g>
</g>
<g id="Group_10">
<g id="Group_11">
<path id="Vector_7" d="M6.17466 12.7705C7.13843 12.0785 7.67829 10.9695 7.67829 9.83018C7.67829 9.24954 7.53805 8.66065 7.24246 8.11529C6.16916 6.13368 1.75225 4.57552 1.56435 4.50999C1.44291 4.46737 1.30863 4.47837 1.19543 4.53978C1.08178 4.60119 0.999747 4.70751 0.968584 4.83262C0.920923 5.02556 -0.186744 9.57675 0.886552 11.5579C1.54006 12.7646 2.78567 13.4501 4.07069 13.4501C4.50606 13.4501 4.94647 13.3713 5.369 13.2068L6.00327 14.3777C6.08622 14.5308 6.24386 14.6178 6.40655 14.6178C6.48034 14.6178 6.55504 14.6 6.62424 14.5624C6.84696 14.4419 6.92945 14.1637 6.80893 13.9414L6.17466 12.7705ZM1.69221 11.1216C1.0277 9.89434 1.4342 7.03879 1.74491 5.55441C3.1578 6.10527 5.77183 7.32475 6.43634 8.55157C7.0706 9.72203 6.7466 11.1592 5.7338 11.9561L3.97491 8.70877C3.85438 8.48604 3.57621 8.40355 3.35348 8.52408C3.13076 8.64461 3.04827 8.92278 3.16879 9.14505L4.92768 12.3924C3.70682 12.8053 2.32647 12.2921 1.69221 11.1216Z" fill="#1C2E72"/>
</g>
</g>
<g id="Group_12">
<path id="Vector_8" d="M4.54318 2.28375H3.17117C2.91806 2.28375 2.71289 2.07853 2.71289 1.82547C2.71289 1.57241 2.91806 1.36719 3.17117 1.36719H4.54313C4.79624 1.36719 5.00141 1.57241 5.00141 1.82547C5.00141 2.07853 4.79628 2.28375 4.54318 2.28375Z" fill="#93B2F4"/>
</g>
<g id="Group_13">
<path id="Vector_9" d="M23.3303 22.9869H21.9583C21.7052 22.9869 21.5 22.7817 21.5 22.5286C21.5 22.2755 21.7052 22.0703 21.9583 22.0703H23.3303C23.5834 22.0703 23.7886 22.2755 23.7886 22.5286C23.7886 22.7817 23.5834 22.9869 23.3303 22.9869Z" fill="#93B2F4"/>
</g>
<g id="Group_14">
<path id="Vector_10" d="M5.22872 17.4322H3.85672C3.60361 17.4322 3.39844 17.227 3.39844 16.9739C3.39844 16.7208 3.60361 16.5156 3.85672 16.5156H5.22872C5.48183 16.5156 5.687 16.7208 5.687 16.9739C5.687 17.227 5.48183 17.4322 5.22872 17.4322Z" fill="#93B2F4"/>
</g>
<g id="Group_15">
<path id="Vector_11" d="M11.3908 8.90875H10.0188C9.76572 8.90875 9.56055 8.70353 9.56055 8.45047C9.56055 8.19741 9.76572 7.99219 10.0188 7.99219H11.3908C11.6439 7.99219 11.8491 8.19741 11.8491 8.45047C11.8491 8.70353 11.6439 8.90875 11.3908 8.90875Z" fill="#93B2F4"/>
</g>
<g id="Group_16">
<path id="Vector_12" d="M14.8966 12.5806H13.5247C13.2716 12.5806 13.0664 12.3754 13.0664 12.1223C13.0664 11.8693 13.2716 11.6641 13.5247 11.6641H14.8966C15.1498 11.6641 15.3549 11.8693 15.3549 12.1223C15.3549 12.3754 15.1498 12.5806 14.8966 12.5806Z" fill="#93B2F4"/>
</g>
<g id="Group_17">
<path id="Vector_13" d="M10.5998 4.10292C11.1356 3.56715 11.1356 2.69848 10.5998 2.1627C10.064 1.62692 9.19534 1.62692 8.65956 2.1627C8.12379 2.69848 8.12379 3.56715 8.65956 4.10292C9.19534 4.6387 10.064 4.6387 10.5998 4.10292Z" fill="#D4DEFF"/>
</g>
<g id="Group_18">
<path id="Vector_14" d="M3.84588 22.1185C4.38166 21.5828 4.38166 20.7141 3.84588 20.1783C3.3101 19.6425 2.44144 19.6425 1.90566 20.1783C1.36988 20.7141 1.36988 21.5828 1.90566 22.1185C2.44144 22.6543 3.3101 22.6543 3.84588 22.1185Z" fill="#D4DEFF"/>
</g>
<g id="Group_19">
<path id="Vector_15" d="M21.9396 14.8607C22.4754 14.325 22.4754 13.4563 21.9396 12.9205C21.4039 12.3847 20.5352 12.3847 19.9994 12.9205C19.4636 13.4563 19.4636 14.325 19.9994 14.8607C20.5352 15.3965 21.4039 15.3965 21.9396 14.8607Z" fill="#D4DEFF"/>
</g>
</g>
</svg>
