<svg width="21" height="22" viewBox="0 0 21 22" fill="none" xmlns="http://www.w3.org/2000/svg">
<g clip-path="url(#clip0_2562_28596)">
<path fill-rule="evenodd" clip-rule="evenodd" d="M8.58738 18.8209C7.89212 19.3967 6.86107 19.5849 5.88746 19.2232C4.98036 18.8874 4.34595 18.1572 4.14198 17.3391C4.0913 17.1385 4.08116 17.1644 4.25019 17.045C4.93866 16.5582 5.89648 16.4185 6.80359 16.7543C7.77604 17.116 8.43637 17.9296 8.58738 18.8209Z" fill="#B3E59F"/>
<path fill-rule="evenodd" clip-rule="evenodd" d="M13.0234 18.8209C13.7187 19.3967 14.7498 19.5849 15.7234 19.2232C16.6305 18.8874 17.2649 18.1572 17.4688 17.3391C17.5195 17.1385 17.5297 17.1644 17.3606 17.045C16.671 16.5582 15.7143 16.4185 14.8072 16.7543C13.8337 17.116 13.1745 17.9296 13.0234 18.8209Z" fill="#B3E59F"/>
<path fill-rule="evenodd" clip-rule="evenodd" d="M7.30601 15.4147C7.89196 15.4722 8.51734 15.1972 8.91061 14.6462C9.27796 14.1324 9.35345 13.507 9.16526 12.9898C9.11907 12.8636 9.1337 12.8737 8.9985 12.8714C8.44861 12.8602 7.88067 13.134 7.51447 13.6478C7.12009 14.1977 7.0615 14.8783 7.30601 15.4147Z" fill="#B3E59F"/>
<path fill-rule="evenodd" clip-rule="evenodd" d="M14.3044 15.4147C13.7185 15.4722 13.0931 15.1972 12.6998 14.6462C12.3325 14.1324 12.257 13.507 12.4452 12.9898C12.4914 12.8636 12.4767 12.8737 12.612 12.8714C13.1618 12.8602 13.7298 13.134 14.096 13.6478C14.4904 14.1977 14.549 14.8783 14.3044 15.4147Z" fill="#B3E59F"/>
<path fill-rule="evenodd" clip-rule="evenodd" d="M2.55545 10.768C2.96561 10.3296 3.86147 10.7285 4.26034 10.9967C4.60177 11.2266 4.59501 11.1454 4.62542 10.7736C4.66374 10.3025 4.90826 9.38867 5.49198 9.33684C6.05539 9.30301 6.57149 10.2293 6.64245 11.4057C6.75172 13.2007 5.47842 14.6386 3.68338 14.7479C2.50695 14.82 1.52547 14.4211 1.49053 13.8566C1.47137 13.256 2.38638 12.9044 2.85737 12.8131C3.25966 12.7343 3.19431 12.6745 2.95766 12.3973C2.65125 12.0368 2.17908 11.2175 2.55545 10.768Z" fill="#62D9FA"/>
<path fill-rule="evenodd" clip-rule="evenodd" d="M5.05154 9.587C5.17998 9.43602 5.32873 9.34697 5.49215 9.33684C6.05556 9.30301 6.57166 10.2293 6.64261 11.4057C6.75189 13.2007 5.47859 14.6386 3.68355 14.7479C3.41987 14.7637 3.16518 14.7569 2.92969 14.7287C4.61319 14.5237 5.78282 13.1297 5.67803 11.4057C5.62957 10.6136 5.38056 9.93518 5.05154 9.587Z" fill="#54D0F2"/>
<path fill-rule="evenodd" clip-rule="evenodd" d="M19.0545 10.7679C18.6511 10.3375 17.7823 10.7127 17.3868 10.9753C17.0082 11.2265 17.0149 11.1466 16.9788 10.7319C16.9383 10.2676 16.6893 9.38756 16.118 9.33684C15.5534 9.30301 15.0385 10.2293 14.9675 11.4057C14.8582 13.2007 16.1315 14.6386 17.9265 14.7479C19.103 14.82 20.0844 14.4211 20.1194 13.8566C20.1374 13.292 19.325 12.945 18.8753 12.8458C18.7626 12.8221 18.4291 12.7894 18.4866 12.6216C18.5193 12.5269 18.7345 12.297 18.81 12.1889C19.0534 11.835 19.3847 11.1634 19.0545 10.7679Z" fill="#62D9FA"/>
<path fill-rule="evenodd" clip-rule="evenodd" d="M10.8125 1.07422C11.3917 1.09111 11.7264 2.04667 11.8503 2.49516C11.9889 2.99437 12.1625 2.85348 12.5343 2.64502C12.9141 2.4343 13.7536 2.09064 14.1355 2.45123C14.5243 2.86251 14.1141 3.74818 13.8876 4.14598C13.6397 4.58206 13.7287 4.64177 14.1885 4.76799C14.6178 4.88633 15.4967 5.22887 15.5125 5.77538C15.4967 6.33319 14.5795 6.68022 14.1434 6.79968C13.6634 6.93038 13.6803 7.04193 13.9135 7.45097C14.1344 7.83748 14.5096 8.704 14.1355 9.09953C13.7253 9.48716 12.8397 9.07699 12.443 8.85275C12.0137 8.60939 11.9438 8.70965 11.821 9.15475C11.7027 9.58292 11.3556 10.4608 10.8125 10.4765C10.2446 10.4596 9.91441 9.54349 9.78931 9.10291C9.63269 8.54853 9.45802 8.70738 9.04448 8.9294C8.66926 9.1311 7.86018 9.44999 7.48834 9.09953C7.11423 8.70289 7.49061 7.8386 7.71032 7.45097C7.98302 6.97097 7.88833 6.90899 7.38578 6.76811C6.96548 6.65092 6.12711 6.305 6.11133 5.77538C6.12711 5.21309 7.0432 4.87166 7.4827 4.7522C8.04837 4.59669 7.88161 4.42433 7.65737 4.00737C7.45567 3.63437 7.13789 2.82307 7.48834 2.45123C7.89401 2.06925 8.78867 2.47039 9.18083 2.69686C9.62255 2.9504 9.67666 2.84899 9.80283 2.39375C9.92117 1.96665 10.2716 1.08996 10.8125 1.07422Z" fill="#FD91BA"/>
<path fill-rule="evenodd" clip-rule="evenodd" d="M10.8154 7.53869C11.7867 7.53869 12.5789 6.74651 12.5789 5.7752C12.5789 4.80386 11.7868 4.01172 10.8154 4.01172C9.84407 4.01172 9.05078 4.8039 9.05078 5.7752C9.05078 6.74651 9.84407 7.53869 10.8154 7.53869Z" fill="#FCBF66"/>
<path fill-rule="evenodd" clip-rule="evenodd" d="M13.18 6.79904C12.7 6.92974 12.7169 7.04129 12.9502 7.45034C13.1699 7.83685 13.5462 8.70336 13.1721 9.0989C13.1518 9.11806 13.1293 9.13606 13.1056 9.15189C13.4831 9.2781 13.8933 9.32878 14.1367 9.0989C14.5108 8.70336 14.1356 7.83685 13.9147 7.45034C13.6814 7.04129 13.6645 6.92974 14.1446 6.79904C14.5807 6.67958 15.4979 6.33255 15.5137 5.77475C15.4979 5.22823 14.619 4.88569 14.1897 4.76735C13.7299 4.64113 13.6409 4.58143 13.8888 4.14535C14.1153 3.74755 14.5255 2.86187 14.1367 2.45059C13.8978 2.22409 13.4775 2.27481 13.1046 2.39649C13.1282 2.41227 13.1507 2.43032 13.1722 2.45059C13.5609 2.86187 13.1496 3.74755 12.9243 4.14535C12.6764 4.58143 12.7654 4.64113 13.224 4.76735C13.6544 4.88569 14.5334 5.22823 14.5491 5.77475C14.5334 6.33255 13.6161 6.67958 13.18 6.79904Z" fill="#F585B0"/>
<path fill-rule="evenodd" clip-rule="evenodd" d="M10.8143 7.53869C11.7879 7.53869 12.5778 6.74877 12.5778 5.7752C12.5778 4.80048 11.7879 4.01172 10.8143 4.01172C10.6464 4.01172 10.4853 4.03426 10.332 4.07818C11.0713 4.2878 11.6133 4.96839 11.6133 5.7752C11.6133 6.58201 11.0713 7.26265 10.332 7.47222C10.4853 7.51615 10.6464 7.53869 10.8143 7.53869Z" fill="#F7B551"/>
<path fill-rule="evenodd" clip-rule="evenodd" d="M20.1195 13.8546C20.1376 13.2901 19.3251 12.943 18.8755 12.8438C18.7628 12.8202 18.4293 12.7875 18.4868 12.6196C18.5194 12.5249 18.7347 12.2951 18.8102 12.1869C19.0536 11.8331 19.3849 11.1615 19.0547 10.766C18.8034 10.4978 18.3707 10.5429 17.9842 10.6781C18.0225 10.7029 18.0575 10.7321 18.0902 10.766C18.4203 11.1615 18.089 11.8331 17.8456 12.1869C17.7702 12.2951 17.5549 12.5249 17.5222 12.6196C17.4648 12.7875 17.7983 12.8202 17.9098 12.8438C18.3606 12.943 19.173 13.2901 19.1539 13.8546C19.128 14.293 18.5307 14.631 17.7149 14.7268C17.7848 14.7358 17.8558 14.7414 17.9267 14.7459C19.1031 14.818 20.0846 14.4191 20.1195 13.8546Z" fill="#54D0F2"/>
<path fill-rule="evenodd" clip-rule="evenodd" d="M17.4665 17.3435C17.5172 17.1429 17.5273 17.1688 17.3583 17.0494C16.8028 16.6572 16.0738 16.4894 15.3368 16.6155C15.7233 16.6832 16.085 16.8319 16.3938 17.0494C16.5617 17.1688 16.5526 17.1429 16.5019 17.3435C16.298 18.1616 15.6636 18.8917 14.7565 19.2276C14.5807 19.293 14.4015 19.3403 14.2246 19.3707C14.7024 19.4541 15.2196 19.4135 15.721 19.2276C16.6282 18.8917 17.2626 18.1616 17.4665 17.3435Z" fill="#95D6A4"/>
<path fill-rule="evenodd" clip-rule="evenodd" d="M14.4496 14.7307C14.4507 14.3623 14.3346 13.9814 14.0957 13.6478C13.7295 13.134 13.1616 12.8602 12.6117 12.8714C12.4765 12.8737 12.4911 12.8636 12.4449 12.9898C12.4382 13.0089 12.4325 13.0281 12.4258 13.0472C12.6951 13.1779 12.9407 13.3808 13.1312 13.6478C13.485 14.1425 13.5684 14.7409 13.405 15.2468C13.5819 15.3336 13.7701 15.3888 13.9594 15.4113C14.1115 15.1792 14.2749 14.9538 14.4496 14.7307Z" fill="#95D6A4"/>
<path fill-rule="evenodd" clip-rule="evenodd" d="M8.91092 14.6462C9.27827 14.1324 9.35376 13.507 9.16557 12.9898C9.11938 12.8636 9.13401 12.8737 8.99881 12.8715C8.73514 12.8658 8.46808 12.9267 8.22019 13.0472C8.38357 13.552 8.30021 14.1516 7.94637 14.6462C7.8078 14.8401 7.63989 15.0001 7.45508 15.124C7.5227 15.2187 7.58805 15.3145 7.65114 15.4114C8.1278 15.355 8.59429 15.0891 8.91092 14.6462Z" fill="#95D6A4"/>
<path fill-rule="evenodd" clip-rule="evenodd" d="M8.10117 17.7164C7.78793 17.3006 7.34394 16.9592 6.80307 16.7586C6.30164 16.5727 5.78438 16.5321 5.30664 16.6155C5.48354 16.646 5.66159 16.6933 5.83737 16.7586C6.81094 17.1203 7.47015 17.9339 7.62228 18.8252C7.28423 19.1047 6.86842 19.2929 6.41883 19.3706C7.12534 19.4923 7.8251 19.3425 8.37161 18.9841C8.3119 18.5131 8.2217 18.1041 8.10117 17.7164Z" fill="#95D6A4"/>
<path d="M5.44892 18.6773C5.58527 18.7674 5.62359 18.9523 5.53232 19.0886C5.44217 19.2261 5.2574 19.2633 5.11994 19.1732C4.79993 18.9613 4.52834 18.6988 4.31539 18.4046C4.09791 18.1037 3.94017 17.768 3.85228 17.4175C3.83761 17.3578 3.78017 17.2102 3.83423 17.0659C3.88492 16.9285 4.00215 16.8597 4.1148 16.7831C4.49793 16.5206 4.95318 16.3538 5.43545 16.2986C5.91208 16.2445 6.41689 16.2997 6.90596 16.4811C7.25299 16.6107 7.56517 16.7921 7.83334 17.0129C7.80177 16.9341 7.76798 16.8563 7.73415 16.7797C7.28567 15.7723 6.62086 14.9418 5.87264 14.1395C5.33849 14.6353 4.63536 14.9598 3.83081 15.0365C3.24487 15.0917 2.58339 15.0365 2.0459 14.8179C1.5422 14.6128 1.21771 14.2827 1.1929 13.8759C1.17036 13.504 1.40363 13.166 1.80815 12.9091C2.04479 12.7581 2.34563 12.6319 2.68818 12.5439C2.47296 12.2622 2.31296 11.9771 2.21942 11.7124C2.06053 11.2617 2.08534 10.8526 2.33208 10.5731C2.57997 10.2937 2.98338 10.2193 3.44991 10.323C3.72372 10.3838 4.02683 10.5078 4.33109 10.6881C4.3784 10.3354 4.46629 10.021 4.5869 9.76856C4.76606 9.39223 5.07482 9.04066 5.52103 9.03951C5.90866 9.03951 6.25685 9.3167 6.51154 9.77421C6.73916 10.1833 6.89916 10.7523 6.93859 11.3833H6.93971V11.4058V11.4069H6.94086V11.4092C6.98817 12.278 6.73805 13.0713 6.27151 13.6956C6.49011 13.9288 6.69631 14.1587 6.89125 14.3897C6.94424 14.0742 7.0693 13.7609 7.27211 13.4781C7.47946 13.1874 7.74425 12.962 8.03611 12.8099C8.34033 12.6499 8.67501 12.5699 9.00408 12.5767C9.12015 12.5789 9.18662 12.5733 9.28691 12.6443C9.40295 12.7277 9.42326 12.8291 9.45594 12.9237C9.55961 13.2257 9.58891 13.5548 9.53819 13.8816C9.48857 14.2061 9.36125 14.5295 9.15279 14.8213C8.9297 15.1335 8.6401 15.3701 8.32233 15.5222C8.16459 15.5977 8.00006 15.6529 7.83214 15.6856C7.99668 15.9583 8.14428 16.24 8.27725 16.5375C8.78095 17.6688 9.04462 19.003 9.04462 20.833C9.04462 20.9975 8.91165 21.1304 8.74716 21.1304C8.58266 21.1304 8.44854 20.9975 8.44854 20.833C8.44854 20.2876 8.42489 19.7895 8.37754 19.3309C8.17246 19.4469 7.9516 19.5382 7.71945 19.6025C7.33631 19.7084 6.92393 19.7388 6.50585 19.6859C6.34247 19.6656 6.22755 19.5169 6.24778 19.3546C6.26921 19.1912 6.41681 19.0762 6.58019 19.0966C6.91824 19.1394 7.25176 19.1146 7.56167 19.0289C7.81294 18.9591 8.04847 18.8498 8.25693 18.7044C8.17016 18.3675 8.00113 18.0475 7.76226 17.7714C7.49183 17.457 7.13012 17.2001 6.69853 17.0401C6.29851 16.8925 5.88719 16.8462 5.50072 16.8902C5.10857 16.9353 4.74126 17.0716 4.43361 17.2868C4.5035 17.5584 4.62745 17.8198 4.79759 18.0553C4.97003 18.2931 5.18974 18.5061 5.44892 18.6773ZM10.2627 7.13522C10.4149 7.19719 10.4881 7.37071 10.4261 7.52284C10.3642 7.67498 10.1906 7.7482 10.0385 7.68738C9.65649 7.53187 9.33084 7.26481 9.1021 6.92565C8.88013 6.59662 8.75169 6.20109 8.75169 5.77626C8.75169 5.20609 8.98269 4.69114 9.35564 4.31815C9.7286 3.94515 10.2436 3.71415 10.8138 3.71415C11.3828 3.71415 11.8978 3.94515 12.2719 4.31815C12.6449 4.69114 12.8759 5.20609 12.8759 5.77626C12.8759 6.20109 12.7463 6.59658 12.5243 6.92565C12.2967 7.26481 11.9711 7.53187 11.5879 7.68738C11.4358 7.7482 11.2623 7.67498 11.2003 7.52284C11.1383 7.37071 11.2127 7.19719 11.3648 7.13522C11.6375 7.02364 11.8696 6.83434 12.0308 6.59435C12.1874 6.36109 12.2787 6.07941 12.2787 5.77626C12.2787 5.37174 12.1153 5.00439 11.8493 4.73956C11.5845 4.47473 11.2183 4.31024 10.8138 4.31024C10.4081 4.31024 10.0419 4.47477 9.77709 4.73956C9.51119 5.00435 9.34777 5.3717 9.34777 5.77626C9.34777 6.07937 9.43904 6.36109 9.59567 6.59435C9.75793 6.83434 9.98893 7.02364 10.2627 7.13522ZM11.6296 1.2723C11.8921 1.63174 12.0477 2.0904 12.1288 2.38222C12.1626 2.50164 12.3575 2.40587 12.4263 2.36755C12.6741 2.22894 13.0697 2.05768 13.4731 2.00923C13.7965 1.96979 14.1109 2.01825 14.3408 2.23573C14.5864 2.46562 14.6236 2.83973 14.5774 3.15409C14.5154 3.58114 14.2946 4.03416 14.1481 4.2933C14.0399 4.48376 14.1999 4.46459 14.2675 4.48264C14.5481 4.55924 15.0056 4.72489 15.3402 4.97954C15.6073 5.1824 15.8022 5.44266 15.8113 5.76831C15.8203 6.10298 15.5814 6.39257 15.3278 6.58302C14.983 6.83994 14.5086 7.00897 14.2224 7.08672C14.0173 7.14305 14.1311 7.2321 14.174 7.30532C14.3171 7.55659 14.5221 7.99832 14.5774 8.41413C14.6224 8.74653 14.5762 9.06769 14.3543 9.30434C14.1233 9.54885 13.7514 9.58606 13.437 9.53987C13.0089 9.47789 12.5558 9.25814 12.2967 9.1117C12.1187 9.0114 12.1423 9.10267 12.1085 9.23449C12.0308 9.51395 11.8628 9.97146 11.6093 10.3039C11.4707 10.4853 11.3051 10.634 11.1113 10.7129V20.833C11.1113 20.9975 10.9783 21.1304 10.8138 21.1304C10.6493 21.1304 10.5152 20.9975 10.5152 20.833V10.714C10.3157 10.634 10.1467 10.4808 10.007 10.2926C9.74895 9.9455 9.58553 9.4711 9.5044 9.18488C9.45256 9.00234 9.29256 9.13527 9.18662 9.19275C8.94095 9.32461 8.52518 9.50262 8.13303 9.54432C7.8164 9.57926 7.50987 9.52854 7.28567 9.3167C7.04565 9.09134 7.00737 8.72288 7.04903 8.41524C7.10535 7.99943 7.30932 7.55775 7.45354 7.30532C7.58763 7.06752 7.55606 7.12616 7.30594 7.05516C7.03213 6.97852 6.59379 6.81176 6.27151 6.56049C6.01344 6.3599 5.82414 6.10298 5.81516 5.78409C5.80614 5.4483 6.04278 5.15871 6.29859 4.96825C6.64228 4.71134 7.1178 4.54458 7.40513 4.46567C7.5978 4.41272 7.45919 4.26512 7.3961 4.14904C7.26424 3.90453 7.08735 3.48757 7.04453 3.09545C7.01075 2.77879 7.06032 2.4723 7.27215 2.24806C7.50315 2.00354 7.87837 1.9686 8.19166 2.01368C8.61872 2.07565 9.07396 2.29202 9.32976 2.43962C9.41428 2.48693 9.4875 2.41482 9.51684 2.31456C9.59459 2.03622 9.76362 1.5799 10.0183 1.24746C10.2211 0.981514 10.4814 0.787723 10.8048 0.777586C11.1473 0.768602 11.4392 1.01085 11.6296 1.2723ZM11.1495 1.62387C11.047 1.48303 10.9321 1.38047 10.8138 1.3726C10.7033 1.38047 10.5917 1.47738 10.4903 1.60924C10.2909 1.86954 10.1534 2.24253 10.0903 2.47353C10.0069 2.77326 9.94155 2.96033 9.76354 3.06735C9.56744 3.18454 9.36014 3.14172 9.03449 2.95469C8.82153 2.83186 8.44627 2.65158 8.10822 2.60312C7.93808 2.57832 7.78706 2.58738 7.70033 2.66283C7.63159 2.7417 7.61919 2.87916 7.63609 3.03241C7.66876 3.33329 7.81302 3.66796 7.92007 3.86625C7.9539 3.92822 7.96738 3.95414 7.98094 3.97894C8.05305 4.10738 8.11164 4.21332 8.14316 4.32713C8.23897 4.67647 8.12516 4.88489 7.56175 5.03929C7.32173 5.10464 6.92846 5.24099 6.65465 5.44607C6.5183 5.54748 6.418 5.66133 6.41013 5.77626C6.41689 5.88442 6.51043 5.99374 6.63775 6.09288C6.88453 6.28556 7.24174 6.41968 7.4671 6.48277C7.7939 6.57404 7.99334 6.6473 8.09924 6.83776C8.21531 7.04168 8.16348 7.2569 7.96965 7.59837C7.85134 7.80795 7.68232 8.16965 7.63839 8.49419C7.61585 8.65757 7.62599 8.80521 7.70037 8.88972C7.77923 8.95734 7.9167 8.9697 8.06994 8.95281C8.37078 8.92013 8.70434 8.77591 8.90493 8.66882C8.93196 8.65419 8.97029 8.63276 9.00523 8.61249C9.13482 8.54149 9.24072 8.4829 9.35342 8.45133C9.70614 8.35104 9.91798 8.46147 10.0768 9.02377C10.1456 9.26717 10.2819 9.66608 10.4848 9.93878C10.5546 10.0323 10.6865 10.1788 10.8138 10.1788C10.9355 10.1788 11.0684 10.0323 11.1361 9.94331C11.3355 9.68186 11.4718 9.30779 11.535 9.07564C11.6172 8.77929 11.6905 8.59222 11.8685 8.48858C12.0646 8.37588 12.2731 8.41532 12.5908 8.59452C12.8083 8.71847 13.1847 8.90216 13.5205 8.95058C13.6884 8.97539 13.8394 8.96632 13.9273 8.88972C14.0005 8.80521 14.0107 8.65761 13.9881 8.49307C13.9442 8.16854 13.7763 7.80799 13.6568 7.59837C13.5013 7.32567 13.4202 7.14202 13.4765 6.94254C13.5363 6.72395 13.7143 6.61014 14.067 6.51322C14.3048 6.44898 14.6969 6.31037 14.9719 6.10528C15.1082 6.00276 15.2096 5.88895 15.2175 5.77626C15.2096 5.6636 15.1127 5.55201 14.9809 5.45287C14.7206 5.25455 14.3442 5.11931 14.111 5.05507C13.8056 4.97171 13.6185 4.90072 13.5149 4.7204C13.4033 4.52434 13.4484 4.31926 13.6309 3.99922C13.7549 3.78173 13.9385 3.4054 13.9881 3.06846C14.0129 2.90055 14.0039 2.75068 13.9273 2.66279C13.8461 2.59179 13.703 2.58054 13.543 2.60082C13.2286 2.63802 12.8827 2.79238 12.681 2.90619C12.5492 2.98057 12.4038 3.07184 12.2584 3.11127C11.9215 3.20592 11.7119 3.10114 11.5654 2.5749C11.4966 2.32589 11.358 1.90897 11.1495 1.62387ZM15.9983 13.5615C16.271 13.8534 16.608 14.0867 16.9933 14.2421C17.1466 14.303 17.2198 14.4765 17.159 14.6287C17.0981 14.7808 16.9246 14.8551 16.7725 14.7943C16.3826 14.6377 16.0333 14.4145 15.7369 14.1396C14.9887 14.9419 14.3239 15.7724 13.8754 16.7798C13.8416 16.8564 13.8078 16.9341 13.7762 17.013C14.0444 16.7922 14.3566 16.6107 14.7036 16.4812C15.1927 16.2998 15.6975 16.2445 16.1741 16.2986C16.6722 16.3561 17.1398 16.5319 17.5308 16.8079C17.6153 16.8677 17.7246 16.9274 17.7753 17.0649C17.8294 17.2102 17.772 17.3613 17.7573 17.4176C17.6413 17.8818 17.4012 18.3202 17.0609 18.6875C16.733 19.0413 16.315 19.3287 15.8259 19.5101C15.2997 19.705 14.7566 19.7546 14.2495 19.6791C13.8855 19.6239 13.5407 19.5067 13.232 19.3309C13.1846 19.7907 13.161 20.2876 13.161 20.833C13.161 20.9975 13.0269 21.1305 12.8623 21.1305C12.6978 21.1305 12.5649 20.9975 12.5649 20.833C12.5649 19.0031 12.8285 17.6689 13.3322 16.5375C13.4652 16.24 13.6128 15.9583 13.7774 15.6856C13.6094 15.6529 13.4449 15.5988 13.2872 15.5222C12.9694 15.3701 12.6798 15.1335 12.4567 14.8214C12.2482 14.5295 12.1209 14.2061 12.0713 13.8816C12.0217 13.5604 12.0488 13.2371 12.1491 12.9395C12.1829 12.8381 12.2178 12.7254 12.3226 12.6443C12.3924 12.5914 12.4893 12.579 12.6054 12.5767C12.9344 12.5699 13.2691 12.65 13.5734 12.81C13.8652 12.9621 14.13 13.1874 14.3374 13.4781C14.5402 13.761 14.6653 14.0742 14.7182 14.3897C14.9132 14.1587 15.1194 13.9289 15.338 13.6956C15.2783 13.6156 15.2231 13.5334 15.1701 13.4489C14.7554 12.7761 14.61 12.0167 14.6821 11.238C14.7351 10.6656 14.8884 10.1517 15.098 9.77425C15.3188 9.37871 15.6862 8.99224 16.1741 9.04519C16.5301 9.08351 16.8232 9.35168 17.0226 9.7686C17.1432 10.021 17.2311 10.3354 17.2772 10.6881C17.5826 10.5078 17.8858 10.3839 18.1595 10.323C18.626 10.2193 19.0295 10.2937 19.2774 10.5732C19.5242 10.8526 19.5489 11.2617 19.3901 11.7124C19.2965 11.9772 19.1365 12.2623 18.9213 12.544C19.2639 12.6319 19.5647 12.7581 19.8013 12.9091C20.2059 13.166 20.4391 13.5041 20.4166 13.8759C20.3929 14.2511 20.1158 14.561 19.6763 14.7683C19.2954 14.9475 18.7771 15.0534 18.2058 15.0546C18.0412 15.0546 17.9083 14.9216 17.9083 14.7582C17.9083 14.5937 18.0412 14.4607 18.2058 14.4607C18.6892 14.4596 19.1174 14.374 19.425 14.2297C19.6639 14.117 19.8137 13.9807 19.8216 13.841C19.8306 13.7024 19.7022 13.5502 19.4824 13.4105C19.2018 13.2314 18.7939 13.0939 18.3207 13.0319C18.1573 13.0105 18.0435 12.8618 18.0637 12.6984C18.0728 12.6319 18.1032 12.5733 18.1471 12.5293V12.5282C18.4807 12.1891 18.7173 11.8296 18.8288 11.5152C18.9156 11.2684 18.9235 11.0701 18.8322 10.9665C18.741 10.8628 18.5415 10.847 18.2868 10.9033C17.9612 10.9754 17.5758 11.1659 17.1972 11.4566C17.0676 11.5569 16.8817 11.5321 16.7814 11.4025C16.7341 11.3405 16.7205 11.2797 16.7194 11.2053C16.7138 10.7376 16.627 10.323 16.4839 10.0244C16.3757 9.79674 16.245 9.65248 16.1121 9.63674C16.1042 9.63674 16.0952 9.63563 16.0873 9.63448C15.9329 9.63448 15.765 9.79674 15.6174 10.0626C15.4303 10.3996 15.2974 10.8807 15.2647 11.4239C15.2286 12.0268 15.3571 12.6195 15.676 13.1367C15.7696 13.2877 15.8777 13.4308 15.9983 13.5615ZM5.64498 13.5232C5.65063 13.5165 5.65623 13.5108 5.66303 13.5041C6.13179 12.9688 6.39097 12.2465 6.34589 11.4431C6.34478 11.4307 6.34363 11.4183 6.34363 11.407C6.30984 10.8706 6.17798 10.3962 5.99206 10.0627C5.84446 9.79682 5.67654 9.63456 5.52219 9.63456C5.51432 9.63567 5.50529 9.63682 5.49738 9.63682C5.36441 9.6526 5.23371 9.79682 5.12554 10.0244C4.9847 10.3197 4.89792 10.7287 4.89005 11.1896C4.88778 11.2707 4.88103 11.3316 4.82808 11.4025C4.72778 11.5321 4.54186 11.5569 4.41227 11.4566C4.03367 11.1659 3.64827 10.9755 3.32262 10.9034C3.06793 10.847 2.86849 10.8628 2.77722 10.9665C2.68595 11.0701 2.69382 11.2685 2.7806 11.5153C2.88988 11.824 3.11977 12.1767 3.44542 12.5114C3.49952 12.5666 3.53446 12.6162 3.54571 12.6985C3.56599 12.8618 3.45217 13.0106 3.28879 13.032C2.81554 13.094 2.40761 13.2314 2.12704 13.4106C1.90729 13.5503 1.77885 13.7025 1.78787 13.841C1.7969 13.9977 1.98055 14.1487 2.27015 14.2658C2.76371 14.4664 3.16707 14.4518 3.68317 14.4518C4.48549 14.3976 5.17173 14.054 5.64498 13.5232ZM13.5429 14.9869C13.7199 15.0715 13.908 15.1188 14.0951 15.1267C14.1481 14.9475 14.1639 14.7526 14.1413 14.5576C14.112 14.3052 14.0163 14.0505 13.8528 13.8229C13.7007 13.6099 13.5092 13.4466 13.2985 13.3361C13.108 13.2359 12.9029 13.1806 12.699 13.1716C12.6415 13.3677 12.628 13.5795 12.6606 13.7936C12.6967 14.0291 12.7891 14.2646 12.9412 14.4764C13.1046 14.7053 13.3142 14.8777 13.5429 14.9869ZM7.5144 15.1267C7.70148 15.1188 7.88962 15.0715 8.06656 14.987C8.29529 14.8777 8.50491 14.7053 8.66829 14.4765C8.82042 14.2647 8.9128 14.0292 8.94886 13.7937C8.98154 13.5796 8.96802 13.3677 8.91054 13.1717C8.70657 13.1807 8.50153 13.2359 8.31104 13.3362C8.10031 13.4455 7.90878 13.61 7.7555 13.823C7.59323 14.0506 7.49747 14.3053 7.46813 14.5577C7.44567 14.7526 7.46145 14.9475 7.5144 15.1267ZM13.3525 18.7044C13.6376 18.9038 13.9745 19.0357 14.3351 19.0898C14.7464 19.1506 15.1881 19.1101 15.6186 18.9512C16.0209 18.8013 16.3612 18.5692 16.6249 18.2853C16.893 17.9957 17.0823 17.6508 17.1759 17.2869C16.8682 17.0717 16.5009 16.9353 16.1088 16.8902C15.7223 16.8463 15.311 16.8925 14.911 17.0401C14.4794 17.2001 14.1177 17.457 13.8472 17.7714C13.6083 18.0475 13.4393 18.3675 13.3525 18.7044Z" fill="#374151"/>
</g>
<defs>
<clipPath id="clip0_2562_28596">
<rect width="20.3531" height="20.3531" fill="white" transform="translate(0.628906 0.785156)"/>
</clipPath>
</defs>
</svg>
