<svg width="869" height="192" viewBox="0 0 869 192" fill="none" xmlns="http://www.w3.org/2000/svg">
<path d="M218.74 146.393C216.687 146.393 214.96 145.74 213.56 144.433C212.253 143.033 211.6 141.306 211.6 139.253V76.8129C211.6 74.6663 212.253 72.9396 213.56 71.6329C214.96 70.3263 216.687 69.6729 218.74 69.6729C220.887 69.6729 222.613 70.3263 223.92 71.6329C225.227 72.9396 225.88 74.6663 225.88 76.8129V78.3529C228.773 75.4596 232.273 73.1729 236.38 71.4929C240.487 69.8129 244.92 68.9729 249.68 68.9729C256.12 68.9729 261.86 70.3729 266.9 73.1729C272.033 75.8796 276.047 79.8929 278.94 85.2129C281.927 90.5329 283.42 97.0663 283.42 104.813V139.253C283.42 141.306 282.72 143.033 281.32 144.433C280.013 145.74 278.333 146.393 276.28 146.393C274.227 146.393 272.5 145.74 271.1 144.433C269.793 143.033 269.14 141.306 269.14 139.253V104.813C269.14 96.8796 266.993 91.0929 262.7 87.4529C258.5 83.7196 253.227 81.8529 246.88 81.8529C242.96 81.8529 239.413 82.6463 236.24 84.2329C233.067 85.8196 230.547 87.9663 228.68 90.6729C226.813 93.2863 225.88 96.3196 225.88 99.7729V139.253C225.88 141.306 225.227 143.033 223.92 144.433C222.613 145.74 220.887 146.393 218.74 146.393ZM218.74 118.393C216.687 118.393 214.96 117.74 213.56 116.433C212.253 115.033 211.6 113.306 211.6 111.253V44.0529C211.6 41.9063 212.253 40.1796 213.56 38.8729C214.96 37.5663 216.687 36.9129 218.74 36.9129C220.887 36.9129 222.613 37.5663 223.92 38.8729C225.227 40.1796 225.88 41.9063 225.88 44.0529V111.253C225.88 113.306 225.227 115.033 223.92 116.433C222.613 117.74 220.887 118.393 218.74 118.393ZM337.546 146.813C329.8 146.813 322.893 145.18 316.826 141.913C310.853 138.553 306.14 133.98 302.686 128.193C299.326 122.313 297.646 115.593 297.646 108.033C297.646 100.38 299.233 93.6596 302.406 87.8729C305.673 81.9929 310.153 77.4196 315.846 74.1529C321.54 70.7929 328.073 69.1129 335.446 69.1129C342.726 69.1129 348.98 70.7463 354.206 74.0129C359.433 77.1863 363.4 81.6196 366.106 87.3129C368.906 92.9129 370.306 99.3996 370.306 106.773C370.306 108.546 369.7 110.04 368.486 111.253C367.273 112.373 365.733 112.933 363.866 112.933H310.666C311.693 119.373 314.633 124.646 319.486 128.753C324.433 132.766 330.453 134.773 337.546 134.773C340.44 134.773 343.38 134.26 346.366 133.233C349.446 132.113 351.92 130.853 353.786 129.453C355.186 128.426 356.68 127.913 358.266 127.913C359.946 127.82 361.393 128.286 362.606 129.313C364.193 130.713 365.033 132.253 365.126 133.933C365.22 135.613 364.473 137.06 362.886 138.273C359.713 140.793 355.746 142.846 350.986 144.433C346.32 146.02 341.84 146.813 337.546 146.813ZM335.446 81.1529C328.54 81.1529 322.986 83.0663 318.786 86.8929C314.586 90.7196 311.926 95.6663 310.806 101.733H357.426C356.586 95.7596 354.3 90.8596 350.566 87.0329C346.833 83.1129 341.793 81.1529 335.446 81.1529ZM378.961 146.253C377.095 146.253 375.601 145.693 374.481 144.573C373.455 143.36 372.941 141.913 372.941 140.233C372.941 138.553 373.595 136.873 374.901 135.193L396.601 108.033L373.501 80.7329C372.288 79.2396 371.635 77.6529 371.541 75.9729C371.448 74.1996 371.915 72.7063 372.941 71.4929C373.968 70.2796 375.508 69.6729 377.561 69.6729C379.801 69.6729 381.575 70.4663 382.881 72.0529L405.841 99.4929L426.421 72.0529C427.168 71.1196 427.961 70.5129 428.801 70.2329C429.641 69.8596 430.575 69.6729 431.601 69.6729C433.655 69.6729 435.195 70.3263 436.221 71.6329C437.248 72.8463 437.715 74.3396 437.621 76.1129C437.621 77.8863 436.968 79.6129 435.661 81.2929L414.521 108.873L436.781 135.473C438.181 137.153 438.835 138.833 438.741 140.513C438.741 142.1 438.135 143.453 436.921 144.573C435.801 145.693 434.308 146.253 432.441 146.253C431.508 146.253 430.621 146.113 429.781 145.833C428.941 145.553 428.148 144.946 427.401 144.013L405.141 117.413L384.001 144.013C382.601 145.506 380.921 146.253 378.961 146.253ZM475.958 146.813C469.145 146.813 463.032 145.133 457.618 141.773C452.205 138.32 447.912 133.7 444.738 127.913C441.658 122.033 440.118 115.406 440.118 108.033C440.118 100.66 441.798 94.0329 445.158 88.1529C448.612 82.2729 453.232 77.6529 459.018 74.2929C464.898 70.8396 471.478 69.1129 478.758 69.1129C486.038 69.1129 492.572 70.8396 498.358 74.2929C504.145 77.6529 508.718 82.2729 512.078 88.1529C515.532 94.0329 517.258 100.66 517.258 108.033V139.253C517.258 141.306 516.558 143.033 515.158 144.433C513.852 145.74 512.172 146.393 510.118 146.393C508.065 146.393 506.338 145.74 504.938 144.433C503.632 143.033 502.978 141.306 502.978 139.253V134.073C499.712 137.993 495.745 141.12 491.078 143.453C486.505 145.693 481.465 146.813 475.958 146.813ZM478.758 134.213C483.518 134.213 487.765 133.093 491.498 130.853C495.232 128.52 498.172 125.393 500.318 121.473C502.465 117.46 503.538 112.98 503.538 108.033C503.538 102.993 502.465 98.5129 500.318 94.5929C498.172 90.5796 495.232 87.4529 491.498 85.2129C487.765 82.8796 483.518 81.7129 478.758 81.7129C474.092 81.7129 469.845 82.8796 466.018 85.2129C462.285 87.4529 459.298 90.5796 457.058 94.5929C454.912 98.5129 453.838 102.993 453.838 108.033C453.838 112.98 454.912 117.46 457.058 121.473C459.298 125.393 462.285 128.52 466.018 130.853C469.845 133.093 474.092 134.213 478.758 134.213ZM551.111 146.253C547.004 146.253 543.364 145.133 540.191 142.893C537.018 140.653 534.544 137.62 532.771 133.793C530.998 129.873 530.111 125.393 530.111 120.353V43.9129C530.111 41.8596 530.764 40.1796 532.071 38.8729C533.378 37.5663 535.058 36.9129 537.111 36.9129C539.164 36.9129 540.844 37.5663 542.151 38.8729C543.458 40.1796 544.111 41.8596 544.111 43.9129V120.353C544.111 123.806 544.764 126.653 546.071 128.893C547.378 131.133 549.058 132.253 551.111 132.253H554.611C556.478 132.253 557.971 132.906 559.091 134.213C560.304 135.52 560.911 137.2 560.911 139.253C560.911 141.306 560.024 142.986 558.251 144.293C556.478 145.6 554.191 146.253 551.391 146.253H551.111ZM583.004 179.853C582.07 179.853 580.95 179.573 579.644 179.013C575.537 177.146 574.417 174.206 576.284 170.193L590.284 138.693L558.784 78.9129C557.85 77.1396 557.71 75.4596 558.364 73.8729C559.11 72.1929 560.37 70.9796 562.144 70.2329C563.917 69.4863 565.597 69.4396 567.184 70.0929C568.77 70.6529 569.984 71.8196 570.824 73.5929L596.444 124.553L618.984 73.7329C620.85 69.8129 623.79 68.6929 627.804 70.3729C632.004 72.1463 633.17 75.0863 631.304 79.1929L588.464 175.513C587.344 178.406 585.524 179.853 583.004 179.853ZM667.012 146.253C662.346 146.253 658.146 145.086 654.412 142.753C650.679 140.326 647.739 137.06 645.592 132.953C643.446 128.846 642.372 124.226 642.372 119.093V84.5129H635.932C633.972 84.5129 632.386 83.9529 631.172 82.8329C629.959 81.7129 629.352 80.3129 629.352 78.6329C629.352 76.7663 629.959 75.2729 631.172 74.1529C632.386 73.0329 633.972 72.4729 635.932 72.4729H642.372V52.3129C642.372 50.2596 643.026 48.5796 644.332 47.2729C645.639 45.9663 647.319 45.3129 649.372 45.3129C651.426 45.3129 653.106 45.9663 654.412 47.2729C655.719 48.5796 656.372 50.2596 656.372 52.3129V72.4729H668.272C670.232 72.4729 671.819 73.0329 673.032 74.1529C674.246 75.2729 674.852 76.7663 674.852 78.6329C674.852 80.3129 674.246 81.7129 673.032 82.8329C671.819 83.9529 670.232 84.5129 668.272 84.5129H656.372V119.093C656.372 122.826 657.399 125.953 659.452 128.473C661.506 130.993 664.026 132.253 667.012 132.253H671.772C673.452 132.253 674.852 132.906 675.972 134.213C677.186 135.52 677.792 137.2 677.792 139.253C677.792 141.306 676.999 142.986 675.412 144.293C673.919 145.6 671.959 146.253 669.532 146.253H667.012ZM698.284 146.253C696.23 146.253 694.504 145.6 693.104 144.293C691.797 142.893 691.144 141.166 691.144 139.113V76.8129C691.144 74.6663 691.797 72.9396 693.104 71.6329C694.504 70.3263 696.23 69.6729 698.284 69.6729C700.43 69.6729 702.157 70.3263 703.464 71.6329C704.77 72.9396 705.424 74.6663 705.424 76.8129V139.113C705.424 141.166 704.77 142.893 703.464 144.293C702.157 145.6 700.43 146.253 698.284 146.253ZM698.284 57.2129C695.764 57.2129 693.57 56.3263 691.704 54.5529C689.93 52.6863 689.044 50.4929 689.044 47.9729C689.044 45.4529 689.93 43.3063 691.704 41.5329C693.57 39.6663 695.764 38.7329 698.284 38.7329C700.804 38.7329 702.95 39.6663 704.724 41.5329C706.59 43.3063 707.524 45.4529 707.524 47.9729C707.524 50.4929 706.59 52.6863 704.724 54.5529C702.95 56.3263 700.804 57.2129 698.284 57.2129ZM761.11 146.813C753.643 146.813 746.97 145.133 741.09 141.773C735.303 138.32 730.73 133.7 727.37 127.913C724.103 122.033 722.47 115.406 722.47 108.033C722.47 100.473 724.103 93.7529 727.37 87.8729C730.637 81.9929 735.117 77.4196 740.81 74.1529C746.503 70.7929 753.037 69.1129 760.41 69.1129C771.423 69.1129 780.57 73.3129 787.85 81.7129C789.157 83.2063 789.623 84.7463 789.25 86.3329C788.877 87.9196 787.85 89.3196 786.17 90.5329C784.863 91.4663 783.417 91.7929 781.83 91.5129C780.243 91.1396 778.797 90.2996 777.49 88.9929C772.917 84.1396 767.223 81.7129 760.41 81.7129C753.223 81.7129 747.39 84.1396 742.91 88.9929C738.43 93.7529 736.19 100.1 736.19 108.033C736.19 113.073 737.217 117.553 739.27 121.473C741.417 125.393 744.357 128.52 748.09 130.853C751.823 133.093 756.163 134.213 761.11 134.213C767.457 134.213 772.59 132.58 776.51 129.313C778.003 128.1 779.543 127.446 781.13 127.353C782.717 127.166 784.117 127.586 785.33 128.613C786.917 129.92 787.803 131.413 787.99 133.093C788.177 134.68 787.617 136.126 786.31 137.433C779.59 143.686 771.19 146.813 761.11 146.813ZM832.732 146.813C826.199 146.813 820.132 145.833 814.532 143.873C809.025 141.82 804.732 139.253 801.652 136.173C800.252 134.68 799.645 133 799.832 131.133C800.112 129.173 801.045 127.586 802.632 126.373C804.499 124.88 806.319 124.273 808.092 124.553C809.959 124.74 811.545 125.533 812.852 126.933C814.439 128.706 816.959 130.386 820.412 131.973C823.959 133.466 827.879 134.213 832.172 134.213C837.585 134.213 841.692 133.326 844.492 131.553C847.385 129.78 848.879 127.493 848.972 124.693C849.065 121.893 847.712 119.466 844.912 117.413C842.205 115.36 837.212 113.68 829.932 112.373C820.505 110.506 813.645 107.706 809.352 103.973C805.152 100.24 803.052 95.6663 803.052 90.2529C803.052 85.4929 804.452 81.5729 807.252 78.4929C810.052 75.3196 813.645 72.9863 818.032 71.4929C822.419 69.9063 826.992 69.1129 831.752 69.1129C837.912 69.1129 843.372 70.0929 848.132 72.0529C852.892 74.0129 856.672 76.7196 859.472 80.1729C860.779 81.6663 861.385 83.2529 861.292 84.9329C861.199 86.5196 860.405 87.8729 858.912 88.9929C857.419 90.0196 855.645 90.3463 853.592 89.9729C851.539 89.5996 849.812 88.7596 848.412 87.4529C846.079 85.2129 843.559 83.6729 840.852 82.8329C838.145 81.9929 835.019 81.5729 831.472 81.5729C827.365 81.5729 823.865 82.2729 820.972 83.6729C818.172 85.0729 816.772 87.1263 816.772 89.8329C816.772 91.5129 817.192 93.0529 818.032 94.4529C818.965 95.7596 820.739 96.9729 823.352 98.0929C825.965 99.1196 829.792 100.146 834.832 101.173C845.379 103.226 852.659 106.166 856.672 109.993C860.779 113.726 862.832 118.346 862.832 123.853C862.832 128.146 861.665 132.02 859.332 135.473C857.092 138.926 853.732 141.68 849.252 143.733C844.865 145.786 839.359 146.813 832.732 146.813Z" fill="white"/>
<path fill-rule="evenodd" clip-rule="evenodd" d="M57.1804 143.305C61.1776 145.452 66.0195 142.556 66.0195 138.019V97.7471C66.0195 92.7765 61.9901 88.7471 57.0195 88.7471H42C37.0294 88.7471 33 92.7765 33 97.7471V126.729C33 128.938 34.2144 130.969 36.1609 132.014L57.1804 143.305Z" fill="#E73369"/>
<path d="M102.897 149.092C104.811 148.037 106 146.024 106 143.838V56C106 51.0294 101.971 47 97 47H82C77.0294 47 73 51.0294 73 56V150.523C73 151.236 73.3881 151.894 74.0132 152.238C81.2275 156.217 89.9783 156.217 97.1927 152.238L102.897 149.092Z" fill="#F2B926"/>
<path d="M144.433 126.86C145.363 125.877 145.801 124.544 145.801 123.19V74C145.801 69.0294 141.772 65 136.801 65H122C117.029 65 113 69.0294 113 74V135.756C113 140.373 117.997 143.26 121.997 140.953L138.989 131.155C141.031 129.977 142.857 128.525 144.433 126.86Z" fill="#59BC49"/>
<path fill-rule="evenodd" clip-rule="evenodd" d="M67.9263 186.104L19.9263 158.255C7.5918 151.099 0 137.917 0 123.657V67.8492C0 53.589 7.5918 40.4073 19.9263 33.2509L67.9263 5.40164C80.3397 -1.80055 95.6603 -1.80054 108.074 5.40164L156.074 33.2509C168.408 40.4072 176 53.589 176 67.8492V123.657C176 137.917 168.408 151.099 156.074 158.255L108.074 186.104C95.6602 193.307 80.3397 193.307 67.9263 186.104ZM100.044 19.241L148.044 47.0902C155.445 51.384 160 59.2931 160 67.8492V123.657C160 132.213 155.445 140.122 148.044 144.416L100.044 172.265C92.5961 176.586 83.4038 176.586 75.9558 172.265L27.9558 144.416C20.5551 140.122 16 132.213 16 123.657V67.8492C16 59.2931 20.5551 51.384 27.9558 47.0902L75.9558 19.241C83.4038 14.9197 92.5962 14.9197 100.044 19.241Z" fill="white"/>
</svg>
