<svg width="13" height="12" viewBox="0 0 13 12" fill="none" xmlns="http://www.w3.org/2000/svg">
<path d="M11.3595 5.64644L10.3582 4.64643L6.85394 1.14639C6.76006 1.05266 6.63275 1 6.5 1C6.36726 1 6.23994 1.05266 6.14607 1.14639L2.64176 4.64643L1.64053 5.64644C1.54934 5.74075 1.49888 5.86705 1.50002 5.99815C1.50116 6.12925 1.55381 6.25465 1.64663 6.34736C1.73944 6.44006 1.86501 6.49265 1.99627 6.49379C2.12752 6.49493 2.25398 6.44453 2.3484 6.35345L2.49508 6.20695V9.99999C2.49508 10.2652 2.60057 10.5196 2.78833 10.7071C2.9761 10.8946 3.23077 11 3.49631 11H4.99815C5.13093 11 5.25826 10.9473 5.35214 10.8536C5.44603 10.7598 5.49877 10.6326 5.49877 10.5V8.49997C5.49877 8.36736 5.55151 8.24019 5.6454 8.14642C5.73928 8.05265 5.86661 7.99997 5.99938 7.99997H7.00062C7.13339 7.99997 7.26072 8.05265 7.3546 8.14642C7.44849 8.24019 7.50123 8.36736 7.50123 8.49997V10.5C7.50123 10.6326 7.55397 10.7598 7.64786 10.8536C7.74174 10.9473 7.86907 11 8.00185 11H9.50369C9.76923 11 10.0239 10.8946 10.2117 10.7071C10.3994 10.5196 10.5049 10.2652 10.5049 9.99999V6.20695L10.6516 6.35345C10.746 6.44453 10.8725 6.49493 11.0037 6.49379C11.135 6.49265 11.2606 6.44006 11.3534 6.34736C11.4462 6.25465 11.4988 6.12925 11.5 5.99815C11.5011 5.86705 11.4507 5.74075 11.3595 5.64644Z" fill="#4B586E"/>
</svg>
