<svg width="92" height="21" viewBox="0 0 92 21" fill="none" xmlns="http://www.w3.org/2000/svg">
<path fill-rule="evenodd" clip-rule="evenodd" d="M82.3045 9.29076C72.3432 16.691 57.8704 20.6195 45.4263 20.6195C27.9863 20.6195 12.2722 14.1329 0.403304 3.35231C-0.535305 2.49961 0.312471 1.34237 1.43275 2.01235C14.2705 9.50394 30.1057 14.0415 46.486 14.0415C57.5374 14.0415 69.6787 11.7271 80.8512 6.97629C82.5165 6.21495 83.9395 8.07262 82.3045 9.29076Z" fill="#FF9900"/>
<path fill-rule="evenodd" clip-rule="evenodd" d="M86.4521 4.53995C85.1804 2.89545 78.0349 3.74815 74.7952 4.14405C73.8263 4.26587 73.6749 3.41316 74.553 2.77364C80.2452 -1.24624 89.601 -0.0889995 90.691 1.25096C91.781 2.62137 90.3882 12.0315 85.0593 16.5387C84.2418 17.2391 83.4546 16.8737 83.8179 15.96C85.0291 12.9451 87.7238 6.15399 86.4521 4.53995Z" fill="#FF9900"/>
</svg>
