<svg width="16" height="17" viewBox="0 0 16 17" fill="none" xmlns="http://www.w3.org/2000/svg">
<g id="vuesax/bulk/location">
<g id="location">
<path id="Vector" opacity="0.4" d="M13.7467 6.13268C13.0467 3.05268 10.3601 1.66602 8.00006 1.66602C8.00006 1.66602 8.00006 1.66602 7.9934 1.66602C5.64006 1.66602 2.94673 3.04602 2.24673 6.12602C1.46673 9.56601 3.5734 12.4793 5.48006 14.3127C6.18673 14.9927 7.0934 15.3327 8.00006 15.3327C8.90673 15.3327 9.8134 14.9927 10.5134 14.3127C12.4201 12.4793 14.5267 9.57268 13.7467 6.13268Z" fill="#374151"/>
<path id="Vector_2" d="M7.9999 9.47344C9.1597 9.47344 10.0999 8.53324 10.0999 7.37344C10.0999 6.21364 9.1597 5.27344 7.9999 5.27344C6.8401 5.27344 5.8999 6.21364 5.8999 7.37344C5.8999 8.53324 6.8401 9.47344 7.9999 9.47344Z" fill="#374151"/>
</g>
</g>
</svg>
