<svg width="12" height="11" viewBox="0 0 12 11" fill="none" xmlns="http://www.w3.org/2000/svg">
<path opacity="0.4" d="M9.58445 4.04408C9.13923 2.08509 7.43041 1.20312 5.92937 1.20312C5.92937 1.20312 5.92937 1.20312 5.92513 1.20312C4.42833 1.20312 2.71528 2.08085 2.27006 4.03984C1.77395 6.22779 3.11386 8.08077 4.32657 9.24683C4.77603 9.67934 5.3527 9.89559 5.92937 9.89559C6.50604 9.89559 7.08272 9.67934 7.52794 9.24683C8.74064 8.08077 10.0806 6.23203 9.58445 4.04408Z" fill="#374151"/>
<path d="M5.92942 6.16744C6.66709 6.16744 7.26509 5.56944 7.26509 4.83177C7.26509 4.09409 6.66709 3.49609 5.92942 3.49609C5.19175 3.49609 4.59375 4.09409 4.59375 4.83177C4.59375 5.56944 5.19175 6.16744 5.92942 6.16744Z" fill="#374151"/>
</svg>
