<svg width="12" height="11" viewBox="0 0 12 11" fill="none" xmlns="http://www.w3.org/2000/svg">
<path opacity="0.4" d="M9.58445 3.57533C9.13923 1.61634 7.43041 0.734375 5.92937 0.734375C5.92937 0.734375 5.92937 0.734375 5.92513 0.734375C4.42833 0.734375 2.71528 1.6121 2.27006 3.57109C1.77395 5.75904 3.11386 7.61202 4.32657 8.77808C4.77603 9.21059 5.3527 9.42684 5.92937 9.42684C6.50604 9.42684 7.08272 9.21059 7.52794 8.77808C8.74064 7.61202 10.0806 5.76328 9.58445 3.57533Z" fill="white"/>
<path d="M5.92942 5.69869C6.66709 5.69869 7.26509 5.10069 7.26509 4.36302C7.26509 3.62534 6.66709 3.02734 5.92942 3.02734C5.19175 3.02734 4.59375 3.62534 4.59375 4.36302C4.59375 5.10069 5.19175 5.69869 5.92942 5.69869Z" fill="white"/>
</svg>
