<svg width="215" height="34" viewBox="0 0 215 34" fill="none" xmlns="http://www.w3.org/2000/svg">
<g clip-path="url(#clip0_10454_50350)">
<path d="M18.7119 15.9702C18.7119 19.4714 18.7119 22.9726 18.732 26.4739C18.732 26.8355 18.6164 27.0465 18.3 27.2123C14.4069 29.2517 10.5189 31.2962 6.63089 33.3407C6.6108 33.3507 6.58066 33.3356 6.46512 33.3156V32.3611C6.46512 29.2015 6.47015 26.0368 6.45508 22.8772C6.45508 22.4753 6.5254 22.2041 6.91722 22.0031C9.18272 20.8377 11.4382 19.6523 13.6936 18.4718C15.2207 17.648 16.7478 16.8241 18.2748 15.9953C18.4255 15.9149 18.5662 15.8898 18.7119 15.9802V15.9702Z" fill="#016938"/>
<path d="M0.0351629 17.6831C0.0251164 14.1317 0.0251164 10.5802 0 7.02373C0 6.65201 0.135628 6.43601 0.437025 6.28029C3.92318 4.46689 7.4043 2.64846 10.8905 0.835061C11.001 0.779805 11.1215 0.744642 11.3174 0.674316V5.58205C11.3174 7.43564 11.3124 9.29425 11.3225 11.1478C11.3225 11.5397 11.2823 11.826 10.8704 12.0319C8.92133 13.0165 6.98737 14.0362 5.04839 15.0459C3.40076 15.9702 1.7481 16.8844 0.0301396 17.6831H0.0351629Z" fill="#019049"/>
<path d="M35.5547 26.6346C34.6706 26.6346 33.8669 26.6195 33.0632 26.6396C32.6915 26.6496 32.581 26.4035 32.4504 26.1423C31.4909 24.2083 30.5214 22.2844 29.5821 20.3454C29.3259 19.813 29.0195 19.5266 28.3865 19.602C27.844 19.6623 27.2864 19.6422 26.7339 19.602C26.1763 19.5618 26.0105 19.7828 26.0206 20.3253C26.0457 22.1538 26.0055 23.9873 26.0457 25.8158C26.0608 26.4387 25.9402 26.6748 25.247 26.6547C23.519 26.6044 23.519 26.6446 23.519 24.9166C23.519 20.2349 23.534 15.5532 23.5039 10.8766C23.5039 10.1934 23.6747 9.98242 24.378 10.0025C26.3169 10.0527 28.2609 9.98744 30.1999 10.0276C33.7665 10.108 36.0068 13.3329 34.7962 16.6081C34.3642 17.7735 33.5454 18.6024 32.4051 19.0545C31.8576 19.2705 31.8877 19.4814 32.1088 19.9034C33.1938 21.978 34.2638 24.0576 35.3337 26.1373C35.404 26.2729 35.4593 26.4135 35.5547 26.6295V26.6346ZM26.0758 14.8751C26.0758 15.5834 26.0859 16.2866 26.0758 16.9949C26.0708 17.3666 26.2165 17.5023 26.5882 17.4922C27.7938 17.4671 29.0044 17.5224 30.205 17.4319C31.7521 17.3114 32.6513 16.2565 32.6011 14.7847C32.5508 13.3681 31.5914 12.3936 30.0794 12.3233C28.929 12.268 27.7737 12.3132 26.6183 12.2881C26.2064 12.2781 26.0608 12.4288 26.0708 12.8306C26.0909 13.5088 26.0758 14.1919 26.0758 14.8701V14.8751Z" fill="#151A1F"/>
<path d="M89.7811 15.8647C90.0524 15.5181 89.6907 14.9706 90.0724 14.9003C90.7054 14.7898 91.3735 14.8551 92.0215 14.9003C92.2274 14.9153 92.1872 15.1966 92.1872 15.3725C92.142 19.3961 92.3128 23.4197 92.0968 27.4434C91.9964 29.3171 90.4844 30.9547 88.5152 31.3615C86.737 31.7282 85.0291 31.5524 83.5271 30.4021C83.1403 30.1057 82.9997 29.8395 83.4769 29.513C83.5221 29.4828 83.5623 29.4477 83.5924 29.4075C84.1148 28.7645 84.5067 28.4933 85.436 29.086C87.4101 30.3418 89.5048 29.1965 89.7962 26.8858C89.8213 26.705 89.8564 26.5191 89.8464 26.3433C89.8263 25.9866 90.0172 25.4893 89.7359 25.3085C89.4395 25.1176 89.2084 25.6149 88.9271 25.7807C87.0083 26.926 83.6627 26.3935 82.9695 23.4499C82.5375 21.6214 82.5275 19.7678 82.8641 17.9343C83.4568 14.7345 87.0233 13.544 89.5098 15.6638C89.5852 15.7291 89.6706 15.7844 89.7811 15.8647ZM89.8213 20.451C89.7811 19.592 89.756 18.728 89.4194 17.9193C89.0527 17.0402 88.2942 16.784 87.4453 16.794C86.6164 16.8041 85.8027 16.9749 85.4611 17.8941C84.8332 19.597 84.8432 21.32 85.4259 23.0229C85.7273 23.902 86.3954 24.1984 87.606 24.1632C88.6358 24.1331 89.123 23.7915 89.4697 22.9174C89.7861 22.1187 89.771 21.2849 89.8213 20.451Z" fill="#151A1F"/>
<path d="M57.7487 25.5796C56.8094 26.3783 55.8198 26.7651 54.6745 26.7601C52.7254 26.75 51.3541 25.8207 50.8568 23.942C50.2791 21.772 50.2992 19.5567 50.8618 17.3766C51.6555 14.3124 55.3777 14.1366 57.0555 15.3422C57.2363 15.4728 57.382 15.7692 57.6332 15.6386C57.8693 15.518 57.7738 15.2116 57.7738 14.9855C57.7789 13.5238 57.7889 12.057 57.7688 10.5952C57.7638 10.1732 57.8592 10.0125 58.3264 10.0024C60.1247 9.96728 60.1247 9.94719 60.1247 11.7254C60.1247 16.3267 60.1247 20.9281 60.1247 25.5294C60.1247 26.8204 60.2704 26.6144 58.9794 26.6345C58.9292 26.6345 58.8739 26.6295 58.8237 26.6345C58.0853 26.735 57.5729 26.5943 57.7537 25.5796H57.7487ZM52.8108 20.2499C52.7405 20.8829 52.8862 21.5057 52.9113 22.1286C52.9214 22.4099 52.9967 22.6963 53.067 22.9725C53.3584 24.0777 54.1119 24.6252 55.3124 24.6202C56.508 24.6202 57.171 24.1178 57.4724 22.9876C57.8391 21.6012 57.8442 20.1947 57.598 18.7932C57.367 17.4721 56.5331 16.7738 55.2923 16.7738C54.0566 16.7738 53.3031 17.3967 53.0218 18.7028C52.9113 19.2101 52.8761 19.7325 52.8108 20.2499Z" fill="#151A1F"/>
<path d="M43.9934 21.4053C42.9184 21.4053 41.8434 21.4204 40.7685 21.4003C40.3214 21.3953 40.2008 21.5158 40.2561 21.993C40.3817 23.0881 40.8086 23.9973 41.8384 24.4193C43.0892 24.9317 44.4103 24.8915 45.4753 24.0174C46.0781 23.5201 46.3393 23.711 46.7662 24.1129C47.7056 24.9819 47.7156 24.9719 46.6105 25.7304C44.3099 27.3077 41.0045 27.0716 39.2665 25.213C38.734 24.6453 38.3874 23.9722 38.2166 23.2338C37.7244 21.0788 37.644 18.9339 38.7943 16.9396C39.8191 15.1564 41.7631 14.3577 43.903 14.7394C45.7767 15.071 47.3138 16.6634 47.6955 18.6425C47.8362 19.3659 47.8663 20.0892 47.8764 20.8226C47.8814 21.2647 47.7357 21.4254 47.2937 21.4204C46.1936 21.4003 45.0935 21.4154 43.9884 21.4154L43.9934 21.4053ZM42.8933 19.7476C43.6267 19.7476 44.3651 19.7426 45.0985 19.7476C45.3848 19.7476 45.5154 19.6823 45.5104 19.3508C45.4803 17.8388 44.35 16.6483 42.9134 16.6332C41.5069 16.6181 40.3967 17.6931 40.2862 19.1197C40.2511 19.5819 40.3214 19.7878 40.8488 19.7527C41.527 19.7075 42.2101 19.7426 42.8933 19.7426V19.7476Z" fill="#151A1F"/>
<path d="M113.189 20.7322C113.109 22.3999 113.064 24.0827 111.737 25.3686C110.281 26.7802 108.558 27.0715 106.669 26.5039C104.76 25.9312 103.771 24.5298 103.494 22.641C103.288 21.2496 103.288 19.843 103.585 18.4415C104.097 16.0404 105.956 14.5686 108.407 14.664C110.934 14.7645 112.737 16.3619 113.039 18.7831C113.119 19.4261 113.244 20.0741 113.189 20.7322ZM110.833 20.692C110.788 20.1093 110.763 19.5366 110.688 18.969C110.517 17.673 109.608 16.8391 108.332 16.7839C107.106 16.7336 106.177 17.467 105.895 18.758C105.619 20.0239 105.649 21.3048 105.855 22.5707C106.076 23.927 107.056 24.6704 108.387 24.6252C109.623 24.585 110.522 23.726 110.688 22.4049C110.758 21.8373 110.783 21.2596 110.828 20.697L110.833 20.692Z" fill="#151A1F"/>
<path d="M118.675 15.9349C119.539 15.2718 120.272 14.8348 121.146 14.7243C123.879 14.3676 125.828 15.9248 125.928 18.6876C126.014 21.1691 125.943 23.6556 125.958 26.1422C125.958 26.5038 125.858 26.6244 125.476 26.6445C123.597 26.745 123.597 26.755 123.597 24.8663C123.597 23.0076 123.623 21.1541 123.587 19.2954C123.567 18.2757 123.201 17.3916 122.181 16.9596C121.186 16.5377 120.096 16.7888 119.363 17.5423C118.8 18.12 118.765 18.8534 118.76 19.5818C118.75 21.7016 118.74 23.8164 118.765 25.9362C118.77 26.4737 118.624 26.6495 118.062 26.6445C116.369 26.6294 116.369 26.6545 116.369 24.9717C116.369 21.8573 116.389 18.7479 116.354 15.6335C116.344 14.9553 116.565 14.7444 117.198 14.8348C117.404 14.8649 117.62 14.8649 117.826 14.8348C118.524 14.7243 118.86 14.9704 118.67 15.9298L118.675 15.9349Z" fill="#151A1F"/>
<path d="M72.2896 15.7792C72.6915 15.7741 72.8371 15.528 73.0481 15.3974C74.4948 14.5083 75.9968 14.3777 77.5138 15.1512C78.9454 15.8796 79.498 17.1606 79.5131 18.6927C79.5332 21.149 79.5131 23.6054 79.5332 26.0618C79.5332 26.4888 79.4327 26.6395 78.9706 26.6495C77.1722 26.6847 77.1722 26.7048 77.1722 24.9416C77.1722 22.9825 77.1923 21.0235 77.1572 19.0644C77.1371 17.7734 76.3936 16.9847 75.1177 16.7888C74.0277 16.618 72.8874 17.3112 72.5156 18.3511C72.38 18.7328 72.4152 19.1247 72.4152 19.5114C72.4051 21.6514 72.3951 23.7963 72.4202 25.9362C72.4252 26.4787 72.2796 26.6495 71.722 26.6495C70.0542 26.6395 70.0542 26.6646 70.0542 24.9717C70.0542 21.8372 70.0693 18.7027 70.0392 15.5682C70.0341 14.9754 70.1999 14.7494 70.7876 14.8448C70.9132 14.8649 71.0489 14.8448 71.1795 14.8448C71.8124 14.8549 72.6463 14.5987 72.2946 15.7792H72.2896Z" fill="#151A1F"/>
<path d="M18.7119 15.97C18.5612 15.8796 18.4205 15.9047 18.2749 15.9851C16.7478 16.8139 15.2207 17.6377 13.6936 18.4616C13.769 17.9944 13.337 17.9944 13.0959 17.8638C11.6291 17.0701 10.1422 16.3116 8.66031 15.543C8.50459 15.4627 8.26849 15.4325 8.27352 15.2165C8.27352 15.0055 8.51463 14.9654 8.66533 14.885C10.0065 14.1867 11.3427 13.4785 12.694 12.8104C13.1963 12.5592 13.4123 12.2427 13.3973 11.655C13.3571 10.0928 13.3822 8.52552 13.3822 6.9231C13.9096 6.96328 14.2713 7.28477 14.6732 7.49575C15.7833 8.07343 16.8784 8.67622 17.9885 9.25892C18.4909 9.52515 18.747 9.86673 18.732 10.4846C18.6868 12.308 18.7119 14.1365 18.7069 15.965L18.7119 15.97Z" fill="#59B557"/>
<path d="M0.0363004 17.6831C1.75426 16.8844 3.40692 15.9702 5.05455 15.0459C4.95911 15.5181 5.40116 15.5231 5.63725 15.6487C7.05884 16.4173 8.50052 17.1456 9.92713 17.8991C10.113 17.9996 10.4546 17.9996 10.4244 18.306C10.3993 18.5722 10.0929 18.5974 9.89196 18.7028C8.18907 19.607 6.50125 20.5313 4.77827 21.3953C4.33622 21.6163 4.25585 21.8826 4.26087 22.3045C4.28097 23.3494 4.25083 24.3942 4.27092 25.434C4.28097 25.9313 4.0499 25.9715 3.69827 25.7857C2.59315 25.203 1.5031 24.5901 0.38793 24.0225C0.0212306 23.8366 0.0312771 23.5603 0.0312771 23.2439C0.0312771 21.3903 0.0363004 19.5367 0.0413237 17.6881L0.0363004 17.6831Z" fill="#59B557"/>
<path d="M96.2267 20.3907C96.2267 19.4262 96.2066 18.4567 96.2368 17.4923C96.2518 17.0151 96.1564 16.7137 95.6038 16.8091C94.9207 16.9297 94.8956 16.5127 94.9358 16.0204C94.9709 15.5483 94.7097 14.8902 95.6239 15.0258C96.1062 15.0962 96.2619 14.8952 96.2418 14.413C96.2066 13.6043 96.2267 12.7955 96.2418 11.9817C96.2418 11.7959 96.1363 11.4895 96.4377 11.4694C97.0907 11.4292 97.7488 11.4141 98.3968 11.4694C98.6881 11.4945 98.6078 11.8461 98.6128 12.0621C98.6228 12.8457 98.6429 13.6294 98.6128 14.413C98.5877 14.9053 98.7735 15.071 99.2457 15.0208C99.5069 14.9907 99.7732 15.0459 100.029 15.0108C100.758 14.9053 100.939 15.2067 100.944 15.915C100.944 16.6383 100.743 16.8493 100.024 16.8242C98.6279 16.7739 98.6228 16.8141 98.6228 18.2206C98.6228 19.8381 98.6128 21.4607 98.6228 23.0781C98.6329 24.2787 98.9745 24.6303 100.175 24.6002C100.753 24.5851 101.014 24.7208 100.913 25.3286C100.878 25.5345 100.883 25.7505 100.913 25.9565C100.989 26.5241 100.738 26.6497 100.2 26.6547C97.794 26.6648 96.6437 25.861 96.277 23.8417C96.2368 23.6106 96.2368 23.3745 96.2368 23.1384C96.2368 22.2242 96.2368 21.31 96.2368 20.3957L96.2267 20.3907Z" fill="#151A1F"/>
<path d="M63.8655 20.6821C63.8655 18.929 63.8756 17.1809 63.8555 15.4278C63.8555 15.0008 63.961 14.8451 64.4231 14.83C66.2566 14.7748 66.2566 14.7597 66.2566 16.5932C66.2566 19.7026 66.2465 22.817 66.2666 25.9264C66.2666 26.4539 66.1461 26.6548 65.5684 26.6498C63.8605 26.6397 63.8605 26.6649 63.8605 24.9971C63.8605 23.5605 63.8605 22.1238 63.8605 20.6821H63.8655Z" fill="#151A1F"/>
<path d="M66.2863 11.1729C66.2863 12.4991 66.2863 12.5041 64.9752 12.494C63.6239 12.489 63.7947 12.6548 63.7897 11.2633C63.7847 9.95728 63.7897 9.95728 65.1259 9.95728C65.8995 9.95728 66.2863 10.3625 66.2863 11.1729Z" fill="#151A1F"/>
</g>
<path d="M138.188 0.871094V33.1287" stroke="#585858" stroke-width="0.864502"/>
<g clip-path="url(#clip1_10454_50350)">
<path d="M166.539 12.3482C166.539 13.0478 166.613 13.6151 166.743 14.0311C166.892 14.4472 167.078 14.901 167.338 15.3927C167.431 15.5439 167.468 15.6952 167.468 15.8276C167.468 16.0167 167.356 16.2058 167.115 16.3949L165.944 17.1891C165.777 17.3026 165.61 17.3593 165.461 17.3593C165.276 17.3593 165.09 17.2647 164.904 17.0946C164.644 16.8109 164.421 16.5083 164.235 16.2058C164.049 15.8843 163.864 15.525 163.659 15.0901C162.21 16.8298 160.39 17.6997 158.198 17.6997C156.637 17.6997 155.392 17.2458 154.482 16.3382C153.572 15.4305 153.107 14.2202 153.107 12.7075C153.107 11.1001 153.665 9.79533 154.798 8.81201C155.931 7.8287 157.436 7.33704 159.349 7.33704C159.981 7.33704 160.631 7.39377 161.319 7.48832C162.006 7.58287 162.712 7.73415 163.455 7.90434V6.52392C163.455 5.08676 163.158 4.08454 162.582 3.49833C161.987 2.91212 160.984 2.62848 159.554 2.62848C158.904 2.62848 158.235 2.70412 157.547 2.8743C156.86 3.04449 156.191 3.2525 155.541 3.51724C155.244 3.64961 155.021 3.72525 154.891 3.76307C154.761 3.80089 154.668 3.8198 154.594 3.8198C154.334 3.8198 154.203 3.6307 154.203 3.23359V2.30701C154.203 2.00445 154.241 1.77753 154.334 1.64516C154.426 1.51279 154.594 1.38042 154.854 1.24805C155.504 0.907675 156.284 0.624027 157.194 0.397108C158.105 0.151279 159.071 0.0378198 160.092 0.0378198C162.303 0.0378198 163.919 0.548387 164.96 1.56952C165.981 2.59066 166.502 4.14127 166.502 6.22136V12.3482H166.539ZM158.996 15.2225C159.609 15.2225 160.241 15.109 160.91 14.8821C161.579 14.6552 162.173 14.2392 162.675 13.6719C162.972 13.3126 163.195 12.9155 163.306 12.4616C163.418 12.0078 163.492 11.4594 163.492 10.8165V10.0222C162.953 9.88988 162.377 9.77642 161.783 9.70078C161.189 9.62514 160.613 9.58732 160.037 9.58732C158.792 9.58732 157.882 9.83315 157.269 10.3437C156.656 10.8543 156.358 11.5729 156.358 12.5184C156.358 13.4071 156.581 14.069 157.046 14.5228C157.492 14.9956 158.142 15.2225 158.996 15.2225ZM173.914 17.2647C173.58 17.2647 173.357 17.208 173.208 17.0756C173.059 16.9622 172.929 16.6974 172.818 16.3382L168.452 1.7208C168.341 1.3426 168.285 1.09677 168.285 0.964405C168.285 0.661847 168.434 0.491657 168.731 0.491657H170.552C170.904 0.491657 171.146 0.548387 171.276 0.680756C171.425 0.794216 171.536 1.05895 171.648 1.41824L174.769 13.9366L177.667 1.41824C177.76 1.04004 177.871 0.794216 178.02 0.680756C178.168 0.567297 178.428 0.491657 178.763 0.491657H180.249C180.602 0.491657 180.843 0.548387 180.992 0.680756C181.141 0.794216 181.271 1.05895 181.345 1.41824L184.28 14.0879L187.494 1.41824C187.605 1.04004 187.736 0.794216 187.866 0.680756C188.014 0.567297 188.256 0.491657 188.59 0.491657H190.318C190.615 0.491657 190.782 0.642937 190.782 0.964405C190.782 1.05895 190.764 1.1535 190.745 1.26696C190.726 1.38042 190.689 1.5317 190.615 1.73971L186.138 16.3571C186.026 16.7353 185.896 16.9811 185.748 17.0946C185.599 17.208 185.358 17.2836 185.042 17.2836H183.444C183.091 17.2836 182.85 17.2269 182.701 17.0946C182.552 16.9622 182.422 16.7164 182.348 16.3382L179.469 4.14127L176.608 16.3192C176.515 16.6974 176.403 16.9433 176.255 17.0756C176.106 17.208 175.846 17.2647 175.512 17.2647H173.914ZM197.786 17.7753C196.82 17.7753 195.854 17.6618 194.925 17.4349C193.996 17.208 193.272 16.9622 192.789 16.6785C192.491 16.5083 192.287 16.3192 192.213 16.1491C192.138 15.9789 192.101 15.7898 192.101 15.6196V14.6552C192.101 14.2581 192.25 14.069 192.528 14.069C192.64 14.069 192.751 14.0879 192.863 14.1257C192.974 14.1635 193.142 14.2392 193.327 14.3148C193.959 14.5984 194.646 14.8254 195.371 14.9766C196.114 15.1279 196.838 15.2036 197.581 15.2036C198.752 15.2036 199.662 14.9956 200.294 14.5795C200.925 14.1635 201.26 13.5584 201.26 12.7831C201.26 12.2536 201.093 11.8187 200.758 11.4594C200.424 11.1001 199.792 10.7786 198.882 10.4761L196.188 9.62514C194.832 9.19021 193.829 8.54728 193.216 7.69633C192.603 6.86429 192.287 5.93771 192.287 4.95439C192.287 4.16018 192.454 3.46051 192.789 2.8554C193.123 2.25028 193.569 1.7208 194.126 1.30478C194.683 0.869855 195.315 0.548387 196.058 0.321468C196.801 0.0945495 197.581 0 198.399 0C198.808 0 199.235 0.0189099 199.644 0.0756396C200.071 0.132369 200.461 0.208009 200.851 0.283648C201.223 0.378198 201.576 0.472748 201.91 0.586207C202.244 0.699666 202.504 0.813126 202.69 0.926585C202.95 1.07786 203.136 1.22914 203.248 1.39933C203.359 1.55061 203.415 1.75862 203.415 2.02336V2.91212C203.415 3.30923 203.266 3.51724 202.987 3.51724C202.839 3.51724 202.597 3.4416 202.282 3.29032C201.223 2.79867 200.034 2.55284 198.715 2.55284C197.656 2.55284 196.82 2.72303 196.244 3.08231C195.668 3.4416 195.371 3.98999 195.371 4.7653C195.371 5.29477 195.557 5.74861 195.928 6.1079C196.3 6.46719 196.987 6.82648 197.972 7.14794L200.61 7.99889C201.947 8.43382 202.913 9.03893 203.489 9.81424C204.065 10.5895 204.344 11.4783 204.344 12.4616C204.344 13.2748 204.176 14.0122 203.861 14.6552C203.526 15.2981 203.08 15.8654 202.504 16.3192C201.929 16.792 201.241 17.1324 200.442 17.3782C199.606 17.6429 198.733 17.7753 197.786 17.7753Z" fill="#191E23"/>
<path fill-rule="evenodd" clip-rule="evenodd" d="M201.296 26.9655C195.184 31.5606 186.304 34 178.669 34C167.968 34 158.327 29.9722 151.044 23.2781C150.468 22.7486 150.989 22.03 151.676 22.446C159.553 27.0979 169.269 29.9154 179.319 29.9154C186.1 29.9154 193.549 28.4783 200.404 25.5283C201.426 25.0556 202.299 26.2091 201.296 26.9655Z" fill="#FF9900"/>
<path fill-rule="evenodd" clip-rule="evenodd" d="M203.842 24.0156C203.062 22.9944 198.677 23.5239 196.69 23.7697C196.095 23.8454 196.002 23.3159 196.541 22.9188C200.034 20.4227 205.774 21.1413 206.443 21.9733C207.111 22.8243 206.257 28.6674 202.987 31.4661C202.486 31.901 202.003 31.6741 202.226 31.1068C202.969 29.2347 204.622 25.0178 203.842 24.0156Z" fill="#FF9900"/>
</g>
<defs>
<clipPath id="clip0_10454_50350">
<rect width="126.084" height="32.6513" fill="white" transform="translate(0 0.674316)"/>
</clipPath>
<clipPath id="clip1_10454_50350">
<rect width="57" height="34" fill="white" transform="translate(150.291)"/>
</clipPath>
</defs>
</svg>
