<svg width="24" height="25" viewBox="0 0 24 25" fill="none" xmlns="http://www.w3.org/2000/svg">
<g id="vuesax/bulk/notification">
<g id="notification">
<path id="Vector" opacity="0.4" d="M18.9116 15.2464L18.913 15.2486C19.2233 15.7578 19.2775 16.3569 19.0721 16.9021C18.8637 17.455 18.4355 17.8722 17.8839 18.0534L17.8839 18.0534L17.8811 18.0543C15.9942 18.6866 14.0079 18.9984 12.0199 18.9984C10.032 18.9984 8.04657 18.6866 6.16098 18.0451L6.15998 18.0447C5.54292 17.8363 5.10185 17.4157 4.92065 16.9098L4.92067 16.9098L4.91923 16.9059C4.7272 16.3836 4.78757 15.801 5.11856 15.2459C5.11879 15.2455 5.11902 15.2451 5.11925 15.2447L6.12778 13.5772L6.12784 13.5772L6.13183 13.5704C6.2675 13.3378 6.38148 13.0265 6.46118 12.7334C6.54078 12.4406 6.59994 12.1154 6.59994 11.8484V9.31844C6.59994 6.33403 9.02664 3.89844 12.0199 3.89844C15.0133 3.89844 17.4399 6.33403 17.4399 9.31844V11.8484C17.4399 12.1154 17.4991 12.4405 17.5786 12.7341C17.6583 13.0288 17.7717 13.3402 17.9051 13.5752L17.905 13.5753L17.9117 13.5864L18.9116 15.2464Z" fill="#91A5C4" stroke="#91A5C4"/>
<g id="Vector_2">
<mask id="path-2-inside-1_4982_534" fill="white">
<path d="M14.2508 3.82C13.5608 3.55 12.8108 3.4 12.0208 3.4C11.2408 3.4 10.4908 3.54 9.80078 3.82C10.2308 3.01 11.0808 2.5 12.0208 2.5C12.9708 2.5 13.8108 3.01 14.2508 3.82Z"/>
</mask>
<path d="M14.2508 3.82C13.5608 3.55 12.8108 3.4 12.0208 3.4C11.2408 3.4 10.4908 3.54 9.80078 3.82C10.2308 3.01 11.0808 2.5 12.0208 2.5C12.9708 2.5 13.8108 3.01 14.2508 3.82Z" fill="#91A5C4"/>
<path d="M14.2508 3.82L13.8864 4.75124L16.4368 5.74922L15.1295 3.34267L14.2508 3.82ZM9.80078 3.82L8.91752 3.35111L7.62753 5.7811L10.1768 4.74661L9.80078 3.82ZM14.6152 2.88876C13.8122 2.57456 12.9388 2.4 12.0208 2.4V4.4C12.6827 4.4 13.3093 4.52544 13.8864 4.75124L14.6152 2.88876ZM12.0208 2.4C11.1207 2.4 10.2421 2.56171 9.42476 2.89339L10.1768 4.74661C10.7395 4.51829 11.3609 4.4 12.0208 4.4V2.4ZM10.684 4.28889C10.9378 3.81096 11.4448 3.5 12.0208 3.5V1.5C10.7168 1.5 9.52381 2.20904 8.91752 3.35111L10.684 4.28889ZM12.0208 3.5C12.6027 3.5 13.1063 3.80814 13.3721 4.29733L15.1295 3.34267C14.5152 2.21186 13.3388 1.5 12.0208 1.5V3.5Z" fill="#91A5C4" mask="url(#path-2-inside-1_4982_534)"/>
</g>
<path id="Vector_3" d="M10.0952 21.1143C10.1457 21.1193 10.1963 21.1239 10.2471 21.1282C10.8286 21.1792 11.423 21.21 12.0197 21.21C12.607 21.21 13.1921 21.1791 13.7642 21.128L13.7642 21.128L13.7671 21.1277C13.8101 21.1237 13.8577 21.1197 13.9083 21.1156C13.4471 21.6572 12.7618 22 11.9997 22C11.3408 22 10.6921 21.7319 10.2395 21.2628L10.2308 21.2538L10.2217 21.2452C10.1779 21.2042 10.1357 21.1604 10.0952 21.1143Z" fill="#91A5C4" stroke="#91A5C4"/>
</g>
</g>
</svg>
