<svg width="163" height="163" viewBox="0 0 163 163" fill="none" xmlns="http://www.w3.org/2000/svg">
<path fill-rule="evenodd" clip-rule="evenodd" d="M82.504 76.1098C85.5572 76.1098 87.7608 73.0518 89.1721 68.4897C93.3959 70.7175 97.1164 71.3217 99.2752 69.1629C101.434 67.0041 100.83 63.2838 98.6018 59.0598C103.164 57.6483 106.222 55.4447 106.222 52.3917C106.222 49.3387 103.164 47.1349 98.6018 45.7236C100.83 41.4998 101.434 37.7795 99.275 35.6207C97.1162 33.4619 93.3959 34.0661 89.1719 36.2939C87.7608 31.7318 85.5572 28.6738 82.504 28.6738C79.4508 28.6738 77.2472 31.7318 75.8359 36.2939C71.6121 34.0661 67.8918 33.4617 65.733 35.6205C63.5742 37.7793 64.1784 41.4998 66.4062 45.7234C61.8441 47.1349 58.7861 49.3385 58.7861 52.3915C58.7861 55.4447 61.8441 57.6483 66.4062 59.0596C64.1784 63.2833 63.5742 67.0039 65.733 69.1627C67.8918 71.3215 71.6121 70.7173 75.8359 68.4895C77.2472 73.0518 79.4508 76.1098 82.504 76.1098Z" fill="#FD7DA0"/>
<path d="M90.0223 53.0135C90.3641 48.8597 87.2738 45.2153 83.1201 44.8736C78.9663 44.5318 75.3219 47.622 74.9802 51.7758C74.6384 55.9296 77.7286 59.5739 81.8824 59.9157C86.0362 60.2575 89.6805 57.1672 90.0223 53.0135Z" fill="white"/>
<path fill-rule="evenodd" clip-rule="evenodd" d="M68.0122 86.0302C66.6822 81.7312 64.6058 78.8496 61.7288 78.8496C58.8517 78.8496 56.7753 81.7314 55.4451 86.0302C51.4648 83.9307 47.9588 83.3615 45.9242 85.3959C43.8898 87.4302 44.4588 90.9362 46.5585 94.9168C42.2597 96.2468 39.3779 98.3234 39.3779 101.2C39.3779 104.077 42.2597 106.154 46.5588 107.484C52.3456 108.712 58.618 107.079 63.1133 102.585C67.6074 98.0897 69.2406 91.817 68.0122 86.0302Z" fill="#FD7DA0"/>
<path fill-rule="evenodd" clip-rule="evenodd" d="M96.9912 86.0304C95.7628 91.8173 97.3959 98.0897 101.89 102.585C106.385 107.079 112.658 108.712 118.445 107.484C122.744 106.154 125.625 104.077 125.625 101.2C125.625 98.3234 122.744 96.247 118.445 94.9168C120.544 90.9365 121.113 87.4305 119.079 85.3959C117.045 83.3615 113.539 83.9305 109.558 86.0302C108.228 81.7312 106.151 78.8496 103.274 78.8496C100.398 78.8498 98.3212 81.7314 96.9912 86.0304Z" fill="#FD7DA0"/>
<path fill-rule="evenodd" clip-rule="evenodd" d="M118.812 120.122C110.596 115.378 99.9925 118.22 95.249 126.436C103.465 131.179 114.069 128.338 118.812 120.122Z" fill="#B1D952"/>
<path fill-rule="evenodd" clip-rule="evenodd" d="M69.8838 126.436C65.1401 118.22 54.5368 115.378 46.3203 120.122C51.064 128.338 61.6676 131.179 69.8838 126.436Z" fill="#B1D952"/>
<path fill-rule="evenodd" clip-rule="evenodd" d="M122.105 105.961C112.484 100.187 104.313 92.2424 98.2716 82.8047C97.7866 83.748 97.3601 84.8315 96.9912 86.0241C95.7628 91.811 97.3959 98.0834 101.89 102.579C106.385 107.073 112.658 108.706 118.445 107.478C119.828 107.05 121.064 106.545 122.105 105.961Z" fill="#DB4B86"/>
<path fill-rule="evenodd" clip-rule="evenodd" d="M42.8994 105.961C52.5206 100.187 60.6907 92.2424 66.7326 82.8047C67.2178 83.748 67.6441 84.8315 68.0132 86.0241C69.2414 91.811 67.6085 98.0834 63.1143 102.579C58.619 107.073 52.3466 108.706 46.5598 107.478C45.1766 107.05 43.9402 106.545 42.8994 105.961Z" fill="#DB4B86"/>
<path d="M100.798 70.6856C102.488 68.9957 103.855 65.8604 101.559 60.2836C107.126 57.9639 108.376 54.7799 108.376 52.3897C108.376 49.9995 107.126 46.8153 101.559 44.4958C103.855 38.919 102.488 35.7839 100.798 34.0938C99.1078 32.404 95.9725 31.0361 90.3959 33.3327C88.0764 27.7654 84.8922 26.5156 82.502 26.5156C80.1118 26.5156 76.9276 27.7654 74.6081 33.3327C69.0313 31.0363 65.8964 32.404 64.2061 34.0938C62.5163 35.7839 61.1484 38.919 63.445 44.4958C57.8777 46.8155 56.6279 49.9995 56.6279 52.3897C56.6279 54.7796 57.8777 57.9641 63.445 60.2836C61.1486 65.8604 62.5163 68.9957 64.2064 70.6856C65.8962 72.3754 69.0311 73.7433 74.6081 71.4467C76.2788 75.4564 78.3979 77.2264 80.3458 77.903V134.326C80.3458 135.517 81.3111 136.482 82.502 136.482C83.6929 136.482 84.6582 135.517 84.6582 134.326V77.9033C86.6061 77.2266 88.7252 75.4566 90.3959 71.4469C95.9725 73.7433 99.1078 72.3756 100.798 70.6856ZM90.1762 66.5806C89.6087 66.2815 88.9376 66.2502 88.3449 66.4956C87.7524 66.7412 87.2998 67.2376 87.1103 67.8504C86.5427 69.6849 84.9577 73.9516 82.502 73.9516C80.0463 73.9516 78.4613 69.6849 77.8938 67.8504C77.7042 67.2376 77.2516 66.741 76.6591 66.4956C76.3941 66.3859 76.1138 66.3315 75.8339 66.3315C75.4874 66.3315 75.1418 66.415 74.8278 66.5806C73.1296 67.4763 68.9914 69.3726 67.2554 67.6362C65.5193 65.9001 67.4154 61.7623 68.3111 60.0636C68.6104 59.4963 68.6415 58.8251 68.3961 58.2326C68.1505 57.6401 67.6541 57.1875 67.0411 56.9979C65.2068 56.4304 60.9401 54.8454 60.9401 52.3897C60.9401 49.934 65.2068 48.349 67.0411 47.7814C67.6539 47.5919 68.1505 47.1393 68.3961 46.5468C68.6417 45.9541 68.6104 45.283 68.3111 44.7155C67.4152 43.0173 65.5191 38.8793 67.2554 37.1431C68.9914 35.4068 73.1294 37.3029 74.8278 38.1988C75.3951 38.4981 76.0664 38.5292 76.6589 38.2838C77.2514 38.0382 77.704 37.5418 77.8935 36.929C78.4613 35.0947 80.0463 30.828 82.502 30.828C84.9577 30.828 86.5427 35.0947 87.1103 36.929C87.2998 37.5418 87.7524 38.0384 88.3449 38.284C88.9379 38.5296 89.6089 38.4983 90.1762 38.199C91.8744 37.3031 96.0124 35.407 97.7485 37.1431C99.4847 38.8795 97.5886 43.0173 96.6929 44.7155C96.3936 45.2828 96.3625 45.9541 96.6079 46.5468C96.8535 47.1393 97.3499 47.5919 97.9627 47.7814C99.7972 48.349 104.064 49.934 104.064 52.3897C104.064 54.8454 99.7972 56.4304 97.9627 56.9979C97.3499 57.1875 96.8533 57.6401 96.6079 58.2326C96.3623 58.8253 96.3936 59.4963 96.6929 60.0636C97.5888 61.7621 99.4849 65.9001 97.7488 67.6362C96.0119 69.3724 91.8744 67.4765 90.1762 66.5806Z" fill="#052A75"/>
<path d="M114.649 110.038C116.057 110.038 117.478 109.891 118.89 109.591C118.954 109.577 119.017 109.561 119.08 109.542C126.27 107.317 127.779 103.777 127.779 101.198C127.779 98.9239 126.605 95.9009 121.393 93.6927C123.517 88.4462 122.21 85.4775 120.602 83.8692C118.993 82.2609 116.025 80.9534 110.778 83.0781C108.57 77.8655 105.547 76.6914 103.272 76.6914C100.694 76.6914 97.1537 78.2008 94.9291 85.3911C94.9097 85.4536 94.8934 85.5168 94.8798 85.5806C93.5619 91.7896 95.2002 98.1595 99.273 102.928C94.9578 111.493 92.5938 122.42 92.5938 133.901C92.5938 134.048 92.594 134.196 92.5948 134.343C92.6019 135.529 93.5658 136.487 94.7508 136.487H94.764C95.9546 136.479 96.9144 135.508 96.9075 134.318C96.9066 134.179 96.9064 134.04 96.9064 133.901C96.9064 132.475 96.9446 131.059 97.0202 129.658C99.195 130.48 101.486 130.897 103.803 130.897C105.496 130.897 107.204 130.674 108.887 130.223C113.907 128.878 118.094 125.674 120.676 121.201C121.271 120.17 120.918 118.851 119.886 118.256C112.835 114.185 104.263 115.057 98.2102 119.79C99.1667 114.788 100.635 110.125 102.566 106.016C106.067 108.637 110.299 110.038 114.649 110.038ZM115.616 120.978C113.628 123.444 110.909 125.216 107.77 126.057C104.632 126.898 101.392 126.723 98.4366 125.581C102.537 120.495 109.522 118.623 115.616 120.978ZM99.0783 86.5714C99.6286 84.8218 101.082 81.0038 103.272 81.0038C105.503 81.0038 106.969 84.9633 107.496 86.6656C107.685 87.2784 108.138 87.775 108.731 88.0203C109.324 88.2659 109.995 88.2347 110.562 87.9354C112.138 87.104 115.974 85.3406 117.552 86.9185C119.13 88.4962 117.367 92.3325 116.535 93.9085C116.236 94.4758 116.205 95.147 116.45 95.7396C116.696 96.3323 117.192 96.7847 117.805 96.9744C119.508 97.501 123.467 98.967 123.467 101.198C123.467 103.389 119.649 104.842 117.899 105.392C112.626 106.479 107.218 104.862 103.413 101.058C99.6085 97.253 97.992 91.8442 99.0783 86.5714Z" fill="#052A75"/>
<path d="M70.1194 85.5806C70.1058 85.5168 70.0894 85.4534 70.07 85.3911C67.8457 78.2008 64.3052 76.6914 61.7268 76.6914C59.4524 76.6914 56.4294 77.8663 54.2212 83.0781C48.9745 80.9538 46.0058 82.2611 44.3975 83.8692C42.7892 85.4775 41.4821 88.4462 43.6064 93.6927C38.3938 95.9009 37.2197 98.9239 37.2197 101.198C37.2197 103.777 38.7291 107.317 45.9194 109.541C45.9819 109.561 46.0451 109.577 46.1089 109.591C47.5217 109.891 48.9415 110.037 50.3502 110.037C54.6997 110.037 58.9317 108.636 62.4334 106.015C64.3496 110.093 65.81 114.716 66.7669 119.674C60.7233 115.042 52.2336 114.217 45.2395 118.256C44.2082 118.851 43.8548 120.17 44.4501 121.201C47.0324 125.674 51.2191 128.878 56.2388 130.223C57.9226 130.674 59.629 130.897 61.3231 130.897C63.5949 130.897 65.8436 130.495 67.9815 129.704C68.0555 131.09 68.0928 132.491 68.0928 133.901C68.0928 134.04 68.0925 134.179 68.0917 134.318C68.0848 135.508 69.0443 136.479 70.2352 136.487H70.2483C71.4332 136.487 72.3972 135.53 72.4043 134.343C72.4052 134.196 72.4054 134.048 72.4054 133.901C72.4054 122.419 70.0413 111.493 65.7261 102.928C69.799 98.1597 71.4372 91.7896 70.1194 85.5806ZM57.3553 126.057C54.2169 125.216 51.4981 123.444 49.5101 120.979C52.4648 119.837 55.7051 119.662 58.8437 120.503C61.9821 121.344 64.7008 123.116 66.6888 125.581C63.734 126.723 60.4936 126.898 57.3553 126.057ZM47.0997 105.392C45.3504 104.842 41.5321 103.389 41.5321 101.198C41.5321 98.9672 45.4916 97.5012 47.1939 96.9746C47.8067 96.7851 48.3033 96.3325 48.5487 95.7398C48.7943 95.147 48.763 94.476 48.4637 93.9087C47.6325 92.3325 45.8691 88.4964 47.4471 86.9187C49.0252 85.341 52.8611 87.1042 54.4373 87.9356C55.0046 88.2347 55.6756 88.2659 56.2683 88.0206C56.8611 87.7752 57.3134 87.2786 57.5032 86.6658C58.0299 84.9635 59.4957 81.004 61.7268 81.004C63.9177 81.004 65.3705 84.8223 65.9208 86.5716C67.0071 91.8444 65.3906 97.2534 61.5866 101.058C57.7813 104.862 52.3725 106.479 47.0997 105.392Z" fill="#052A75"/>
<path d="M135.326 66.1757H133.171C131.98 66.1757 131.015 65.2104 131.015 64.0195C131.015 62.8286 131.98 61.8633 133.171 61.8633H135.326C136.517 61.8633 137.482 62.8286 137.482 64.0195C137.482 65.2104 136.517 66.1757 135.326 66.1757Z" fill="#FDCB50"/>
<path d="M120.195 66.1757H118.04C116.849 66.1757 115.884 65.2104 115.884 64.0195C115.884 62.8286 116.849 61.8633 118.04 61.8633H120.195C121.386 61.8633 122.352 62.8286 122.352 64.0195C122.352 65.2104 121.386 66.1757 120.195 66.1757Z" fill="#FDCB50"/>
<path d="M126.683 59.6846C125.492 59.6846 124.526 58.7192 124.526 57.5284V55.373C124.526 54.1821 125.492 53.2168 126.683 53.2168C127.873 53.2168 128.839 54.1821 128.839 55.373V57.5284C128.839 58.719 127.873 59.6846 126.683 59.6846Z" fill="#FDCB50"/>
<path d="M126.683 74.8193C125.492 74.8193 124.526 73.854 124.526 72.6631V70.5078C124.526 69.3169 125.492 68.3516 126.683 68.3516C127.873 68.3516 128.839 69.3169 128.839 70.5078V72.6631C128.839 73.854 127.873 74.8193 126.683 74.8193Z" fill="#FDCB50"/>
<path d="M46.9639 66.1757H44.8086C43.6177 66.1757 42.6523 65.2104 42.6523 64.0195C42.6523 62.8286 43.6177 61.8633 44.8086 61.8633H46.9639C48.1548 61.8633 49.1201 62.8286 49.1201 64.0195C49.1201 65.2104 48.1548 66.1757 46.9639 66.1757Z" fill="#FDCB50"/>
<path d="M31.8291 66.1757H29.6738C28.4829 66.1757 27.5176 65.2104 27.5176 64.0195C27.5176 62.8286 28.4829 61.8633 29.6738 61.8633H31.8291C33.02 61.8633 33.9853 62.8286 33.9853 64.0195C33.9853 65.2104 33.02 66.1757 31.8291 66.1757Z" fill="#FDCB50"/>
<path d="M38.3164 59.6846C37.1255 59.6846 36.1602 58.7192 36.1602 57.5284V55.373C36.1602 54.1821 37.1255 53.2168 38.3164 53.2168C39.5072 53.2168 40.4726 54.1821 40.4726 55.373V57.5284C40.4726 58.719 39.5072 59.6846 38.3164 59.6846Z" fill="#FDCB50"/>
<path d="M38.3164 74.8193C37.1255 74.8193 36.1602 73.854 36.1602 72.6631V70.5078C36.1602 69.3169 37.1255 68.3516 38.3164 68.3516C39.5072 68.3516 40.4726 69.3169 40.4726 70.5078V72.6631C40.4726 73.854 39.5072 74.8193 38.3164 74.8193Z" fill="#FDCB50"/>
</svg>
