<svg width="53" height="54" viewBox="0 0 53 54" fill="none" xmlns="http://www.w3.org/2000/svg">
<path d="M52.9928 43.3822C52.9971 43.7482 52.8016 44.0863 52.4822 44.265C48.0012 46.7705 42.7817 49.5267 38.0442 52.1096C35.9075 53.2745 33.321 53.2754 31.2017 52.0791C26.1022 49.2006 19.907 45.6847 15.4426 43.2868C14.8619 42.9764 13.9816 42.86 14.0003 42.0259C14.0003 41.2112 14.8994 41.056 15.4613 40.7457C20.4624 38.0494 25.4448 35.3143 30.4833 32.7343C32.3564 31.7644 33.1618 30.5424 33.1056 28.2728C32.9558 22.2401 33.0494 16.1879 33.0494 10C35.0162 10.1552 36.3648 11.3966 37.8632 12.2114C42.0027 14.4421 46.086 16.7699 50.2255 19.02C52.0986 20.0481 53.0538 21.3672 52.9977 23.7531C52.8504 29.9047 52.9622 40.7416 52.9928 43.3822Z" fill="#59B557"/>
<path d="M30.9928 29.3822C30.9971 29.7482 30.8016 30.0863 30.4822 30.265C26.0012 32.7705 20.7817 35.5267 16.0442 38.1096C13.9075 39.2745 11.3033 39.2994 9.23758 38.0128C6.69235 36.4274 5.53314 35.4839 1.44256 33.2868C0.861908 32.9764 -0.0184367 32.86 0.000294036 32.0259C0.000294036 31.2112 0.89937 31.056 1.46129 30.7457C6.46239 28.0494 11.4448 25.3143 16.4833 22.7343C18.3564 21.7644 19.1618 20.5424 19.1056 18.2728C18.9558 12.2401 19.0494 6.18793 19.0494 0C21.0162 0.155183 22.3648 1.39665 23.8632 2.21136C28.0027 4.44212 24.086 2.76987 28.2255 5.02002C30.0986 6.04811 31.0539 7.36717 30.9977 9.75311C30.8504 15.9047 30.9622 26.7416 30.9928 29.3822Z" fill="#8078B9"/>
</svg>
