<svg width="46" height="45" viewBox="0 0 46 45" fill="none" xmlns="http://www.w3.org/2000/svg">
<g id="snowflake 1">
<g id="Group">
<g id="Group_2">
<path id="Vector" d="M23.5583 15.2288V15.0556L26.5722 12.938C26.8843 12.7188 26.9595 12.288 26.7403 11.976C26.521 11.6639 26.0903 11.5887 25.7782 11.808L23.5583 13.3677V10.856L24.9814 9.8561C25.2935 9.63681 25.3687 9.20608 25.1494 8.89407C24.9302 8.582 24.4994 8.50679 24.1874 8.72601L23.5583 9.16804V7.1183C23.5583 6.73692 23.2491 6.42773 22.8677 6.42773C22.4864 6.42773 22.1772 6.73692 22.1772 7.1183V9.16804L21.5481 8.72607C21.2359 8.50672 20.8052 8.58206 20.586 8.89413C20.3668 9.20621 20.442 9.63694 20.7541 9.85616L22.1772 10.856V13.3677L19.9572 11.808C19.6452 11.5886 19.2144 11.6639 18.9952 11.976C18.7759 12.2881 18.8512 12.7188 19.1633 12.938L22.1772 15.0556V15.2288H23.5583Z" fill="#33CCCC"/>
<path id="Vector_2" d="M22.1771 29.7695V29.9427L19.1633 32.0603C18.8512 32.2796 18.776 32.7103 18.9952 33.0223C19.2144 33.3344 19.6451 33.4096 19.9572 33.1904L22.1771 31.6306V34.1423L20.7541 35.1422C20.442 35.3615 20.3668 35.7922 20.586 36.1042C20.8052 36.4163 21.236 36.4915 21.548 36.2723L22.1771 35.8303V37.88C22.1771 38.2614 22.4863 38.5706 22.8677 38.5706C23.2491 38.5706 23.5583 38.2614 23.5583 37.88V35.8303L24.1874 36.2723C24.3081 36.3572 24.4466 36.3979 24.5838 36.3979C24.8011 36.3979 25.015 36.2955 25.1494 36.1042C25.3687 35.7922 25.2934 35.3614 24.9814 35.1422L23.5583 34.1423V31.6306L25.7782 33.1904C25.8989 33.2752 26.0374 33.3159 26.1746 33.3159C26.3919 33.3159 26.6058 33.2136 26.7402 33.0223C26.9595 32.7102 26.8843 32.2795 26.5722 32.0603L23.5583 29.9427V29.7695H22.1771Z" fill="#33CCCC"/>
<path id="Vector_3" d="M16.2264 25.537L16.0764 25.6235L12.7355 24.0722C12.3896 23.9116 11.9789 24.0618 11.8183 24.4077C11.6577 24.7536 11.8079 25.1642 12.1538 25.3249L14.6145 26.4675L12.4393 27.7234L10.8619 26.9909C10.516 26.8303 10.1053 26.9804 9.94469 27.3263C9.78404 27.6723 9.93427 28.0829 10.2802 28.2435L10.9775 28.5673L9.20233 29.5922C8.87205 29.7829 8.75886 30.2052 8.94958 30.5355C9.07752 30.757 9.30962 30.8809 9.5483 30.8809C9.66545 30.8809 9.78423 30.851 9.89296 30.7882L11.6681 29.7634L11.5999 30.5291C11.566 30.909 11.8465 31.2444 12.2264 31.2783C12.2472 31.2802 12.268 31.281 12.2885 31.281C12.6422 31.281 12.9435 31.0108 12.9755 30.6518L13.1299 28.9194L15.3051 27.6636L15.0643 30.3659C15.0304 30.7458 15.3109 31.0812 15.6908 31.1151C15.7116 31.1169 15.7324 31.1178 15.7529 31.1178C16.1066 31.1178 16.4079 30.8476 16.4399 30.4885L16.7669 26.8196L16.9169 26.733L16.2264 25.537Z" fill="#33CCCC"/>
<path id="Vector_4" d="M29.5094 19.463L29.6594 19.3765L33.0002 20.9278C33.0944 20.9715 33.1933 20.9921 33.2906 20.9921C33.5511 20.9921 33.8005 20.844 33.9174 20.5922C34.078 20.2463 33.9278 19.8357 33.5819 19.675L31.1212 18.5324L33.2964 17.2766L34.8738 18.0091C34.9679 18.0528 35.0669 18.0734 35.1642 18.0734C35.4246 18.0734 35.6741 17.9253 35.791 17.6735C35.9516 17.3276 35.8014 16.917 35.4555 16.7563L34.7582 16.4326L36.5333 15.4077C36.8636 15.217 36.9768 14.7947 36.7861 14.4644C36.5953 14.134 36.1729 14.021 35.8428 14.2116L34.0676 15.2365L34.1359 14.4707C34.1697 14.0908 33.8892 13.7554 33.5093 13.7216C33.1293 13.6874 32.7941 13.9682 32.7602 14.3481L32.6058 16.0804L30.4306 17.3363L30.6715 14.6339C30.7053 14.2541 30.4248 13.9186 30.0449 13.8848C29.6647 13.8505 29.3296 14.1315 29.2958 14.5113L28.9688 18.1803L28.8188 18.2668L29.5094 19.463Z" fill="#33CCCC"/>
<path id="Vector_5" d="M28.8188 26.7331L28.9688 26.8197L29.2958 30.4886C29.3278 30.8476 29.6291 31.1179 29.9828 31.1179C30.0034 31.1179 30.0241 31.117 30.0449 31.1151C30.4248 31.0813 30.7053 30.7459 30.6715 30.366L30.4306 27.6637L32.6058 28.9195L32.7602 30.6518C32.7922 31.0109 33.0935 31.2811 33.4472 31.2811C33.4678 31.2811 33.4885 31.2802 33.5093 31.2783C33.8892 31.2445 34.1698 30.9091 34.1359 30.5292L34.0676 29.7634L35.8428 30.7883C35.9515 30.8511 36.0703 30.881 36.1874 30.881C36.426 30.881 36.6582 30.7571 36.7861 30.5355C36.9769 30.2053 36.8637 29.7829 36.5334 29.5922L34.7582 28.5674L35.4555 28.2436C35.8014 28.083 35.9517 27.6723 35.791 27.3264C35.6304 26.9805 35.2199 26.8303 34.8738 26.9909L33.2964 27.7234L31.1212 26.4676L33.582 25.3249C33.9279 25.1642 34.0781 24.7536 33.9174 24.4077C33.7568 24.0618 33.3462 23.9116 33.0002 24.0722L29.6594 25.6235L29.5094 25.537L28.8188 26.7331Z" fill="#33CCCC"/>
<path id="Vector_6" d="M16.9168 18.2668L16.7668 18.1802L16.4399 14.5113C16.406 14.1314 16.071 13.8506 15.6907 13.8847C15.3109 13.9186 15.0304 14.254 15.0642 14.6339L15.305 17.3362L13.1298 16.0804L12.9755 14.348C12.9416 13.9682 12.6063 13.6877 12.2263 13.7215C11.8465 13.7553 11.5659 14.0908 11.5998 14.4706L11.668 15.2364L9.8929 14.2116C9.56262 14.0209 9.1403 14.1341 8.94958 14.4643C8.75886 14.7946 8.87205 15.217 9.20233 15.4076L10.9775 16.4325L10.2802 16.7562C9.93427 16.9169 9.78404 17.3275 9.94469 17.6734C10.0616 17.9253 10.311 18.0733 10.5715 18.0733C10.6688 18.0733 10.7677 18.0526 10.8618 18.009L12.4393 17.2765L14.6144 18.5323L12.1537 19.675C11.8078 19.8356 11.6576 20.2463 11.8182 20.5922C11.9352 20.844 12.1845 20.9921 12.445 20.9921C12.5423 20.9921 12.6412 20.9714 12.7353 20.9277L16.0762 19.3764L16.2262 19.463L16.9168 18.2668Z" fill="#33CCCC"/>
</g>
<g id="Group_3">
<path id="Vector_7" d="M22.8678 30.4609C22.6211 30.4609 22.393 30.3292 22.2697 30.1156L20.3703 26.8257H16.5715C16.3248 26.8257 16.0967 26.6941 15.9734 26.4804C15.8501 26.2668 15.8501 26.0035 15.9734 25.7899L17.8728 22.4999L15.9734 19.2101C15.85 18.9964 15.85 18.7331 15.9734 18.5195C16.0967 18.3059 16.3247 18.1742 16.5714 18.1742H20.3702L22.2697 14.8843C22.393 14.6707 22.621 14.5391 22.8677 14.5391C23.1144 14.5391 23.3424 14.6707 23.4657 14.8843L25.3652 18.1742H29.164C29.4107 18.1742 29.6387 18.3059 29.762 18.5195C29.8853 18.7331 29.8854 18.9964 29.762 19.2101L27.8627 22.4999L29.7622 25.7898C29.8855 26.0035 29.8855 26.2667 29.7622 26.4804C29.6388 26.694 29.4109 26.8257 29.1641 26.8257H25.3653L23.4659 30.1155C23.3425 30.3292 23.1145 30.4609 22.8678 30.4609ZM17.7675 25.4445H20.769C21.0157 25.4445 21.2437 25.5762 21.367 25.7898L22.8678 28.3892L24.3685 25.7899C24.4919 25.5762 24.7199 25.4446 24.9665 25.4446H27.968L26.4673 22.8452C26.3439 22.6316 26.3439 22.3683 26.4673 22.1547L27.968 19.5554H24.9665C24.7198 19.5554 24.4918 19.4237 24.3685 19.2101L22.8678 16.6107L21.367 19.21C21.2437 19.4236 21.0157 19.5553 20.769 19.5553H17.7675L19.2683 22.1546C19.3916 22.3682 19.3916 22.6315 19.2683 22.8452L17.7675 25.4445Z" fill="#374151"/>
</g>
</g>
</g>
</svg>
