<svg width="46" height="45" viewBox="0 0 46 45" fill="none" xmlns="http://www.w3.org/2000/svg">
<g id="spring 2">
<g id="Group">
<g id="Group_2">
<path id="Vector" fill-rule="evenodd" clip-rule="evenodd" d="M23 20.924C23.8925 20.924 24.5366 20.0301 24.9491 18.6966C26.1837 19.3478 27.2712 19.5244 27.9022 18.8934C28.5332 18.2624 28.3565 17.175 27.7054 15.9403C29.0389 15.5277 29.9327 14.8836 29.9327 13.9912C29.9327 13.0989 29.0389 12.4547 27.7054 12.0422C28.3565 10.8076 28.5331 9.72015 27.9021 9.08914C27.2711 8.45813 26.1837 8.63473 24.949 9.2859C24.5366 7.95242 23.8925 7.05859 23 7.05859C22.1076 7.05859 21.4635 7.95242 21.051 9.2859C19.8164 8.63473 18.7289 8.45807 18.0979 9.08908C17.4669 9.72009 17.6435 10.8076 18.2947 12.0421C16.9612 12.4547 16.0674 13.0988 16.0674 13.9912C16.0674 14.8836 16.9612 15.5277 18.2947 15.9402C17.6435 17.1748 17.4669 18.2623 18.0979 18.8933C18.7289 19.5244 19.8164 19.3478 21.051 18.6966C21.4635 20.0301 22.1076 20.924 23 20.924Z" fill="#FD7DA0"/>
<path id="Vector_2" d="M25.1978 14.1731C25.2977 12.959 24.3944 11.8938 23.1803 11.7939C21.9661 11.694 20.9009 12.5973 20.801 13.8114C20.7011 15.0255 21.6044 16.0907 22.8185 16.1906C24.0326 16.2905 25.0979 15.3873 25.1978 14.1731Z" fill="white"/>
<path id="Vector_3" fill-rule="evenodd" clip-rule="evenodd" d="M18.7647 23.8235C18.376 22.5669 17.769 21.7246 16.9281 21.7246C16.0871 21.7246 15.4802 22.5669 15.0914 23.8235C13.928 23.2098 12.9032 23.0434 12.3085 23.6381C11.7138 24.2327 11.8801 25.2575 12.4939 26.421C11.2374 26.8097 10.395 27.4167 10.395 28.2576C10.395 29.0986 11.2374 29.7055 12.4939 30.0942C14.1854 30.4533 16.0188 29.9759 17.3328 28.6623C18.6464 27.3484 19.1238 25.5149 18.7647 23.8235Z" fill="#FD7DA0"/>
<path id="Vector_4" fill-rule="evenodd" clip-rule="evenodd" d="M27.2352 23.8235C26.8762 25.515 27.3535 27.3484 28.6672 28.6624C29.9811 29.976 31.8145 30.4533 33.506 30.0943C34.7626 29.7056 35.6049 29.0986 35.6049 28.2577C35.6049 27.4167 34.7626 26.8098 33.506 26.421C34.1197 25.2576 34.2861 24.2328 33.6914 23.6381C33.0968 23.0434 32.072 23.2097 30.9085 23.8235C30.5197 22.5669 29.9127 21.7246 29.0718 21.7246C28.2309 21.7247 27.624 22.5669 27.2352 23.8235Z" fill="#FD7DA0"/>
<path id="Vector_5" fill-rule="evenodd" clip-rule="evenodd" d="M33.613 33.7888C31.2115 32.4022 28.1121 33.2327 26.7256 35.6343C29.1272 37.0209 32.2266 36.1904 33.613 33.7888Z" fill="#B1D952"/>
<path id="Vector_6" fill-rule="evenodd" clip-rule="evenodd" d="M19.3118 35.6343C17.9253 33.2327 14.826 32.4022 12.4243 33.7888C13.8109 36.1904 16.9103 37.0209 19.3118 35.6343Z" fill="#B1D952"/>
<path id="Vector_7" fill-rule="evenodd" clip-rule="evenodd" d="M34.5758 29.6493C31.7636 27.9616 29.3755 25.6395 27.6095 22.8809C27.4677 23.1566 27.3431 23.4733 27.2352 23.8219C26.8762 25.5134 27.3535 27.3468 28.6672 28.6607C29.9811 29.9743 31.8145 30.4517 33.506 30.0926C33.9102 29.9677 34.2716 29.8201 34.5758 29.6493Z" fill="#DB4B86"/>
<path id="Vector_8" fill-rule="evenodd" clip-rule="evenodd" d="M11.4243 29.6493C14.2366 27.9616 16.6247 25.6395 18.3907 22.8809C18.5325 23.1566 18.6571 23.4733 18.765 23.8219C19.124 25.5134 18.6467 27.3468 17.3331 28.6607C16.0191 29.9743 14.1857 30.4517 12.4942 30.0926C12.0899 29.9677 11.7285 29.8201 11.4243 29.6493Z" fill="#DB4B86"/>
</g>
<g id="Group_3">
<g id="Group_4">
<path id="Vector_9" d="M28.3477 19.3384C28.8417 18.8445 29.2414 17.9281 28.5702 16.298C30.1975 15.62 30.5628 14.6893 30.5628 13.9906C30.5628 13.292 30.1975 12.3612 28.5702 11.6833C29.2414 10.0532 28.8417 9.13681 28.3477 8.64282C27.8537 8.14889 26.9373 7.74906 25.3073 8.42034C24.6293 6.79303 23.6985 6.42773 22.9999 6.42773C22.3013 6.42773 21.3705 6.79303 20.6926 8.42034C19.0625 7.74912 18.1461 8.14889 17.6521 8.64282C17.1582 9.13681 16.7583 10.0532 17.4296 11.6833C15.8023 12.3613 15.437 13.292 15.437 13.9906C15.437 14.6892 15.8023 15.62 17.4296 16.298C16.7584 17.9281 17.1582 18.8445 17.6522 19.3384C18.1461 19.8324 19.0624 20.2322 20.6926 19.5609C21.1809 20.7329 21.8003 21.2503 22.3697 21.4481V37.9403C22.3697 38.2884 22.6518 38.5706 22.9999 38.5706C23.348 38.5706 23.6302 38.2884 23.6302 37.9403V21.4482C24.1995 21.2504 24.8189 20.733 25.3073 19.561C26.9373 20.2322 27.8537 19.8324 28.3477 19.3384ZM25.243 18.1386C25.0772 18.0512 24.881 18.042 24.7078 18.1137C24.5346 18.1855 24.4023 18.3306 24.3469 18.5097C24.181 19.0459 23.7177 20.2931 22.9999 20.2931C22.2821 20.2931 21.8188 19.0459 21.6529 18.5097C21.5975 18.3306 21.4652 18.1855 21.2921 18.1137C21.2146 18.0817 21.1327 18.0658 21.0509 18.0658C20.9496 18.0658 20.8485 18.0902 20.7568 18.1386C20.2604 18.4004 19.0508 18.9547 18.5434 18.4471C18.0359 17.9397 18.5902 16.7302 18.852 16.2337C18.9394 16.0679 18.9485 15.8717 18.8768 15.6985C18.805 15.5253 18.6599 15.393 18.4808 15.3376C17.9446 15.1717 16.6975 14.7084 16.6975 13.9906C16.6975 13.2728 17.9446 12.8095 18.4808 12.6437C18.6599 12.5883 18.805 12.456 18.8768 12.2828C18.9486 12.1095 18.9394 11.9134 18.852 11.7475C18.5901 11.2511 18.0359 10.0416 18.5434 9.53412C19.0508 9.02658 20.2603 9.58082 20.7568 9.84269C20.9226 9.93017 21.1188 9.93925 21.292 9.86752C21.4652 9.79574 21.5975 9.65065 21.6529 9.47154C21.8188 8.93538 22.2821 7.68824 22.9999 7.68824C23.7177 7.68824 24.181 8.93538 24.3469 9.47154C24.4023 9.65065 24.5346 9.7958 24.7078 9.86759C24.8811 9.93937 25.0772 9.93023 25.243 9.84276C25.7394 9.58089 26.9489 9.02664 27.4564 9.53412C27.9639 10.0417 27.4097 11.2511 27.1479 11.7475C27.0604 11.9133 27.0513 12.1095 27.123 12.2828C27.1948 12.456 27.3399 12.5883 27.519 12.6437C28.0552 12.8095 29.3024 13.2728 29.3024 13.9906C29.3024 14.7084 28.0552 15.1717 27.519 15.3376C27.3399 15.393 27.1947 15.5253 27.123 15.6985C27.0512 15.8717 27.0604 16.0679 27.1479 16.2337C27.4097 16.7301 27.964 17.9397 27.4565 18.4471C26.9488 18.9546 25.7394 18.4004 25.243 18.1386Z" fill="#052A75"/>
<path id="Vector_10" d="M32.3973 30.8407C32.8089 30.8407 33.2242 30.7978 33.637 30.7102C33.6556 30.7062 33.6742 30.7014 33.6924 30.6958C35.7942 30.0455 36.2353 29.0107 36.2353 28.257C36.2353 27.5922 35.8922 26.7086 34.3685 26.0632C34.9894 24.5296 34.6074 23.6619 34.1373 23.1918C33.6672 22.7217 32.7996 22.3395 31.2659 22.9606C30.6204 21.4369 29.7368 21.0938 29.072 21.0938C28.3184 21.0938 27.2835 21.5349 26.6333 23.6366C26.6276 23.6549 26.6228 23.6734 26.6189 23.692C26.2337 25.5069 26.7125 27.3688 27.903 28.7626C26.6417 31.2662 25.9507 34.4599 25.9507 37.8159C25.9507 37.859 25.9507 37.902 25.951 37.9451C25.9531 38.2919 26.2348 38.5716 26.5812 38.5716H26.585C26.9331 38.5696 27.2136 38.2858 27.2116 37.9377C27.2113 37.8971 27.2113 37.8565 27.2113 37.8159C27.2113 37.3991 27.2224 36.9853 27.2445 36.5756C27.8802 36.8159 28.55 36.9379 29.227 36.9379C29.722 36.9379 30.2211 36.8726 30.7131 36.7408C32.1804 36.3477 33.4042 35.4112 34.1589 34.1039C34.333 33.8024 34.2297 33.4169 33.9282 33.2429C31.867 32.0529 29.3615 32.3078 27.5924 33.6912C27.8719 32.2293 28.3011 30.8664 28.8655 29.6652C29.8889 30.4312 31.1257 30.8407 32.3973 30.8407ZM32.68 34.0387C32.0988 34.7594 31.3041 35.2774 30.3868 35.5232C29.4694 35.769 28.5222 35.7177 27.6585 35.3841C28.8571 33.8973 30.8987 33.3503 32.68 34.0387ZM27.8461 23.9816C28.0069 23.4702 28.4317 22.3543 29.072 22.3543C29.7241 22.3543 30.1526 23.5116 30.3065 24.0092C30.3619 24.1883 30.4942 24.3334 30.6675 24.4052C30.8407 24.4769 31.0369 24.4678 31.2027 24.3803C31.6634 24.1373 32.7848 23.6219 33.2459 24.0831C33.7071 24.5443 33.1917 25.6656 32.9488 26.1262C32.8613 26.2921 32.8521 26.4883 32.9239 26.6615C32.9956 26.8347 33.1408 26.9669 33.3199 27.0224C33.8175 27.1763 34.9748 27.6048 34.9748 28.2569C34.9748 28.8973 33.8588 29.322 33.3474 29.4829C31.8062 29.8004 30.2252 29.328 29.113 28.216C28.0011 27.1038 27.5286 25.5228 27.8461 23.9816Z" fill="#052A75"/>
<path id="Vector_11" d="M19.3811 23.692C19.3771 23.6734 19.3723 23.6548 19.3667 23.6366C18.7165 21.5349 17.6816 21.0938 16.928 21.0938C16.2632 21.0938 15.3796 21.4372 14.7341 22.9606C13.2005 22.3396 12.3328 22.7218 11.8627 23.1918C11.3926 23.6619 11.0105 24.5296 11.6315 26.0632C10.1078 26.7086 9.76465 27.5922 9.76465 28.257C9.76465 29.0107 10.2058 30.0455 12.3075 30.6957C12.3258 30.7014 12.3443 30.7062 12.3629 30.7101C12.7759 30.7978 13.1909 30.8407 13.6026 30.8407C14.874 30.8406 16.111 30.4311 17.1345 29.6651C17.6946 30.857 18.1215 32.2082 18.4012 33.6574C16.6346 32.3036 14.1532 32.0625 12.1088 33.2428C11.8074 33.4168 11.7041 33.8023 11.8781 34.1038C12.6329 35.4111 13.8566 36.3476 15.3238 36.7407C15.816 36.8726 16.3148 36.9378 16.81 36.9378C17.474 36.9378 18.1313 36.8204 18.7562 36.5891C18.7778 36.9944 18.7887 37.4037 18.7887 37.8159C18.7887 37.8565 18.7887 37.8971 18.7884 37.9377C18.7864 38.2858 19.0669 38.5696 19.4149 38.5716H19.4188C19.7651 38.5716 20.0469 38.2919 20.049 37.9451C20.0492 37.902 20.0493 37.859 20.0493 37.8159C20.0493 34.4599 19.3583 31.2663 18.097 28.7626C19.2874 27.3689 19.7663 25.5069 19.3811 23.692ZM15.6502 35.5232C14.7329 35.2774 13.9382 34.7594 13.3571 34.0387C14.2207 33.7052 15.1679 33.6539 16.0853 33.8997C17.0026 34.1455 17.7973 34.6635 18.3784 35.3841C17.5147 35.7178 16.5675 35.769 15.6502 35.5232ZM12.6525 29.483C12.1412 29.3221 11.0252 28.8974 11.0252 28.257C11.0252 27.6049 12.1825 27.1764 12.6801 27.0225C12.8592 26.9671 13.0043 26.8348 13.0761 26.6615C13.1478 26.4883 13.1387 26.2921 13.0512 26.1263C12.8083 25.6656 12.2928 24.5443 12.7541 24.0832C13.2153 23.622 14.3366 24.1374 14.7973 24.3804C14.9631 24.4678 15.1592 24.4769 15.3325 24.4052C15.5057 24.3335 15.638 24.1883 15.6934 24.0092C15.8474 23.5116 16.2758 22.3543 16.928 22.3543C17.5684 22.3543 17.993 23.4704 18.1539 23.9817C18.4714 25.5229 17.9989 27.104 16.887 28.2161C15.7747 29.328 14.1937 29.8006 12.6525 29.483Z" fill="#052A75"/>
</g>
<g id="Group_5">
<g id="Group_6">
<path id="Vector_12" d="M38.4409 18.0203H37.8109C37.4628 18.0203 37.1807 17.7381 37.1807 17.39C37.1807 17.0419 37.4628 16.7598 37.8109 16.7598H38.4409C38.789 16.7598 39.0712 17.0419 39.0712 17.39C39.0712 17.7381 38.789 18.0203 38.4409 18.0203Z" fill="#FDCB50"/>
</g>
<g id="Group_7">
<path id="Vector_13" d="M34.0176 18.0203H33.3876C33.0395 18.0203 32.7573 17.7381 32.7573 17.39C32.7573 17.0419 33.0395 16.7598 33.3876 16.7598H34.0176C34.3657 16.7598 34.6478 17.0419 34.6478 17.39C34.6478 17.7381 34.3656 18.0203 34.0176 18.0203Z" fill="#FDCB50"/>
</g>
<g id="Group_8">
<path id="Vector_14" d="M35.9144 16.1229C35.5663 16.1229 35.2842 15.8408 35.2842 15.4927V14.8627C35.2842 14.5146 35.5663 14.2324 35.9144 14.2324C36.2625 14.2324 36.5447 14.5146 36.5447 14.8627V15.4927C36.5447 15.8407 36.2625 16.1229 35.9144 16.1229Z" fill="#FDCB50"/>
</g>
<g id="Group_9">
<path id="Vector_15" d="M35.9144 20.5468C35.5663 20.5468 35.2842 20.2646 35.2842 19.9165V19.2865C35.2842 18.9384 35.5663 18.6562 35.9144 18.6562C36.2625 18.6562 36.5447 18.9384 36.5447 19.2865V19.9165C36.5447 20.2646 36.2625 20.5468 35.9144 20.5468Z" fill="#FDCB50"/>
</g>
<g id="Group_10">
<path id="Vector_16" d="M12.6123 18.0203H11.9823C11.6342 18.0203 11.3521 17.7381 11.3521 17.39C11.3521 17.0419 11.6342 16.7598 11.9823 16.7598H12.6123C12.9604 16.7598 13.2426 17.0419 13.2426 17.39C13.2426 17.7381 12.9604 18.0203 12.6123 18.0203Z" fill="#FDCB50"/>
</g>
<g id="Group_11">
<path id="Vector_17" d="M8.18896 18.0203H7.55896C7.21087 18.0203 6.92871 17.7381 6.92871 17.39C6.92871 17.0419 7.21087 16.7598 7.55896 16.7598H8.18896C8.53705 16.7598 8.81922 17.0419 8.81922 17.39C8.81922 17.7381 8.53705 18.0203 8.18896 18.0203Z" fill="#FDCB50"/>
</g>
<g id="Group_12">
<path id="Vector_18" d="M10.0858 16.1229C9.73773 16.1229 9.45557 15.8408 9.45557 15.4927V14.8627C9.45557 14.5146 9.73773 14.2324 10.0858 14.2324C10.4339 14.2324 10.7161 14.5146 10.7161 14.8627V15.4927C10.7161 15.8407 10.4339 16.1229 10.0858 16.1229Z" fill="#FDCB50"/>
</g>
<g id="Group_13">
<path id="Vector_19" d="M10.0858 20.5468C9.73773 20.5468 9.45557 20.2646 9.45557 19.9165V19.2865C9.45557 18.9384 9.73773 18.6562 10.0858 18.6562C10.4339 18.6562 10.7161 18.9384 10.7161 19.2865V19.9165C10.7161 20.2646 10.4339 20.5468 10.0858 20.5468Z" fill="#FDCB50"/>
</g>
</g>
</g>
</g>
</g>
</svg>
