<svg width="37" height="37" viewBox="0 0 37 37" fill="none" xmlns="http://www.w3.org/2000/svg">
<g clip-path="url(#clip0_2562_28503)">
<path d="M18.4374 29.3045C24.4046 29.3045 29.242 24.4671 29.242 18.4999C29.242 12.5327 24.4046 7.69531 18.4374 7.69531C12.4702 7.69531 7.63281 12.5327 7.63281 18.4999C7.63281 24.4671 12.4702 29.3045 18.4374 29.3045Z" fill="#FED402"/>
<path d="M11.1112 18.4999C11.1112 13.1249 15.0377 8.66674 20.1779 7.83486C19.6116 7.74324 19.0295 7.69531 18.4374 7.69531C12.4702 7.69531 7.63281 12.5326 7.63281 18.4999C7.63281 24.4671 12.4701 29.3045 18.4374 29.3045C19.0295 29.3045 19.6116 29.2565 20.1779 29.1649C15.0377 28.333 11.1112 23.8749 11.1112 18.4999Z" fill="#FAC600"/>
<path d="M13.0629 6.59837C13.6596 6.59837 14.1433 6.11464 14.1433 5.51793C14.1433 4.92123 13.6596 4.4375 13.0629 4.4375C12.4661 4.4375 11.9824 4.92123 11.9824 5.51793C11.9824 6.11464 12.4661 6.59837 13.0629 6.59837Z" fill="#FED402"/>
<path d="M23.8129 32.5554C24.4096 32.5554 24.8933 32.0717 24.8933 31.475C24.8933 30.8783 24.4096 30.3945 23.8129 30.3945C23.2161 30.3945 22.7324 30.8783 22.7324 31.475C22.7324 32.0717 23.2161 32.5554 23.8129 32.5554Z" fill="#FED402"/>
<path d="M5.46129 14.2077C6.058 14.2077 6.54172 13.724 6.54172 13.1273C6.54172 12.5306 6.058 12.0469 5.46129 12.0469C4.86459 12.0469 4.38086 12.5306 4.38086 13.1273C4.38086 13.724 4.86459 14.2077 5.46129 14.2077Z" fill="#FED402"/>
<path d="M31.4183 24.9577C32.015 24.9577 32.4988 24.474 32.4988 23.8773C32.4988 23.2806 32.015 22.7969 31.4183 22.7969C30.8216 22.7969 30.3379 23.2806 30.3379 23.8773C30.3379 24.474 30.8216 24.9577 31.4183 24.9577Z" fill="#FED402"/>
<path d="M5.46129 24.9577C6.058 24.9577 6.54172 24.474 6.54172 23.8773C6.54172 23.2806 6.058 22.7969 5.46129 22.7969C4.86459 22.7969 4.38086 23.2806 4.38086 23.8773C4.38086 24.474 4.86459 24.9577 5.46129 24.9577Z" fill="#FED402"/>
<path d="M31.4183 14.2077C32.015 14.2077 32.4988 13.724 32.4988 13.1273C32.4988 12.5306 32.015 12.0469 31.4183 12.0469C30.8216 12.0469 30.3379 12.5306 30.3379 13.1273C30.3379 13.724 30.8216 14.2077 31.4183 14.2077Z" fill="#FED402"/>
<path d="M13.0629 32.5554C13.6596 32.5554 14.1433 32.0717 14.1433 31.475C14.1433 30.8783 13.6596 30.3945 13.0629 30.3945C12.4661 30.3945 11.9824 30.8783 11.9824 31.475C11.9824 32.0717 12.4661 32.5554 13.0629 32.5554Z" fill="#FED402"/>
<path d="M23.8129 6.59837C24.4096 6.59837 24.8933 6.11464 24.8933 5.51793C24.8933 4.92123 24.4096 4.4375 23.8129 4.4375C23.2161 4.4375 22.7324 4.92123 22.7324 5.51793C22.7324 6.11464 23.2161 6.59837 23.8129 6.59837Z" fill="#FED402"/>
<path d="M18.4418 1.20703C19.0385 1.20703 19.5222 1.69079 19.5222 2.28746V4.44833C19.5222 5.04507 19.0384 5.52876 18.4418 5.52876C17.845 5.52876 17.3613 5.045 17.3613 4.44833V2.28746C17.3613 1.69079 17.845 1.20703 18.4418 1.20703Z" fill="#FED402"/>
<path d="M18.4418 31.4609C19.0385 31.4609 19.5222 31.9446 19.5222 32.5414V34.7022C19.5222 35.299 19.0384 35.7827 18.4418 35.7827C17.845 35.7827 17.3613 35.2989 17.3613 34.7022V32.5414C17.3613 31.9446 17.845 31.4609 18.4418 31.4609Z" fill="#FED402"/>
<path d="M6.21488 6.27347C6.6368 5.85155 7.32091 5.85155 7.74283 6.27347L9.27078 7.80142C9.6927 8.22334 9.6927 8.90746 9.27078 9.32938C8.84886 9.75129 8.16475 9.75129 7.74283 9.32938L6.21488 7.80142C5.79296 7.3795 5.79296 6.69546 6.21488 6.27347Z" fill="#FED402"/>
<path d="M27.6055 27.6641C28.0274 27.2422 28.7115 27.2422 29.1335 27.6641L30.6614 29.192C31.0833 29.614 31.0833 30.2981 30.6614 30.72C30.2395 31.1419 29.5554 31.1419 29.1335 30.72L27.6055 29.192C27.1836 28.7701 27.1836 28.086 27.6055 27.6641Z" fill="#FED402"/>
<path d="M1.15234 18.4945C1.15234 17.8978 1.63611 17.4141 2.23278 17.4141H4.39364C4.99038 17.4141 5.47407 17.8978 5.47407 18.4945C5.47407 19.0912 4.99031 19.5749 4.39364 19.5749H2.23278C1.63611 19.5749 1.15234 19.0912 1.15234 18.4945Z" fill="#FED402"/>
<path d="M31.4062 18.4945C31.4062 17.8978 31.89 17.4141 32.4867 17.4141H34.6475C35.2443 17.4141 35.728 17.8978 35.728 18.4945C35.728 19.0912 35.2442 19.5749 34.6475 19.5749H32.4867C31.8899 19.5749 31.4062 19.0912 31.4062 18.4945Z" fill="#FED402"/>
<path d="M6.21488 30.72C5.79296 30.2981 5.79296 29.614 6.21488 29.192L7.74283 27.6641C8.16475 27.2422 8.84886 27.2422 9.27078 27.6641C9.6927 28.086 9.6927 28.7701 9.27078 29.192L7.74283 30.72C7.32091 31.1419 6.63687 31.1419 6.21488 30.72Z" fill="#FED402"/>
<path d="M27.6055 9.32938C27.1836 8.90746 27.1836 8.22334 27.6055 7.80142L29.1335 6.27347C29.5554 5.85155 30.2395 5.85155 30.6614 6.27347C31.0833 6.69539 31.0833 7.3795 30.6614 7.80142L29.1335 9.32938C28.7115 9.75129 28.0274 9.75129 27.6055 9.32938Z" fill="#FED402"/>
<path d="M11.5819 6.14065C11.2727 5.33278 11.6089 4.44685 12.4489 4.04733C13.2466 3.66799 14.2356 4.08594 14.5423 4.91448C14.8495 5.7444 14.586 6.6441 13.6753 7.00779C12.7452 7.37914 11.8401 6.81516 11.5819 6.14065ZM12.8483 5.01138C12.5564 5.10968 12.4281 5.45674 12.546 5.74134C12.7058 6.04374 12.9491 6.14455 13.276 6.04367C13.5783 5.88388 13.6791 5.64054 13.5783 5.31372C13.4815 5.06606 13.1336 4.91538 12.8483 5.01138Z" fill="white"/>
<path d="M22.3397 32.086C22.0305 31.2781 22.3667 30.3922 23.2068 29.9926C24.0044 29.6133 24.9934 30.0313 25.3002 30.8598C25.6074 31.6897 25.3438 32.5894 24.4331 32.9531C23.503 33.3244 22.5979 32.7605 22.3397 32.086ZM23.6062 30.9567C23.3142 31.055 23.1859 31.4021 23.3038 31.6867C23.4636 31.9891 23.707 32.0899 24.0338 31.989C24.3361 31.8292 24.4369 31.5858 24.3361 31.259C24.2393 31.0114 23.8914 30.8607 23.6062 30.9567Z" fill="white"/>
<path d="M4.85934 14.6094C4.06941 14.2567 3.68075 13.3925 3.99226 12.5161C4.28806 11.6838 5.28293 11.2799 6.08565 11.649C6.8897 12.0186 7.33958 12.8411 6.95272 13.7423C6.55766 14.6626 5.51882 14.9039 4.85934 14.6094ZM4.95631 12.9154C4.81934 13.1914 4.97405 13.5275 5.25872 13.6454C5.58554 13.7462 5.82888 13.6454 5.98867 13.343C6.08948 13.0162 5.98867 12.7729 5.68634 12.613C5.44265 12.5065 5.09016 12.6458 4.95631 12.9154Z" fill="white"/>
<path d="M30.8125 25.3555C30.0225 25.0028 29.6339 24.1386 29.9454 23.2622C30.2412 22.4299 31.2361 22.026 32.0388 22.3951C32.8428 22.7647 33.2927 23.5872 32.9058 24.4884C32.5108 25.4087 31.472 25.6499 30.8125 25.3555ZM30.9094 23.6615C30.7725 23.9374 30.9272 24.2735 31.2118 24.3914C31.5387 24.4922 31.782 24.3914 31.9418 24.089C32.0426 23.7622 31.9418 23.5189 31.6395 23.3591C31.3958 23.2525 31.0432 23.3919 30.9094 23.6615Z" fill="white"/>
<path d="M6.09963 25.3643C5.29176 25.6735 4.40584 25.3373 4.00632 24.4972C3.62697 23.6996 4.04493 22.7105 4.87346 22.4038C5.70338 22.0966 6.60308 22.3601 6.96678 23.2709C7.33819 24.201 6.77422 25.106 6.09963 25.3643ZM4.97037 24.0978C5.06866 24.3898 5.41573 24.5181 5.70032 24.4002C6.00273 24.2404 6.10353 23.997 6.00266 23.6702C5.84287 23.3679 5.59952 23.2671 5.2727 23.3679C5.02511 23.4647 4.87436 23.8125 4.97037 24.0978Z" fill="white"/>
<path d="M32.0469 14.6065C31.239 14.9157 30.3531 14.5794 29.9536 13.7394C29.5742 12.9417 29.9922 11.9527 30.8207 11.646C31.6507 11.3388 32.5504 11.6023 32.914 12.5131C33.2855 13.4432 32.7215 14.3482 32.0469 14.6065ZM30.9176 13.34C31.0159 13.632 31.363 13.7603 31.6476 13.6423C31.95 13.4826 32.0508 13.2392 31.9499 12.9124C31.7901 12.6101 31.5468 12.5093 31.22 12.6101C30.9724 12.7069 30.8216 13.0547 30.9176 13.34Z" fill="white"/>
<path d="M14.5703 32.0896C14.2177 32.8796 13.3535 33.2682 12.477 32.9567C11.6447 32.6609 11.2409 31.6661 11.6099 30.8633C11.9795 30.0593 12.8021 29.6094 13.7032 29.9963C14.6235 30.3913 14.8647 31.4302 14.5703 32.0896ZM12.8763 31.9927C13.1523 32.1297 13.4884 31.9749 13.6063 31.6903C13.7071 31.3634 13.6063 31.1201 13.3039 30.9603C12.977 30.8595 12.7338 30.9603 12.5739 31.2626C12.4673 31.5063 12.6067 31.8588 12.8763 31.9927Z" fill="white"/>
<path d="M25.3125 6.13653C24.9599 6.92645 24.0957 7.31512 23.2192 7.0036C22.3869 6.7078 21.9831 5.71294 22.3521 4.91021C22.7217 4.10617 23.5443 3.65628 24.4454 4.04314C25.3657 4.43821 25.6069 5.47704 25.3125 6.13653ZM23.6185 6.03955C23.8945 6.17653 24.2305 6.02181 24.3485 5.73715C24.4493 5.41032 24.3485 5.16698 24.0461 5.00719C23.7192 4.90639 23.476 5.00719 23.3161 5.30952C23.2095 5.55321 23.3489 5.90577 23.6185 6.03955Z" fill="white"/>
<path d="M9.53344 25.5031C7.94891 23.4904 7.11133 21.0695 7.11133 18.502C7.11133 12.2567 12.1922 7.17578 18.4375 7.17578C21.005 7.17578 23.426 8.01337 25.4387 9.59789C25.6651 9.77619 25.7041 10.1042 25.5259 10.3306C25.3476 10.557 25.0196 10.596 24.7932 10.4178C22.9663 8.97951 20.7685 8.21928 18.4375 8.21928C12.7676 8.21928 8.15483 12.8321 8.15483 18.502C8.15483 20.8329 8.91506 23.0308 10.3534 24.8577C10.5316 25.084 10.4912 25.4103 10.2661 25.5903C10.0287 25.7804 9.6364 25.6339 9.53344 25.5031Z" fill="white"/>
<path d="M18.4383 29.8294C15.7947 29.8294 13.2226 28.8998 11.1957 27.2118C10.9743 27.0274 10.9442 26.6984 11.1286 26.477C11.3131 26.2555 11.6421 26.2255 11.8635 26.4099C13.7033 27.942 16.0383 28.7858 18.4383 28.7858C20.7693 28.7858 22.9671 28.0256 24.794 26.5873C25.0203 26.4091 25.3485 26.4481 25.5267 26.6745C25.7049 26.9009 25.6659 27.229 25.4395 27.4072C23.4267 28.9919 21.0057 29.8294 18.4383 29.8294Z" fill="white"/>
<path d="M26.4125 25.8129C26.1925 25.6267 26.161 25.2995 26.3454 25.078C27.8776 23.2383 28.7214 20.9035 28.7214 18.504C28.7214 16.1044 27.8776 13.7697 26.3454 11.9299C26.161 11.7085 26.1911 11.3795 26.4125 11.195C26.6339 11.0107 26.9629 11.0406 27.1473 11.2621C28.8353 13.289 29.7649 15.8608 29.7649 18.504C29.7649 21.1471 28.8203 23.7065 27.1473 25.7458C26.9722 25.9592 26.6129 25.9824 26.4125 25.8129Z" fill="white"/>
<path d="M18.4362 6.06451C17.5527 6.06451 16.834 5.34575 16.834 4.46233V2.3014C16.834 1.41791 17.5527 0.699219 18.4362 0.699219C19.3196 0.699219 20.0383 1.41798 20.0383 2.3014V4.46226C20.0383 5.34575 19.3196 6.06451 18.4362 6.06451ZM18.4362 1.74271C18.1281 1.74271 17.8775 1.99336 17.8775 2.3014V4.46226C17.8775 4.7703 18.1281 5.02095 18.4362 5.02095C18.7442 5.02095 18.9948 4.7703 18.9948 4.46226V2.3014C18.9948 1.99336 18.7442 1.74271 18.4362 1.74271Z" fill="white"/>
<path d="M18.4362 36.3144C17.5527 36.3144 16.834 35.5957 16.834 34.7123V32.5514C16.834 31.6679 17.5527 30.9492 18.4362 30.9492C19.3196 30.9492 20.0383 31.668 20.0383 32.5514V34.7123C20.0383 35.5958 19.3196 36.3144 18.4362 36.3144ZM18.4362 31.9927C18.1281 31.9927 17.8775 32.2434 17.8775 32.5514V34.7123C17.8775 35.0203 18.1281 35.2709 18.4362 35.2709C18.7442 35.2709 18.9948 35.0203 18.9948 34.7123V32.5514C18.9948 32.2434 18.7442 31.9927 18.4362 31.9927Z" fill="white"/>
<path d="M7.37734 9.70373L5.84939 8.17578C5.22468 7.55107 5.22468 6.53464 5.84939 5.90993C6.47409 5.28523 7.49059 5.28523 8.11523 5.90993L9.64318 7.43789C10.2679 8.06259 10.3032 9.11645 9.64318 9.70373C8.98981 10.2852 8.15502 10.3808 7.37734 9.70373ZM6.58721 6.64775C6.36216 6.85812 6.36939 7.22008 6.58721 7.43789L8.11516 8.96584C8.33304 9.18365 8.68748 9.18358 8.90529 8.96584C9.1231 8.74803 9.1231 8.39352 8.90529 8.17571L7.37734 6.64775C7.11605 6.38945 6.79848 6.45032 6.58721 6.64775Z" fill="white"/>
<path d="M28.768 31.0943L27.24 29.5664C26.6153 28.9417 26.6153 27.9252 27.24 27.3005C27.8647 26.6758 28.8812 26.6759 29.5059 27.3005L31.0338 28.8285C31.6585 29.4532 31.6626 30.4737 31.0338 31.0943C30.4593 31.6613 29.5833 31.7656 28.768 31.0943ZM27.9778 28.0384C27.7603 28.2565 27.76 28.6107 27.9778 28.8285L29.5058 30.3564C29.7237 30.5742 30.078 30.5742 30.2959 30.3564C30.5137 30.1386 30.5137 29.7841 30.2959 29.5663L28.768 28.0384C28.5862 27.8351 28.2384 27.7771 27.9778 28.0384Z" fill="white"/>
<path d="M4.39195 20.1106H2.23109C1.34766 20.1106 0.628906 19.3919 0.628906 18.5084C0.628906 17.625 1.34766 16.9062 2.23109 16.9062H4.39195C5.27544 16.9062 5.99413 17.625 5.99413 18.5084C5.99413 19.3919 5.27544 20.1106 4.39195 20.1106ZM2.23109 17.9497C1.92305 17.9497 1.6724 18.2003 1.6724 18.5084C1.6724 18.8164 1.92305 19.067 2.23109 19.067H4.39195C4.69999 19.067 4.95064 18.8164 4.95064 18.5084C4.95064 18.2003 4.69999 17.9497 4.39195 17.9497H2.23109Z" fill="white"/>
<path d="M34.6439 20.1106H32.483C31.5995 20.1106 30.8809 19.3919 30.8809 18.5084C30.8809 17.625 31.5996 16.9062 32.483 16.9062H34.6439C35.5274 16.9062 36.2461 17.625 36.2461 18.5084C36.2461 19.3919 35.5274 20.1106 34.6439 20.1106ZM32.483 17.9497C32.175 17.9497 31.9244 18.2003 31.9244 18.5084C31.9244 18.8164 32.175 19.067 32.483 19.067H34.6439C34.9519 19.067 35.2026 18.8164 35.2026 18.5084C35.2026 18.2003 34.9519 17.9497 34.6439 17.9497H32.483Z" fill="white"/>
<path d="M6.98227 31.5629C6.57204 31.5629 6.16174 31.4067 5.84939 31.0943C5.22468 30.4696 5.22468 29.4532 5.84939 28.8285L7.37734 27.3005C8.00198 26.6759 9.01848 26.6758 9.64318 27.3005C10.2679 27.9252 10.2679 28.9417 9.64318 29.5664L8.11523 31.0943C7.80288 31.4067 7.39257 31.5629 6.98227 31.5629ZM8.11523 28.0384L6.58728 29.5663C6.36946 29.7841 6.36946 30.1386 6.58728 30.3564C6.80516 30.5742 7.15953 30.5742 7.37741 30.3564L8.90536 28.8285C9.12317 28.6107 9.11914 28.2602 8.90536 28.0384C8.73179 27.8583 8.37819 27.8235 8.11523 28.0384Z" fill="white"/>
<path d="M28.3729 10.1723C27.9627 10.1723 27.5524 10.0161 27.24 9.70373C26.6153 9.07902 26.6153 8.06259 27.24 7.43789L28.768 5.90993C29.3926 5.28523 30.4091 5.28523 31.0338 5.90993C31.6585 6.53464 31.6585 7.55107 31.0338 8.17578L29.5059 9.70373C29.1935 10.0161 28.7832 10.1723 28.3729 10.1723ZM29.5059 6.64775L27.9779 8.17571C27.7601 8.39352 27.7601 8.74803 27.9779 8.96584C28.1957 9.18358 28.5502 9.18365 28.768 8.96584L30.296 7.43789C30.5138 7.22008 30.5134 6.86598 30.296 6.64775C30.0935 6.44455 29.763 6.40977 29.5059 6.64775Z" fill="white"/>
</g>
<defs>
<clipPath id="clip0_2562_28503">
<rect width="35.6179" height="35.6179" fill="white" transform="translate(0.628906 0.6875)"/>
</clipPath>
</defs>
</svg>
