<svg width="94" height="93" viewBox="0 0 94 93" fill="none" xmlns="http://www.w3.org/2000/svg">
<g id="sun 1">
<g id="Group">
<g id="Group_2">
<path id="Vector" d="M47.4428 65.0369C57.681 65.0369 65.9808 56.7372 65.9808 46.4989C65.9808 36.2607 57.681 27.9609 47.4428 27.9609C37.2045 27.9609 28.9048 36.2607 28.9048 46.4989C28.9048 56.7372 37.2045 65.0369 47.4428 65.0369Z" fill="#FDCB50"/>
<path id="Vector_2" d="M37.4112 45.1379C37.4112 37.4184 42.1299 30.802 48.84 28.0132C48.3788 27.9788 47.9129 27.9609 47.4428 27.9609C37.2046 27.9609 28.9048 36.2607 28.9048 46.4989C28.9048 56.7371 37.2045 65.0369 47.4428 65.0369C49.9616 65.0369 52.3625 64.5336 54.5519 63.6237C44.9663 62.9094 37.4112 54.9061 37.4112 45.1379Z" fill="#FD8F01"/>
</g>
<g id="Group_3">
<path id="Vector_3" d="M79.3546 45.1969H67.2394C67.0658 42.5313 66.3637 40.0079 65.2367 37.7302L75.7304 31.6715C76.3534 31.3119 76.5669 30.5153 76.2072 29.8923C75.8475 29.2693 75.0509 29.0558 74.4279 29.4156L63.931 35.4761C62.4835 33.3181 60.6243 31.4588 58.4663 30.0114L64.5267 19.5143C64.8864 18.8913 64.6729 18.0947 64.0499 17.7351C63.4267 17.3753 62.6303 17.5888 62.2707 18.2118L56.2122 28.7057C53.9344 27.5786 51.4109 26.8764 48.7455 26.7028V14.5877C48.7455 13.8683 48.1622 13.2852 47.4429 13.2852C46.7236 13.2852 46.1404 13.8683 46.1404 14.5877V26.7028C43.4748 26.8764 40.9514 27.5785 38.6737 28.7057L32.6149 18.2118C32.2551 17.5889 31.4587 17.3753 30.8357 17.7351C30.2127 18.0947 29.9992 18.8913 30.3589 19.5143L36.4193 30.0114C34.2614 31.4588 32.4021 33.3181 30.9546 35.4761L20.4577 29.4156C19.8344 29.0558 19.0383 29.2693 18.6784 29.8923C18.3187 30.5153 18.5322 31.3119 19.1552 31.6715L29.6489 37.7302C28.5219 40.0079 27.8198 42.5313 27.6462 45.1969H15.531C14.8117 45.1969 14.2285 45.7801 14.2285 46.4994C14.2285 47.2188 14.8117 47.802 15.531 47.802H27.6462C27.8198 50.4676 28.5219 52.991 29.6489 55.2687L19.1552 61.3273C18.5322 61.687 18.3187 62.4837 18.6784 63.1066C18.9198 63.5246 19.3575 63.7581 19.8077 63.7581C20.0286 63.7581 20.2527 63.7018 20.4577 63.5834L30.9546 57.5229C32.4021 59.681 34.2613 61.5402 36.4193 62.9877L30.3589 73.4847C29.9992 74.1077 30.2127 74.9043 30.8357 75.2639C31.0408 75.3823 31.2647 75.4386 31.4856 75.4386C31.9358 75.4386 32.3737 75.2051 32.6149 74.7872L38.6734 64.2933C40.9512 65.4204 43.4747 66.1226 46.1402 66.2961V78.4112C46.1402 79.1306 46.7233 79.7137 47.4427 79.7137C48.1619 79.7137 48.7452 79.1306 48.7452 78.4112V66.2961C51.4108 66.1224 53.9342 65.4204 56.2119 64.2933L62.2704 74.7872C62.5118 75.2051 62.9494 75.4386 63.3997 75.4386C63.6206 75.4386 63.8447 75.3823 64.0497 75.2639C64.6727 74.9043 64.8862 74.1077 64.5264 73.4847L58.466 62.9877C60.6239 61.5402 62.4833 59.681 63.9308 57.5229L74.4277 63.5834C74.6328 63.7018 74.8567 63.7581 75.0776 63.7581C75.5278 63.7581 75.9655 63.5244 76.2069 63.1066C76.5667 62.4836 76.3532 61.687 75.7302 61.3273L65.2364 55.2687C66.3635 52.991 67.0655 50.4676 67.2392 47.802H79.3546C80.0738 47.802 80.6571 47.2188 80.6571 46.4994C80.6571 45.7801 80.0738 45.1969 79.3546 45.1969ZM47.4428 63.7349C37.9392 63.7349 30.2075 56.0032 30.2075 46.4994C30.2075 36.9957 37.9392 29.264 47.4428 29.264C56.9464 29.264 64.6782 36.9959 64.6782 46.4994C64.6782 56.003 56.9464 63.7349 47.4428 63.7349Z" fill="white"/>
<path id="Vector_4" d="M54.9817 75.9411C54.4065 75.9411 53.8803 75.5574 53.7244 74.9754L53.0389 72.4174C52.8526 71.7225 53.265 71.0083 53.9599 70.8221C54.6544 70.6358 55.3688 71.0483 55.5551 71.7431L56.2406 74.3011C56.4269 74.996 56.0145 75.7102 55.3197 75.8963C55.2067 75.9267 55.0932 75.9411 54.9817 75.9411Z" fill="#FDCB50"/>
<path id="Vector_5" d="M40.5877 22.2204C40.0125 22.2204 39.4863 21.8366 39.3304 21.2547L38.6448 18.6967C38.4586 18.0019 38.8709 17.2876 39.5657 17.1015C40.2611 16.9149 40.9748 17.3276 41.161 18.0225L41.8466 20.5805C42.0328 21.2753 41.6204 21.9896 40.9255 22.1758C40.8127 22.2059 40.6992 22.2204 40.5877 22.2204Z" fill="#FDCB50"/>
<path id="Vector_6" d="M68.0418 68.4015C67.7084 68.4015 67.3752 68.2743 67.1208 68.02L65.2482 66.1473C64.7395 65.6387 64.7395 64.8139 65.2482 64.3053C65.7569 63.7967 66.5814 63.7967 67.0903 64.3053L68.963 66.1779C69.4716 66.6866 69.4716 67.5113 68.963 68.0201C68.7085 68.2742 68.3751 68.4015 68.0418 68.4015Z" fill="#FDCB50"/>
<path id="Vector_7" d="M28.7166 29.0754C28.3832 29.0754 28.05 28.9483 27.7956 28.6939L25.923 26.8213C25.4143 26.3127 25.4143 25.4879 25.923 24.9791C26.4317 24.4705 27.2562 24.4705 27.7651 24.9791L29.6378 26.8518C30.1464 27.3604 30.1464 28.1852 29.6378 28.6938C29.3834 28.9483 29.0501 29.0754 28.7166 29.0754Z" fill="#FDCB50"/>
<path id="Vector_8" d="M75.5819 55.3418C75.4704 55.3418 75.3569 55.3273 75.244 55.2971L72.686 54.6117C71.9911 54.4256 71.5787 53.7113 71.7649 53.0165C71.9512 52.3219 72.6651 51.9092 73.3601 52.0955L75.9182 52.7809C76.6131 52.967 77.0254 53.6813 76.8392 54.3761C76.6833 54.9579 76.1569 55.3418 75.5819 55.3418Z" fill="#FDCB50"/>
<path id="Vector_9" d="M21.8631 40.9473C21.7516 40.9473 21.6382 40.9328 21.5252 40.9026L18.9672 40.2172C18.2723 40.0311 17.8599 39.3168 18.0462 38.622C18.2325 37.9273 18.9462 37.5146 19.6414 37.701L22.1994 38.3864C22.8943 38.5725 23.3067 39.2868 23.1204 39.9816C22.9645 40.5636 22.4382 40.9473 21.8631 40.9473Z" fill="#FDCB50"/>
<path id="Vector_10" d="M73.0223 40.9473C72.4471 40.9473 71.9209 40.5636 71.765 39.9816C71.5787 39.2867 71.9911 38.5725 72.686 38.3864L75.244 37.701C75.9385 37.5146 76.6531 37.9273 76.8392 38.622C77.0254 39.3169 76.6131 40.0311 75.9182 40.2172L73.3601 40.9026C73.2472 40.933 73.1338 40.9473 73.0223 40.9473Z" fill="#FDCB50"/>
<path id="Vector_11" d="M19.3035 55.3418C18.7283 55.3418 18.2021 54.9581 18.0462 54.3761C17.8599 53.6812 18.2723 52.9671 18.9672 52.7809L21.5252 52.0956C22.2197 51.9092 22.9342 52.3218 23.1204 53.0166C23.3067 53.7115 22.8943 54.4256 22.1994 54.6118L19.6414 55.2972C19.5285 55.3274 19.415 55.3418 19.3035 55.3418Z" fill="#FDCB50"/>
<path id="Vector_12" d="M66.1692 29.0753C65.8357 29.0753 65.5026 28.9482 65.2482 28.6938C64.7395 28.1852 64.7395 27.3604 65.2482 26.8518L67.1208 24.9791C67.6296 24.4705 68.4541 24.4705 68.963 24.9791C69.4716 25.4878 69.4716 26.3125 68.963 26.8213L67.0903 28.6939C66.8358 28.9482 66.5025 29.0753 66.1692 29.0753Z" fill="#FDCB50"/>
<path id="Vector_13" d="M26.844 68.4016C26.5105 68.4016 26.1774 68.2745 25.923 68.0201C25.4143 67.5115 25.4143 66.6867 25.923 66.1779L27.7956 64.3053C28.3044 63.7967 29.1289 63.7967 29.6376 64.3053C30.1463 64.8139 30.1463 65.6387 29.6376 66.1473L27.765 68.02C27.5108 68.2743 27.1774 68.4016 26.844 68.4016Z" fill="#FDCB50"/>
<path id="Vector_14" d="M54.2978 22.2204C54.1863 22.2204 54.0727 22.2059 53.9599 22.1757C53.265 21.9895 52.8526 21.2753 53.0389 20.5804L53.7244 18.0224C53.9107 17.3276 54.6248 16.9151 55.3197 17.1014C56.0145 17.2876 56.4269 18.0018 56.2406 18.6966L55.5551 21.2546C55.3992 21.8367 54.8728 22.2204 54.2978 22.2204Z" fill="#FDCB50"/>
<path id="Vector_15" d="M39.9037 75.9409C39.7922 75.9409 39.6786 75.9265 39.5657 75.8963C38.8709 75.71 38.4586 74.9958 38.6448 74.3011L39.3304 71.743C39.5166 71.0481 40.2312 70.6359 40.9255 70.822C41.6204 71.0083 42.0328 71.7225 41.8466 72.4174L41.161 74.9754C41.0051 75.5572 40.4788 75.9409 39.9037 75.9409Z" fill="#FDCB50"/>
</g>
</g>
</g>
</svg>
