<svg width="172" height="58" viewBox="0 0 172 58" fill="none" xmlns="http://www.w3.org/2000/svg">
<path d="M74.6738 18.6719V40H71.8906V18.6719H74.6738ZM81.5293 18.6719V20.9863H65.0498V18.6719H81.5293ZM82.1006 32.251V31.9141C82.1006 30.7715 82.2666 29.7119 82.5986 28.7354C82.9307 27.749 83.4092 26.8945 84.0342 26.1719C84.6592 25.4395 85.416 24.873 86.3047 24.4727C87.1934 24.0625 88.1895 23.8574 89.293 23.8574C90.4062 23.8574 91.4072 24.0625 92.2959 24.4727C93.1943 24.873 93.9561 25.4395 94.5811 26.1719C95.2158 26.8945 95.6992 27.749 96.0312 28.7354C96.3633 29.7119 96.5293 30.7715 96.5293 31.9141V32.251C96.5293 33.3936 96.3633 34.4531 96.0312 35.4297C95.6992 36.4062 95.2158 37.2607 94.5811 37.9932C93.9561 38.7158 93.1992 39.2822 92.3105 39.6924C91.4316 40.0928 90.4355 40.293 89.3223 40.293C88.209 40.293 87.208 40.0928 86.3193 39.6924C85.4307 39.2822 84.6689 38.7158 84.0342 37.9932C83.4092 37.2607 82.9307 36.4062 82.5986 35.4297C82.2666 34.4531 82.1006 33.3936 82.1006 32.251ZM84.8105 31.9141V32.251C84.8105 33.042 84.9033 33.7891 85.0889 34.4922C85.2744 35.1855 85.5527 35.8008 85.9238 36.3379C86.3047 36.875 86.7783 37.2998 87.3447 37.6123C87.9111 37.915 88.5703 38.0664 89.3223 38.0664C90.0645 38.0664 90.7139 37.915 91.2705 37.6123C91.8369 37.2998 92.3057 36.875 92.6768 36.3379C93.0479 35.8008 93.3262 35.1855 93.5117 34.4922C93.707 33.7891 93.8047 33.042 93.8047 32.251V31.9141C93.8047 31.1328 93.707 30.3955 93.5117 29.7021C93.3262 28.999 93.043 28.3789 92.6621 27.8418C92.291 27.2949 91.8223 26.8652 91.2559 26.5527C90.6992 26.2402 90.0449 26.084 89.293 26.084C88.5508 26.084 87.8965 26.2402 87.3301 26.5527C86.7734 26.8652 86.3047 27.2949 85.9238 27.8418C85.5527 28.3789 85.2744 28.999 85.0889 29.7021C84.9033 30.3955 84.8105 31.1328 84.8105 31.9141ZM102.638 27.5342V40H99.9277V24.1504H102.491L102.638 27.5342ZM101.993 31.4746L100.865 31.4307C100.875 30.3467 101.036 29.3457 101.349 28.4277C101.661 27.5 102.101 26.6943 102.667 26.0107C103.233 25.3271 103.907 24.7998 104.688 24.4287C105.479 24.0479 106.354 23.8574 107.311 23.8574C108.092 23.8574 108.795 23.9648 109.42 24.1797C110.045 24.3848 110.577 24.7168 111.017 25.1758C111.466 25.6348 111.808 26.2305 112.042 26.9629C112.276 27.6855 112.394 28.5693 112.394 29.6143V40H109.669V29.585C109.669 28.7549 109.547 28.0908 109.303 27.5928C109.059 27.085 108.702 26.7188 108.233 26.4941C107.765 26.2598 107.188 26.1426 106.505 26.1426C105.831 26.1426 105.216 26.2842 104.659 26.5674C104.112 26.8506 103.639 27.2412 103.238 27.7393C102.848 28.2373 102.54 28.8086 102.315 29.4531C102.101 30.0879 101.993 30.7617 101.993 31.4746ZM125.064 22.7295L119.557 40H114.459L122.354 18.6719H125.577L125.064 22.7295ZM129.635 40L124.112 22.7295L123.541 18.6719H126.808L134.732 40H129.635ZM129.4 32.0605V35.752H118.282V32.0605H129.4ZM141.588 18.6719V40H136.827V18.6719H141.588Z" fill="#3C4146"/>
<path d="M69.0156 49.7324V56.0312H68.1074V48.7168H68.9375L69.0156 49.7324ZM72.5752 51.3145V51.417C72.5752 51.8011 72.5296 52.1576 72.4385 52.4863C72.3473 52.8118 72.2139 53.0951 72.0381 53.3359C71.8656 53.5768 71.6523 53.764 71.3984 53.8975C71.1445 54.0309 70.8532 54.0977 70.5244 54.0977C70.1891 54.0977 69.8929 54.0423 69.6357 53.9316C69.3786 53.821 69.1605 53.6598 68.9814 53.4482C68.8024 53.2367 68.6592 52.9827 68.5518 52.6865C68.4476 52.3903 68.376 52.0566 68.3369 51.6855V51.1387C68.376 50.748 68.4492 50.3981 68.5566 50.0889C68.6641 49.7796 68.8057 49.516 68.9814 49.2979C69.1605 49.0765 69.377 48.9089 69.6309 48.7949C69.8848 48.6777 70.1777 48.6191 70.5098 48.6191C70.8418 48.6191 71.1364 48.6842 71.3936 48.8145C71.6507 48.9414 71.8672 49.1237 72.043 49.3613C72.2188 49.599 72.3506 49.8838 72.4385 50.2158C72.5296 50.5446 72.5752 50.9108 72.5752 51.3145ZM71.667 51.417V51.3145C71.667 51.0508 71.6393 50.8034 71.584 50.5723C71.5286 50.3379 71.4424 50.1328 71.3252 49.957C71.2113 49.778 71.0648 49.638 70.8857 49.5371C70.7067 49.4329 70.4935 49.3809 70.2461 49.3809C70.0182 49.3809 69.8197 49.4199 69.6504 49.498C69.4844 49.5762 69.3428 49.682 69.2256 49.8154C69.1084 49.9456 69.0124 50.0954 68.9375 50.2646C68.8659 50.4307 68.8122 50.6032 68.7764 50.7822V52.0469C68.8415 52.2747 68.9326 52.4896 69.0498 52.6914C69.167 52.89 69.3232 53.0511 69.5186 53.1748C69.7139 53.2952 69.9596 53.3555 70.2559 53.3555C70.5 53.3555 70.71 53.305 70.8857 53.2041C71.0648 53.0999 71.2113 52.9583 71.3252 52.7793C71.4424 52.6003 71.5286 52.3952 71.584 52.1641C71.6393 51.9297 71.667 51.6807 71.667 51.417ZM73.4883 51.417V51.3047C73.4883 50.9238 73.5436 50.5706 73.6543 50.2451C73.765 49.9163 73.9245 49.6315 74.1328 49.3906C74.3411 49.1465 74.5934 48.9577 74.8896 48.8242C75.1859 48.6875 75.5179 48.6191 75.8857 48.6191C76.2568 48.6191 76.5905 48.6875 76.8867 48.8242C77.1862 48.9577 77.4401 49.1465 77.6484 49.3906C77.86 49.6315 78.0212 49.9163 78.1318 50.2451C78.2425 50.5706 78.2979 50.9238 78.2979 51.3047V51.417C78.2979 51.7979 78.2425 52.151 78.1318 52.4766C78.0212 52.8021 77.86 53.0869 77.6484 53.3311C77.4401 53.5719 77.1878 53.7607 76.8916 53.8975C76.5986 54.0309 76.2666 54.0977 75.8955 54.0977C75.5244 54.0977 75.1908 54.0309 74.8945 53.8975C74.5983 53.7607 74.3444 53.5719 74.1328 53.3311C73.9245 53.0869 73.765 52.8021 73.6543 52.4766C73.5436 52.151 73.4883 51.7979 73.4883 51.417ZM74.3916 51.3047V51.417C74.3916 51.6807 74.4225 51.9297 74.4844 52.1641C74.5462 52.3952 74.639 52.6003 74.7627 52.7793C74.8896 52.9583 75.0475 53.0999 75.2363 53.2041C75.4251 53.305 75.6449 53.3555 75.8955 53.3555C76.1429 53.3555 76.3594 53.305 76.5449 53.2041C76.7337 53.0999 76.89 52.9583 77.0137 52.7793C77.1374 52.6003 77.2301 52.3952 77.292 52.1641C77.3571 51.9297 77.3896 51.6807 77.3896 51.417V51.3047C77.3896 51.0443 77.3571 50.7985 77.292 50.5674C77.2301 50.333 77.1357 50.1263 77.0088 49.9473C76.8851 49.765 76.7288 49.6217 76.54 49.5176C76.3545 49.4134 76.1364 49.3613 75.8857 49.3613C75.6383 49.3613 75.4202 49.4134 75.2314 49.5176C75.0459 49.6217 74.8896 49.765 74.7627 49.9473C74.639 50.1263 74.5462 50.333 74.4844 50.5674C74.4225 50.7985 74.3916 51.0443 74.3916 51.3047ZM80.7686 53.0625L82.126 48.7168H82.7217L82.6045 49.5811L81.2227 54H80.6416L80.7686 53.0625ZM79.8555 48.7168L81.0127 53.1113L81.0957 54H80.4854L78.9521 48.7168H79.8555ZM84.0205 53.0771L85.124 48.7168H86.0225L84.4893 54H83.8838L84.0205 53.0771ZM82.8535 48.7168L84.1816 52.9893L84.333 54H83.7568L82.3359 49.5713L82.2188 48.7168H82.8535ZM89.1426 54.0977C88.7747 54.0977 88.4411 54.0358 88.1416 53.9121C87.8454 53.7852 87.5898 53.6077 87.375 53.3799C87.1634 53.152 87.0007 52.8818 86.8867 52.5693C86.7728 52.2568 86.7158 51.915 86.7158 51.5439V51.3389C86.7158 50.9092 86.7793 50.5267 86.9062 50.1914C87.0332 49.8529 87.2057 49.5664 87.4238 49.332C87.6419 49.0977 87.8893 48.9202 88.166 48.7998C88.4427 48.6794 88.7292 48.6191 89.0254 48.6191C89.403 48.6191 89.7285 48.6842 90.002 48.8145C90.2786 48.9447 90.5049 49.127 90.6807 49.3613C90.8564 49.5924 90.9867 49.8659 91.0713 50.1816C91.1559 50.4941 91.1982 50.8359 91.1982 51.207V51.6123H87.2529V50.875H90.2949V50.8066C90.2819 50.5723 90.2331 50.3444 90.1484 50.123C90.0671 49.9017 89.9368 49.7194 89.7578 49.5762C89.5788 49.4329 89.3346 49.3613 89.0254 49.3613C88.8203 49.3613 88.6315 49.4053 88.459 49.4932C88.2865 49.5778 88.1383 49.7048 88.0146 49.874C87.891 50.0433 87.7949 50.25 87.7266 50.4941C87.6582 50.7383 87.624 51.0199 87.624 51.3389V51.5439C87.624 51.7946 87.6582 52.0306 87.7266 52.252C87.7982 52.4701 87.9007 52.6621 88.0342 52.8281C88.1709 52.9941 88.3353 53.1243 88.5273 53.2188C88.7227 53.3132 88.944 53.3604 89.1914 53.3604C89.5104 53.3604 89.7806 53.2952 90.002 53.165C90.2233 53.0348 90.417 52.8607 90.583 52.6426L91.1299 53.0771C91.016 53.2497 90.8711 53.4141 90.6953 53.5703C90.5195 53.7266 90.3031 53.8535 90.0459 53.9512C89.792 54.0488 89.4909 54.0977 89.1426 54.0977ZM93.1562 49.5469V54H92.2529V48.7168H93.1318L93.1562 49.5469ZM94.8066 48.6875L94.8018 49.5273C94.7269 49.5111 94.6553 49.5013 94.5869 49.498C94.5218 49.4915 94.4469 49.4883 94.3623 49.4883C94.154 49.4883 93.9701 49.5208 93.8105 49.5859C93.651 49.651 93.516 49.7422 93.4053 49.8594C93.2946 49.9766 93.2067 50.1165 93.1416 50.2793C93.0798 50.4388 93.0391 50.6146 93.0195 50.8066L92.7656 50.9531C92.7656 50.6341 92.7965 50.3346 92.8584 50.0547C92.9235 49.7747 93.0228 49.5273 93.1562 49.3125C93.2897 49.0944 93.459 48.9251 93.6641 48.8047C93.8724 48.681 94.1198 48.6191 94.4062 48.6191C94.4714 48.6191 94.5462 48.6273 94.6309 48.6436C94.7155 48.6566 94.7741 48.6712 94.8066 48.6875ZM97.7363 54.0977C97.3685 54.0977 97.0348 54.0358 96.7354 53.9121C96.4391 53.7852 96.1836 53.6077 95.9688 53.3799C95.7572 53.152 95.5944 52.8818 95.4805 52.5693C95.3665 52.2568 95.3096 51.915 95.3096 51.5439V51.3389C95.3096 50.9092 95.373 50.5267 95.5 50.1914C95.627 49.8529 95.7995 49.5664 96.0176 49.332C96.2357 49.0977 96.4831 48.9202 96.7598 48.7998C97.0365 48.6794 97.3229 48.6191 97.6191 48.6191C97.9967 48.6191 98.3223 48.6842 98.5957 48.8145C98.8724 48.9447 99.0986 49.127 99.2744 49.3613C99.4502 49.5924 99.5804 49.8659 99.665 50.1816C99.7497 50.4941 99.792 50.8359 99.792 51.207V51.6123H95.8467V50.875H98.8887V50.8066C98.8757 50.5723 98.8268 50.3444 98.7422 50.123C98.6608 49.9017 98.5306 49.7194 98.3516 49.5762C98.1725 49.4329 97.9284 49.3613 97.6191 49.3613C97.4141 49.3613 97.2253 49.4053 97.0527 49.4932C96.8802 49.5778 96.7321 49.7048 96.6084 49.874C96.4847 50.0433 96.3887 50.25 96.3203 50.4941C96.252 50.7383 96.2178 51.0199 96.2178 51.3389V51.5439C96.2178 51.7946 96.252 52.0306 96.3203 52.252C96.3919 52.4701 96.4945 52.6621 96.6279 52.8281C96.7646 52.9941 96.929 53.1243 97.1211 53.2188C97.3164 53.3132 97.5378 53.3604 97.7852 53.3604C98.1042 53.3604 98.3743 53.2952 98.5957 53.165C98.8171 53.0348 99.0107 52.8607 99.1768 52.6426L99.7236 53.0771C99.6097 53.2497 99.4648 53.4141 99.2891 53.5703C99.1133 53.7266 98.8968 53.8535 98.6396 53.9512C98.3857 54.0488 98.0846 54.0977 97.7363 54.0977ZM104.177 52.9746V46.5H105.085V54H104.255L104.177 52.9746ZM100.622 51.417V51.3145C100.622 50.9108 100.671 50.5446 100.769 50.2158C100.869 49.8838 101.011 49.599 101.193 49.3613C101.379 49.1237 101.599 48.9414 101.853 48.8145C102.11 48.6842 102.396 48.6191 102.712 48.6191C103.044 48.6191 103.334 48.6777 103.581 48.7949C103.832 48.9089 104.043 49.0765 104.216 49.2979C104.392 49.516 104.53 49.7796 104.631 50.0889C104.732 50.3981 104.802 50.748 104.841 51.1387V51.5879C104.805 51.9753 104.735 52.3236 104.631 52.6328C104.53 52.9421 104.392 53.2057 104.216 53.4238C104.043 53.6419 103.832 53.8096 103.581 53.9268C103.33 54.0407 103.037 54.0977 102.702 54.0977C102.393 54.0977 102.11 54.0309 101.853 53.8975C101.599 53.764 101.379 53.5768 101.193 53.3359C101.011 53.0951 100.869 52.8118 100.769 52.4863C100.671 52.1576 100.622 51.8011 100.622 51.417ZM101.53 51.3145V51.417C101.53 51.6807 101.556 51.9281 101.608 52.1592C101.664 52.3903 101.748 52.5938 101.862 52.7695C101.976 52.9453 102.121 53.0837 102.297 53.1846C102.473 53.2822 102.683 53.3311 102.927 53.3311C103.226 53.3311 103.472 53.2676 103.664 53.1406C103.859 53.0137 104.016 52.846 104.133 52.6377C104.25 52.4294 104.341 52.2031 104.406 51.959V50.7822C104.367 50.6032 104.31 50.4307 104.235 50.2646C104.164 50.0954 104.069 49.9456 103.952 49.8154C103.838 49.682 103.697 49.5762 103.527 49.498C103.361 49.4199 103.164 49.3809 102.937 49.3809C102.689 49.3809 102.476 49.4329 102.297 49.5371C102.121 49.638 101.976 49.778 101.862 49.957C101.748 50.1328 101.664 50.3379 101.608 50.5723C101.556 50.8034 101.53 51.0508 101.53 51.3145ZM108.967 46.5H109.875V52.9746L109.797 54H108.967V46.5ZM113.444 51.3145V51.417C113.444 51.8011 113.399 52.1576 113.308 52.4863C113.216 52.8118 113.083 53.0951 112.907 53.3359C112.731 53.5768 112.517 53.764 112.263 53.8975C112.009 54.0309 111.717 54.0977 111.389 54.0977C111.053 54.0977 110.759 54.0407 110.505 53.9268C110.254 53.8096 110.043 53.6419 109.87 53.4238C109.698 53.2057 109.559 52.9421 109.455 52.6328C109.354 52.3236 109.284 51.9753 109.245 51.5879V51.1387C109.284 50.748 109.354 50.3981 109.455 50.0889C109.559 49.7796 109.698 49.516 109.87 49.2979C110.043 49.0765 110.254 48.9089 110.505 48.7949C110.756 48.6777 111.047 48.6191 111.379 48.6191C111.711 48.6191 112.006 48.6842 112.263 48.8145C112.52 48.9414 112.735 49.1237 112.907 49.3613C113.083 49.599 113.216 49.8838 113.308 50.2158C113.399 50.5446 113.444 50.9108 113.444 51.3145ZM112.536 51.417V51.3145C112.536 51.0508 112.512 50.8034 112.463 50.5723C112.414 50.3379 112.336 50.1328 112.229 49.957C112.121 49.778 111.979 49.638 111.804 49.5371C111.628 49.4329 111.411 49.3809 111.154 49.3809C110.926 49.3809 110.728 49.4199 110.559 49.498C110.393 49.5762 110.251 49.682 110.134 49.8154C110.017 49.9456 109.921 50.0954 109.846 50.2646C109.774 50.4307 109.72 50.6032 109.685 50.7822V51.959C109.737 52.1868 109.821 52.4066 109.938 52.6182C110.059 52.8265 110.218 52.9974 110.417 53.1309C110.619 53.2643 110.868 53.3311 111.164 53.3311C111.408 53.3311 111.617 53.2822 111.789 53.1846C111.965 53.0837 112.106 52.9453 112.214 52.7695C112.325 52.5938 112.406 52.3903 112.458 52.1592C112.51 51.9281 112.536 51.6807 112.536 51.417ZM116.013 53.4531L117.482 48.7168H118.449L116.33 54.8154C116.281 54.9456 116.216 55.0856 116.135 55.2354C116.057 55.3883 115.956 55.5332 115.832 55.6699C115.708 55.8066 115.559 55.9173 115.383 56.002C115.21 56.0898 115.004 56.1338 114.763 56.1338C114.691 56.1338 114.6 56.124 114.489 56.1045C114.379 56.085 114.3 56.0687 114.255 56.0557L114.25 55.3232C114.276 55.3265 114.317 55.3298 114.372 55.333C114.431 55.3395 114.471 55.3428 114.494 55.3428C114.699 55.3428 114.873 55.3151 115.017 55.2598C115.16 55.2077 115.28 55.1182 115.378 54.9912C115.479 54.8675 115.565 54.6966 115.637 54.4785L116.013 53.4531ZM114.934 48.7168L116.306 52.8184L116.54 53.7705L115.891 54.1025L113.947 48.7168H114.934Z" fill="#3C4146"/>
<path d="M167.201 45.0363C167.911 44.9612 168.62 44.9853 169.281 45.2779C170.114 45.6466 170.688 46.3732 171.011 47.2097C171.554 48.617 171.533 50.7778 170.92 52.158C170.538 53.0181 169.955 53.6104 169.08 53.9526C169.73 54.3019 170.365 54.5223 171.085 54.6738C171.119 54.7421 171.145 54.7975 171.163 54.8718C171.262 55.2755 171.291 55.637 171.088 55.9993C170.835 56.1186 170.672 56.0398 170.404 55.9903C170.099 55.7669 169.595 55.6723 169.246 55.4707C168.643 55.1226 168.147 54.61 167.603 54.1814C167.104 54.1028 166.644 54.0159 166.199 53.7641C165.316 53.2649 164.791 52.3976 164.539 51.4352C164.149 49.9455 164.209 47.9171 165.005 46.5804C165.529 45.7006 166.23 45.2811 167.201 45.0363Z" fill="#6400E1"/>
<path d="M167.313 46.5193C167.737 46.4637 168.113 46.3948 168.504 46.6226C168.994 46.909 169.264 47.4403 169.396 47.9737C169.681 49.1279 169.669 50.98 169.038 52.003C168.812 52.3681 168.557 52.5519 168.143 52.6548C167.972 52.7354 167.733 52.7218 167.551 52.6898C167.229 52.6337 166.989 52.4598 166.801 52.197C166.073 51.1843 166.064 49.3937 166.29 48.1973C166.432 47.4423 166.676 46.9547 167.313 46.5193Z" fill="#FEFEFE"/>
<path d="M131.47 47.3774C131.857 47.3325 132.231 47.2913 132.61 47.4098C132.965 47.5213 133.143 47.7141 133.313 48.0367C133.638 47.8598 133.965 47.6802 134.309 47.5425C134.791 47.3492 135.401 47.2249 135.893 47.4532C136.233 47.6108 136.448 47.913 136.576 48.2553C136.828 48.9331 136.872 53.4238 136.63 53.9654L134.883 53.9664C135.144 53.4912 135.052 49.9807 134.94 49.2635C134.904 49.0285 134.836 48.876 134.64 48.7341C134.401 48.6544 134.189 48.6616 133.95 48.7319C133.053 48.9957 133.885 52.6345 133.437 53.4306C133.43 53.4442 133.421 53.457 133.413 53.4704C133.49 53.5987 133.51 53.6742 133.526 53.8231C133.209 54.1271 132.129 53.9762 131.678 53.967C131.695 53.9392 131.714 53.9124 131.729 53.8837C131.935 53.5024 131.857 49.6502 131.694 49.0602C131.668 48.9665 131.624 48.8144 131.535 48.7683C131.141 48.5628 130.681 48.7867 130.289 48.913C130.309 48.9581 130.323 48.9859 130.335 49.0315C130.476 49.5594 130.457 53.5779 130.245 53.966L128.497 53.968C128.54 53.8998 128.577 53.8287 128.599 53.7508C128.742 53.2382 128.683 48.6186 128.621 47.8448C128.61 47.7121 128.572 47.6114 128.502 47.4979C128.91 47.4881 129.332 47.4639 129.738 47.5093C130.053 47.5445 130.118 47.6226 130.305 47.8594C130.603 47.8974 131.188 47.5083 131.47 47.3774Z" fill="#6400E1"/>
<path d="M123.418 45.1985C124.083 45.2223 124.754 45.2001 125.42 45.1949C125.714 46.4187 127.864 53.3944 127.678 53.9697L125.856 53.9633C125.682 53.2795 125.549 52.5809 125.399 51.8912L123.306 51.8872C123.185 52.5827 123.024 53.2745 122.879 53.9655L121 53.9667L123.418 45.1985Z" fill="#6400E1"/>
<path d="M124.304 47.1684C124.64 47.7018 124.972 49.782 125.088 50.4991C124.951 50.6257 124.83 50.595 124.648 50.6062L123.607 50.6034L124.304 47.1684Z" fill="#FEFEFE"/>
<path d="M150.784 47.378C151.561 47.2829 152.273 47.2787 152.938 47.7493C153.592 48.2121 153.934 48.9669 154.069 49.7373C154.26 50.8254 154.182 52.2234 153.516 53.1503C153.152 53.6581 152.675 53.9588 152.062 54.0627C152.044 54.0725 152.027 54.0849 152.008 54.0921C151.656 54.2266 150.953 54.1706 150.601 54.0383C149.971 53.8011 149.48 53.2134 149.215 52.6113C148.744 51.5438 148.736 49.9891 149.176 48.9114C149.502 48.1134 150.007 47.7068 150.784 47.378Z" fill="#6400E1"/>
<path d="M151.189 48.7047C151.355 48.6838 151.562 48.6436 151.721 48.7103C151.954 48.8087 152.102 49.0465 152.193 49.2717C152.501 50.0396 152.51 51.5672 152.141 52.3214C152.002 52.6053 151.877 52.6563 151.599 52.7644C151.562 52.7748 151.523 52.7884 151.483 52.7908C151.381 52.7972 151.151 52.7306 151.076 52.6599C150.674 52.28 150.655 51.4621 150.638 50.9409C150.612 50.1747 150.641 49.2897 151.189 48.7047Z" fill="#FEFEFE"/>
<path d="M158.177 47.378C158.625 47.314 159.141 47.2695 159.557 47.4791C159.842 47.6224 160.028 47.8346 160.13 48.1348C160.363 48.822 160.497 53.3774 160.207 53.967L158.455 53.9668C158.746 53.4822 158.631 50.2558 158.552 49.5608C158.521 49.2908 158.491 48.9289 158.267 48.7505C157.813 48.5788 157.45 48.7688 157.029 48.9393C157.141 49.4315 157.197 53.5389 156.996 53.967L155.195 53.9676C155.238 53.8994 155.274 53.8283 155.295 53.7505C155.439 53.2266 155.381 48.6244 155.317 47.8446C155.307 47.7121 155.268 47.6116 155.199 47.4981C155.704 47.4889 156.238 47.4417 156.733 47.5558C156.811 47.6324 156.873 47.6953 156.925 47.7924C156.94 47.8184 156.953 47.8448 156.967 47.871C157.312 47.883 157.861 47.5265 158.177 47.378Z" fill="#6400E1"/>
<path d="M139.593 47.378C140.231 47.3173 140.973 47.2405 141.577 47.4969C141.981 47.669 142.266 47.9683 142.421 48.3796C142.668 49.0376 142.722 53.4206 142.483 53.967C142.121 53.9804 141.727 54.0249 141.372 53.943C141.295 53.7661 141.233 53.6904 141.068 53.5905C140.65 53.6245 140.457 53.9848 140.086 54.1091C139.561 54.2841 138.929 54.0025 138.467 53.7789C138.15 52.9524 137.82 52.7008 138.01 51.6911C138.102 51.1979 138.339 50.7248 138.769 50.4459C139.375 50.0532 140.175 50.112 140.849 50.2498C140.966 49.9681 141.034 49.4901 140.978 49.1839C140.946 49.0083 140.83 48.8518 140.675 48.7661C140.029 48.409 138.847 48.843 138.189 49.0123C138.216 48.9679 138.226 48.9561 138.245 48.9119C138.389 48.5826 138.344 48.1424 138.21 47.8196C138.665 47.6504 139.127 47.5143 139.593 47.378Z" fill="#6400E1"/>
<path d="M140.135 51.2028C140.413 51.1872 140.59 51.1712 140.834 51.3099C140.925 51.4408 141.001 51.5663 141.036 51.7238C141.102 52.0161 140.998 52.3535 140.828 52.5967C140.688 52.7979 140.418 52.8365 140.194 52.8858L139.97 52.8489C139.868 52.7805 139.767 52.7094 139.703 52.6017C139.548 52.3375 139.558 52.0024 139.651 51.7184C139.745 51.43 139.868 51.3355 140.135 51.2028Z" fill="#FEFEFE"/>
<path d="M143.658 47.5341C145.016 47.3564 146.559 47.4955 147.936 47.4997C147.963 47.5419 147.974 47.5551 147.993 47.5978C148.142 47.9408 148.096 48.3988 147.953 48.7327C147.953 48.7595 147.955 48.7865 147.951 48.813C147.902 49.1498 145.707 52.3491 145.372 52.6085C146.252 52.6205 147.132 52.6277 148.012 52.6299C148.044 52.6802 148.051 52.6854 148.073 52.751C148.181 53.0663 148.166 53.5993 147.998 53.8857C147.745 54.0899 144.089 53.969 143.483 53.9668C143.51 53.9248 143.521 53.9122 143.539 53.8697C143.683 53.5469 143.656 53.0346 143.522 52.7156C143.553 52.6932 143.582 52.6699 143.611 52.6453C143.984 52.3245 146.033 49.3106 146.064 48.838C145.255 48.8876 144.417 48.841 143.606 48.8394C143.612 48.8284 143.62 48.818 143.626 48.8066C143.786 48.4973 143.753 47.865 143.658 47.5341Z" fill="#6400E1"/>
<path d="M52.9928 43.3822C52.9971 43.7482 52.8016 44.0863 52.4822 44.265C48.0012 46.7705 42.7817 49.5267 38.0442 52.1096C35.9075 53.2745 33.321 53.2754 31.2017 52.0791C26.1022 49.2006 19.907 45.6847 15.4426 43.2868C14.8619 42.9764 13.9816 42.86 14.0003 42.0259C14.0003 41.2112 14.8994 41.056 15.4613 40.7457C20.4624 38.0494 25.4448 35.3143 30.4833 32.7343C32.3564 31.7644 33.1618 30.5424 33.1056 28.2728C32.9558 22.2401 33.0494 16.1879 33.0494 10C35.0162 10.1552 36.3648 11.3966 37.8632 12.2114C42.0027 14.4421 46.086 16.7699 50.2255 19.02C52.0986 20.0481 53.0538 21.3672 52.9977 23.7531C52.8504 29.9047 52.9622 40.7416 52.9928 43.3822Z" fill="#59B557"/>
<path d="M30.9928 29.3822C30.9971 29.7482 30.8016 30.0863 30.4822 30.265C26.0012 32.7705 20.7817 35.5267 16.0442 38.1096C13.9075 39.2745 11.3033 39.2994 9.23758 38.0128C6.69235 36.4274 5.53314 35.4839 1.44256 33.2868C0.861908 32.9764 -0.0184367 32.86 0.000294036 32.0259C0.000294036 31.2112 0.89937 31.056 1.46129 30.7457C6.46239 28.0494 11.4448 25.3143 16.4833 22.7343C18.3564 21.7644 19.1618 20.5424 19.1056 18.2728C18.9558 12.2401 19.0494 6.18793 19.0494 0C21.0162 0.155183 22.3648 1.39665 23.8632 2.21136C28.0027 4.44212 24.086 2.76987 28.2255 5.02002C30.0986 6.04811 31.0538 7.36717 30.9977 9.75311C30.8504 15.9047 30.9622 26.7416 30.9928 29.3822Z" fill="#8078B9"/>
</svg>
