<svg width="32" height="32" viewBox="0 0 32 32" fill="none" xmlns="http://www.w3.org/2000/svg">
<path d="M0 16C0 7.16344 7.16344 0 16 0C24.8366 0 32 7.16344 32 16C32 24.8366 24.8366 32 16 32C7.16344 32 0 24.8366 0 16Z" fill="#EBFEFF"/>
<path d="M17.5217 14.7749L23.4777 8H22.066L16.8958 13.8823L12.7644 8H8L14.2466 16.896L8 24H9.41166L14.8724 17.7874L19.2356 24H24L17.5217 14.7749ZM15.5889 16.9737L14.956 16.088L9.91986 9.04H12.0879L16.1512 14.728L16.7841 15.6137L22.0672 23.008H19.8991L15.5889 16.9737Z" fill="#077397"/>
</svg>
