<svg width="46" height="45" viewBox="0 0 46 45" fill="none" xmlns="http://www.w3.org/2000/svg">
<g id="wind 1">
<g id="Group">
<g id="Group_2">
<path id="Vector" d="M23.0194 26.3262C21.5047 26.3262 20.2768 27.5541 20.2768 29.0688C20.2768 29.1756 20.2836 29.2808 20.2954 29.3844C20.2892 29.3843 20.2831 29.3839 20.2768 29.3839C18.7621 29.3839 17.5342 30.6118 17.5342 32.1266C17.5342 33.6413 18.7621 34.8692 20.2768 34.8692C20.2831 34.8692 20.2892 34.8687 20.2954 34.8687C20.2836 34.9724 20.2768 35.0775 20.2768 35.1844C20.2768 36.6991 21.5048 37.927 23.0194 37.927C24.0427 37.927 24.9344 37.3662 25.4058 36.5356C25.8849 36.9448 26.5061 37.1925 27.1856 37.1925C28.6508 37.1925 29.8476 36.0434 29.9242 34.5972C30.8417 34.1536 31.4745 33.214 31.4745 32.1266C31.4745 31.0392 30.8416 30.0997 29.9242 29.6561C29.8476 28.2099 28.6508 27.0608 27.1856 27.0608C26.5061 27.0608 25.8849 27.3084 25.4058 27.7176C24.9344 26.887 24.0427 26.3262 23.0194 26.3262Z" fill="#FD6050"/>
</g>
<g id="Group_3">
<path id="Vector_2" d="M37.4405 17.6323L37.7784 14.701L35.9866 12.9092L37.945 11.6821L38.1605 7.07031L33.5487 7.28575L32.3215 9.2442L30.5297 7.45241L27.5984 7.7903L27.2606 10.7216L28.7475 12.2086L26.3003 13.2026L28.0028 14.9051L30.0713 15.1595L30.3257 17.228L32.0282 18.9305L33.0223 16.4833L34.5091 17.9702L37.4405 17.6323Z" fill="#BC3C85"/>
</g>
<g id="Group_4">
<path id="Vector_3" d="M15.742 17.2779C14.3343 14.6791 8.11202 12.5098 8.11202 12.5098C8.11202 12.5098 6.52968 18.9066 7.93737 21.5054C9.10474 23.6606 11.7982 24.4613 13.9534 23.2939C16.1086 22.1265 16.9093 19.4331 15.742 17.2779Z" fill="#FD8F01"/>
</g>
<g id="Group_5">
<g id="Group_6">
<path id="Vector_4" d="M32.0282 19.5769C31.859 19.5769 31.6945 19.5102 31.5725 19.3881L29.87 17.6856C29.7684 17.584 29.7036 17.4512 29.6861 17.3086L29.4931 15.7395L27.9241 15.5465C27.7814 15.5291 27.6487 15.4643 27.547 15.3626L25.8445 13.6601C25.6918 13.5074 25.6257 13.2882 25.6686 13.0765C25.7115 12.8648 25.8575 12.6886 26.0577 12.6074L27.6047 11.9789L26.8048 11.1792C26.6658 11.0401 26.5978 10.845 26.6203 10.6496L26.9582 7.7183C26.9925 7.42088 27.2271 7.18617 27.5246 7.15188L30.4559 6.81406C30.6517 6.7917 30.8464 6.85956 30.9854 6.99857L32.2051 8.21821L33.0026 6.9454C33.1148 6.76637 33.3076 6.65372 33.5186 6.64379L38.1304 6.42835C38.3123 6.42049 38.4879 6.48816 38.6161 6.6164C38.7444 6.74465 38.8126 6.92104 38.8042 7.1022L38.5888 11.714C38.5789 11.925 38.4662 12.1179 38.2871 12.23L37.0143 13.0275L38.234 14.2472C38.3731 14.3863 38.441 14.5813 38.4185 14.7767L38.0806 17.708C38.0463 18.0054 37.8117 18.2401 37.5142 18.2744L34.5829 18.6123C34.3876 18.6348 34.1924 18.5669 34.0534 18.4278L33.2535 17.6279L32.6252 19.1749C32.5439 19.375 32.3677 19.5211 32.156 19.564C32.1136 19.5727 32.0707 19.5769 32.0282 19.5769ZM30.9383 16.9311L31.7967 17.7896L32.4251 16.2426C32.5064 16.0424 32.6825 15.8963 32.8943 15.8535C33.106 15.8106 33.3251 15.8767 33.4779 16.0294L34.7446 17.2962L36.8587 17.0525L37.1024 14.9384L35.5307 13.3667C35.392 13.228 35.324 13.0335 35.3461 12.8385C35.3682 12.6434 35.478 12.4691 35.6443 12.3649L37.317 11.3168L37.4836 7.74885L33.9157 7.91557L32.8677 9.58832C32.7635 9.75466 32.5892 9.86441 32.3942 9.88652C32.1992 9.90888 32.0047 9.84063 31.8659 9.70188L30.2942 8.13024L28.1802 8.37391L27.9365 10.4881L29.2032 11.7547C29.356 11.9075 29.422 12.1267 29.3792 12.3384C29.3363 12.5501 29.1902 12.7263 28.9901 12.8075L27.4431 13.4359L28.3016 14.2944L30.15 14.5217C30.4435 14.5578 30.6748 14.789 30.711 15.0827L30.9383 16.9311Z" fill="#1C2E72"/>
</g>
<g id="Group_7">
<path id="Vector_5" d="M26.1718 19.7042C26.0069 19.7042 25.8419 19.6413 25.7161 19.5155C25.4644 19.2638 25.4644 18.8557 25.7161 18.604L29.6157 14.7043C29.8674 14.4527 30.2755 14.4527 30.5271 14.7043C30.7788 14.956 30.7788 15.3641 30.5271 15.6158L26.6275 19.5155C26.5017 19.6413 26.3367 19.7042 26.1718 19.7042Z" fill="#1C2E72"/>
</g>
</g>
<g id="Group_8">
<g id="Group_9">
<path id="Vector_6" d="M34.2256 31.4798H32.0557C31.8765 30.5666 31.3223 29.7527 30.5283 29.2532C30.2654 27.6343 28.8624 26.4144 27.1855 26.4144C26.6145 26.4144 26.0564 26.5587 25.5615 26.8294C24.9248 26.1076 24.0006 25.6797 23.0191 25.6797C21.2423 25.6797 19.7807 27.055 19.6428 28.7969C18.0774 29.0947 16.8896 30.4732 16.8896 32.1243C16.8896 33.7754 18.0774 35.1545 19.6428 35.4523C19.7807 37.1942 21.2423 38.5695 23.0191 38.5695C24.0006 38.5695 24.9248 38.1409 25.5615 37.4191C26.0564 37.6898 26.6145 37.8348 27.1855 37.8348C28.8624 37.8348 30.2654 36.6149 30.5283 34.996C31.3223 34.4965 31.8765 33.6826 32.0557 32.7687H34.2256C34.5813 32.7687 34.87 32.4807 34.87 32.1243C34.87 31.7685 34.5813 31.4798 34.2256 31.4798ZM29.6435 34.0151C29.4321 34.1169 29.2929 34.3264 29.2807 34.561C29.2214 35.674 28.3011 36.5459 27.1855 36.5459C26.6874 36.5459 26.2034 36.3674 25.8244 36.0432C25.6781 35.9182 25.4835 35.8654 25.294 35.8989C25.1046 35.9317 24.9402 36.0484 24.8455 36.2153C24.4723 36.872 23.7731 37.2806 23.0191 37.2806C21.8623 37.2806 20.9214 36.339 20.9214 35.1822C20.9214 35.1049 20.9259 35.0237 20.9356 34.9399C20.9568 34.7575 20.8988 34.5745 20.7764 34.4379C20.6539 34.3006 20.4793 34.222 20.2956 34.222C20.2866 34.222 20.2782 34.222 20.2692 34.2226C19.1156 34.2188 18.1786 33.2791 18.1786 32.1243C18.1786 30.97 19.1156 30.0304 20.2692 30.0266C20.4612 30.0311 20.6481 29.955 20.7764 29.8113C20.8988 29.674 20.9568 29.491 20.9356 29.3086C20.9259 29.2242 20.9214 29.1449 20.9214 29.0663C20.9214 27.9095 21.8623 26.9686 23.0191 26.9686C23.7731 26.9686 24.4723 27.3765 24.8455 28.0332C24.9402 28.2008 25.1046 28.3168 25.294 28.3503C25.4835 28.3832 25.6781 28.3303 25.8244 28.2053C26.2034 27.8818 26.6874 27.7033 27.1855 27.7033C28.3011 27.7033 29.2214 28.5746 29.2807 29.6882C29.2929 29.9228 29.4321 30.1316 29.6435 30.2341C30.1739 30.4906 30.5586 30.9417 30.73 31.4798H24.926C24.5703 31.4798 24.2816 31.7685 24.2816 32.1243C24.2816 32.4807 24.5703 32.7687 24.926 32.7687H30.73C30.5586 33.3069 30.1739 33.758 29.6435 34.0151Z" fill="#1C2E72"/>
</g>
</g>
<g id="Group_10">
<g id="Group_11">
<path id="Vector_7" d="M14.807 23.5879C16.1623 22.6148 16.9214 21.0552 16.9214 19.4531C16.9214 18.6366 16.7242 17.8084 16.3085 17.0415C14.7992 14.2549 8.58794 12.0637 8.32371 11.9716C8.15293 11.9116 7.9641 11.9271 7.80492 12.0135C7.64509 12.0998 7.52973 12.2493 7.48591 12.4253C7.41889 12.6966 5.86123 19.0967 7.37055 21.8827C8.28955 23.5796 10.0412 24.5437 11.8483 24.5437C12.4605 24.5437 13.0798 24.4328 13.674 24.2015L14.5659 25.848C14.6826 26.0633 14.9043 26.1857 15.1331 26.1857C15.2368 26.1857 15.3419 26.1606 15.4392 26.1078C15.7524 25.9383 15.8684 25.5471 15.6989 25.2345L14.807 23.5879ZM8.50351 21.2692C7.56905 19.5433 8.14068 15.5277 8.57762 13.4403C10.5645 14.2149 14.2405 15.9298 15.1749 17.655C16.0669 19.301 15.6112 21.322 14.187 22.4427L11.7136 17.8761C11.5441 17.5629 11.1529 17.4469 10.8397 17.6164C10.5265 17.7859 10.4105 18.1771 10.58 18.4896L13.0534 23.0563C11.3366 23.6369 9.39544 22.9151 8.50351 21.2692Z" fill="#1C2E72"/>
</g>
</g>
<g id="Group_12">
<path id="Vector_8" d="M12.5128 8.83775H10.5834C10.2275 8.83775 9.93896 8.54916 9.93896 8.19329C9.93896 7.83742 10.2275 7.54883 10.5834 7.54883H12.5127C12.8687 7.54883 13.1572 7.83742 13.1572 8.19329C13.1572 8.54916 12.8687 8.83775 12.5128 8.83775Z" fill="#93B2F4"/>
</g>
<g id="Group_13">
<path id="Vector_9" d="M38.9322 37.9491H37.0029C36.6469 37.9491 36.3584 37.6605 36.3584 37.3046C36.3584 36.9487 36.6469 36.6602 37.0029 36.6602H38.9322C39.2882 36.6602 39.5767 36.9487 39.5767 37.3046C39.5767 37.6605 39.2882 37.9491 38.9322 37.9491Z" fill="#93B2F4"/>
</g>
<g id="Group_14">
<path id="Vector_10" d="M13.4772 30.1366H11.5478C11.1918 30.1366 10.9033 29.848 10.9033 29.4921C10.9033 29.1362 11.1918 28.8477 11.5478 28.8477H13.4772C13.8331 28.8477 14.1216 29.1362 14.1216 29.4921C14.1216 29.848 13.8331 30.1366 13.4772 30.1366Z" fill="#93B2F4"/>
</g>
<g id="Group_15">
<path id="Vector_11" d="M22.1432 18.1542H20.2138C19.8579 18.1542 19.5693 17.8656 19.5693 17.5097C19.5693 17.1538 19.8579 16.8652 20.2138 16.8652H22.1432C22.4991 16.8652 22.7876 17.1538 22.7876 17.5097C22.7876 17.8656 22.4991 18.1542 22.1432 18.1542Z" fill="#93B2F4"/>
</g>
<g id="Group_16">
<path id="Vector_12" d="M27.0718 23.3163H25.1425C24.7866 23.3163 24.498 23.0277 24.498 22.6718C24.498 22.3159 24.7866 22.0273 25.1425 22.0273H27.0718C27.4278 22.0273 27.7163 22.3159 27.7163 22.6718C27.7163 23.0277 27.4278 23.3163 27.0718 23.3163Z" fill="#93B2F4"/>
</g>
<g id="Group_17">
<path id="Vector_13" d="M21.0287 11.3994C21.7821 10.6459 21.7821 9.42437 21.0287 8.67094C20.2753 7.9175 19.0537 7.9175 18.3003 8.67094C17.5468 9.42437 17.5468 10.6459 18.3003 11.3994C19.0537 12.1528 20.2753 12.1528 21.0287 11.3994Z" fill="#D4DEFF"/>
</g>
<g id="Group_18">
<path id="Vector_14" d="M11.5321 36.7392C12.2855 35.9858 12.2855 34.7642 11.5321 34.0108C10.7787 33.2573 9.55711 33.2573 8.80367 34.0108C8.05023 34.7642 8.05024 35.9858 8.80367 36.7392C9.55711 37.4927 10.7787 37.4927 11.5321 36.7392Z" fill="#D4DEFF"/>
</g>
<g id="Group_19">
<path id="Vector_15" d="M36.976 26.5302C37.7294 25.7768 37.7294 24.5552 36.976 23.8018C36.2225 23.0484 35.001 23.0484 34.2475 23.8018C33.4941 24.5552 33.4941 25.7768 34.2475 26.5302C35.001 27.2837 36.2225 27.2837 36.976 26.5302Z" fill="#D4DEFF"/>
</g>
</g>
</g>
</svg>
