<svg width="21" height="22" viewBox="0 0 21 22" fill="none" xmlns="http://www.w3.org/2000/svg">
<g clip-path="url(#clip0_2569_32162)">
<path d="M8.33191 10.9905L6.51953 8.51478L9.56975 8.84648L10.8076 6.03906L12.0455 8.84648L14.1456 8.61814L14.5738 8.77083L13.1641 10.9905L14.7405 13.316L14.1456 13.363L12.0455 13.1346L10.8076 15.942L9.56975 13.1346L6.51953 13.4663L8.33191 10.9905Z" fill="#90D8F9"/>
<path d="M2.26941 11.2585C2.42014 10.9057 2.25629 10.4974 1.90345 10.3467C1.55061 10.196 1.14239 10.3598 0.991661 10.7127C0.840936 11.0655 1.00478 11.4737 1.35763 11.6245C1.71047 11.7752 2.11869 11.6113 2.26941 11.2585Z" fill="#90D8F9"/>
<path d="M20.6366 11.2507C20.7873 10.8979 20.6235 10.4896 20.2706 10.3389C19.9178 10.1882 19.5096 10.352 19.3588 10.7049C19.2081 11.0577 19.372 11.4659 19.7248 11.6167C20.0777 11.7674 20.4859 11.6035 20.6366 11.2507Z" fill="#75CEF9"/>
<path d="M6.6817 3.55051C6.96512 3.29201 6.98533 2.8527 6.72683 2.56928C6.46834 2.28586 6.02903 2.26565 5.74561 2.52414C5.46218 2.78264 5.44197 3.22195 5.70047 3.50537C5.95896 3.78879 6.39827 3.809 6.6817 3.55051Z" fill="#90D8F9"/>
<path d="M16.0956 18.9726C16.1114 18.5894 15.8135 18.2661 15.4304 18.2504C15.0472 18.2347 14.7239 18.5325 14.7082 18.9156C14.6924 19.2988 14.9903 19.6221 15.3734 19.6378C15.7566 19.6536 16.0799 19.3557 16.0956 18.9726Z" fill="#75CEF9"/>
<path d="M15.9241 3.50494C16.1826 3.22152 16.1624 2.7822 15.879 2.52371C15.5955 2.26522 15.1562 2.28542 14.8977 2.56885C14.6392 2.85227 14.6594 3.29158 14.9429 3.55008C15.2263 3.80857 15.6656 3.78836 15.9241 3.50494Z" fill="#75CEF9"/>
<path d="M6.24091 19.6324C6.62405 19.6167 6.9219 19.2934 6.90618 18.9102C6.89045 18.5271 6.56711 18.2292 6.18397 18.245C5.80083 18.2607 5.50298 18.584 5.51871 18.9672C5.53443 19.3503 5.85777 19.6482 6.24091 19.6324Z" fill="#90D8F9"/>
<path d="M15.0977 8.51172L14.1475 8.61503L12.5826 10.7526C12.4803 10.8924 12.4803 11.0824 12.5826 11.2223L14.1475 13.3598L15.0977 13.4632L13.2853 10.9875L15.0977 8.51172Z" fill="#75CEF9"/>
<path d="M11.491 6.14871C11.552 5.77017 11.2945 5.41387 10.916 5.35289C10.5375 5.29191 10.1812 5.54934 10.1202 5.92788C10.0592 6.30642 10.3166 6.66272 10.6952 6.7237C11.0737 6.78468 11.43 6.52725 11.491 6.14871Z" fill="#EDF4FF"/>
<path d="M11.0835 16.5893C11.4386 16.4439 11.6087 16.0382 11.4633 15.6831C11.318 15.3279 10.9122 15.1579 10.5571 15.3032C10.202 15.4486 10.0319 15.8543 10.1773 16.2094C10.3226 16.5646 10.7283 16.7347 11.0835 16.5893Z" fill="#EDF4FF"/>
<path d="M7.20387 13.5706C7.26485 13.192 7.00742 12.8357 6.62889 12.7748C6.25035 12.7138 5.89405 12.9712 5.83307 13.3498C5.77209 13.7283 6.02952 14.0846 6.40806 14.1456C6.7866 14.2066 7.14289 13.9491 7.20387 13.5706Z" fill="#EDF4FF"/>
<path d="M6.79051 9.15571C7.14566 9.01035 7.31572 8.60462 7.17037 8.24948C7.02501 7.89433 6.61928 7.72427 6.26414 7.86962C5.90899 8.01498 5.73893 8.42071 5.88428 8.77585C6.02964 9.131 6.43537 9.30106 6.79051 9.15571Z" fill="#EDF4FF"/>
<path d="M15.7761 13.5784C15.8371 13.1999 15.5797 12.8436 15.2012 12.7826C14.8226 12.7216 14.4663 12.979 14.4053 13.3576C14.3444 13.7361 14.6018 14.0924 14.9803 14.1534C15.3589 14.2144 15.7152 13.9569 15.7761 13.5784Z" fill="#DBEAFF"/>
<path d="M15.3706 9.15571C15.7257 9.01035 15.8958 8.60462 15.7504 8.24948C15.6051 7.89433 15.1994 7.72427 14.8442 7.86962C14.4891 8.01498 14.319 8.42071 14.4644 8.77585C14.6097 9.131 15.0154 9.30106 15.3706 9.15571Z" fill="#DBEAFF"/>
<path d="M11.9941 10.9879C11.9941 11.6644 11.4854 12.173 10.8089 12.173C10.6844 12.173 10.5643 12.1942 10.4511 12.1597C9.94915 12.0066 9.58398 11.5399 9.58398 10.9879C9.58398 10.4382 9.94601 9.97312 10.4447 9.81801C10.5597 9.78223 10.6821 9.80271 10.8089 9.80271C11.4854 9.80271 11.9941 10.3114 11.9941 10.9879Z" fill="#EDF4FF"/>
<path d="M10.8109 9.76172C10.6864 9.76172 10.5663 9.7804 10.4531 9.81495C10.9551 9.96803 11.3203 10.4346 11.3203 10.9866C11.3203 11.5387 10.9551 12.0052 10.4531 12.1583C10.5663 12.1928 10.6864 12.2116 10.8109 12.2116C11.4874 12.2116 12.0358 11.6631 12.0358 10.9866C12.0358 10.3101 11.4874 9.76172 10.8109 9.76172Z" fill="#DBEAFF"/>
<path d="M13.4145 5.88058L13.1552 6.32915C13.0728 6.4717 13.1215 6.65408 13.2641 6.73649C13.3111 6.76368 13.3624 6.77656 13.413 6.77656C13.516 6.77656 13.6161 6.72313 13.6714 6.62757L13.9307 6.179L15.4447 6.01518C15.6084 5.99746 15.7268 5.85037 15.709 5.68671C15.6913 5.52305 15.5442 5.40451 15.3806 5.42236L14.3005 5.53923L15.1854 4.00838C15.2562 4.02408 15.3279 4.03227 15.3992 4.03227C15.7423 4.03227 16.0765 3.85442 16.2602 3.53664C16.3929 3.30711 16.4282 3.03962 16.3598 2.7835C16.2913 2.52737 16.1271 2.31323 15.8976 2.18054C15.6681 2.04784 15.4006 2.0125 15.1445 2.081C14.8884 2.14949 14.6743 2.31363 14.5416 2.54312C14.4089 2.77268 14.3735 3.04014 14.442 3.29626C14.4839 3.4532 14.5621 3.59408 14.6689 3.7104L13.7842 5.24085L13.3465 4.24649C13.2801 4.09575 13.1042 4.02746 12.9535 4.09377C12.8028 4.16015 12.7344 4.33609 12.8007 4.48676L13.4145 5.88058ZM15.0578 2.84149C15.1108 2.74987 15.1963 2.68432 15.2986 2.65697C15.4008 2.62966 15.5077 2.64373 15.5993 2.69672C15.691 2.74967 15.7565 2.83517 15.7838 2.93742C15.8112 3.03966 15.7971 3.14647 15.7441 3.23814C15.6347 3.42732 15.3918 3.49224 15.2026 3.38292C15.111 3.32993 15.0455 3.24446 15.0181 3.14218C14.9907 3.03994 15.0048 2.93316 15.0578 2.84149Z" fill="#4B586E"/>
<path d="M19.9899 9.99842C19.5465 9.99842 19.1701 10.2908 19.0432 10.6928H17.2754L17.9171 9.81623C18.0143 9.68338 17.9855 9.49683 17.8526 9.39955C17.7198 9.30232 17.5332 9.3311 17.436 9.46403L16.5364 10.6929H13.8694L14.7758 9.45473C14.8758 9.48868 14.9828 9.50736 15.0941 9.50736C15.6414 9.50736 16.0867 9.0621 16.0867 8.51479C16.0867 7.96748 15.6414 7.52222 15.0941 7.52222C14.613 7.52222 14.2109 7.86631 14.1206 8.32124L12.5979 8.4868L13.0222 7.7527C13.1047 7.61015 13.0559 7.42777 12.9134 7.34536C12.7708 7.26296 12.5884 7.31169 12.506 7.45428L12.0803 8.19073L11.4604 6.78486C11.6675 6.60279 11.7986 6.33625 11.7986 6.0395C11.7986 5.4922 11.3533 5.04693 10.8059 5.04693C10.2586 5.04693 9.81334 5.4922 9.81334 6.0395C9.81334 6.33625 9.9444 6.60279 10.1515 6.78482L9.53158 8.19069L8.19622 5.88058L8.80992 4.48675C8.87626 4.33605 8.80789 4.1601 8.65719 4.09376C8.50653 4.02745 8.33054 4.09578 8.26416 4.24648L7.82641 5.24076L6.94177 3.71039C7.04858 3.59407 7.12673 3.45319 7.16871 3.29625C7.2372 3.04013 7.20182 2.77264 7.06913 2.54311C6.93644 2.31358 6.72229 2.14944 6.46621 2.08099C6.21005 2.0125 5.94264 2.04787 5.71311 2.18053C5.48358 2.31322 5.3194 2.52736 5.25091 2.78349C5.18242 3.03961 5.2178 3.30706 5.35049 3.53663C5.53418 3.85445 5.86834 4.03226 6.21148 4.03226C6.28279 4.03226 6.35447 4.02407 6.42531 4.00837L7.31023 5.53922L6.23012 5.42235C6.06614 5.40438 5.91934 5.52297 5.90165 5.6867C5.88392 5.8504 6.00226 5.99745 6.16596 6.01518L7.68004 6.17899L9.01404 8.48676L7.49134 8.3212C7.40102 7.86623 6.99893 7.52214 6.51785 7.52214C5.9705 7.52214 5.52524 7.9674 5.52524 8.51471C5.52524 9.06202 5.9705 9.50728 6.51785 9.50728C6.62915 9.50728 6.73609 9.4886 6.83606 9.45465L7.74245 10.6928H6.84763C6.68294 10.6928 6.54949 10.8263 6.54949 10.9909C6.54949 11.1556 6.68294 11.2891 6.84763 11.2891H7.74245L6.83606 12.5272C6.73609 12.4933 6.62911 12.4746 6.51785 12.4746C5.9705 12.4746 5.52524 12.9199 5.52524 13.4672C5.52524 14.0145 5.9705 14.4598 6.51785 14.4598C6.99893 14.4598 7.40102 14.1157 7.49134 13.6607L9.01404 13.4952L7.68004 15.8029L6.16596 15.9668C6.00226 15.9845 5.88388 16.1316 5.90165 16.2952C5.91934 16.4589 6.06618 16.5773 6.23012 16.5596L7.31023 16.4427L6.42566 17.973C6.2715 17.9385 6.11035 17.9412 5.95345 17.9832C5.69732 18.0517 5.48318 18.2158 5.35049 18.4453C5.2178 18.6749 5.18242 18.9424 5.25091 19.1985C5.3194 19.4546 5.48358 19.6688 5.71311 19.8015C5.86615 19.8899 6.03605 19.9351 6.20818 19.9351C6.29424 19.9351 6.38086 19.9238 6.46621 19.901C6.72229 19.8325 6.93644 19.6684 7.06913 19.4389C7.20182 19.2093 7.2372 18.9418 7.16871 18.6857C7.12677 18.5288 7.04858 18.3879 6.94177 18.2716L7.82645 16.7412L8.2642 17.7355C8.31333 17.8471 8.42261 17.9135 8.53722 17.9135C8.57737 17.9135 8.61811 17.9054 8.65723 17.8882C8.80793 17.8218 8.8763 17.6459 8.80996 17.4952L8.19626 16.1014L9.53162 13.7913L10.1515 15.1971C9.94444 15.3791 9.81338 15.6457 9.81338 15.9425C9.81338 16.4898 10.2586 16.935 10.806 16.935C11.3533 16.935 11.7986 16.4898 11.7986 15.9425C11.7986 15.6457 11.6675 15.3792 11.4605 15.1971L12.0804 13.7912L13.4157 16.1014L12.802 17.4952C12.7357 17.6459 12.804 17.8218 12.9547 17.8881C12.9938 17.9054 13.0346 17.9135 13.0748 17.9135C13.1894 17.9135 13.2986 17.847 13.3478 17.7354L13.7856 16.7411L14.6703 18.2716C14.5634 18.3879 14.4853 18.5288 14.4433 18.6857C14.3748 18.9418 14.4102 19.2093 14.5429 19.4388C14.6756 19.6684 14.8897 19.8325 15.1458 19.9009C15.2312 19.9238 15.3178 19.9351 15.4038 19.9351C15.576 19.9351 15.7459 19.8899 15.8989 19.8014C16.1284 19.6687 16.2926 19.4546 16.3611 19.1985C16.4296 18.9423 16.3942 18.6749 16.2615 18.4453C16.1288 18.2158 15.9147 18.0516 15.6586 17.9831C15.5017 17.9412 15.3405 17.9384 15.1864 17.9729L14.3018 16.4427L15.3819 16.5595C15.5455 16.5773 15.6926 16.4589 15.7104 16.2952C15.7281 16.1315 15.6098 15.9845 15.4461 15.9667L13.932 15.8029L12.598 13.4951L14.1207 13.6607C14.211 14.1157 14.6131 14.4597 15.0942 14.4597C15.6415 14.4597 16.0868 14.0145 16.0868 13.4671C16.0868 12.9198 15.6415 12.4746 15.0942 12.4746C14.9829 12.4746 14.8759 12.4933 14.776 12.5272L13.8695 11.2891H16.5364L17.436 12.518C17.4944 12.5978 17.585 12.64 17.6768 12.64C17.7379 12.64 17.7996 12.6213 17.8527 12.5824C17.9856 12.4852 18.0144 12.2986 17.9172 12.1657L17.2754 11.2891H19.0432C19.1701 11.6912 19.5465 11.9836 19.9899 11.9836C20.5372 11.9836 20.9825 11.5383 20.9825 10.991C20.9825 10.4437 20.5373 9.99842 19.9899 9.99842ZM15.0941 8.11846C15.3126 8.11846 15.4904 8.29623 15.4904 8.51475C15.4904 8.73327 15.3126 8.91104 15.0941 8.91104C14.8928 8.91104 14.7265 8.76006 14.7014 8.56543C14.7012 8.56293 14.7013 8.56046 14.701 8.55796C14.7007 8.5549 14.6999 8.55196 14.6996 8.5489C14.6986 8.53761 14.6978 8.52628 14.6978 8.51475C14.6978 8.29623 14.8756 8.11846 15.0941 8.11846ZM10.806 5.64322C11.0245 5.64322 11.2023 5.82099 11.2023 6.0395C11.2023 6.25802 11.0245 6.43579 10.806 6.43579C10.5875 6.43579 10.4097 6.25802 10.4097 6.0395C10.4097 5.82099 10.5875 5.64322 10.806 5.64322ZM5.86671 3.23821C5.81372 3.14654 5.79961 3.03977 5.82696 2.93749C5.85431 2.83524 5.91982 2.74974 6.01153 2.69675C6.07262 2.66141 6.14044 2.64336 6.20921 2.64336C6.24352 2.64336 6.2781 2.64789 6.31221 2.657C6.41445 2.68435 6.49996 2.74986 6.55295 2.84153C6.60594 2.93315 6.62005 3.03997 6.5927 3.14221C6.56535 3.24449 6.49984 3.33 6.40817 3.38295C6.21911 3.49235 5.97607 3.42743 5.86671 3.23821ZM6.12156 8.51475C6.12156 8.29623 6.29937 8.11846 6.51789 8.11846C6.73641 8.11846 6.91418 8.29623 6.91418 8.51475C6.91418 8.73327 6.73641 8.91104 6.51789 8.91104C6.29937 8.91104 6.12156 8.73327 6.12156 8.51475ZM6.51789 13.8635C6.29937 13.8635 6.12156 13.6857 6.12156 13.4672C6.12156 13.2487 6.29937 13.0709 6.51789 13.0709C6.73641 13.0709 6.91418 13.2487 6.91418 13.4672C6.91418 13.6857 6.73641 13.8635 6.51789 13.8635ZM6.55291 19.1405C6.49992 19.2321 6.41445 19.2976 6.31217 19.325C6.20989 19.3523 6.10315 19.3382 6.01149 19.2852C6.01149 19.2852 6.01145 19.2852 6.01145 19.2852C5.91978 19.2322 5.85427 19.1467 5.82692 19.0445C5.79957 18.9422 5.81368 18.8354 5.86667 18.7438C5.91966 18.6521 6.00513 18.5866 6.10741 18.5592C6.14147 18.5501 6.17606 18.5456 6.21041 18.5456C6.2791 18.5456 6.34691 18.5636 6.40801 18.5989C6.40805 18.5989 6.40809 18.5989 6.40813 18.599C6.40817 18.599 6.40825 18.599 6.40829 18.5991C6.49984 18.6521 6.56531 18.7375 6.59262 18.8397C6.62001 18.942 6.6059 19.0488 6.55291 19.1405ZM10.806 16.3388C10.5875 16.3388 10.4097 16.161 10.4097 15.9425C10.4097 15.724 10.5875 15.5462 10.806 15.5462C11.0245 15.5462 11.2023 15.724 11.2023 15.9425C11.2023 16.161 11.0245 16.3388 10.806 16.3388ZM10.806 14.9499C10.7691 14.9499 10.7327 14.9521 10.6969 14.956L9.84093 13.0148C9.78714 12.8923 9.64662 12.8152 9.5154 12.8409L7.42634 13.0681C7.39677 13.0011 7.36016 12.9379 7.31718 12.8797L8.57085 11.1671C8.64681 11.0653 8.64681 10.9167 8.57085 10.8149L7.31718 9.1024C7.36016 9.04413 7.39681 8.98096 7.42634 8.91398L9.52025 9.14168C9.65067 9.16521 9.78802 9.08809 9.84093 8.96729L10.6969 7.02603C10.7327 7.02997 10.7691 7.03215 10.806 7.03215C10.8429 7.03215 10.8793 7.02997 10.9151 7.02603L11.7711 8.96729C11.824 9.08809 11.9613 9.16525 12.0917 9.14168L14.1856 8.91398C14.2151 8.98096 14.2518 9.04413 14.2948 9.1024L13.0411 10.8149C12.9652 10.9167 12.9652 11.0653 13.0411 11.1671L14.2948 12.8796C14.2518 12.9379 14.2152 13.0011 14.1856 13.0681L12.0967 12.8409C11.9654 12.8152 11.8248 12.8922 11.7711 13.0148L10.9151 14.9561C10.8793 14.9521 10.8429 14.9499 10.806 14.9499ZM15.5045 18.5593C15.6068 18.5866 15.6923 18.6521 15.7453 18.7438C15.7983 18.8355 15.8124 18.9422 15.785 19.0445C15.7577 19.1468 15.6922 19.2323 15.6005 19.2852C15.6005 19.2853 15.6005 19.2853 15.6005 19.2853C15.5088 19.3382 15.4022 19.3524 15.2998 19.325C15.1975 19.2977 15.112 19.2322 15.059 19.1405C15.006 19.0489 14.9919 18.942 15.0193 18.8398C15.0466 18.7376 15.1121 18.6521 15.2038 18.5991C15.2649 18.5637 15.3328 18.5457 15.4015 18.5457C15.4359 18.5456 15.4705 18.5501 15.5045 18.5593ZM15.4904 13.4672C15.4904 13.6857 15.3126 13.8635 15.0941 13.8635C14.8756 13.8635 14.6978 13.6857 14.6978 13.4672C14.6978 13.2487 14.8756 13.0709 15.0941 13.0709C15.3126 13.0709 15.4904 13.2487 15.4904 13.4672ZM19.9899 11.3873C19.7714 11.3873 19.5936 11.2095 19.5936 10.991C19.5936 10.7725 19.7714 10.5947 19.9899 10.5947C20.2084 10.5947 20.3862 10.7725 20.3862 10.991C20.3862 11.2095 20.2084 11.3873 19.9899 11.3873Z" fill="#4B586E"/>
<path d="M12.3294 10.9929C12.3294 10.4652 12.0621 9.9825 11.6145 9.70181C11.4751 9.6144 11.291 9.65653 11.2035 9.79598C11.1161 9.93547 11.1582 10.1195 11.2977 10.207C11.5703 10.3779 11.733 10.6717 11.733 10.9929C11.733 11.504 11.3173 11.9197 10.8062 11.9197C10.2952 11.9197 9.87948 11.5039 9.87948 10.9929C9.87948 10.6846 10.0323 10.3972 10.2883 10.2242C10.4248 10.132 10.4606 9.94672 10.3685 9.81029C10.2763 9.67386 10.091 9.63801 9.95454 9.73015C9.53416 10.0141 9.2832 10.4862 9.2832 10.9929C9.2832 11.8328 9.96646 12.516 10.8063 12.516C11.6461 12.516 12.3294 11.8327 12.3294 10.9929Z" fill="#4B586E"/>
<path d="M5.54779 11.287C5.71245 11.287 5.84593 11.1535 5.84593 10.9889C5.84593 10.8242 5.71245 10.6907 5.54779 10.6907H5.07502L4.17543 9.46187C4.0782 9.32902 3.89164 9.3002 3.75875 9.3974C3.6259 9.49467 3.59708 9.68123 3.69431 9.81408L4.33607 10.6907H2.56825C2.44136 10.2886 2.06495 9.9963 1.62152 9.9963C1.07417 9.9963 0.628906 10.4416 0.628906 10.9889C0.628906 11.5362 1.07417 11.9814 1.62152 11.9814C2.06495 11.9814 2.44136 11.6891 2.56825 11.287H4.33607L3.69435 12.1636C3.59712 12.2965 3.62594 12.483 3.75879 12.5803C3.8119 12.6192 3.87355 12.6379 3.93469 12.6379C4.02652 12.6379 4.11712 12.5956 4.17551 12.5159L5.0751 11.287H5.54779ZM1.62152 11.3852C1.403 11.3852 1.22519 11.2074 1.22519 10.9889C1.22519 10.7704 1.403 10.5926 1.62152 10.5926C1.84003 10.5926 2.01781 10.7704 2.01781 10.9889C2.01777 11.2074 1.84003 11.3852 1.62152 11.3852Z" fill="#4B586E"/>
</g>
<defs>
<clipPath id="clip0_2569_32162">
<rect width="20.3531" height="20.3531" fill="white" transform="translate(0.628906 0.8125)"/>
</clipPath>
</defs>
</svg>
