<svg width="14" height="14" viewBox="0 0 14 14" fill="none" xmlns="http://www.w3.org/2000/svg">
<path d="M5.19167 11.1707C4.82417 11.1707 4.48 11.0832 4.17667 10.9082C3.45917 10.4941 3.0625 9.65988 3.0625 8.56322V5.44238C3.0625 4.34572 3.45917 3.51155 4.17667 3.09738C4.89417 2.68322 5.81 2.75905 6.76667 3.30738L9.4675 4.86488C10.4183 5.41322 10.9433 6.17155 10.9433 6.99988C10.9433 7.82822 10.4183 8.58655 9.4675 9.13488L6.76667 10.6924C6.21833 11.0132 5.68167 11.1707 5.19167 11.1707ZM5.19167 3.70988C4.97583 3.70988 4.7775 3.75655 4.60833 3.85572C4.17667 4.10655 3.9375 4.66655 3.9375 5.44238V8.55738C3.9375 9.32738 4.17667 9.89322 4.61417 10.1441C5.05167 10.3949 5.65833 10.3191 6.32917 9.93405L9.03 8.37655C9.70083 7.99155 10.0683 7.50155 10.0683 6.99988C10.0683 6.49822 9.70083 6.00822 9.03 5.62322L6.32917 4.06572C5.915 3.82655 5.53 3.70988 5.19167 3.70988Z" fill="white"/>
</svg>
