<svg width="121" height="21" viewBox="0 0 121 21" fill="none" xmlns="http://www.w3.org/2000/svg">
<g clip-path="url(#clip0_10783_10469)">
<path d="M8.25192 10.0311C8.25192 11.5752 8.25192 13.1192 8.26078 14.6632C8.26078 14.8227 8.20983 14.9158 8.07027 14.9889C6.35344 15.8883 4.63883 16.7899 2.92421 17.6915C2.91535 17.6959 2.90206 17.6893 2.85111 17.6804V17.2595C2.85111 15.8661 2.85333 14.4705 2.84668 13.0771C2.84668 12.8999 2.87769 12.7803 3.05048 12.6917C4.04957 12.1777 5.04422 11.6549 6.03887 11.1343C6.71231 10.771 7.38575 10.4077 8.05919 10.0422C8.12565 10.0068 8.18768 9.99569 8.25192 10.0356V10.0311Z" fill="#016938"/>
<path d="M0.0155068 10.7865C0.0110763 9.22034 0.0110763 7.65414 0 6.08574C0 5.92181 0.0598121 5.82655 0.192728 5.75788C1.73012 4.95817 3.2653 4.15624 4.80269 3.35653C4.85143 3.33217 4.90459 3.31666 4.99099 3.28564V5.44996C4.99099 6.26739 4.98877 7.08704 4.9932 7.90447C4.9932 8.07726 4.97548 8.20353 4.79383 8.29435C3.93431 8.72855 3.08143 9.17825 2.22634 9.62351C1.49973 10.0311 0.770912 10.4343 0.0132916 10.7865H0.0155068Z" fill="#019049"/>
<path d="M15.6797 14.7342C15.2898 14.7342 14.9353 14.7276 14.5809 14.7364C14.417 14.7409 14.3682 14.6323 14.3106 14.5171C13.8875 13.6643 13.46 12.8158 13.0457 11.9607C12.9327 11.7259 12.7976 11.5996 12.5185 11.6329C12.2792 11.6594 12.0333 11.6506 11.7896 11.6329C11.5438 11.6151 11.4707 11.7126 11.4751 11.9519C11.4862 12.7582 11.4684 13.5668 11.4862 14.3731C11.4928 14.6478 11.4396 14.752 11.1339 14.7431C10.3719 14.7209 10.3719 14.7387 10.3719 13.9766C10.3719 11.912 10.3785 9.84736 10.3652 7.78495C10.3652 7.48368 10.4406 7.39063 10.7507 7.3995C11.6058 7.42165 12.4631 7.39285 13.3182 7.41057C14.891 7.44602 15.879 8.86821 15.3451 10.3126C15.1546 10.8265 14.7935 11.192 14.2907 11.3914C14.0492 11.4867 14.0625 11.5797 14.16 11.7658C14.6385 12.6807 15.1103 13.5978 15.5822 14.5149C15.6132 14.5747 15.6376 14.6368 15.6797 14.732V14.7342ZM11.4994 9.5483C11.4994 9.86065 11.5039 10.1708 11.4994 10.4831C11.4972 10.6471 11.5615 10.7069 11.7254 10.7025C12.2571 10.6914 12.7909 10.7157 13.3204 10.6759C14.0027 10.6227 14.3992 10.1575 14.3771 9.50843C14.3549 8.88372 13.9318 8.45396 13.265 8.42295C12.7577 8.39858 12.2482 8.41852 11.7387 8.40744C11.557 8.40301 11.4928 8.46947 11.4972 8.64669C11.5061 8.94575 11.4994 9.24702 11.4994 9.54609V9.5483Z" fill="#3C4146"/>
<path d="M39.5935 9.98473C39.7131 9.83188 39.5536 9.59042 39.7219 9.5594C40.0011 9.51067 40.2957 9.53946 40.5815 9.5594C40.6723 9.56605 40.6546 9.6901 40.6546 9.76764C40.6346 11.5421 40.7099 13.3165 40.6147 15.0909C40.5704 15.9172 39.9036 16.6394 39.0352 16.8188C38.251 16.9805 37.4978 16.903 36.8355 16.3957C36.6649 16.265 36.6028 16.1476 36.8133 16.0036C36.8332 15.9903 36.851 15.9748 36.8643 15.9571C37.0946 15.6735 37.2674 15.5539 37.6773 15.8153C38.5479 16.3691 39.4716 15.864 39.6001 14.845C39.6112 14.7653 39.6267 14.6833 39.6223 14.6058C39.6134 14.4485 39.6976 14.2292 39.5735 14.1494C39.4428 14.0652 39.3409 14.2846 39.2169 14.3577C38.3706 14.8627 36.8953 14.6279 36.5896 13.3298C36.399 12.5234 36.3946 11.706 36.543 10.8974C36.8044 9.4863 38.3773 8.96128 39.4738 9.89612C39.5071 9.92492 39.5447 9.94929 39.5935 9.98473ZM39.6112 12.0073C39.5935 11.6285 39.5824 11.2474 39.434 10.8908C39.2722 10.5031 38.9377 10.3901 38.5634 10.3946C38.1978 10.399 37.839 10.4743 37.6883 10.8797C37.4114 11.6307 37.4158 12.3905 37.6728 13.1415C37.8057 13.5292 38.1004 13.6599 38.6342 13.6443C39.0884 13.6311 39.3033 13.4804 39.4561 13.095C39.5957 12.7427 39.589 12.375 39.6112 12.0073Z" fill="#3C4146"/>
<path d="M25.4671 14.269C25.0528 14.6213 24.6164 14.7918 24.1113 14.7896C23.2518 14.7852 22.647 14.3754 22.4277 13.5468C22.173 12.5899 22.1818 11.6129 22.4299 10.6515C22.78 9.30019 24.4215 9.22265 25.1614 9.75432C25.2411 9.81191 25.3054 9.94262 25.4161 9.88502C25.5202 9.83185 25.4781 9.69672 25.4781 9.59703C25.4804 8.95239 25.4848 8.30554 25.4759 7.66089C25.4737 7.47481 25.5158 7.40392 25.7218 7.39949C26.5149 7.38399 26.5149 7.37512 26.5149 8.15933C26.5149 10.1885 26.5149 12.2177 26.5149 14.2469C26.5149 14.8162 26.5791 14.7254 26.0098 14.7342C25.9877 14.7342 25.9633 14.732 25.9411 14.7342C25.6155 14.7785 25.3895 14.7165 25.4693 14.269H25.4671ZM23.2895 11.9186C23.2584 12.1978 23.3227 12.4724 23.3338 12.7471C23.3382 12.8712 23.3714 12.9975 23.4024 13.1193C23.5309 13.6067 23.8632 13.8481 24.3927 13.8459C24.9199 13.8459 25.2123 13.6244 25.3452 13.1259C25.5069 12.5145 25.5092 11.8943 25.4006 11.2762C25.2987 10.6936 24.931 10.3857 24.3838 10.3857C23.8388 10.3857 23.5066 10.6604 23.3825 11.2363C23.3338 11.4601 23.3183 11.6905 23.2895 11.9186Z" fill="#3C4146"/>
<path d="M19.4013 12.4281C18.9273 12.4281 18.4532 12.4348 17.9791 12.4259C17.782 12.4237 17.7288 12.4769 17.7532 12.6873C17.8086 13.1702 17.9969 13.5712 18.451 13.7573C19.0026 13.9832 19.5852 13.9655 20.0548 13.5801C20.3207 13.3608 20.4359 13.4449 20.6242 13.6222C21.0384 14.0054 21.0428 14.001 20.5555 14.3355C19.5409 15.0311 18.0833 14.9269 17.3168 14.1073C17.082 13.857 16.9291 13.5601 16.8538 13.2345C16.6367 12.2841 16.6012 11.3382 17.1085 10.4588C17.5605 9.67234 18.4178 9.32011 19.3615 9.48847C20.1878 9.63468 20.8656 10.3369 21.034 11.2097C21.096 11.5287 21.1093 11.8477 21.1137 12.1712C21.116 12.3661 21.0517 12.437 20.8568 12.4348C20.3716 12.4259 19.8865 12.4326 19.3991 12.4326L19.4013 12.4281ZM18.9162 11.6971C19.2396 11.6971 19.5653 11.6949 19.8887 11.6971C20.015 11.6971 20.0726 11.6683 20.0703 11.5221C20.0571 10.8553 19.5586 10.3303 18.9251 10.3236C18.3048 10.317 17.8152 10.7911 17.7665 11.4202C17.751 11.624 17.782 11.7148 18.0146 11.6993C18.3136 11.6794 18.6149 11.6949 18.9162 11.6949V11.6971Z" fill="#3C4146"/>
<path d="M49.9164 12.1311C49.881 12.8666 49.861 13.6087 49.2762 14.1758C48.6338 14.7983 47.8739 14.9268 47.041 14.6764C46.1992 14.4239 45.7628 13.8058 45.641 12.9729C45.5501 12.3593 45.5501 11.739 45.6808 11.1209C45.9068 10.062 46.7264 9.41297 47.8075 9.45506C48.9218 9.49936 49.717 10.2038 49.85 11.2716C49.8854 11.5551 49.9408 11.8409 49.9164 12.1311ZM48.8775 12.1134C48.8575 11.8564 48.8464 11.6039 48.8132 11.3535C48.7379 10.782 48.3369 10.4143 47.7743 10.3899C47.2337 10.3677 46.8239 10.6912 46.6999 11.2605C46.578 11.8187 46.5913 12.3836 46.6821 12.9419C46.7796 13.54 47.2116 13.8679 47.7986 13.8479C48.3436 13.8302 48.7401 13.4514 48.8132 12.8688C48.8442 12.6185 48.8553 12.3637 48.8752 12.1156L48.8775 12.1134Z" fill="#3C4146"/>
<path d="M52.3361 10.0156C52.7171 9.72318 53.0405 9.53045 53.426 9.48171C54.6311 9.32443 55.4906 10.0112 55.5349 11.2296C55.5726 12.3239 55.5416 13.4205 55.5482 14.517C55.5482 14.6765 55.5039 14.7297 55.3356 14.7385C54.5071 14.7828 54.5071 14.7873 54.5071 13.9543C54.5071 13.1347 54.5181 12.3173 54.5026 11.4976C54.4938 11.0479 54.332 10.658 53.8823 10.4675C53.4437 10.2814 52.963 10.3922 52.6396 10.7245C52.3915 10.9792 52.376 11.3027 52.3738 11.6239C52.3693 12.5587 52.3649 13.4913 52.376 14.4262C52.3782 14.6632 52.3139 14.7408 52.0658 14.7385C51.3193 14.7319 51.3193 14.743 51.3193 14.0009C51.3193 12.6274 51.3282 11.2561 51.3126 9.88268C51.3082 9.58362 51.4057 9.49058 51.6848 9.53045C51.7756 9.54374 51.8709 9.54374 51.9617 9.53045C52.2696 9.48171 52.4181 9.59026 52.3339 10.0134L52.3361 10.0156Z" fill="#3C4146"/>
<path d="M31.8792 9.94692C32.0564 9.94471 32.1207 9.83616 32.2137 9.77856C32.8517 9.38646 33.5141 9.32886 34.1831 9.67001C34.8144 9.99123 35.0581 10.5561 35.0648 11.2318C35.0736 12.315 35.0648 13.3983 35.0736 14.4816C35.0736 14.6699 35.0293 14.7363 34.8255 14.7408C34.0324 14.7563 34.0324 14.7651 34.0324 13.9876C34.0324 13.1236 34.0413 12.2597 34.0258 11.3957C34.0169 10.8264 33.6891 10.4786 33.1264 10.3922C32.6457 10.3169 32.1428 10.6226 31.9789 11.0811C31.9191 11.2495 31.9346 11.4223 31.9346 11.5929C31.9302 12.5366 31.9257 13.4825 31.9368 14.4262C31.939 14.6654 31.8748 14.7408 31.6289 14.7408C30.8934 14.7363 30.8934 14.7474 30.8934 14.0009C30.8934 12.6185 30.9001 11.2362 30.8868 9.85388C30.8846 9.59248 30.9577 9.49279 31.2168 9.53488C31.2722 9.54374 31.332 9.53488 31.3896 9.53488C31.6688 9.53931 32.0365 9.42634 31.8814 9.94692H31.8792Z" fill="#3C4146"/>
<path d="M8.25179 10.0312C8.18533 9.99132 8.1233 10.0024 8.05906 10.0378C7.38562 10.4034 6.71218 10.7667 6.03874 11.13C6.07197 10.9239 5.88146 10.9239 5.77513 10.8663C5.12827 10.5163 4.47255 10.1818 3.81905 9.8429C3.75037 9.80745 3.64626 9.79416 3.64847 9.6989C3.64847 9.60586 3.75481 9.58814 3.82126 9.5527C4.41274 9.24477 5.002 8.93242 5.5979 8.63779C5.81943 8.52703 5.91469 8.38747 5.90804 8.12828C5.89032 7.43934 5.9014 6.74817 5.9014 6.0415C6.134 6.05923 6.2935 6.201 6.47072 6.29404C6.96029 6.5488 7.44322 6.81463 7.93279 7.0716C8.15432 7.18901 8.2673 7.33965 8.26065 7.61213C8.24071 8.41627 8.25179 9.22262 8.24957 10.029L8.25179 10.0312Z" fill="#59B557"/>
<path d="M0.0158991 10.7865C0.773519 10.4343 1.50234 10.0311 2.22895 9.62354C2.18686 9.83177 2.3818 9.83398 2.48592 9.88937C3.11284 10.2283 3.74862 10.5495 4.37775 10.8818C4.45972 10.9261 4.61036 10.9261 4.59706 11.0612C4.58599 11.1786 4.45086 11.1897 4.36225 11.2362C3.61127 11.635 2.86694 12.0426 2.10711 12.4236C1.91216 12.5211 1.87672 12.6385 1.87894 12.8246C1.8878 13.2854 1.87451 13.7461 1.88337 14.2047C1.8878 14.424 1.78589 14.4417 1.63083 14.3598C1.14347 14.1028 0.662756 13.8325 0.170968 13.5822C0.0092533 13.5002 0.0136838 13.3784 0.0136838 13.2388C0.0136838 12.4214 0.0158991 11.604 0.0181144 10.7888L0.0158991 10.7865Z" fill="#59B557"/>
<path d="M42.4359 11.9805C42.4359 11.5551 42.427 11.1276 42.4403 10.7023C42.447 10.4918 42.4049 10.3589 42.1612 10.401C41.8599 10.4541 41.8489 10.2703 41.8666 10.0532C41.8821 9.84495 41.7669 9.55475 42.1701 9.61456C42.3827 9.64557 42.4514 9.55696 42.4426 9.3443C42.427 8.98764 42.4359 8.63098 42.4426 8.27211C42.4426 8.19015 42.396 8.05502 42.5289 8.04615C42.8169 8.02843 43.1071 8.02179 43.3929 8.04615C43.5214 8.05723 43.4859 8.2123 43.4882 8.30756C43.4926 8.65314 43.5014 8.99872 43.4882 9.3443C43.4771 9.56139 43.559 9.6345 43.7673 9.61235C43.8825 9.59905 43.9999 9.62342 44.1129 9.60792C44.4341 9.56139 44.5138 9.69431 44.516 10.0067C44.516 10.3257 44.4274 10.4187 44.1106 10.4076C43.4948 10.3855 43.4926 10.4032 43.4926 11.0235C43.4926 11.7368 43.4882 12.4523 43.4926 13.1656C43.497 13.6951 43.6477 13.8501 44.1771 13.8369C44.4319 13.8302 44.5471 13.89 44.5027 14.1581C44.4872 14.2489 44.4895 14.3441 44.5027 14.435C44.536 14.6853 44.4252 14.7407 44.1882 14.7429C43.1271 14.7473 42.6198 14.3929 42.4581 13.5023C42.4403 13.4004 42.4403 13.2963 42.4403 13.1922C42.4403 12.789 42.4403 12.3859 42.4403 11.9827L42.4359 11.9805Z" fill="#3C4146"/>
<path d="M28.1646 12.1091C28.1646 11.336 28.169 10.5651 28.1602 9.79194C28.1602 9.60364 28.2067 9.53497 28.4105 9.52832C29.2191 9.50396 29.2191 9.49731 29.2191 10.3059C29.2191 11.6771 29.2146 13.0506 29.2235 14.4218C29.2235 14.6544 29.1703 14.7431 28.9156 14.7408C28.1624 14.7364 28.1624 14.7475 28.1624 14.012C28.1624 13.3785 28.1624 12.7449 28.1624 12.1091H28.1646Z" fill="#3C4146"/>
<path d="M29.2329 7.91549C29.2329 8.50032 29.2329 8.50253 28.6547 8.4981C28.0588 8.49589 28.1341 8.56899 28.1319 7.95536C28.1297 7.37939 28.1319 7.37939 28.7211 7.37939C29.0623 7.37939 29.2329 7.55809 29.2329 7.91549Z" fill="#3C4146"/>
</g>
<path d="M60.9404 3.37256V17.5981" stroke="#585858" stroke-width="0.381245"/>
<g clip-path="url(#clip1_10783_10469)">
<path d="M73.4438 8.43382C73.4438 8.74237 73.4765 8.99255 73.5339 9.17602C73.5994 9.35948 73.6813 9.55962 73.796 9.77644C73.837 9.84316 73.8534 9.90987 73.8534 9.96825C73.8534 10.0516 73.8042 10.135 73.6977 10.2184L73.1816 10.5687C73.1079 10.6187 73.0341 10.6437 72.9686 10.6437C72.8867 10.6437 72.8047 10.602 72.7228 10.527C72.6081 10.4019 72.5098 10.2685 72.4279 10.135C72.3459 9.99326 72.264 9.83482 72.1739 9.64302C71.5349 10.4102 70.732 10.7938 69.7653 10.7938C69.0771 10.7938 68.5282 10.5937 68.1268 10.1934C67.7253 9.79312 67.5205 9.25941 67.5205 8.59227C67.5205 7.88343 67.7663 7.30802 68.266 6.87438C68.7658 6.44074 69.4294 6.22392 70.2732 6.22392C70.5518 6.22392 70.8385 6.24893 71.1416 6.29063C71.4448 6.33233 71.7561 6.39904 72.0838 6.47409V5.86533C72.0838 5.23154 71.9527 4.78956 71.6987 4.53105C71.4366 4.27253 70.9942 4.14744 70.3633 4.14744C70.0766 4.14744 69.7817 4.1808 69.4785 4.25585C69.1754 4.3309 68.8805 4.42263 68.5937 4.53938C68.4627 4.59776 68.3643 4.63112 68.307 4.6478C68.2496 4.66447 68.2087 4.67281 68.1759 4.67281C68.0612 4.67281 68.0039 4.58942 68.0039 4.4143V4.00567C68.0039 3.87224 68.0203 3.77217 68.0612 3.7138C68.1022 3.65542 68.1759 3.59705 68.2906 3.53867C68.5774 3.38857 68.9214 3.26348 69.3229 3.16341C69.7243 3.055 70.1503 3.00496 70.6009 3.00496C71.5758 3.00496 72.2886 3.23012 72.7474 3.68044C73.198 4.13076 73.4274 4.81458 73.4274 5.7319V8.43382H73.4438ZM70.1176 9.70139C70.3879 9.70139 70.6665 9.65135 70.9614 9.55128C71.2563 9.45121 71.5185 9.26775 71.7397 9.01757C71.8708 8.85912 71.9691 8.684 72.0182 8.48386C72.0674 8.28372 72.1002 8.04188 72.1002 7.75834V7.40809C71.8626 7.34972 71.6086 7.29968 71.3464 7.26632C71.0843 7.23297 70.8303 7.21629 70.5763 7.21629C70.0274 7.21629 69.626 7.3247 69.3556 7.54986C69.0853 7.77502 68.9542 8.09191 68.9542 8.50888C68.9542 8.90082 69.0525 9.1927 69.2573 9.39284C69.454 9.60132 69.7407 9.70139 70.1176 9.70139ZM76.6962 10.602C76.5487 10.602 76.4504 10.577 76.3849 10.5186C76.3194 10.4686 76.262 10.3519 76.2128 10.1934L74.2876 3.74715C74.2384 3.58037 74.2139 3.47196 74.2139 3.41358C74.2139 3.28016 74.2794 3.2051 74.4105 3.2051H75.2134C75.369 3.2051 75.4755 3.23012 75.5329 3.28849C75.5984 3.33853 75.6476 3.45528 75.6967 3.61373L77.0731 9.13432L78.3511 3.61373C78.3921 3.44694 78.4412 3.33853 78.5068 3.28849C78.5723 3.23846 78.687 3.2051 78.8345 3.2051H79.4899C79.6455 3.2051 79.752 3.23012 79.8176 3.28849C79.8831 3.33853 79.9405 3.45528 79.9732 3.61373L81.2677 9.20103L82.685 3.61373C82.7342 3.44694 82.7915 3.33853 82.8488 3.28849C82.9144 3.23846 83.0209 3.2051 83.1684 3.2051H83.9303C84.0613 3.2051 84.1351 3.27182 84.1351 3.41358C84.1351 3.45528 84.1269 3.49698 84.1187 3.54701C84.1105 3.59705 84.0941 3.66376 84.0613 3.75549L82.0869 10.2017C82.0378 10.3685 81.9804 10.4769 81.9149 10.527C81.8494 10.577 81.7428 10.6104 81.6036 10.6104H80.899C80.7434 10.6104 80.6368 10.5854 80.5713 10.527C80.5058 10.4686 80.4484 10.3602 80.4156 10.1934L79.1458 4.81458L77.8841 10.1851C77.8432 10.3519 77.794 10.4603 77.7285 10.5186C77.6629 10.577 77.5482 10.602 77.4008 10.602H76.6962ZM87.2237 10.8272C86.7977 10.8272 86.3717 10.7772 85.962 10.6771C85.5524 10.577 85.2329 10.4686 85.0199 10.3435C84.8888 10.2685 84.7987 10.1851 84.7659 10.11C84.7331 10.035 84.7168 9.95157 84.7168 9.87651V9.45121C84.7168 9.27609 84.7823 9.1927 84.9052 9.1927C84.9543 9.1927 85.0035 9.20103 85.0527 9.21771C85.1018 9.23439 85.1755 9.26775 85.2575 9.30111C85.536 9.42619 85.8391 9.52627 86.1587 9.59298C86.4864 9.65969 86.8059 9.69305 87.1336 9.69305C87.6497 9.69305 88.0511 9.60132 88.3297 9.41785C88.6082 9.23439 88.7557 8.96753 88.7557 8.62562C88.7557 8.39213 88.682 8.20032 88.5345 8.04188C88.387 7.88343 88.1085 7.74166 87.7071 7.60823L86.5191 7.23297C85.9211 7.04116 85.4787 6.75763 85.2083 6.38236C84.938 6.01543 84.7987 5.60681 84.7987 5.17317C84.7987 4.82292 84.8724 4.51437 85.0199 4.24751C85.1674 3.98065 85.364 3.74715 85.6098 3.56369C85.8555 3.37189 86.1341 3.23012 86.4618 3.13005C86.7895 3.02998 87.1336 2.98828 87.494 2.98828C87.6743 2.98828 87.8627 2.99662 88.043 3.02164C88.2314 3.04666 88.4034 3.08001 88.5755 3.11337C88.7393 3.15507 88.895 3.19676 89.0424 3.2468C89.1899 3.29683 89.3046 3.34687 89.3865 3.39691C89.5012 3.46362 89.5832 3.53033 89.6323 3.60539C89.6815 3.6721 89.706 3.76383 89.706 3.88058V4.27253C89.706 4.44765 89.6405 4.53938 89.5176 4.53938C89.4521 4.53938 89.3456 4.50603 89.2063 4.43931C88.7393 4.22249 88.215 4.11408 87.6333 4.11408C87.1663 4.11408 86.7977 4.18914 86.5437 4.34758C86.2897 4.50603 86.1587 4.74787 86.1587 5.08978C86.1587 5.32328 86.2406 5.52342 86.4044 5.68186C86.5683 5.84031 86.8714 5.99876 87.3056 6.14052L88.469 6.51579C89.0588 6.70759 89.4848 6.97445 89.7388 7.31636C89.9928 7.65827 90.1157 8.05022 90.1157 8.48386C90.1157 8.84245 90.0419 9.16768 89.9027 9.45121C89.7552 9.73475 89.5586 9.98493 89.3046 10.1851C89.0506 10.3935 88.7475 10.5437 88.3952 10.6521C88.0266 10.7688 87.6415 10.8272 87.2237 10.8272Z" fill="#3C4146"/>
<path fill-rule="evenodd" clip-rule="evenodd" d="M88.772 14.8802C86.0767 16.9066 82.1606 17.9824 78.7935 17.9824C74.0745 17.9824 69.8226 16.2061 66.6111 13.254C66.3571 13.0205 66.5865 12.7036 66.8896 12.8871C70.3633 14.9385 74.648 16.1811 79.0802 16.1811C82.0705 16.1811 85.3557 15.5473 88.3788 14.2464C88.8294 14.0379 89.2144 14.5466 88.772 14.8802Z" fill="#FF9900"/>
<path fill-rule="evenodd" clip-rule="evenodd" d="M89.895 13.5791C89.5509 13.1288 87.6175 13.3623 86.7409 13.4707C86.4787 13.5041 86.4377 13.2706 86.6753 13.0955C88.2155 11.9947 90.747 12.3116 91.042 12.6785C91.3369 13.0538 90.96 15.6306 89.5181 16.8648C89.2969 17.0566 89.0839 16.9565 89.1822 16.7064C89.5099 15.8808 90.2391 14.0211 89.895 13.5791Z" fill="#FF9900"/>
</g>
<path d="M108.631 10.1467L110.084 11.2312L107.557 14.6173C107.185 15.1159 107.63 15.8143 108.24 15.6837L114.819 14.2962C115.392 14.1751 115.554 13.4388 115.084 13.0878L113.63 12.0033L116.157 8.61722C116.529 8.11871 116.084 7.42026 115.474 7.55081L108.896 8.93841C108.327 9.06299 108.165 9.79925 108.631 10.1467Z" stroke="#5CB456" stroke-width="1.15762" stroke-miterlimit="10" stroke-linecap="round" stroke-linejoin="round"/>
<path d="M111.502 5.49446L108.21 3.0376" stroke="#5CB456" stroke-width="1.15762" stroke-miterlimit="10" stroke-linecap="round" stroke-linejoin="round"/>
<path d="M105.415 12.6684L102.594 10.5625" stroke="#5CB456" stroke-width="1.15762" stroke-miterlimit="10" stroke-linecap="round" stroke-linejoin="round"/>
<path d="M106.813 7.85299L105.402 6.80005" stroke="#5CB456" stroke-width="1.15762" stroke-miterlimit="10" stroke-linecap="round" stroke-linejoin="round"/>
<defs>
<clipPath id="clip0_10783_10469">
<rect width="55.6031" height="14.3992" fill="white" transform="translate(0 3.28564)"/>
</clipPath>
<clipPath id="clip1_10783_10469">
<rect width="25.137" height="14.994" fill="white" transform="translate(66.2783 2.98828)"/>
</clipPath>
</defs>
</svg>
