<svg width="16" height="16" viewBox="0 0 16 16" fill="none" xmlns="http://www.w3.org/2000/svg">
<path opacity="0.4" d="M8.00016 14.6667C11.6821 14.6667 14.6668 11.6819 14.6668 8.00004C14.6668 4.31814 11.6821 1.33337 8.00016 1.33337C4.31826 1.33337 1.3335 4.31814 1.3335 8.00004C1.3335 11.6819 4.31826 14.6667 8.00016 14.6667Z" fill="#3C4146"/>
<path d="M10.4731 10.62C10.3864 10.62 10.2998 10.6 10.2198 10.5467L8.1531 9.31338C7.63977 9.00671 7.25977 8.33338 7.25977 7.74005V5.00671C7.25977 4.73338 7.48643 4.50671 7.75977 4.50671C8.0331 4.50671 8.25977 4.73338 8.25977 5.00671V7.74005C8.25977 7.98005 8.45977 8.33338 8.66643 8.45338L10.7331 9.68671C10.9731 9.82671 11.0464 10.1334 10.9064 10.3734C10.8064 10.5334 10.6398 10.62 10.4731 10.62Z" fill="#3C4146"/>
</svg>
