<svg width="14" height="14" viewBox="0 0 14 14" fill="none" xmlns="http://www.w3.org/2000/svg">
<path d="M5.86466 10.0051C5.04584 10.0051 4.2454 9.76229 3.56457 9.30738C2.88374 8.85247 2.3531 8.20589 2.03975 7.44941C1.7264 6.69292 1.64442 5.86051 1.80416 5.05742C1.96391 4.25434 2.35821 3.51667 2.9372 2.93768C3.5162 2.35869 4.25389 1.96439 5.05698 1.80465C5.86007 1.64491 6.69249 1.72689 7.44899 2.04024C8.20548 2.35358 8.85207 2.88422 9.30698 3.56504C9.7619 4.24586 10.0047 5.04628 10.0047 5.8651C10.0035 6.96272 9.5669 8.01502 8.79075 8.79116C8.01461 9.56729 6.96229 10.0039 5.86466 10.0051ZM5.86466 2.7601C5.25054 2.7601 4.65021 2.9422 4.13959 3.28339C3.62897 3.62457 3.23099 4.1095 2.99598 4.67687C2.76097 5.24423 2.69948 5.86854 2.81929 6.47085C2.93909 7.07316 3.23482 7.62642 3.66907 8.06066C4.10331 8.4949 4.65658 8.79063 5.2589 8.91043C5.86122 9.03024 6.48553 8.96875 7.05291 8.73374C7.62028 8.49873 8.10522 8.10076 8.4464 7.59014C8.78759 7.07953 8.9697 6.47921 8.9697 5.8651C8.96887 5.04185 8.64147 4.25256 8.05934 3.67044C7.47722 3.08832 6.68791 2.76092 5.86466 2.7601Z" fill="#2C363F"/>
<path d="M11.5572 12.0751C11.42 12.0751 11.2884 12.0205 11.1913 11.9235L9.12131 9.85347C9.02704 9.75587 8.97488 9.62515 8.97606 9.48946C8.97724 9.35378 9.03167 9.22398 9.12762 9.12803C9.22357 9.03208 9.35336 8.97766 9.48905 8.97648C9.62474 8.9753 9.75546 9.02746 9.85307 9.12173L11.9231 11.1917C11.9954 11.2641 12.0447 11.3563 12.0647 11.4567C12.0846 11.557 12.0744 11.6611 12.0352 11.7556C11.9961 11.8502 11.9298 11.931 11.8447 11.9878C11.7596 12.0447 11.6596 12.0751 11.5572 12.0751Z" fill="#2C363F"/>
</svg>
