<svg width="24" height="25" viewBox="0 0 24 25" fill="none" xmlns="http://www.w3.org/2000/svg">
<path d="M8 6.25C7.59 6.25 7.25 5.91 7.25 5.5V2.5C7.25 2.09 7.59 1.75 8 1.75C8.41 1.75 8.75 2.09 8.75 2.5V5.5C8.75 5.91 8.41 6.25 8 6.25Z" fill="#077397"/>
<path d="M16 6.25C15.59 6.25 15.25 5.91 15.25 5.5V2.5C15.25 2.09 15.59 1.75 16 1.75C16.41 1.75 16.75 2.09 16.75 2.5V5.5C16.75 5.91 16.41 6.25 16 6.25Z" fill="#077397"/>
<path d="M8.5 15C8.37 15 8.24 14.97 8.12 14.92C7.99 14.87 7.89001 14.8 7.79001 14.71C7.61001 14.52 7.5 14.26 7.5 14C7.5 13.74 7.61001 13.48 7.79001 13.29C7.89001 13.2 8 13.13 8.12 13.08C8.36 12.98 8.64 12.98 8.88 13.08C9 13.13 9.10999 13.2 9.20999 13.29C9.24999 13.34 9.29999 13.39 9.32999 13.44C9.36999 13.5 9.40001 13.56 9.42001 13.62C9.45001 13.68 9.47001 13.74 9.48001 13.8C9.49001 13.87 9.5 13.94 9.5 14C9.5 14.26 9.38999 14.52 9.20999 14.71C9.10999 14.8 9 14.87 8.88 14.92C8.76 14.97 8.63 15 8.5 15Z" fill="#077397"/>
<path d="M12 15C11.87 15 11.74 14.97 11.62 14.92C11.49 14.87 11.39 14.8 11.29 14.71C11.11 14.52 11 14.26 11 14C11 13.94 11.01 13.87 11.02 13.8C11.03 13.74 11.05 13.68 11.08 13.62C11.1 13.56 11.13 13.5 11.17 13.44C11.21 13.39 11.25 13.34 11.29 13.29C11.66 12.92 12.33 12.92 12.71 13.29C12.75 13.34 12.79 13.39 12.83 13.44C12.87 13.5 12.9 13.56 12.92 13.62C12.95 13.68 12.97 13.74 12.98 13.8C12.99 13.87 13 13.94 13 14C13 14.26 12.89 14.52 12.71 14.71C12.52 14.89 12.27 15 12 15Z" fill="#077397"/>
<path d="M8.5 18.5C8.37 18.5 8.24 18.47 8.12 18.42C8 18.37 7.89001 18.3 7.79001 18.21C7.61001 18.02 7.5 17.76 7.5 17.5C7.5 17.44 7.50999 17.37 7.51999 17.31C7.52999 17.24 7.54999 17.18 7.57999 17.12C7.59999 17.06 7.63001 17 7.67001 16.94C7.70001 16.89 7.75001 16.84 7.79001 16.79C7.89001 16.7 8 16.63 8.12 16.58C8.36 16.48 8.64 16.48 8.88 16.58C9 16.63 9.10999 16.7 9.20999 16.79C9.24999 16.84 9.29999 16.89 9.32999 16.94C9.36999 17 9.40001 17.06 9.42001 17.12C9.45001 17.18 9.47001 17.24 9.48001 17.31C9.49001 17.37 9.5 17.44 9.5 17.5C9.5 17.76 9.38999 18.02 9.20999 18.21C9.10999 18.3 9 18.37 8.88 18.42C8.76 18.47 8.63 18.5 8.5 18.5Z" fill="#077397"/>
<path d="M20.5 10.34H3.5C3.09 10.34 2.75 9.99997 2.75 9.58997C2.75 9.17997 3.09 8.83997 3.5 8.83997H20.5C20.91 8.83997 21.25 9.17997 21.25 9.58997C21.25 9.99997 20.91 10.34 20.5 10.34Z" fill="#077397"/>
<path d="M15.8201 23.28C15.4401 23.28 15.0801 23.14 14.8201 22.88C14.5101 22.57 14.3701 22.12 14.4401 21.65L14.6301 20.3C14.6801 19.95 14.8901 19.53 15.1401 19.28L18.68 15.74C19.16 15.26 19.6301 15.01 20.1401 14.96C20.7701 14.9 21.38 15.16 21.96 15.74C22.57 16.35 23.39 17.59 21.96 19.02L18.4201 22.56C18.1701 22.81 17.75 23.02 17.4 23.07L16.05 23.26C15.97 23.27 15.9001 23.28 15.8201 23.28ZM20.31 16.45C20.3 16.45 20.29 16.45 20.28 16.45C20.14 16.46 19.95 16.59 19.74 16.8L16.2001 20.34C16.1701 20.37 16.12 20.47 16.12 20.51L15.9401 21.76L17.1901 21.58C17.2301 21.57 17.33 21.52 17.36 21.49L20.9 17.95C21.34 17.51 21.4 17.29 20.9 16.79C20.74 16.64 20.51 16.45 20.31 16.45Z" fill="#077397"/>
<path d="M20.9201 19.7499C20.8501 19.7499 20.7801 19.7399 20.7201 19.7199C19.4001 19.3499 18.3501 18.2999 17.9801 16.9799C17.8701 16.5799 18.1001 16.1699 18.5001 16.0499C18.9001 15.9399 19.3101 16.1699 19.4301 16.5699C19.6601 17.3899 20.3101 18.0399 21.1301 18.2699C21.5301 18.3799 21.7601 18.7999 21.6501 19.1999C21.5501 19.5299 21.2501 19.7499 20.9201 19.7499Z" fill="#077397"/>
<path d="M12 23.25H8C4.35 23.25 2.25 21.15 2.25 17.5V9C2.25 5.35 4.35 3.25 8 3.25H16C19.65 3.25 21.75 5.35 21.75 9V12.5C21.75 12.91 21.41 13.25 21 13.25C20.59 13.25 20.25 12.91 20.25 12.5V9C20.25 6.14 18.86 4.75 16 4.75H8C5.14 4.75 3.75 6.14 3.75 9V17.5C3.75 20.36 5.14 21.75 8 21.75H12C12.41 21.75 12.75 22.09 12.75 22.5C12.75 22.91 12.41 23.25 12 23.25Z" fill="#077397"/>
</svg>
