<svg width="24" height="25" viewBox="0 0 24 25" fill="none" xmlns="http://www.w3.org/2000/svg">
<path d="M8 6.25C7.59 6.25 7.25 5.91 7.25 5.5V2.5C7.25 2.09 7.59 1.75 8 1.75C8.41 1.75 8.75 2.09 8.75 2.5V5.5C8.75 5.91 8.41 6.25 8 6.25Z" fill="#9CA1AB"/>
<path d="M16 6.25C15.59 6.25 15.25 5.91 15.25 5.5V2.5C15.25 2.09 15.59 1.75 16 1.75C16.41 1.75 16.75 2.09 16.75 2.5V5.5C16.75 5.91 16.41 6.25 16 6.25Z" fill="#9CA1AB"/>
<path d="M8.5 14.9989C8.37 14.9989 8.24 14.9689 8.12 14.9189C7.99 14.8689 7.89001 14.7989 7.79001 14.7089C7.61001 14.5189 7.5 14.2589 7.5 13.9989C7.5 13.7389 7.61001 13.4789 7.79001 13.2889C7.89001 13.1989 8 13.1289 8.12 13.0789C8.36 12.9789 8.64 12.9789 8.88 13.0789C9 13.1289 9.10999 13.1989 9.20999 13.2889C9.24999 13.3389 9.29999 13.3889 9.32999 13.4389C9.36999 13.4989 9.40001 13.5589 9.42001 13.6189C9.45001 13.6789 9.47001 13.7389 9.48001 13.7989C9.49001 13.8689 9.5 13.9389 9.5 13.9989C9.5 14.2589 9.38999 14.5189 9.20999 14.7089C9.10999 14.7989 9 14.8689 8.88 14.9189C8.76 14.9689 8.63 14.9989 8.5 14.9989Z" fill="#9CA1AB"/>
<path d="M12 14.9992C11.87 14.9992 11.74 14.9692 11.62 14.9192C11.49 14.8692 11.39 14.7992 11.29 14.7092C11.11 14.5192 11 14.2592 11 13.9992C11 13.9392 11.01 13.8692 11.02 13.7992C11.03 13.7392 11.05 13.6792 11.08 13.6192C11.1 13.5592 11.13 13.4992 11.17 13.4392C11.21 13.3892 11.25 13.3392 11.29 13.2892C11.66 12.9192 12.33 12.9192 12.71 13.2892C12.75 13.3392 12.79 13.3892 12.83 13.4392C12.87 13.4992 12.9 13.5592 12.92 13.6192C12.95 13.6792 12.97 13.7392 12.98 13.7992C12.99 13.8692 13 13.9392 13 13.9992C13 14.2592 12.89 14.5192 12.71 14.7092C12.52 14.8892 12.27 14.9992 12 14.9992Z" fill="#9CA1AB"/>
<path d="M8.5 18.4989C8.37 18.4989 8.24 18.4689 8.12 18.4189C8 18.3689 7.89001 18.2989 7.79001 18.2089C7.61001 18.0189 7.5 17.7589 7.5 17.4989C7.5 17.4389 7.50999 17.3689 7.51999 17.3089C7.52999 17.2389 7.54999 17.1789 7.57999 17.1189C7.59999 17.0589 7.63001 16.9989 7.67001 16.9389C7.70001 16.8889 7.75001 16.8389 7.79001 16.7889C7.89001 16.6989 8 16.6289 8.12 16.5789C8.36 16.4789 8.64 16.4789 8.88 16.5789C9 16.6289 9.10999 16.6989 9.20999 16.7889C9.24999 16.8389 9.29999 16.8889 9.32999 16.9389C9.36999 16.9989 9.40001 17.0589 9.42001 17.1189C9.45001 17.1789 9.47001 17.2389 9.48001 17.3089C9.49001 17.3689 9.5 17.4389 9.5 17.4989C9.5 17.7589 9.38999 18.0189 9.20999 18.2089C9.10999 18.2989 9 18.3689 8.88 18.4189C8.76 18.4689 8.63 18.4989 8.5 18.4989Z" fill="#9CA1AB"/>
<path d="M20.5 10.3398H3.5C3.09 10.3398 2.75 9.99984 2.75 9.58984C2.75 9.17984 3.09 8.83984 3.5 8.83984H20.5C20.91 8.83984 21.25 9.17984 21.25 9.58984C21.25 9.99984 20.91 10.3398 20.5 10.3398Z" fill="#9CA1AB"/>
<path d="M15.8196 23.2816C15.4396 23.2816 15.0796 23.1416 14.8196 22.8816C14.5096 22.5716 14.3696 22.1216 14.4396 21.6516L14.6296 20.3016C14.6796 19.9516 14.8896 19.5316 15.1396 19.2816L18.6796 15.7416C19.1596 15.2616 19.6296 15.0116 20.1396 14.9616C20.7696 14.9016 21.3796 15.1616 21.9596 15.7416C22.5696 16.3516 23.3896 17.5916 21.9596 19.0216L18.4196 22.5616C18.1696 22.8116 17.7496 23.0216 17.3996 23.0716L16.0495 23.2616C15.9695 23.2716 15.8996 23.2816 15.8196 23.2816ZM20.3096 16.4516C20.2996 16.4516 20.2896 16.4516 20.2796 16.4516C20.1396 16.4616 19.9496 16.5916 19.7396 16.8016L16.1996 20.3416C16.1696 20.3716 16.1196 20.4716 16.1196 20.5116L15.9396 21.7616L17.1896 21.5816C17.2296 21.5716 17.3295 21.5216 17.3595 21.4916L20.8996 17.9516C21.3396 17.5116 21.3996 17.2916 20.8996 16.7916C20.7396 16.6416 20.5096 16.4516 20.3096 16.4516Z" fill="#9CA1AB"/>
<path d="M20.9206 19.7509C20.8506 19.7509 20.7806 19.7409 20.7206 19.7209C19.4006 19.3509 18.3506 18.3009 17.9806 16.9809C17.8706 16.5809 18.1006 16.1709 18.5006 16.0509C18.9006 15.9409 19.3106 16.1709 19.4306 16.5709C19.6606 17.3909 20.3106 18.0409 21.1306 18.2709C21.5306 18.3809 21.7606 18.8009 21.6506 19.2009C21.5506 19.5309 21.2506 19.7509 20.9206 19.7509Z" fill="#9CA1AB"/>
<path d="M12 23.25H8C4.35 23.25 2.25 21.15 2.25 17.5V9C2.25 5.35 4.35 3.25 8 3.25H16C19.65 3.25 21.75 5.35 21.75 9V12.5C21.75 12.91 21.41 13.25 21 13.25C20.59 13.25 20.25 12.91 20.25 12.5V9C20.25 6.14 18.86 4.75 16 4.75H8C5.14 4.75 3.75 6.14 3.75 9V17.5C3.75 20.36 5.14 21.75 8 21.75H12C12.41 21.75 12.75 22.09 12.75 22.5C12.75 22.91 12.41 23.25 12 23.25Z" fill="#9CA1AB"/>
</svg>
