<svg width="24" height="24" viewBox="0 0 24 24" fill="none" xmlns="http://www.w3.org/2000/svg">
<mask id="mask0_4131_10054" style="mask-type:luminance" maskUnits="userSpaceOnUse" x="0" y="0" width="25" height="24">
<path d="M24.0008 0H0V24H24.0008V0Z" fill="white"/>
</mask>
<g mask="url(#mask0_4131_10054)">
<path d="M21.7053 4.94363C21.3601 4.46985 20.981 4.02179 20.5708 3.60296C20.5417 3.57361 20.514 3.54445 20.4849 3.5151C19.1885 2.21745 17.6121 1.23412 15.8766 0.640625V16.3819C15.8766 16.9096 15.7727 17.4321 15.5708 17.9195C15.3689 18.4071 15.0729 18.85 14.6998 19.2231C14.3267 19.5963 13.8838 19.8923 13.3962 20.0941C12.9087 20.296 12.3862 20.3999 11.8586 20.3999H9.46338V23.7327C10.2971 23.9105 11.1472 24.0002 11.9997 24.0002C14.2133 24.0004 16.3838 23.3884 18.2712 22.2318C20.1586 21.0752 21.6892 19.4189 22.6937 17.4464C23.6983 15.4739 24.1376 13.2619 23.9632 11.0552C23.7888 8.84851 23.0073 6.73306 21.7053 4.94287V4.94363Z" fill="#0064AF"/>
<path d="M11.9999 1.9909e-09C9.78639 0.000210788 7.61604 0.612607 5.72888 1.76947C3.84175 2.92632 2.3113 4.58258 1.30683 6.55506C0.30235 8.52754 -0.137032 10.7394 0.0372701 12.9461C0.211571 15.1527 0.992771 17.2682 2.29447 19.0585C2.64045 19.5321 3.02015 19.9801 3.43063 20.3989C3.45884 20.4274 3.48649 20.4558 3.5147 20.4861C4.81081 21.7835 6.3867 22.7671 8.12163 23.3613V7.6185C8.12209 6.5529 8.5457 5.5311 9.29935 4.77777C10.053 4.02444 11.075 3.60124 12.1406 3.60124H14.5358V0.268512C13.7023 0.0899874 12.8523 -1.54562e-05 11.9999 1.9909e-09Z" fill="#003572"/>
</g>
</svg>
