<svg width="24" height="25" viewBox="0 0 24 25" fill="none" xmlns="http://www.w3.org/2000/svg">
<path d="M10.0495 3.03126L4.02953 6.96126C2.09953 8.22126 2.09953 11.0413 4.02953 12.3013L10.0495 16.2313C11.1295 16.9413 12.9095 16.9413 13.9895 16.2313L19.9795 12.3013C21.8995 11.0413 21.8995 8.23126 19.9795 6.97126L13.9895 3.04126C12.9095 2.32126 11.1295 2.32126 10.0495 3.03126Z" stroke="#077397" stroke-width="1.5" stroke-linecap="round" stroke-linejoin="round"/>
<path d="M5.62914 13.5781L5.61914 18.2681C5.61914 19.5381 6.59914 20.8981 7.79914 21.2981L10.9891 22.3581C11.5391 22.5381 12.4491 22.5381 13.0091 22.3581L16.1991 21.2981C17.3991 20.8981 18.3791 19.5381 18.3791 18.2681V13.6281" stroke="#077397" stroke-width="1.5" stroke-linecap="round" stroke-linejoin="round"/>
<path d="M21.4004 15.5V9.5" stroke="#077397" stroke-width="1.5" stroke-linecap="round" stroke-linejoin="round"/>
</svg>
