<svg width="56" height="48" viewBox="0 0 56 48" fill="none" xmlns="http://www.w3.org/2000/svg">
<g filter="url(#filter0_b_4370_54103)">
<path d="M24 14V17" stroke="#9CA1AB" stroke-width="1.5" stroke-miterlimit="10" stroke-linecap="round" stroke-linejoin="round"/>
<path d="M32 14V17" stroke="#9CA1AB" stroke-width="1.5" stroke-miterlimit="10" stroke-linecap="round" stroke-linejoin="round"/>
<path d="M19.5 21.0938H36.5" stroke="#9CA1AB" stroke-width="1.5" stroke-miterlimit="10" stroke-linecap="round" stroke-linejoin="round"/>
<path d="M37 20.5V29C37 32 35.5 34 32 34H24C20.5 34 19 32 19 29V20.5C19 17.5 20.5 15.5 24 15.5H32C35.5 15.5 37 17.5 37 20.5Z" stroke="#9CA1AB" stroke-width="1.5" stroke-miterlimit="10" stroke-linecap="round" stroke-linejoin="round"/>
<path d="M31.6937 25.7031H31.7027" stroke="#9CA1AB" stroke-width="2" stroke-linecap="round" stroke-linejoin="round"/>
<path d="M31.6937 28.7031H31.7027" stroke="#9CA1AB" stroke-width="2" stroke-linecap="round" stroke-linejoin="round"/>
<path d="M27.9945 25.7031H28.0035" stroke="#9CA1AB" stroke-width="2" stroke-linecap="round" stroke-linejoin="round"/>
<path d="M27.9945 28.7031H28.0035" stroke="#9CA1AB" stroke-width="2" stroke-linecap="round" stroke-linejoin="round"/>
<path d="M24.2953 25.7031H24.3043" stroke="#9CA1AB" stroke-width="2" stroke-linecap="round" stroke-linejoin="round"/>
<path d="M24.2953 28.7031H24.3043" stroke="#9CA1AB" stroke-width="2" stroke-linecap="round" stroke-linejoin="round"/>
</g>
<defs>
<filter id="filter0_b_4370_54103" x="-150" y="-150" width="580" height="348" filterUnits="userSpaceOnUse" color-interpolation-filters="sRGB">
<feFlood flood-opacity="0" result="BackgroundImageFix"/>
<feGaussianBlur in="BackgroundImageFix" stdDeviation="75"/>
<feComposite in2="SourceAlpha" operator="in" result="effect1_backgroundBlur_4370_54103"/>
<feBlend mode="normal" in="SourceGraphic" in2="effect1_backgroundBlur_4370_54103" result="shape"/>
</filter>
</defs>
</svg>
