<svg width="24" height="25" viewBox="0 0 24 25" fill="none" xmlns="http://www.w3.org/2000/svg">
<g clip-path="url(#clip0_2_61)">
<mask id="mask0_2_61" style="mask-type:luminance" maskUnits="userSpaceOnUse" x="0" y="0" width="24" height="25">
<path d="M0 2.5C0 1.39543 0.895431 0.5 2 0.5H22C23.1046 0.5 24 1.39543 24 2.5V22.5C24 23.6046 23.1046 24.5 22 24.5H2C0.89543 24.5 0 23.6046 0 22.5V2.5Z" fill="white"/>
</mask>
<g mask="url(#mask0_2_61)">
<path d="M24 0.5H0V24.5H24V0.5Z" fill="#E1EEF2"/>
<path d="M6.67791 15.8665H10.3839V16H5.86115V8.27274H10.3327V8.40625H6.67791H6.17791V8.90625V11.5653V12.0653H6.67791H10.0472V12.1946H6.67791H6.17791V12.6946V15.3665V15.8665H6.67791ZM18.8317 14.1818V8.27274H19.1357V16H18.6872L14.4002 9.81459L14.2511 9.59941H13.9893H13.9084H13.4084V10.0994V16H13.0916V8.27274H13.5485L17.8397 14.4666L17.9888 14.6818H18.2507H18.3317H18.8317V14.1818Z" fill="#E1EEF2" stroke="#077397"/>
</g>
</g>
<defs>
<clipPath id="clip0_2_61">
<rect width="24" height="25" fill="white"/>
</clipPath>
</defs>
</svg>
