<svg width="24" height="25" viewBox="0 0 24 25" fill="none" xmlns="http://www.w3.org/2000/svg">
<g clip-path="url(#clip0_2_54)">
<mask id="mask0_2_54" style="mask-type:luminance" maskUnits="userSpaceOnUse" x="0" y="0" width="24" height="25">
<path d="M0 2.5C0 1.39543 0.895431 0.5 2 0.5H22C23.1046 0.5 24 1.39543 24 2.5V22.5C24 23.6046 23.1046 24.5 22 24.5H2C0.89543 24.5 0 23.6046 0 22.5V2.5Z" fill="white"/>
</mask>
<g mask="url(#mask0_2_54)">
<path d="M24 0.5H0V24.5H24V0.5Z" fill="black" fill-opacity="0.03"/>
<path d="M5.36115 16.5V7.77274H10.8327V8.90626H6.67791V11.5653H10.5472V12.6946H6.67791V15.3665H10.8839V16.5H5.36115ZM19.6357 7.77274V16.5H18.4254L13.9893 10.0994H13.9084V16.5H12.5916V7.77274H13.8104L18.2507 14.1818H18.3317V7.77274H19.6357Z" fill="#9CA1AB"/>
</g>
</g>
<defs>
<clipPath id="clip0_2_54">
<rect width="24" height="25" fill="white"/>
</clipPath>
</defs>
</svg>
