<svg width="56" height="48" viewBox="0 0 56 48" fill="none" xmlns="http://www.w3.org/2000/svg">
<g filter="url(#filter0_b_4370_53866)">
<path d="M22.7 30.75H20.15C18.31 30.75 17.25 29.69 17.25 27.85V16.15C17.25 14.31 18.31 13.25 20.15 13.25H24.45C26.29 13.25 27.35 14.31 27.35 16.15V18C27.35 18.41 27.01 18.75 26.6 18.75C26.19 18.75 25.85 18.41 25.85 18V16.15C25.85 15.13 25.47 14.75 24.45 14.75H20.15C19.13 14.75 18.75 15.13 18.75 16.15V27.85C18.75 28.87 19.13 29.25 20.15 29.25H22.7C23.11 29.25 23.45 29.59 23.45 30C23.45 30.41 23.11 30.75 22.7 30.75Z" fill="#9CA1AB"/>
<path d="M30.9592 34.75H25.1192C23.1092 34.75 21.9492 33.59 21.9492 31.58V20.42C21.9492 18.41 23.1092 17.25 25.1192 17.25H30.9592C32.9692 17.25 34.1192 18.41 34.1192 20.42V31.58C34.1192 33.59 32.9692 34.75 30.9592 34.75ZM25.1192 18.75C23.9192 18.75 23.4492 19.22 23.4492 20.42V31.58C23.4492 32.78 23.9192 33.25 25.1192 33.25H30.9592C32.1492 33.25 32.6192 32.78 32.6192 31.58V20.42C32.6192 19.22 32.1492 18.75 30.9592 18.75H25.1192Z" fill="#9CA1AB"/>
<path d="M35.8503 30.75H33.3704C32.9604 30.75 32.6204 30.41 32.6204 30C32.6204 29.59 32.9604 29.25 33.3704 29.25H35.8503C36.8703 29.25 37.2504 28.87 37.2504 27.85V16.15C37.2504 15.13 36.8703 14.75 35.8503 14.75H31.5504C30.5304 14.75 30.1504 15.13 30.1504 16.15V18C30.1504 18.41 29.8104 18.75 29.4004 18.75C28.9904 18.75 28.6504 18.41 28.6504 18V16.15C28.6504 14.31 29.7104 13.25 31.5504 13.25H35.8503C37.6903 13.25 38.7504 14.31 38.7504 16.15V27.85C38.7504 29.69 37.6903 30.75 35.8503 30.75Z" fill="#9CA1AB"/>
<path d="M30 23.75H26C25.59 23.75 25.25 23.41 25.25 23C25.25 22.59 25.59 22.25 26 22.25H30C30.41 22.25 30.75 22.59 30.75 23C30.75 23.41 30.41 23.75 30 23.75Z" fill="#9CA1AB"/>
<path d="M30 26.75H26C25.59 26.75 25.25 26.41 25.25 26C25.25 25.59 25.59 25.25 26 25.25H30C30.41 25.25 30.75 25.59 30.75 26C30.75 26.41 30.41 26.75 30 26.75Z" fill="#9CA1AB"/>
<path d="M28 34.75C27.59 34.75 27.25 34.41 27.25 34V31C27.25 30.59 27.59 30.25 28 30.25C28.41 30.25 28.75 30.59 28.75 31V34C28.75 34.41 28.41 34.75 28 34.75Z" fill="#9CA1AB"/>
</g>
<defs>
<filter id="filter0_b_4370_53866" x="-150" y="-150" width="580" height="348" filterUnits="userSpaceOnUse" color-interpolation-filters="sRGB">
<feFlood flood-opacity="0" result="BackgroundImageFix"/>
<feGaussianBlur in="BackgroundImageFix" stdDeviation="75"/>
<feComposite in2="SourceAlpha" operator="in" result="effect1_backgroundBlur_4370_53866"/>
<feBlend mode="normal" in="SourceGraphic" in2="effect1_backgroundBlur_4370_53866" result="shape"/>
</filter>
</defs>
</svg>
