<svg width="24" height="25" viewBox="0 0 24 25" fill="none" xmlns="http://www.w3.org/2000/svg">
<path opacity="0.4" d="M9 7.7V17.29C9 20.5 11 22.5 14.2 22.5H16.79C19.99 22.5 21.99 20.5 21.99 17.3V7.7C22 4.5 20 2.5 16.8 2.5H14.2C11 2.5 9 4.5 9 7.7Z" fill="#4B586E"/>
<path d="M5.56945 8.61953L2.21945 11.9695C1.92945 12.2595 1.92945 12.7395 2.21945 13.0295L5.56945 16.3795C5.85945 16.6695 6.33945 16.6695 6.62945 16.3795C6.91945 16.0895 6.91945 15.6095 6.62945 15.3195L4.55945 13.2495H15.2495C15.6595 13.2495 15.9995 12.9095 15.9995 12.4995C15.9995 12.0895 15.6595 11.7495 15.2495 11.7495H4.55945L6.62945 9.67953C6.77945 9.52953 6.84945 9.33953 6.84945 9.14953C6.84945 8.95953 6.77945 8.75953 6.62945 8.61953C6.33945 8.31953 5.86945 8.31953 5.56945 8.61953Z" fill="#4B586E"/>
</svg>
