<svg width="24" height="25" viewBox="0 0 24 25" fill="none" xmlns="http://www.w3.org/2000/svg">
<mask id="mask0_7_56" style="mask-type:luminance" maskUnits="userSpaceOnUse" x="0" y="0" width="24" height="25">
<path d="M0 2.5C0 1.39543 0.895431 0.5 2 0.5H22C23.1046 0.5 24 1.39543 24 2.5V22.5C24 23.6046 23.1046 24.5 22 24.5H2C0.89543 24.5 0 23.6046 0 22.5V2.5Z" fill="white"/>
</mask>
<g mask="url(#mask0_7_56)">
<path d="M24 0.5H0V24.5H24V0.5Z" fill="#E1EEF2"/>
<path d="M10.0195 10.0653C9.97409 9.66193 9.78659 9.34943 9.45704 9.12784C9.1275 8.90341 8.71272 8.79119 8.21272 8.79119C7.85477 8.79119 7.54511 8.84801 7.28375 8.96165C7.02238 9.07244 6.81926 9.22585 6.67437 9.42188C6.53233 9.61506 6.4613 9.83523 6.4613 10.0824C6.4613 10.2898 6.5096 10.4687 6.60619 10.6193C6.70562 10.7699 6.83488 10.8963 6.99397 10.9986C7.1559 11.098 7.3292 11.1818 7.51386 11.25C7.69852 11.3153 7.87608 11.3693 8.04653 11.4119L8.8988 11.6335C9.17721 11.7017 9.46272 11.794 9.75534 11.9105C10.0479 12.027 10.3192 12.1804 10.5692 12.3707C10.8192 12.5611 11.021 12.7969 11.1744 13.0781C11.3306 13.3594 11.4087 13.696 11.4087 14.0881C11.4087 14.5824 11.2809 15.0213 11.0252 15.4048C10.7724 15.7884 10.4045 16.0909 9.92153 16.3125C9.44142 16.5341 8.86045 16.6449 8.17863 16.6449C7.52522 16.6449 6.95988 16.5412 6.48261 16.3338C6.00534 16.1264 5.63176 15.8324 5.36187 15.4517C5.09198 15.0682 4.94284 14.6136 4.91443 14.0881H6.23545C6.26102 14.4034 6.36329 14.6662 6.54227 14.8764C6.72409 15.0838 6.95562 15.2386 7.23687 15.3409C7.52096 15.4403 7.83204 15.4901 8.17011 15.4901C8.54227 15.4901 8.87323 15.4318 9.16301 15.3153C9.45562 15.196 9.68573 15.0312 9.85335 14.821C10.021 14.608 10.1048 14.3594 10.1048 14.0753C10.1048 13.8168 10.0309 13.6051 9.88318 13.4403C9.73829 13.2756 9.54085 13.1392 9.29085 13.0312C9.04369 12.9233 8.76386 12.8281 8.45136 12.7457L7.42011 12.4645C6.72125 12.2741 6.16727 11.9943 5.75818 11.625C5.35193 11.2557 5.1488 10.767 5.1488 10.1591C5.1488 9.65625 5.28517 9.21733 5.55789 8.84233C5.83062 8.46733 6.19994 8.17614 6.66585 7.96875C7.13176 7.75852 7.65733 7.65341 8.24255 7.65341C8.83346 7.65341 9.35477 7.7571 9.80647 7.96449C10.261 8.17188 10.619 8.45739 10.8803 8.82102C11.1417 9.18182 11.2781 9.59659 11.2894 10.0653H10.0195ZM12.9822 16.5V7.77273H16.093C16.772 7.77273 17.3345 7.89631 17.7805 8.14347C18.2266 8.39062 18.5604 8.72869 18.782 9.15767C19.0036 9.58381 19.1143 10.0639 19.1143 10.598C19.1143 11.1349 19.0021 11.6179 18.7777 12.0469C18.5561 12.473 18.2209 12.8111 17.772 13.0611C17.326 13.3082 16.7649 13.4318 16.0888 13.4318H13.9496V12.3153H15.9695C16.3984 12.3153 16.7464 12.2415 17.0135 12.0938C17.2805 11.9432 17.4766 11.7386 17.6016 11.4801C17.7266 11.2216 17.7891 10.9276 17.7891 10.598C17.7891 10.2685 17.7266 9.97585 17.6016 9.72017C17.4766 9.46449 17.2791 9.2642 17.0092 9.11932C16.7422 8.97443 16.3899 8.90199 15.9524 8.90199H14.299V16.5H12.9822Z" fill="#077397"/>
</g>
</svg>
