<svg width="24" height="25" viewBox="0 0 24 25" fill="none" xmlns="http://www.w3.org/2000/svg">
<g clip-path="url(#clip0_5367_29586)">
<rect width="24" height="24" transform="translate(0 0.5)" fill="black" fill-opacity="0.03"/>
<path d="M10.0195 10.0653C9.97408 9.66193 9.78658 9.34943 9.45703 9.12784C9.12749 8.90341 8.71271 8.79119 8.21271 8.79119C7.85476 8.79119 7.5451 8.84801 7.28374 8.96165C7.02237 9.07244 6.81925 9.22585 6.67436 9.42188C6.53232 9.61506 6.46129 9.83523 6.46129 10.0824C6.46129 10.2898 6.50959 10.4687 6.60618 10.6193C6.70561 10.7699 6.83487 10.8963 6.99396 10.9986C7.15589 11.098 7.32919 11.1818 7.51385 11.25C7.69851 11.3153 7.87607 11.3693 8.04652 11.4119L8.89879 11.6335C9.1772 11.7017 9.46271 11.794 9.75533 11.9105C10.0479 12.027 10.3192 12.1804 10.5692 12.3707C10.8192 12.5611 11.021 12.7969 11.1744 13.0781C11.3306 13.3594 11.4087 13.696 11.4087 14.0881C11.4087 14.5824 11.2809 15.0213 11.0252 15.4048C10.7724 15.7884 10.4045 16.0909 9.92152 16.3125C9.44141 16.5341 8.86044 16.6449 8.17862 16.6449C7.52521 16.6449 6.95987 16.5412 6.4826 16.3338C6.00533 16.1264 5.63175 15.8324 5.36186 15.4517C5.09197 15.0682 4.94283 14.6136 4.91442 14.0881H6.23544C6.26101 14.4034 6.36328 14.6662 6.54226 14.8764C6.72408 15.0838 6.95561 15.2386 7.23686 15.3409C7.52095 15.4403 7.83203 15.4901 8.1701 15.4901C8.54226 15.4901 8.87322 15.4318 9.163 15.3153C9.45561 15.196 9.68572 15.0312 9.85334 14.821C10.021 14.608 10.1048 14.3594 10.1048 14.0753C10.1048 13.8168 10.0309 13.6051 9.88317 13.4403C9.73828 13.2756 9.54084 13.1392 9.29084 13.0312C9.04368 12.9233 8.76385 12.8281 8.45135 12.7457L7.4201 12.4645C6.72124 12.2741 6.16726 11.9943 5.75817 11.625C5.35192 11.2557 5.14879 10.767 5.14879 10.1591C5.14879 9.65625 5.28516 9.21733 5.55788 8.84233C5.83061 8.46733 6.19993 8.17614 6.66584 7.96875C7.13175 7.75852 7.65732 7.65341 8.24254 7.65341C8.83345 7.65341 9.35476 7.7571 9.80646 7.96449C10.261 8.17188 10.619 8.45739 10.8803 8.82102C11.1417 9.18182 11.2781 9.59659 11.2894 10.0653H10.0195ZM12.9822 16.5V7.77273H16.093C16.772 7.77273 17.3345 7.89631 17.7805 8.14347C18.2266 8.39062 18.5604 8.72869 18.782 9.15767C19.0036 9.58381 19.1143 10.0639 19.1143 10.598C19.1143 11.1349 19.0021 11.6179 18.7777 12.0469C18.5561 12.473 18.2209 12.8111 17.772 13.0611C17.326 13.3082 16.7649 13.4318 16.0888 13.4318H13.9496V12.3153H15.9695C16.3984 12.3153 16.7464 12.2415 17.0135 12.0938C17.2805 11.9432 17.4766 11.7386 17.6016 11.4801C17.7266 11.2216 17.7891 10.9276 17.7891 10.598C17.7891 10.2685 17.7266 9.97585 17.6016 9.72017C17.4766 9.46449 17.2791 9.2642 17.0092 9.11932C16.7422 8.97443 16.3899 8.90199 15.9524 8.90199H14.299V16.5H12.9822Z" fill="#9CA1AB"/>
</g>
<defs>
<clipPath id="clip0_5367_29586">
<path d="M0 2.5C0 1.39543 0.895431 0.5 2 0.5H22C23.1046 0.5 24 1.39543 24 2.5V22.5C24 23.6046 23.1046 24.5 22 24.5H2C0.89543 24.5 0 23.6046 0 22.5V2.5Z" fill="white"/>
</clipPath>
</defs>
</svg>
