<svg width="24" height="24" viewBox="0 0 24 24" fill="none" xmlns="http://www.w3.org/2000/svg">
<g clip-path="url(#clip0_2_68)">
<mask id="mask0_2_68" style="mask-type:luminance" maskUnits="userSpaceOnUse" x="0" y="0" width="24" height="24">
<path d="M24 0H0V24H24V0Z" fill="white"/>
</mask>
<g mask="url(#mask0_2_68)">
<mask id="mask1_2_68" style="mask-type:luminance" maskUnits="userSpaceOnUse" x="0" y="0" width="24" height="24">
<path d="M0 2.4C0 1.3396 0.895431 0.479996 2 0.479996H22C23.1046 0.479996 24 1.3396 24 2.4V21.6C24 22.6604 23.1046 23.52 22 23.52H2C0.89543 23.52 0 22.6604 0 21.6V2.4Z" fill="white"/>
</mask>
<g mask="url(#mask1_2_68)">
<path d="M24 0.479996H0V23.52H24V0.479996Z" fill="black" fill-opacity="0.03"/>
</g>
</g>
<path d="M5.03871 17V7.54545H10.9663V8.77344H6.4652V11.6541H10.657V12.8775H6.4652V15.772H11.0217V17H5.03871ZM12.4055 8.77344V7.54545H19.7226V8.77344H16.7726V17H15.3508V8.77344H12.4055Z" fill="#9CA1AB"/>
</g>
<defs>
<clipPath id="clip0_2_68">
<rect width="24" height="24" fill="white"/>
</clipPath>
</defs>
</svg>
