<svg width="24" height="25" viewBox="0 0 24 25" fill="none" xmlns="http://www.w3.org/2000/svg">
<path d="M17 20.8672H7C2.59 20.8672 1.25 19.5272 1.25 15.1172V14.6172C1.25 14.2072 1.59 13.8672 2 13.8672C2.96 13.8672 3.75 13.0772 3.75 12.1172C3.75 11.1572 2.96 10.3672 2 10.3672C1.59 10.3672 1.25 10.0272 1.25 9.61719V9.11719C1.25 4.70719 2.59 3.36719 7 3.36719H17C21.41 3.36719 22.75 4.70719 22.75 9.11719V10.1172C22.75 10.5272 22.41 10.8672 22 10.8672C21.04 10.8672 20.25 11.6572 20.25 12.6172C20.25 13.5772 21.04 14.3672 22 14.3672C22.41 14.3672 22.75 14.7072 22.75 15.1172C22.75 19.5272 21.41 20.8672 17 20.8672ZM2.75 15.2772C2.77 18.7172 3.48 19.3672 7 19.3672H17C20.34 19.3672 21.15 18.7772 21.24 15.7772C19.81 15.4372 18.75 14.1472 18.75 12.6172C18.75 11.0872 19.82 9.79719 21.25 9.45719V9.11719C21.25 5.54719 20.57 4.86719 17 4.86719H7C3.48 4.86719 2.77 5.51719 2.75 8.95719C4.18 9.29719 5.25 10.5872 5.25 12.1172C5.25 13.6472 4.18 14.9372 2.75 15.2772Z" fill="#9CA1AB"/>
<path d="M15.0002 15.9972C14.4402 15.9972 13.9902 15.5472 13.9902 14.9972C13.9902 14.4472 14.4402 13.9972 14.9902 13.9972C15.5402 13.9972 15.9902 14.4472 15.9902 14.9972C15.9902 15.5472 15.5602 15.9972 15.0002 15.9972Z" fill="#9CA1AB"/>
<path d="M9.00023 10.9972C8.44023 10.9972 7.99023 10.5472 7.99023 9.99719C7.99023 9.44719 8.44023 8.99719 8.99023 8.99719C9.54023 8.99719 9.99023 9.44719 9.99023 9.99719C9.99023 10.5472 9.56023 10.9972 9.00023 10.9972Z" fill="#9CA1AB"/>
<path d="M8.63031 16.5472C8.44031 16.5472 8.25031 16.4772 8.10031 16.3272C7.81031 16.0372 7.81031 15.5572 8.10031 15.2672L14.8303 8.5372C15.1203 8.2472 15.6003 8.2472 15.8903 8.5372C16.1803 8.8272 16.1803 9.3072 15.8903 9.5972L9.16031 16.3272C9.02031 16.4772 8.82031 16.5472 8.63031 16.5472Z" fill="#9CA1AB"/>
</svg>
